M48
;Layer_Color=9474304
;FILE_FORMAT=4:3
METRIC,LZ
;TYPE=PLATED
T1F00S00C0.500
T3F00S00C0.600
T4F00S00C0.600
T5F00S00C0.711
T6F00S00C0.762
T7F00S00C0.813
T8F00S00C0.850
T9F00S00C0.914
T10F00S00C0.950
T11F00S00C1.000
T12F00S00C1.020
T13F00S00C1.200
T14F00S00C3.048
T15F00S00C3.048
;TYPE=NON_PLATED
%
T01
X0083591Y005402
Y0055275
T03
X0083267Y0031009
Y0032259
Y0033509
Y0036009
Y0037259
T04
X0083267Y0034759
T05
X0028397Y0010516
X0041707Y0010973
X0043028Y0012268
X0046101Y001049
X0072034Y0018364
Y0020904
Y0023444
X0075489Y0023774
X0073304Y0031725
X0070866Y0034519
X0066802Y0042469
X0074727Y0043485
X006096Y0020625
X004765Y0022174
X0043891Y0021946
X0030937Y0020752
X003142Y0036678
X0029134Y0040919
X0024968Y0041732
X0025425Y0051587
X0027762Y0051486
X0029134Y0054534
X002728Y0055931
X0029312Y0057607
X0035585Y0057556
X0031115Y0052972
X0036754Y0048412
X004097Y0047117
X0042342Y0044425
X004445Y0044374
X0050241Y0042418
X0053696Y0040386
X0056858Y0045136
X0036627Y0033757
X0013919Y0038329
X0006071Y0036093
X0007544Y0032461
X0009931Y0024867
X0009398Y0055702
X0018263Y0051308
X0016866Y0071298
X0017475Y0075514
X0011582Y0075387
X0011405Y0079045
X0012065Y0080696
X0006909Y008189
X0006198Y0080188
X0005156Y0074879
X0005232Y0073101
Y006604
X0004064Y0061976
X0019558Y0072136
X0022428Y0074574
X0022581Y007686
X0024372Y007347
X0032614Y0075108
X0032131Y0077165
X0038202Y007968
X0040284Y0079858
X0041808Y0079553
X0045314Y0079858
X0045009Y0069672
X0037389Y0070358
Y0072695
X0034671Y0066954
X0032461Y0061671
X0035636Y005969
X0083896Y0060808
X0084171Y0064994
X0083896Y0069926
X0079172Y0070994
X0083972Y0076124
X0078003Y0083185
X006698Y0078588
T06
X0076632Y0021387
X0081178Y0038506
X0079934Y0040411
X0062332Y0036449
X0045669Y0034595
X0046025Y0032233
X0045491Y0038862
X0045187Y0040869
X001491Y0064287
T07
X007907Y0014453
X0079146Y0017399
X0086766
X008669Y0014453
X0086589Y0020625
X0078969
X0039192Y0024562
X0034671Y0024943
X0031598Y0024714
X0031648Y0029362
X0031623Y0033731
X0034671Y0032563
X0039192Y0032182
X0039167Y0038862
X0036347Y0036779
X0033147Y003843
X0025527
X0024003Y0033731
X0024028Y0029362
X0023978Y0024714
X0036347Y0044399
X0039167Y0046482
X0011449Y0037045
Y0035045
X0009449
Y0037045
Y0033045
X0011449
Y0031045
Y0029045
X0009449
Y0031045
X0006159Y002612
X0003899
Y003997
X0006159
T08
X0009169Y0005004
X0016789
T09
X0083922Y0024562
X0085192
X0086462
X0021666Y0027
X0020396
X0019126
Y0031572
X0020396
X0021666
X0021615Y0036043
X0020345
X0019075
Y0040589
X0020345
X0021615
X0017501Y0083744
X0014961
X0012421
Y0086284
Y0088824
Y0091364
X0014961
Y0088824
Y0086284
X0017501
Y0088824
Y0091364
X0020041
Y0088824
Y0086284
Y0083744
X0022581
Y0086284
Y0088824
Y0091364
X0025121
Y0088824
Y0086284
Y0083744
X0027661
Y0086284
Y0088824
Y0091364
X0030201
Y0088824
Y0086284
Y0083744
X0032741
Y0086284
Y0088824
Y0091364
X0035281
Y0088824
Y0086284
Y0083744
X0037821
X0040361
Y0086284
Y0088824
X0037821
Y0091364
X0040361
X0042901
Y0088824
Y0086284
Y0083744
X0045441
Y0086284
Y0088824
Y0091364
X0047981
Y0088824
Y0086284
Y0083744
X0050521
Y0086284
Y0088824
Y0091364
X0053061
Y0088824
Y0086284
Y0083744
X0055601
Y0086284
Y0088824
Y0091364
X0058141
Y0088824
Y0086284
Y0083744
X0037821Y0086284
X0060681
Y0083744
X0063221
Y0086284
Y0088824
X0060681
Y0091364
X0063221
X0065761
Y0088824
Y0086284
Y0083744
X0068301
Y0086284
Y0088824
Y0091364
X0070841
Y0088824
Y0086284
Y0083744
X0073381
Y0086284
Y0088824
Y0091364
X0075921
Y0088824
Y0086284
Y0083744
T10
X0036627Y0012929
Y0015469
X0064541Y0040208
X0067081
X0081153Y0047371
Y0049911
X0017272Y0057861
X0014732
X0014808Y0061671
X0017348
X0017069Y0067259
X0014529
X0037313Y0067005
X0039853
X0040996Y0059487
X0038456
X006858Y0080162
X007112
X0079756Y0083947
Y0086487
T11
X0064745Y0055143
X0058623Y0055016
T12
X0016561Y001205
Y001555
Y001905
T13
X006627Y0013183
X00714
X007653
T14
X0008651Y001555
T15
X0003526Y0005479
X0083526
X0007326Y0091179
X0081026
M30
