G04 Layer_Color=32896*
%FSLAX43Y43*%
%MOMM*%
G71*
G01*
G75*
%ADD22C,0.762*%
%ADD23C,0.762*%
%ADD42C,0.254*%
%ADD64C,0.127*%
D22*
X3439Y925D02*
G03*
X3439Y924I270J269D01*
G01*
X3464Y899D02*
G03*
X3734Y787I270J269D01*
G01*
X305Y4216D02*
G03*
X417Y3947I381J0D01*
G01*
X305Y4216D02*
G03*
X416Y3947I381J0D01*
G01*
X3464Y899D02*
G03*
X3734Y787I269J269D01*
G01*
X416Y90236D02*
G03*
X305Y89967I269J-269D01*
G01*
X417Y90237D02*
G03*
X305Y89967I269J-270D01*
G01*
X4775Y94437D02*
G03*
X4505Y94325I0J-381D01*
G01*
X4775Y94437D02*
G03*
X4506Y94326I0J-381D01*
G01*
X85700Y787D02*
G03*
X85969Y899I0J381D01*
G01*
X85700Y787D02*
G03*
X85969Y899I0J381D01*
G01*
X90058Y4988D02*
G03*
X90170Y5258I-269J270D01*
G01*
X90058Y4988D02*
G03*
X90170Y5258I-269J269D01*
G01*
X88153Y94376D02*
G03*
X87694Y94437I-269J-269D01*
G01*
X88154Y94376D02*
G03*
X87694Y94437I-270J-269D01*
G01*
X90170Y92202D02*
G03*
X90058Y92471I-381J0D01*
G01*
X90170Y92202D02*
G03*
X90058Y92472I-381J0D01*
G01*
X3464Y899D02*
X3464Y899D01*
X3439Y924D02*
X3464Y899D01*
X3439Y924D02*
X3439Y924D01*
X3439Y925D02*
X3439Y924D01*
X417Y3947D02*
X3439Y925D01*
X416Y3947D02*
X417Y3947D01*
X3734Y787D02*
X84506D01*
X305Y4216D02*
Y89967D01*
X416Y90236D02*
X417Y90237D01*
X4505Y94325D01*
X4506Y94326D01*
X4775Y94437D02*
X4801D01*
X87694D01*
X84506Y787D02*
X85700D01*
X85969Y899D02*
X85969Y899D01*
X90058Y4988D01*
X90058Y4988D01*
X90170Y5258D02*
Y91821D01*
Y92202D01*
X90058Y92472D02*
X90058Y92471D01*
X88154Y94376D02*
X90058Y92472D01*
X88153Y94376D02*
X88154Y94376D01*
D23*
X3439Y924D02*
D03*
D42*
X71370Y81462D02*
X72395D01*
X72420Y81437D01*
X67570Y81462D02*
X67645Y81387D01*
X67570Y81462D02*
X68195D01*
X68220Y81437D01*
X68445D01*
X67645Y78962D02*
Y81387D01*
Y78962D02*
X68445D01*
X72395Y79112D02*
Y81462D01*
X72320Y79037D02*
X72395Y79112D01*
X71520Y79037D02*
X72320D01*
X63266Y38908D02*
X64291D01*
X63241Y38933D02*
X63266Y38908D01*
X68016Y38983D02*
X68091Y38908D01*
X67466D02*
X68091D01*
X67441Y38933D02*
X67466Y38908D01*
X67216Y38933D02*
X67441D01*
X68016Y38983D02*
Y41408D01*
X67216D02*
X68016D01*
X63266Y38908D02*
Y41258D01*
X63341Y41333D01*
X64141D01*
X17598Y62971D02*
X18623D01*
X18648Y62946D01*
X13798Y62971D02*
X13873Y62896D01*
X13798Y62971D02*
X14423D01*
X14448Y62946D01*
X14673D01*
X13873Y60471D02*
Y62896D01*
Y60471D02*
X14673D01*
X18623Y60621D02*
Y62971D01*
X18548Y60546D02*
X18623Y60621D01*
X17748Y60546D02*
X18548D01*
D64*
X14097Y63754D02*
X13843D01*
X13970D01*
Y64389D01*
X13843Y64516D01*
X13716D01*
X13589Y64389D01*
X14351Y63754D02*
Y64389D01*
X14478Y64516D01*
X14732D01*
X14859Y64389D01*
Y63754D01*
X15113Y64516D02*
Y63754D01*
X15366Y64008D01*
X15620Y63754D01*
Y64516D01*
X15874D02*
Y63754D01*
X16255D01*
X16382Y63881D01*
Y64135D01*
X16255Y64262D01*
X15874D01*
X17144Y63754D02*
X16636D01*
Y64135D01*
X16890Y64008D01*
X17017D01*
X17144Y64135D01*
Y64389D01*
X17017Y64516D01*
X16763D01*
X16636Y64389D01*
X62992Y37516D02*
X62738D01*
X62865D01*
Y38151D01*
X62738Y38278D01*
X62611D01*
X62484Y38151D01*
X63246Y37516D02*
Y38151D01*
X63373Y38278D01*
X63627D01*
X63754Y38151D01*
Y37516D01*
X64008Y38278D02*
Y37516D01*
X64261Y37770D01*
X64515Y37516D01*
Y38278D01*
X64769D02*
Y37516D01*
X65150D01*
X65277Y37643D01*
Y37897D01*
X65150Y38024D01*
X64769D01*
X65912Y38278D02*
Y37516D01*
X65531Y37897D01*
X66039D01*
X69037Y77699D02*
X68783D01*
X68910D01*
Y78334D01*
X68783Y78461D01*
X68656D01*
X68529Y78334D01*
X69291Y77699D02*
Y78334D01*
X69418Y78461D01*
X69672D01*
X69799Y78334D01*
Y77699D01*
X70053Y78461D02*
Y77699D01*
X70307Y77953D01*
X70561Y77699D01*
Y78461D01*
X70814D02*
Y77699D01*
X71195D01*
X71322Y77826D01*
Y78080D01*
X71195Y78207D01*
X70814D01*
X71576Y77826D02*
X71703Y77699D01*
X71957D01*
X72084Y77826D01*
Y77953D01*
X71957Y78080D01*
X71830D01*
X71957D01*
X72084Y78207D01*
Y78334D01*
X71957Y78461D01*
X71703D01*
X71576Y78334D01*
M02*
