G04 Layer_Color=16711935*
%FSLAX25Y25*%
%MOIN*%
G70*
G01*
G75*
%ADD51C,0.00394*%
D51*
X224299Y149701D02*
G03*
X224299Y149701I-1969J0D01*
G01*
X242441Y139252D02*
X247559D01*
X242441Y150748D02*
X247559D01*
Y139252D02*
Y150748D01*
X242441Y139252D02*
Y150748D01*
X192933Y94917D02*
Y97083D01*
X197067Y94917D02*
Y97083D01*
X192933D02*
X197067D01*
X192933Y94917D02*
X197067D01*
X143000Y92583D02*
X183000D01*
Y115417D01*
X143000D02*
X183000D01*
X143000Y92583D02*
Y115417D01*
X186307Y149457D02*
X199693D01*
X186307Y156543D02*
X199693D01*
Y149457D02*
Y156543D01*
X186307Y149457D02*
Y156543D01*
X193555Y162130D02*
Y165870D01*
X200445Y162130D02*
Y165870D01*
X193555D02*
X200445D01*
X193555Y162130D02*
X200445D01*
X144378Y238992D02*
X149496D01*
X144378Y250488D02*
X149496D01*
Y238992D02*
Y250488D01*
X144378Y238992D02*
Y250488D01*
X208701Y258126D02*
X232697D01*
X208701Y283874D02*
X232697D01*
Y258126D02*
Y283874D01*
X208701Y258126D02*
Y283874D01*
X165646Y233236D02*
X176354D01*
X165646Y212764D02*
Y233236D01*
X176354Y212764D02*
Y233236D01*
X165646Y212764D02*
X176354D01*
X255417Y197000D02*
Y237000D01*
X232583D02*
X255417D01*
X232583Y197000D02*
Y237000D01*
Y197000D02*
X255417D01*
X146701Y166126D02*
X170697D01*
X146701Y191874D02*
X170697D01*
Y166126D02*
Y191874D01*
X146701Y166126D02*
Y191874D01*
X225874Y146158D02*
Y165842D01*
X210126Y146158D02*
Y165842D01*
Y146158D02*
X225874D01*
X210126Y165842D02*
X225874D01*
M02*
