G04 Layer_Color=32768*
%FSLAX25Y25*%
%MOIN*%
G70*
G01*
G75*
%ADD51C,0.00394*%
%ADD52C,0.00197*%
D51*
X245000Y143032D02*
Y146968D01*
X243032Y145000D02*
X246969D01*
X193917Y96000D02*
X196083D01*
X195000Y94917D02*
Y97083D01*
X161031Y104000D02*
X164969D01*
X163000Y102032D02*
Y105968D01*
X193000Y151031D02*
Y154969D01*
X191032Y153000D02*
X194968D01*
X195130Y164000D02*
X198870D01*
X197000Y162130D02*
Y165870D01*
X146937Y242772D02*
Y246709D01*
X144968Y244740D02*
X148906D01*
X215000Y269032D02*
Y272969D01*
X213032Y271000D02*
X216968D01*
X169032Y223000D02*
X172968D01*
X171000Y221031D02*
Y224969D01*
X244000Y215032D02*
Y218969D01*
X242032Y217000D02*
X245969D01*
X153000Y177032D02*
Y180968D01*
X151031Y179000D02*
X154969D01*
X216032Y156000D02*
X219969D01*
X218000Y154032D02*
Y157968D01*
D52*
X238898Y138858D02*
X251102D01*
X238898Y151142D02*
X251102D01*
Y138858D02*
Y151142D01*
X238898Y138858D02*
Y151142D01*
X191850Y94425D02*
Y97575D01*
X198150Y94425D02*
Y97575D01*
X191850D02*
X198150D01*
X191850Y94425D02*
X198150D01*
X142606Y92189D02*
Y115811D01*
X183394D01*
Y92189D02*
Y115811D01*
X142606Y92189D02*
X183394D01*
X185126Y149260D02*
X200874D01*
X185126Y156740D02*
X200874D01*
Y149260D02*
Y156740D01*
X185126Y149260D02*
Y156740D01*
X192669Y161638D02*
Y166362D01*
X201331Y161638D02*
Y166362D01*
X192669D02*
X201331D01*
X192669Y161638D02*
X201331D01*
X140835Y238598D02*
X153039D01*
X140835Y250882D02*
X153039D01*
Y238598D02*
Y250882D01*
X140835Y238598D02*
Y250882D01*
X191378Y257358D02*
X238622D01*
X191378Y284642D02*
X238622D01*
Y257358D02*
Y284642D01*
X191378Y257358D02*
Y284642D01*
X165252Y201642D02*
X176748D01*
Y201642D02*
Y244358D01*
X165252Y201642D02*
Y244358D01*
X176748D01*
X232189Y196606D02*
X255811D01*
X232189D02*
Y237394D01*
X255811D01*
Y196606D02*
Y237394D01*
X129378Y165358D02*
X176622D01*
X129378Y192642D02*
X176622D01*
Y165358D02*
Y192642D01*
X129378Y165358D02*
Y192642D01*
X231189Y145764D02*
Y166236D01*
X204811Y145764D02*
Y166236D01*
Y145764D02*
X231189D01*
X204811Y166236D02*
X231189D01*
M02*
