G04 Layer_Physical_Order=1*
G04 Layer_Color=255*
%FSLAX25Y25*%
%MOIN*%
G70*
G01*
G75*
%ADD10R,0.03543X0.03150*%
%ADD11R,0.02205X0.02047*%
%ADD12R,0.03740X0.06693*%
%ADD13R,0.03150X0.03543*%
%ADD14R,0.24410X0.22835*%
%ADD15R,0.11811X0.06299*%
G04:AMPARAMS|DCode=16|XSize=21.65mil|YSize=49.21mil|CornerRadius=1.95mil|HoleSize=0mil|Usage=FLASHONLY|Rotation=270.000|XOffset=0mil|YOffset=0mil|HoleType=Round|Shape=RoundedRectangle|*
%AMROUNDEDRECTD16*
21,1,0.02165,0.04532,0,0,270.0*
21,1,0.01776,0.04921,0,0,270.0*
1,1,0.00390,-0.02266,-0.00888*
1,1,0.00390,-0.02266,0.00888*
1,1,0.00390,0.02266,0.00888*
1,1,0.00390,0.02266,-0.00888*
%
%ADD16ROUNDEDRECTD16*%
%ADD17C,0.01000*%
%ADD18C,0.01968*%
%ADD19C,0.03150*%
%ADD20C,0.05512*%
%ADD21R,0.07874X0.07874*%
%ADD22C,0.07874*%
%ADD23C,0.06693*%
%ADD24R,0.06693X0.06693*%
%ADD25R,0.07874X0.07874*%
%ADD26C,0.06496*%
%ADD27R,0.06693X0.06693*%
%ADD28C,0.05000*%
D10*
X248937Y145000D02*
D03*
X241063Y141260D02*
D03*
Y148740D02*
D03*
X150874Y244740D02*
D03*
X143000Y241000D02*
D03*
Y248480D02*
D03*
D11*
X193504Y96000D02*
D03*
X196496D02*
D03*
D12*
X198512Y153000D02*
D03*
X187488D02*
D03*
D13*
X194539Y164000D02*
D03*
X199461D02*
D03*
D14*
X226024Y271000D02*
D03*
X164024Y179000D02*
D03*
D15*
X197677Y261984D02*
D03*
Y280016D02*
D03*
X135677Y169984D02*
D03*
Y188016D02*
D03*
D16*
X228335Y148500D02*
D03*
Y153500D02*
D03*
Y158500D02*
D03*
Y163500D02*
D03*
X207665Y148500D02*
D03*
Y153500D02*
D03*
Y158500D02*
D03*
Y163500D02*
D03*
D17*
X206000Y96000D02*
X207000Y97000D01*
X196496Y96000D02*
X206000D01*
X190504Y93000D02*
X193504Y96000D01*
X164000Y93000D02*
X190504D01*
X158000Y99000D02*
X164000Y93000D01*
X158000Y99000D02*
Y104000D01*
D18*
X240803Y141000D02*
X241063Y141260D01*
X236000Y141000D02*
X240803D01*
X228335Y145665D02*
X229000Y145000D01*
X228335Y145665D02*
Y148500D01*
X197000Y174000D02*
X216000D01*
X219000Y171000D01*
Y160000D02*
Y171000D01*
Y160000D02*
X220500Y158500D01*
X207165Y164000D02*
X207665Y163500D01*
X199461Y164000D02*
X207165D01*
X198512Y153000D02*
X199012Y153500D01*
X207665D01*
X222000Y134000D02*
X231000D01*
X218000Y138000D02*
X222000Y134000D01*
X218000Y138000D02*
Y150000D01*
X221500Y153500D01*
X228335D01*
X211000Y201409D02*
X221590Y212000D01*
X244000D01*
X183000Y275000D02*
X188016Y280016D01*
X197677D01*
X150874Y244740D02*
X153000Y246866D01*
Y261000D01*
Y275000D01*
X139480Y252000D02*
X143000Y248480D01*
X131000Y252000D02*
X139480D01*
X220500Y158500D02*
X228335D01*
Y163500D02*
X236000Y171165D01*
Y184000D01*
X241063Y148740D02*
Y153937D01*
X241000Y154000D02*
X241063Y153937D01*
X248937Y145000D02*
Y158063D01*
X245000Y162000D02*
X248937Y158063D01*
X240000Y162000D02*
X245000D01*
X231500Y153500D02*
X240000Y162000D01*
X228335Y153500D02*
X231500D01*
X207665D02*
Y158500D01*
Y140665D02*
Y148500D01*
X201000Y134000D02*
X207665Y140665D01*
X237000Y97000D02*
X237591Y97591D01*
Y115000D01*
X158000Y104000D02*
Y112000D01*
X137000Y133000D02*
X158000Y112000D01*
X194000Y127000D02*
X201000Y134000D01*
X179000Y127000D02*
X194000D01*
X168000Y116000D02*
X179000Y127000D01*
X168000Y104000D02*
Y116000D01*
D19*
X164024Y179000D02*
Y198307D01*
X171000Y205283D01*
Y212000D01*
X183000Y224000D01*
X218000D01*
X226000Y232000D01*
X244000D01*
X192000Y242590D02*
X211000D01*
X226024Y257614D01*
Y271000D01*
X183000Y261000D02*
X183984Y261984D01*
X197677D01*
D20*
X207000Y97000D02*
D03*
X237000D02*
D03*
X231000Y134000D02*
D03*
X201000D02*
D03*
X236000Y184000D02*
D03*
X206000D02*
D03*
X131000Y252000D02*
D03*
Y222000D02*
D03*
X153000Y275000D02*
D03*
X183000D02*
D03*
X153000Y261000D02*
D03*
X183000D02*
D03*
X167000Y133000D02*
D03*
X137000D02*
D03*
D21*
X237591Y115000D02*
D03*
D22*
X196409D02*
D03*
X192000Y201409D02*
D03*
X211000D02*
D03*
D23*
X178000Y104000D02*
D03*
X168000D02*
D03*
X158000D02*
D03*
X244000Y232000D02*
D03*
Y222000D02*
D03*
Y212000D02*
D03*
D24*
X148000Y104000D02*
D03*
D25*
X192000Y242590D02*
D03*
X211000D02*
D03*
D26*
X171000Y205283D02*
D03*
Y240717D02*
D03*
D27*
X244000Y202000D02*
D03*
D28*
X236000Y141000D02*
D03*
X197000Y174000D02*
D03*
X198000Y148000D02*
D03*
X143000Y238000D02*
D03*
X129000Y170000D02*
D03*
X184000Y153000D02*
D03*
X191000Y164000D02*
D03*
X241000Y154000D02*
D03*
X229000Y145000D02*
D03*
X136000Y193000D02*
D03*
M02*
