G04 Layer_Color=8388736*
%FSLAX25Y25*%
%MOIN*%
G70*
G01*
G75*
%ADD35R,0.04343X0.03950*%
%ADD36R,0.03005X0.02847*%
%ADD37R,0.04540X0.07493*%
%ADD38R,0.03950X0.04343*%
%ADD39R,0.25210X0.23635*%
%ADD40R,0.12611X0.07099*%
G04:AMPARAMS|DCode=41|XSize=29.65mil|YSize=57.21mil|CornerRadius=5.95mil|HoleSize=0mil|Usage=FLASHONLY|Rotation=270.000|XOffset=0mil|YOffset=0mil|HoleType=Round|Shape=RoundedRectangle|*
%AMROUNDEDRECTD41*
21,1,0.02965,0.04532,0,0,270.0*
21,1,0.01776,0.05721,0,0,270.0*
1,1,0.01190,-0.02266,-0.00888*
1,1,0.01190,-0.02266,0.00888*
1,1,0.01190,0.02266,0.00888*
1,1,0.01190,0.02266,-0.00888*
%
%ADD41ROUNDEDRECTD41*%
%ADD42C,0.06312*%
%ADD43R,0.08674X0.08674*%
%ADD44C,0.08674*%
%ADD45C,0.07493*%
%ADD46R,0.07493X0.07493*%
%ADD47R,0.08674X0.08674*%
%ADD48C,0.07296*%
%ADD49R,0.07493X0.07493*%
%ADD50C,0.05800*%
D35*
X248937Y145000D02*
D03*
X241063Y141260D02*
D03*
Y148740D02*
D03*
X150874Y244740D02*
D03*
X143000Y241000D02*
D03*
Y248480D02*
D03*
D36*
X193504Y96000D02*
D03*
X196496D02*
D03*
D37*
X198512Y153000D02*
D03*
X187488D02*
D03*
D38*
X194539Y164000D02*
D03*
X199461D02*
D03*
D39*
X226024Y271000D02*
D03*
X164024Y179000D02*
D03*
D40*
X197677Y261984D02*
D03*
Y280016D02*
D03*
X135677Y169984D02*
D03*
Y188016D02*
D03*
D41*
X228335Y148500D02*
D03*
Y153500D02*
D03*
Y158500D02*
D03*
Y163500D02*
D03*
X207665Y148500D02*
D03*
Y153500D02*
D03*
Y158500D02*
D03*
Y163500D02*
D03*
D42*
X207000Y97000D02*
D03*
X237000D02*
D03*
X231000Y134000D02*
D03*
X201000D02*
D03*
X236000Y184000D02*
D03*
X206000D02*
D03*
X131000Y252000D02*
D03*
Y222000D02*
D03*
X153000Y275000D02*
D03*
X183000D02*
D03*
X153000Y261000D02*
D03*
X183000D02*
D03*
X167000Y133000D02*
D03*
X137000D02*
D03*
D43*
X237591Y115000D02*
D03*
D44*
X196409D02*
D03*
X192000Y201409D02*
D03*
X211000D02*
D03*
D45*
X178000Y104000D02*
D03*
X168000D02*
D03*
X158000D02*
D03*
X244000Y232000D02*
D03*
Y222000D02*
D03*
Y212000D02*
D03*
D46*
X148000Y104000D02*
D03*
D47*
X192000Y242590D02*
D03*
X211000D02*
D03*
D48*
X171000Y205283D02*
D03*
Y240717D02*
D03*
D49*
X244000Y202000D02*
D03*
D50*
X236000Y141000D02*
D03*
X197000Y174000D02*
D03*
X198000Y148000D02*
D03*
X143000Y238000D02*
D03*
X129000Y170000D02*
D03*
X184000Y153000D02*
D03*
X191000Y164000D02*
D03*
X241000Y154000D02*
D03*
X229000Y145000D02*
D03*
X136000Y193000D02*
D03*
M02*
