G04 Layer_Color=8421504*
%FSLAX25Y25*%
%MOIN*%
G70*
G01*
G75*
%ADD10R,0.03543X0.03150*%
%ADD11R,0.02205X0.02047*%
%ADD12R,0.03740X0.06693*%
%ADD13R,0.03150X0.03543*%
%ADD14R,0.24410X0.22835*%
%ADD15R,0.11811X0.06299*%
G04:AMPARAMS|DCode=16|XSize=21.65mil|YSize=49.21mil|CornerRadius=1.95mil|HoleSize=0mil|Usage=FLASHONLY|Rotation=270.000|XOffset=0mil|YOffset=0mil|HoleType=Round|Shape=RoundedRectangle|*
%AMROUNDEDRECTD16*
21,1,0.02165,0.04532,0,0,270.0*
21,1,0.01776,0.04921,0,0,270.0*
1,1,0.00390,-0.02266,-0.00888*
1,1,0.00390,-0.02266,0.00888*
1,1,0.00390,0.02266,0.00888*
1,1,0.00390,0.02266,-0.00888*
%
%ADD16ROUNDEDRECTD16*%
D10*
X248937Y145000D02*
D03*
X241063Y141260D02*
D03*
Y148740D02*
D03*
X150874Y244740D02*
D03*
X143000Y241000D02*
D03*
Y248480D02*
D03*
D11*
X193504Y96000D02*
D03*
X196496D02*
D03*
D12*
X198512Y153000D02*
D03*
X187488D02*
D03*
D13*
X194539Y164000D02*
D03*
X199461D02*
D03*
D14*
X226024Y271000D02*
D03*
X164024Y179000D02*
D03*
D15*
X197677Y261984D02*
D03*
Y280016D02*
D03*
X135677Y169984D02*
D03*
Y188016D02*
D03*
D16*
X228335Y148500D02*
D03*
Y153500D02*
D03*
Y158500D02*
D03*
Y163500D02*
D03*
X207665Y148500D02*
D03*
Y153500D02*
D03*
Y158500D02*
D03*
Y163500D02*
D03*
M02*
