M48
;Layer_Color=9474304
;FILE_FORMAT=2:5
INCH,LZ
;TYPE=PLATED
T1F00S00C0.02800
T2F00S00C0.03346
T3F00S00C0.04528
T4F00S00C0.04685
T5F00S00C0.04724
%
T01
X0129Y017
X0136Y0193
X0197Y0174
X0191Y0164
X0184Y0153
X0198Y0148
X0229Y0145
X0236Y0141
X0241Y0154
X0143Y0238
T02
X0137Y0133
X0167
X0201Y0134
X0231
X0237Y0097
X0207
X0206Y0184
X0236
X0183Y0261
Y0275
X0153
Y0261
X0131Y0252
Y0222
T03
X0171Y0205283
Y0240717
T04
X0148Y0104
X0158
X0168
X0178
X0244Y0202
Y0212
Y0222
Y0232
T05
X0196409Y0115
X0237591
X0211Y0201409
X0192
Y024259
X0211
M30
