G04 Layer_Color=65535*
%FSLAX25Y25*%
%MOIN*%
G70*
G01*
G75*
%ADD17C,0.01000*%
%ADD29C,0.00984*%
%ADD30C,0.02362*%
%ADD31C,0.00787*%
%ADD32R,0.03150X0.11024*%
%ADD33R,0.11024X0.03150*%
%ADD34R,0.10698X0.03736*%
D17*
X247999Y132000D02*
Y135998D01*
X246999Y136998D01*
X245000D01*
X244000Y135998D01*
Y132000D01*
X245000Y131000D01*
X246999D01*
X245999Y132999D02*
X247999Y131000D01*
X246999D02*
X247999Y132000D01*
X249998Y131000D02*
X251997D01*
X250998D01*
Y136998D01*
X249998Y135998D01*
X225000Y102000D02*
Y107998D01*
X227999D01*
X228999Y106998D01*
Y104999D01*
X227999Y103999D01*
X225000D01*
X226999D02*
X228999Y102000D01*
X230998D02*
X232997D01*
X231998D01*
Y107998D01*
X230998Y106998D01*
X198000Y126998D02*
Y121000D01*
X200999D01*
X201999Y122000D01*
Y125998D01*
X200999Y126998D01*
X198000D01*
X203998Y121000D02*
X205997D01*
X204998D01*
Y126998D01*
X203998Y125998D01*
X186000Y133000D02*
Y138998D01*
X188999D01*
X189999Y137998D01*
Y135999D01*
X188999Y134999D01*
X186000D01*
X187999D02*
X189999Y133000D01*
X195997D02*
X191998D01*
X195997Y136999D01*
Y137998D01*
X194997Y138998D01*
X192998D01*
X191998Y137998D01*
X193999Y104998D02*
X192999Y105998D01*
X191000D01*
X190000Y104998D01*
Y101000D01*
X191000Y100000D01*
X192999D01*
X193999Y101000D01*
X195998Y100000D02*
X197997D01*
X196998D01*
Y105998D01*
X195998Y104998D01*
X130000Y108000D02*
Y113998D01*
X132999D01*
X133999Y112998D01*
Y110999D01*
X132999Y109999D01*
X130000D01*
X139997Y108000D02*
X135998D01*
X139997Y111999D01*
Y112998D01*
X138997Y113998D01*
X136998D01*
X135998Y112998D01*
X181999Y163998D02*
X180999Y164998D01*
X179000D01*
X178000Y163998D01*
Y160000D01*
X179000Y159000D01*
X180999D01*
X181999Y160000D01*
X183998Y163998D02*
X184998Y164998D01*
X186997D01*
X187997Y163998D01*
Y162999D01*
X186997Y161999D01*
X185997D01*
X186997D01*
X187997Y160999D01*
Y160000D01*
X186997Y159000D01*
X184998D01*
X183998Y160000D01*
X194999Y172998D02*
X193999Y173998D01*
X192000D01*
X191000Y172998D01*
Y169000D01*
X192000Y168000D01*
X193999D01*
X194999Y169000D01*
X200997Y168000D02*
X196998D01*
X200997Y171999D01*
Y172998D01*
X199997Y173998D01*
X197998D01*
X196998Y172998D01*
X217000Y188000D02*
Y193998D01*
X219999D01*
X220999Y192998D01*
Y190999D01*
X219999Y189999D01*
X217000D01*
X218999D02*
X220999Y188000D01*
X226997Y193998D02*
X222998D01*
Y190999D01*
X224997Y191999D01*
X225997D01*
X226997Y190999D01*
Y189000D01*
X225997Y188000D01*
X223998D01*
X222998Y189000D01*
X150999Y232000D02*
Y235998D01*
X149999Y236998D01*
X148000D01*
X147000Y235998D01*
Y232000D01*
X148000Y231000D01*
X149999D01*
X148999Y232999D02*
X150999Y231000D01*
X149999D02*
X150999Y232000D01*
X156997Y231000D02*
X152998D01*
X156997Y234999D01*
Y235998D01*
X155997Y236998D01*
X153998D01*
X152998Y235998D01*
X126000Y257000D02*
Y262998D01*
X128999D01*
X129999Y261998D01*
Y259999D01*
X128999Y258999D01*
X126000D01*
X127999D02*
X129999Y257000D01*
X134997D02*
Y262998D01*
X131998Y259999D01*
X135997D01*
X158000Y280000D02*
Y285998D01*
X160999D01*
X161999Y284998D01*
Y282999D01*
X160999Y281999D01*
X158000D01*
X159999D02*
X161999Y280000D01*
X167997Y285998D02*
X165997Y284998D01*
X163998Y282999D01*
Y281000D01*
X164998Y280000D01*
X166997D01*
X167997Y281000D01*
Y281999D01*
X166997Y282999D01*
X163998D01*
X158000Y265000D02*
Y270998D01*
X160999D01*
X161999Y269998D01*
Y267999D01*
X160999Y266999D01*
X158000D01*
X159999D02*
X161999Y265000D01*
X163998Y270998D02*
X167997D01*
Y269998D01*
X163998Y266000D01*
Y265000D01*
X244999Y269000D02*
Y272998D01*
X243999Y273998D01*
X242000D01*
X241000Y272998D01*
Y269000D01*
X242000Y268000D01*
X243999D01*
X242999Y269999D02*
X244999Y268000D01*
X243999D02*
X244999Y269000D01*
X246998Y272998D02*
X247998Y273998D01*
X249997D01*
X250997Y272998D01*
Y271999D01*
X249997Y270999D01*
X248997D01*
X249997D01*
X250997Y269999D01*
Y269000D01*
X249997Y268000D01*
X247998D01*
X246998Y269000D01*
X187050Y255948D02*
Y249950D01*
X190049D01*
X191049Y250950D01*
Y254948D01*
X190049Y255948D01*
X187050D01*
X197047Y249950D02*
X193048D01*
X197047Y253949D01*
Y254948D01*
X196047Y255948D01*
X194048D01*
X193048Y254948D01*
X166200Y253498D02*
Y247500D01*
X169199D01*
X170199Y248500D01*
Y252498D01*
X169199Y253498D01*
X166200D01*
X172198Y252498D02*
X173198Y253498D01*
X175197D01*
X176197Y252498D01*
Y251499D01*
X175197Y250499D01*
X174197D01*
X175197D01*
X176197Y249499D01*
Y248500D01*
X175197Y247500D01*
X173198D01*
X172198Y248500D01*
X206050Y255948D02*
Y249950D01*
X209049D01*
X210049Y250950D01*
Y254948D01*
X209049Y255948D01*
X206050D01*
X215047Y249950D02*
Y255948D01*
X212048Y252949D01*
X216047D01*
X233100Y240500D02*
Y246498D01*
X236099D01*
X237099Y245498D01*
Y243499D01*
X236099Y242499D01*
X233100D01*
X239098Y240500D02*
X241097D01*
X240098D01*
Y246498D01*
X239098Y245498D01*
X134299Y198300D02*
Y202298D01*
X133299Y203298D01*
X131300D01*
X130300Y202298D01*
Y198300D01*
X131300Y197300D01*
X133299D01*
X132299Y199299D02*
X134299Y197300D01*
X133299D02*
X134299Y198300D01*
X139297Y197300D02*
Y203298D01*
X136298Y200299D01*
X140297D01*
X134800Y139400D02*
Y145398D01*
X137799D01*
X138799Y144398D01*
Y142399D01*
X137799Y141399D01*
X134800D01*
X136799D02*
X138799Y139400D01*
X140798Y144398D02*
X141798Y145398D01*
X143797D01*
X144797Y144398D01*
Y143399D01*
X143797Y142399D01*
X142797D01*
X143797D01*
X144797Y141399D01*
Y140400D01*
X143797Y139400D01*
X141798D01*
X140798Y140400D01*
X205700Y175298D02*
Y170300D01*
X206700Y169300D01*
X208699D01*
X209699Y170300D01*
Y175298D01*
X211698Y169300D02*
X213697D01*
X212698D01*
Y175298D01*
X211698Y174298D01*
D29*
X241555Y152480D02*
G03*
X241555Y152480I-492J0D01*
G01*
X140933Y104000D02*
G03*
X140933Y104000I-492J0D01*
G01*
X143492Y252221D02*
G03*
X143492Y252221I-492J0D01*
G01*
X198169Y285331D02*
G03*
X198169Y285331I-492J0D01*
G01*
X244492Y194441D02*
G03*
X244492Y194441I-492J0D01*
G01*
X136169Y193331D02*
G03*
X136169Y193331I-492J0D01*
G01*
X228827Y145252D02*
G03*
X228827Y145252I-492J0D01*
G01*
D30*
X221543Y150094D02*
G03*
X221543Y150094I-1181J0D01*
G01*
D31*
X247559Y139252D02*
Y141850D01*
X244350Y139252D02*
X247559D01*
Y148150D02*
Y150748D01*
X244350D02*
X247559D01*
X232000Y97000D02*
X232900D01*
X211100D02*
X212000D01*
X232000Y94000D02*
Y97000D01*
X212000Y94000D02*
X232000D01*
X212000D02*
Y100000D01*
X232000D01*
Y97000D02*
Y100000D01*
X206567Y109488D02*
X227433D01*
X206567Y120512D02*
X227433D01*
X206567Y109488D02*
Y120512D01*
X205100Y134000D02*
X206000D01*
X226000D02*
X226900D01*
X206000D02*
Y137000D01*
X226000D01*
Y131000D02*
Y137000D01*
X206000Y131000D02*
X226000D01*
X206000D02*
Y134000D01*
X143000Y92583D02*
X183000D01*
Y115417D01*
X143000D02*
X183000D01*
X143000Y92583D02*
Y115417D01*
X190835Y150047D02*
X195165D01*
X190835Y155953D02*
X195165D01*
X210100Y184000D02*
X211000D01*
X231000D02*
X231900D01*
X211000D02*
Y187000D01*
X231000D01*
Y181000D02*
Y187000D01*
X211000Y181000D02*
X231000D01*
X211000D02*
Y184000D01*
X149496Y238992D02*
Y241590D01*
X146287Y238992D02*
X149496D01*
Y247890D02*
Y250488D01*
X146287D02*
X149496D01*
X131000Y226100D02*
Y227000D01*
Y247000D02*
Y247900D01*
X128000Y227000D02*
X131000D01*
X128000D02*
Y247000D01*
X134000D01*
Y227000D02*
Y247000D01*
X131000Y227000D02*
X134000D01*
X178000Y275000D02*
X178900D01*
X157100D02*
X158000D01*
X178000Y272000D02*
Y275000D01*
X158000Y272000D02*
X178000D01*
X158000D02*
Y278000D01*
X178000D01*
Y275000D02*
Y278000D01*
Y261000D02*
X178900D01*
X157100D02*
X158000D01*
X178000Y258000D02*
Y261000D01*
X158000Y258000D02*
X178000D01*
X158000D02*
Y264000D01*
X178000D01*
Y261000D02*
Y264000D01*
X208701Y258126D02*
X213216D01*
X208701D02*
Y283874D01*
X213216D01*
X197512Y211567D02*
Y232433D01*
X186488Y211567D02*
Y232433D01*
Y211567D02*
X197512D01*
X165646Y212764D02*
X176354D01*
X165646D02*
Y233236D01*
X176354D01*
Y212764D02*
Y233236D01*
X216512Y211567D02*
Y232433D01*
X205488Y211567D02*
Y232433D01*
Y211567D02*
X216512D01*
X255417Y197000D02*
Y237000D01*
X232583D02*
X255417D01*
X232583Y197000D02*
Y237000D01*
Y197000D02*
X255417D01*
X146701Y166126D02*
X151216D01*
X146701D02*
Y191874D01*
X151216D01*
X141100Y133000D02*
X142000D01*
X162000D02*
X162900D01*
X142000D02*
Y136000D01*
X162000D01*
Y130000D02*
Y136000D01*
X142000Y130000D02*
X162000D01*
X142000D02*
Y133000D01*
X224299Y146158D02*
Y165842D01*
X211701Y146158D02*
Y165842D01*
Y146158D02*
X224299D01*
X211701Y165842D02*
X224299D01*
D32*
X226252Y114999D02*
D03*
D33*
X192002Y231252D02*
D03*
X211002D02*
D03*
D34*
X171005Y214632D02*
D03*
M02*
