G04 Layer_Color=16711935*
%FSLAX24Y24*%
%MOIN*%
G70*
G01*
G75*
%ADD32R,0.0867X0.0867*%
%ADD33C,0.0867*%
%ADD34R,0.0867X0.0867*%
%ADD35C,0.1261*%
D32*
X27650Y12795D02*
D03*
D33*
X23531D02*
D03*
X21654Y23531D02*
D03*
X18424Y20706D02*
D03*
Y24249D02*
D03*
X23622Y23531D02*
D03*
X22122Y10827D02*
D03*
X25122D02*
D03*
X27091Y14764D02*
D03*
X24091D02*
D03*
X15748Y17248D02*
D03*
Y14248D02*
D03*
Y27559D02*
D03*
Y24559D02*
D03*
X27091Y20669D02*
D03*
X24091D02*
D03*
X18185Y32480D02*
D03*
X21185D02*
D03*
X18185Y30512D02*
D03*
X21185D02*
D03*
X24091Y16081D02*
D03*
X13400Y28670D02*
D03*
X13370Y30400D02*
D03*
X25240Y28543D02*
D03*
X14530Y17248D02*
D03*
X26800Y16580D02*
D03*
X24550Y18819D02*
D03*
X27091Y19660D02*
D03*
X23530Y19740D02*
D03*
X27890Y15563D02*
D03*
X27260Y22360D02*
D03*
X22640Y32480D02*
D03*
X17201Y29528D02*
D03*
X28915Y14065D02*
D03*
X21120Y18731D02*
D03*
X19740D02*
D03*
X25700Y31378D02*
D03*
X19680Y10827D02*
D03*
X18500D02*
D03*
X19740Y17220D02*
D03*
X22370Y17560D02*
D03*
X30090Y17320D02*
D03*
X22370Y15970D02*
D03*
X13340Y22840D02*
D03*
D34*
X21654Y27650D02*
D03*
X23622Y27650D02*
D03*
D35*
X30270Y30220D02*
D03*
X13100Y15880D02*
D03*
X13060Y25230D02*
D03*
X13060Y26930D02*
D03*
X13170Y11810D02*
D03*
X13110Y13810D02*
D03*
X30250Y23150D02*
D03*
M02*
