M48
;Layer_Color=9474304
;FILE_FORMAT=2:4
INCH,LZ
;TYPE=PLATED
T1F00S00C0.0320
T2F00S00C0.0335
T3F00S00C0.0453
T4F00S00C0.0472
%
T01
X01317Y01181
X01311Y01381
X0131Y01588
X01453Y017248
X01974Y01722
X01974Y018731
X02112
X02237Y01756
Y01597
X024091Y016081
X02455Y018819
X02353Y01974
X027091Y01966
X0268Y01658
X02789Y015563
X028915Y014065
X03009Y01732
X01968Y010827
X0185
X017201Y029528
X02264Y03248
X0257Y031378
X02524Y028543
X03027Y03022
X03025Y02315
X02726Y02236
X01334Y02284
X01306Y02523
X01306Y02693
X0134Y02867
X01337Y0304
T02
X015748Y014248
Y017248
X024091Y014764
X027091
X025122Y010827
X022122
X024091Y020669
X027091
X021185Y030512
Y03248
X018185
Y030512
X015748Y027559
Y024559
T03
X018424Y020706
Y024249
T04
X023531Y012795
X02765
X023622Y023531
X021654Y023531
Y02765
X023622Y02765
M30
