G04 Layer_Physical_Order=2*
G04 Layer_Color=16711680*
%FSLAX24Y24*%
%MOIN*%
G70*
G01*
G75*
%ADD15C,0.0100*%
%ADD16C,0.0197*%
%ADD17R,0.0787X0.0787*%
%ADD18C,0.0787*%
%ADD19R,0.0787X0.0787*%
%ADD20C,0.1181*%
G36*
X31500Y8870D02*
X11810D01*
Y34450D01*
X31500D01*
Y8870D01*
D02*
G37*
%LPC*%
G36*
X27339Y16505D02*
X26875D01*
Y16041D01*
X26942Y16050D01*
X27074Y16105D01*
X27188Y16192D01*
X27275Y16306D01*
X27330Y16438D01*
X27339Y16505D01*
D02*
G37*
G36*
X22295Y16509D02*
X22228Y16500D01*
X22096Y16445D01*
X21982Y16358D01*
X21895Y16244D01*
X21840Y16112D01*
X21831Y16045D01*
X22295D01*
Y16509D01*
D02*
G37*
G36*
X26725Y16505D02*
X26261D01*
X26270Y16438D01*
X26325Y16306D01*
X26412Y16192D01*
X26526Y16105D01*
X26658Y16050D01*
X26725Y16041D01*
Y16505D01*
D02*
G37*
G36*
X22909Y15895D02*
X22445D01*
Y15431D01*
X22512Y15440D01*
X22644Y15495D01*
X22758Y15582D01*
X22845Y15696D01*
X22900Y15828D01*
X22909Y15895D01*
D02*
G37*
G36*
X27890Y16283D02*
X27750Y16270D01*
X27615Y16229D01*
X27490Y16162D01*
X27381Y16073D01*
X27292Y15963D01*
X27225Y15839D01*
X27184Y15704D01*
X27170Y15563D01*
X27175Y15514D01*
X27140Y15479D01*
X27091Y15484D01*
X26950Y15470D01*
X26815Y15429D01*
X26691Y15362D01*
X26581Y15273D01*
X26492Y15164D01*
X26425Y15039D01*
X26384Y14904D01*
X26371Y14764D01*
X26384Y14623D01*
X26425Y14488D01*
X26492Y14364D01*
X26581Y14255D01*
X26691Y14165D01*
X26815Y14099D01*
X26950Y14058D01*
X27091Y14044D01*
X27231Y14058D01*
X27366Y14099D01*
X27491Y14165D01*
X27600Y14255D01*
X27689Y14364D01*
X27756Y14488D01*
X27797Y14623D01*
X27811Y14764D01*
X27806Y14813D01*
X27841Y14848D01*
X27890Y14843D01*
X28031Y14857D01*
X28166Y14898D01*
X28290Y14965D01*
X28399Y15054D01*
X28489Y15163D01*
X28555Y15288D01*
X28596Y15423D01*
X28610Y15563D01*
X28596Y15704D01*
X28555Y15839D01*
X28489Y15963D01*
X28399Y16073D01*
X28290Y16162D01*
X28166Y16229D01*
X28031Y16270D01*
X27890Y16283D01*
D02*
G37*
G36*
X22445Y16509D02*
Y16045D01*
X22909D01*
X22900Y16112D01*
X22845Y16244D01*
X22758Y16358D01*
X22644Y16445D01*
X22512Y16500D01*
X22445Y16509D01*
D02*
G37*
G36*
X20279Y17145D02*
X19815D01*
Y16681D01*
X19882Y16690D01*
X20014Y16745D01*
X20128Y16832D01*
X20215Y16946D01*
X20270Y17078D01*
X20279Y17145D01*
D02*
G37*
G36*
X27091Y21389D02*
X26950Y21375D01*
X26815Y21334D01*
X26691Y21268D01*
X26581Y21178D01*
X26492Y21069D01*
X26425Y20945D01*
X26384Y20810D01*
X26371Y20669D01*
X26384Y20529D01*
X26425Y20394D01*
X26492Y20269D01*
X26578Y20165D01*
X26492Y20060D01*
X26425Y19936D01*
X26384Y19800D01*
X26371Y19660D01*
X26384Y19520D01*
X26425Y19384D01*
X26492Y19260D01*
X26581Y19151D01*
X26584Y19105D01*
X24257Y16779D01*
X24231Y16787D01*
X24091Y16801D01*
X23950Y16787D01*
X23815Y16746D01*
X23691Y16679D01*
X23581Y16590D01*
X23492Y16481D01*
X23425Y16356D01*
X23384Y16221D01*
X23371Y16081D01*
X23384Y15940D01*
X23425Y15805D01*
X23492Y15681D01*
X23581Y15572D01*
X23691Y15482D01*
X23714Y15469D01*
Y15375D01*
X23691Y15362D01*
X23581Y15273D01*
X23492Y15164D01*
X23479Y15140D01*
X19682D01*
X18676Y16146D01*
X18598Y16206D01*
X18560Y16221D01*
X18507Y16243D01*
X18410Y16256D01*
X13935D01*
X13863Y16390D01*
X13749Y16529D01*
X13610Y16643D01*
X13451Y16728D01*
X13279Y16780D01*
X13100Y16798D01*
X12921Y16780D01*
X12749Y16728D01*
X12590Y16643D01*
X12451Y16529D01*
X12337Y16390D01*
X12252Y16231D01*
X12200Y16059D01*
X12182Y15880D01*
X12200Y15701D01*
X12252Y15529D01*
X12337Y15370D01*
X12451Y15231D01*
X12590Y15117D01*
X12749Y15032D01*
X12921Y14980D01*
X13100Y14962D01*
X13279Y14980D01*
X13451Y15032D01*
X13610Y15117D01*
X13749Y15231D01*
X13863Y15370D01*
X13935Y15504D01*
X18254D01*
X19260Y14498D01*
X19338Y14438D01*
X19429Y14401D01*
X19526Y14388D01*
X23479D01*
X23492Y14364D01*
X23581Y14255D01*
X23691Y14165D01*
X23815Y14099D01*
X23950Y14058D01*
X24091Y14044D01*
X24231Y14058D01*
X24366Y14099D01*
X24491Y14165D01*
X24600Y14255D01*
X24689Y14364D01*
X24756Y14488D01*
X24797Y14623D01*
X24811Y14764D01*
X24797Y14904D01*
X24756Y15039D01*
X24689Y15164D01*
X24600Y15273D01*
X24491Y15362D01*
X24467Y15375D01*
Y15469D01*
X24491Y15482D01*
X24600Y15572D01*
X24689Y15681D01*
X24756Y15805D01*
X24797Y15940D01*
X24811Y16081D01*
X24797Y16221D01*
X24789Y16247D01*
X27356Y18815D01*
X27416Y18893D01*
X27454Y18983D01*
X27462Y19046D01*
X27491Y19061D01*
X27600Y19151D01*
X27689Y19260D01*
X27756Y19384D01*
X27797Y19520D01*
X27811Y19660D01*
X27797Y19800D01*
X27756Y19936D01*
X27689Y20060D01*
X27603Y20165D01*
X27689Y20269D01*
X27756Y20394D01*
X27797Y20529D01*
X27811Y20669D01*
X27797Y20810D01*
X27756Y20945D01*
X27689Y21069D01*
X27600Y21178D01*
X27491Y21268D01*
X27366Y21334D01*
X27231Y21375D01*
X27091Y21389D01*
D02*
G37*
G36*
X19665Y17145D02*
X19201D01*
X19210Y17078D01*
X19265Y16946D01*
X19352Y16832D01*
X19466Y16745D01*
X19598Y16690D01*
X19665Y16681D01*
Y17145D01*
D02*
G37*
G36*
X26725Y17119D02*
X26658Y17110D01*
X26526Y17055D01*
X26412Y16968D01*
X26325Y16854D01*
X26270Y16722D01*
X26261Y16655D01*
X26725D01*
Y17119D01*
D02*
G37*
G36*
X26875D02*
Y16655D01*
X27339D01*
X27330Y16722D01*
X27275Y16854D01*
X27188Y16968D01*
X27074Y17055D01*
X26942Y17110D01*
X26875Y17119D01*
D02*
G37*
G36*
X13245Y12547D02*
Y11885D01*
X13907D01*
X13900Y11955D01*
X13857Y12095D01*
X13789Y12223D01*
X13696Y12336D01*
X13583Y12429D01*
X13455Y12497D01*
X13315Y12540D01*
X13245Y12547D01*
D02*
G37*
G36*
X23456Y12720D02*
X22993D01*
X23002Y12653D01*
X23057Y12521D01*
X23144Y12408D01*
X23257Y12320D01*
X23390Y12266D01*
X23456Y12257D01*
Y12720D01*
D02*
G37*
G36*
X13095Y12547D02*
X13025Y12540D01*
X12885Y12497D01*
X12757Y12429D01*
X12644Y12336D01*
X12551Y12223D01*
X12483Y12095D01*
X12440Y11955D01*
X12433Y11885D01*
X13095D01*
Y12547D01*
D02*
G37*
G36*
Y11735D02*
X12433D01*
X12440Y11665D01*
X12483Y11525D01*
X12551Y11397D01*
X12644Y11284D01*
X12757Y11191D01*
X12885Y11123D01*
X13025Y11080D01*
X13095Y11073D01*
Y11735D01*
D02*
G37*
G36*
X13907D02*
X13245D01*
Y11073D01*
X13315Y11080D01*
X13455Y11123D01*
X13583Y11191D01*
X13696Y11284D01*
X13789Y11397D01*
X13857Y11525D01*
X13900Y11665D01*
X13907Y11735D01*
D02*
G37*
G36*
X24070Y12720D02*
X23607D01*
Y12257D01*
X23673Y12266D01*
X23806Y12320D01*
X23919Y12408D01*
X24006Y12521D01*
X24061Y12653D01*
X24070Y12720D01*
D02*
G37*
G36*
X15748Y14968D02*
X15608Y14954D01*
X15473Y14913D01*
X15348Y14847D01*
X15239Y14757D01*
X15149Y14648D01*
X15083Y14524D01*
X15042Y14389D01*
X15028Y14248D01*
X15030Y14223D01*
X14997Y14186D01*
X13945D01*
X13873Y14320D01*
X13759Y14459D01*
X13620Y14573D01*
X13461Y14658D01*
X13289Y14710D01*
X13110Y14728D01*
X12931Y14710D01*
X12759Y14658D01*
X12600Y14573D01*
X12461Y14459D01*
X12347Y14320D01*
X12262Y14161D01*
X12210Y13989D01*
X12192Y13810D01*
X12210Y13631D01*
X12262Y13459D01*
X12347Y13300D01*
X12461Y13161D01*
X12600Y13047D01*
X12759Y12962D01*
X12931Y12910D01*
X13110Y12892D01*
X13289Y12910D01*
X13461Y12962D01*
X13620Y13047D01*
X13759Y13161D01*
X13873Y13300D01*
X13945Y13434D01*
X15310D01*
X15400Y13446D01*
X15422Y13391D01*
X15482Y13313D01*
X17802Y10993D01*
X17794Y10967D01*
X17780Y10827D01*
X17794Y10686D01*
X17835Y10551D01*
X17901Y10427D01*
X17991Y10318D01*
X18100Y10228D01*
X18224Y10162D01*
X18360Y10121D01*
X18500Y10107D01*
X18640Y10121D01*
X18776Y10162D01*
X18900Y10228D01*
X19009Y10318D01*
X19065Y10386D01*
X19115D01*
X19171Y10318D01*
X19280Y10228D01*
X19404Y10162D01*
X19540Y10121D01*
X19680Y10107D01*
X19820Y10121D01*
X19956Y10162D01*
X20080Y10228D01*
X20189Y10318D01*
X20279Y10427D01*
X20291Y10451D01*
X21511D01*
X21523Y10427D01*
X21613Y10318D01*
X21722Y10228D01*
X21847Y10162D01*
X21982Y10121D01*
X22122Y10107D01*
X22263Y10121D01*
X22398Y10162D01*
X22522Y10228D01*
X22631Y10318D01*
X22721Y10427D01*
X22787Y10551D01*
X22828Y10686D01*
X22842Y10827D01*
X22828Y10967D01*
X22787Y11102D01*
X22721Y11227D01*
X22631Y11336D01*
X22522Y11425D01*
X22398Y11492D01*
X22263Y11533D01*
X22122Y11547D01*
X21982Y11533D01*
X21847Y11492D01*
X21722Y11425D01*
X21613Y11336D01*
X21523Y11227D01*
X21511Y11203D01*
X20291D01*
X20279Y11227D01*
X20189Y11336D01*
X20080Y11425D01*
X19956Y11492D01*
X19820Y11533D01*
X19680Y11547D01*
X19540Y11533D01*
X19404Y11492D01*
X19280Y11425D01*
X19171Y11336D01*
X19115Y11268D01*
X19065D01*
X19009Y11336D01*
X18900Y11425D01*
X18776Y11492D01*
X18640Y11533D01*
X18500Y11547D01*
X18360Y11533D01*
X18334Y11525D01*
X16208Y13651D01*
X16210Y13701D01*
X16257Y13739D01*
X16347Y13848D01*
X16413Y13973D01*
X16454Y14108D01*
X16468Y14248D01*
X16454Y14389D01*
X16413Y14524D01*
X16347Y14648D01*
X16257Y14757D01*
X16148Y14847D01*
X16024Y14913D01*
X15889Y14954D01*
X15748Y14968D01*
D02*
G37*
G36*
X22295Y15895D02*
X21831D01*
X21840Y15828D01*
X21895Y15696D01*
X21982Y15582D01*
X22096Y15495D01*
X22228Y15440D01*
X22295Y15431D01*
Y15895D01*
D02*
G37*
G36*
X28915Y14785D02*
X28775Y14771D01*
X28640Y14730D01*
X28515Y14664D01*
X28406Y14574D01*
X28317Y14465D01*
X28250Y14340D01*
X28209Y14205D01*
X28195Y14065D01*
X28209Y13924D01*
X28218Y13895D01*
X27834Y13512D01*
X26933D01*
Y12611D01*
X25657Y11335D01*
X25631Y11336D01*
X25522Y11425D01*
X25398Y11492D01*
X25263Y11533D01*
X25122Y11547D01*
X24982Y11533D01*
X24847Y11492D01*
X24722Y11425D01*
X24613Y11336D01*
X24523Y11227D01*
X24457Y11102D01*
X24416Y10967D01*
X24402Y10827D01*
X24416Y10686D01*
X24457Y10551D01*
X24523Y10427D01*
X24613Y10318D01*
X24722Y10228D01*
X24847Y10162D01*
X24982Y10121D01*
X25122Y10107D01*
X25263Y10121D01*
X25398Y10162D01*
X25522Y10228D01*
X25631Y10318D01*
X25721Y10427D01*
X25737Y10458D01*
X25778Y10464D01*
X25832Y10486D01*
X25869Y10501D01*
X25947Y10561D01*
X27465Y12079D01*
X28366D01*
Y12980D01*
X28752Y13366D01*
X28775Y13359D01*
X28915Y13345D01*
X29056Y13359D01*
X29191Y13400D01*
X29315Y13466D01*
X29424Y13556D01*
X29514Y13665D01*
X29581Y13789D01*
X29622Y13924D01*
X29635Y14065D01*
X29622Y14205D01*
X29581Y14340D01*
X29514Y14465D01*
X29424Y14574D01*
X29315Y14664D01*
X29191Y14730D01*
X29056Y14771D01*
X28915Y14785D01*
D02*
G37*
G36*
X23456Y13334D02*
X23390Y13325D01*
X23257Y13270D01*
X23144Y13183D01*
X23057Y13069D01*
X23002Y12937D01*
X22993Y12870D01*
X23456D01*
Y13334D01*
D02*
G37*
G36*
X23607D02*
Y12870D01*
X24070D01*
X24061Y12937D01*
X24006Y13069D01*
X23919Y13183D01*
X23806Y13270D01*
X23673Y13325D01*
X23607Y13334D01*
D02*
G37*
G36*
X30015Y17245D02*
X29551D01*
X29560Y17178D01*
X29615Y17046D01*
X29702Y16932D01*
X29816Y16845D01*
X29948Y16790D01*
X30015Y16781D01*
Y17245D01*
D02*
G37*
G36*
X13370Y31120D02*
X13230Y31106D01*
X13094Y31065D01*
X12970Y30999D01*
X12861Y30909D01*
X12771Y30800D01*
X12705Y30676D01*
X12664Y30540D01*
X12650Y30400D01*
X12664Y30260D01*
X12705Y30124D01*
X12771Y30000D01*
X12861Y29891D01*
X12970Y29801D01*
X13094Y29735D01*
X13230Y29694D01*
X13370Y29680D01*
X13510Y29694D01*
X13646Y29735D01*
X13770Y29801D01*
X13879Y29891D01*
X13916Y29893D01*
X15372Y28436D01*
Y28171D01*
X15348Y28158D01*
X15239Y28068D01*
X15149Y27959D01*
X15083Y27835D01*
X15042Y27700D01*
X15028Y27559D01*
X15042Y27419D01*
X15083Y27284D01*
X15149Y27159D01*
X15239Y27050D01*
X15348Y26960D01*
X15473Y26894D01*
X15608Y26853D01*
X15748Y26839D01*
X15889Y26853D01*
X16024Y26894D01*
X16148Y26960D01*
X16257Y27050D01*
X16347Y27159D01*
X16413Y27284D01*
X16454Y27419D01*
X16468Y27559D01*
X16454Y27700D01*
X16413Y27835D01*
X16347Y27959D01*
X16257Y28068D01*
X16148Y28158D01*
X16124Y28171D01*
Y28592D01*
X16111Y28689D01*
X16074Y28780D01*
X16014Y28858D01*
X14206Y30666D01*
X14128Y30726D01*
X14090Y30741D01*
X14037Y30763D01*
X13985Y30770D01*
X13969Y30800D01*
X13879Y30909D01*
X13770Y30999D01*
X13646Y31065D01*
X13510Y31106D01*
X13370Y31120D01*
D02*
G37*
G36*
X25240Y29263D02*
X25100Y29249D01*
X24964Y29209D01*
X24840Y29142D01*
X24731Y29052D01*
X24662Y28968D01*
X24516D01*
X24406Y28954D01*
X24303Y28911D01*
X24215Y28844D01*
X23738Y28366D01*
X22905D01*
Y28075D01*
X22370D01*
Y28366D01*
X20937D01*
Y28075D01*
X18980D01*
X18870Y28060D01*
X18767Y28018D01*
X18679Y27950D01*
X17214Y26485D01*
X15076D01*
X14330Y27230D01*
X14242Y27298D01*
X14140Y27340D01*
X14030Y27355D01*
X13868D01*
X13823Y27440D01*
X13709Y27579D01*
X13570Y27693D01*
X13411Y27778D01*
X13239Y27830D01*
X13060Y27848D01*
X12881Y27830D01*
X12709Y27778D01*
X12550Y27693D01*
X12411Y27579D01*
X12297Y27440D01*
X12212Y27281D01*
X12160Y27109D01*
X12142Y26930D01*
X12160Y26751D01*
X12212Y26579D01*
X12297Y26420D01*
X12411Y26281D01*
X12550Y26167D01*
X12659Y26108D01*
Y26052D01*
X12550Y25993D01*
X12411Y25879D01*
X12297Y25740D01*
X12212Y25581D01*
X12160Y25409D01*
X12142Y25230D01*
X12160Y25051D01*
X12212Y24879D01*
X12297Y24720D01*
X12411Y24581D01*
X12550Y24467D01*
X12709Y24382D01*
X12881Y24330D01*
X13060Y24312D01*
X13239Y24330D01*
X13308Y24351D01*
X17219Y20440D01*
X17296Y20380D01*
X17387Y20342D01*
X17484Y20329D01*
X17813D01*
X17825Y20306D01*
X17915Y20196D01*
X18024Y20107D01*
X18148Y20040D01*
X18284Y19999D01*
X18424Y19986D01*
X18564Y19999D01*
X18700Y20040D01*
X18824Y20107D01*
X18933Y20196D01*
X19023Y20306D01*
X19089Y20430D01*
X19130Y20565D01*
X19144Y20706D01*
X19130Y20846D01*
X19089Y20981D01*
X19023Y21106D01*
X18933Y21215D01*
X18824Y21304D01*
X18700Y21371D01*
X18564Y21412D01*
X18424Y21426D01*
X18284Y21412D01*
X18148Y21371D01*
X18024Y21304D01*
X17915Y21215D01*
X17825Y21106D01*
X17813Y21082D01*
X17640D01*
X13885Y24837D01*
X13908Y24879D01*
X13960Y25051D01*
X13978Y25230D01*
X13960Y25409D01*
X13908Y25581D01*
X13823Y25740D01*
X13709Y25879D01*
X13570Y25993D01*
X13460Y26052D01*
Y26108D01*
X13570Y26167D01*
X13709Y26281D01*
X13823Y26420D01*
X13844Y26459D01*
X13893Y26466D01*
X14600Y25760D01*
X14688Y25692D01*
X14790Y25650D01*
X14900Y25635D01*
X17390D01*
X17500Y25650D01*
X17602Y25692D01*
X17690Y25760D01*
X19156Y27225D01*
X20937D01*
Y26933D01*
X22370D01*
Y27225D01*
X22905D01*
Y26933D01*
X24339D01*
Y27765D01*
X24649Y28076D01*
X24699Y28073D01*
X24731Y28034D01*
X24840Y27945D01*
X24964Y27878D01*
X25100Y27837D01*
X25240Y27823D01*
X25380Y27837D01*
X25516Y27878D01*
X25640Y27945D01*
X25749Y28034D01*
X25839Y28143D01*
X25905Y28268D01*
X25946Y28403D01*
X25960Y28543D01*
X25946Y28684D01*
X25905Y28819D01*
X25839Y28943D01*
X25749Y29052D01*
X25640Y29142D01*
X25516Y29209D01*
X25380Y29249D01*
X25240Y29263D01*
D02*
G37*
G36*
X13415Y23379D02*
Y22915D01*
X13879D01*
X13870Y22982D01*
X13815Y23114D01*
X13728Y23228D01*
X13614Y23315D01*
X13482Y23370D01*
X13415Y23379D01*
D02*
G37*
G36*
X18424Y24969D02*
X18284Y24955D01*
X18148Y24914D01*
X18024Y24848D01*
X17915Y24758D01*
X17825Y24649D01*
X17759Y24524D01*
X17718Y24389D01*
X17704Y24249D01*
X17718Y24108D01*
X17759Y23973D01*
X17825Y23849D01*
X17915Y23740D01*
X18024Y23650D01*
X18148Y23584D01*
X18284Y23543D01*
X18424Y23529D01*
X18564Y23543D01*
X18590Y23551D01*
X18875Y23266D01*
X18953Y23206D01*
X18991Y23190D01*
X19044Y23168D01*
X19141Y23155D01*
X21042D01*
X21055Y23131D01*
X21144Y23022D01*
X21254Y22933D01*
X21378Y22866D01*
X21513Y22825D01*
X21654Y22812D01*
X21794Y22825D01*
X21929Y22866D01*
X22054Y22933D01*
X22163Y23022D01*
X22252Y23131D01*
X22319Y23256D01*
X22360Y23391D01*
X22374Y23531D01*
X22360Y23672D01*
X22319Y23807D01*
X22252Y23932D01*
X22163Y24041D01*
X22054Y24130D01*
X21929Y24197D01*
X21794Y24238D01*
X21654Y24251D01*
X21513Y24238D01*
X21378Y24197D01*
X21254Y24130D01*
X21144Y24041D01*
X21055Y23932D01*
X21042Y23908D01*
X19297D01*
X19122Y24082D01*
X19130Y24108D01*
X19144Y24249D01*
X19130Y24389D01*
X19089Y24524D01*
X19023Y24649D01*
X18933Y24758D01*
X18824Y24848D01*
X18700Y24914D01*
X18564Y24955D01*
X18424Y24969D01*
D02*
G37*
G36*
X13265Y23379D02*
X13198Y23370D01*
X13066Y23315D01*
X12952Y23228D01*
X12865Y23114D01*
X12810Y22982D01*
X12801Y22915D01*
X13265D01*
Y23379D01*
D02*
G37*
G36*
X13325Y28595D02*
X12861D01*
X12870Y28528D01*
X12925Y28396D01*
X13012Y28282D01*
X13126Y28195D01*
X13258Y28140D01*
X13325Y28131D01*
Y28595D01*
D02*
G37*
G36*
X18185Y33200D02*
X18045Y33186D01*
X17910Y33146D01*
X17785Y33079D01*
X17676Y32989D01*
X17586Y32880D01*
X17520Y32756D01*
X17479Y32621D01*
X17465Y32480D01*
X17479Y32340D01*
X17520Y32205D01*
X17586Y32080D01*
X17676Y31971D01*
X17785Y31882D01*
X17809Y31869D01*
Y31123D01*
X17785Y31110D01*
X17676Y31021D01*
X17586Y30912D01*
X17520Y30787D01*
X17479Y30652D01*
X17465Y30512D01*
X17479Y30371D01*
X17487Y30345D01*
X17367Y30226D01*
X17341Y30234D01*
X17201Y30248D01*
X17060Y30234D01*
X16925Y30193D01*
X16801Y30126D01*
X16692Y30037D01*
X16602Y29928D01*
X16536Y29803D01*
X16495Y29668D01*
X16481Y29528D01*
X16495Y29387D01*
X16536Y29252D01*
X16602Y29128D01*
X16692Y29018D01*
X16801Y28929D01*
X16925Y28862D01*
X17060Y28821D01*
X17201Y28808D01*
X17341Y28821D01*
X17476Y28862D01*
X17601Y28929D01*
X17710Y29018D01*
X17799Y29128D01*
X17866Y29252D01*
X17907Y29387D01*
X17921Y29528D01*
X17907Y29668D01*
X17899Y29694D01*
X18019Y29814D01*
X18045Y29806D01*
X18185Y29792D01*
X18326Y29806D01*
X18461Y29847D01*
X18585Y29913D01*
X18694Y30003D01*
X18784Y30112D01*
X18850Y30236D01*
X18891Y30371D01*
X18905Y30512D01*
X18891Y30652D01*
X18850Y30787D01*
X18784Y30912D01*
X18694Y31021D01*
X18585Y31110D01*
X18561Y31123D01*
Y31869D01*
X18585Y31882D01*
X18694Y31971D01*
X18784Y32080D01*
X18850Y32205D01*
X18891Y32340D01*
X18905Y32480D01*
X18891Y32621D01*
X18850Y32756D01*
X18784Y32880D01*
X18694Y32989D01*
X18585Y33079D01*
X18461Y33146D01*
X18326Y33186D01*
X18185Y33200D01*
D02*
G37*
G36*
X21185D02*
X21045Y33186D01*
X20910Y33146D01*
X20785Y33079D01*
X20676Y32989D01*
X20586Y32880D01*
X20520Y32756D01*
X20479Y32621D01*
X20465Y32480D01*
X20479Y32340D01*
X20520Y32205D01*
X20586Y32080D01*
X20676Y31971D01*
X20785Y31882D01*
X20910Y31815D01*
X21045Y31774D01*
X21185Y31760D01*
X21326Y31774D01*
X21461Y31815D01*
X21585Y31882D01*
X21694Y31971D01*
X21784Y32080D01*
X21797Y32104D01*
X22029D01*
X22041Y32080D01*
X22131Y31971D01*
X22240Y31882D01*
X22364Y31815D01*
X22401Y31804D01*
X22394Y31754D01*
X22051D01*
X21954Y31741D01*
X21901Y31719D01*
X21863Y31704D01*
X21785Y31644D01*
X21351Y31210D01*
X21326Y31218D01*
X21185Y31232D01*
X21045Y31218D01*
X20910Y31177D01*
X20785Y31110D01*
X20676Y31021D01*
X20586Y30912D01*
X20520Y30787D01*
X20479Y30652D01*
X20465Y30512D01*
X20479Y30371D01*
X20520Y30236D01*
X20586Y30112D01*
X20676Y30003D01*
X20785Y29913D01*
X20910Y29847D01*
X21045Y29806D01*
X21185Y29792D01*
X21326Y29806D01*
X21461Y29847D01*
X21585Y29913D01*
X21694Y30003D01*
X21784Y30112D01*
X21850Y30236D01*
X21891Y30371D01*
X21905Y30512D01*
X21891Y30652D01*
X21883Y30678D01*
X22207Y31002D01*
X25089D01*
X25101Y30978D01*
X25191Y30869D01*
X25300Y30779D01*
X25424Y30713D01*
X25560Y30672D01*
X25700Y30658D01*
X25808Y30669D01*
X26558Y29920D01*
X26646Y29852D01*
X26748Y29810D01*
X26858Y29795D01*
X29461D01*
X29507Y29710D01*
X29621Y29571D01*
X29760Y29457D01*
X29919Y29372D01*
X30091Y29320D01*
X30270Y29302D01*
X30449Y29320D01*
X30621Y29372D01*
X30780Y29457D01*
X30919Y29571D01*
X31033Y29710D01*
X31118Y29869D01*
X31170Y30041D01*
X31188Y30220D01*
X31170Y30399D01*
X31118Y30571D01*
X31033Y30730D01*
X30919Y30869D01*
X30780Y30983D01*
X30621Y31068D01*
X30449Y31120D01*
X30270Y31138D01*
X30091Y31120D01*
X29919Y31068D01*
X29760Y30983D01*
X29621Y30869D01*
X29507Y30730D01*
X29461Y30645D01*
X27034D01*
X26409Y31270D01*
X26420Y31378D01*
X26406Y31518D01*
X26365Y31653D01*
X26299Y31778D01*
X26209Y31887D01*
X26100Y31977D01*
X25976Y32043D01*
X25840Y32084D01*
X25700Y32098D01*
X25560Y32084D01*
X25424Y32043D01*
X25300Y31977D01*
X25191Y31887D01*
X25101Y31778D01*
X25089Y31754D01*
X22886D01*
X22879Y31804D01*
X22916Y31815D01*
X23040Y31882D01*
X23149Y31971D01*
X23239Y32080D01*
X23305Y32205D01*
X23346Y32340D01*
X23360Y32480D01*
X23346Y32621D01*
X23305Y32756D01*
X23239Y32880D01*
X23149Y32989D01*
X23040Y33079D01*
X22916Y33146D01*
X22780Y33186D01*
X22640Y33200D01*
X22500Y33186D01*
X22364Y33146D01*
X22240Y33079D01*
X22131Y32989D01*
X22041Y32880D01*
X22029Y32856D01*
X21797D01*
X21784Y32880D01*
X21694Y32989D01*
X21585Y33079D01*
X21461Y33146D01*
X21326Y33186D01*
X21185Y33200D01*
D02*
G37*
G36*
X13475Y29209D02*
Y28745D01*
X13939D01*
X13930Y28812D01*
X13875Y28944D01*
X13788Y29058D01*
X13674Y29145D01*
X13542Y29200D01*
X13475Y29209D01*
D02*
G37*
G36*
X13939Y28595D02*
X13475D01*
Y28131D01*
X13542Y28140D01*
X13674Y28195D01*
X13788Y28282D01*
X13875Y28396D01*
X13930Y28528D01*
X13939Y28595D01*
D02*
G37*
G36*
X13325Y29209D02*
X13258Y29200D01*
X13126Y29145D01*
X13012Y29058D01*
X12925Y28944D01*
X12870Y28812D01*
X12861Y28745D01*
X13325D01*
Y29209D01*
D02*
G37*
G36*
X13879Y22765D02*
X13415D01*
Y22301D01*
X13482Y22310D01*
X13614Y22365D01*
X13728Y22452D01*
X13815Y22566D01*
X13870Y22698D01*
X13879Y22765D01*
D02*
G37*
G36*
X30015Y17859D02*
X29948Y17850D01*
X29816Y17795D01*
X29702Y17708D01*
X29615Y17594D01*
X29560Y17462D01*
X29551Y17395D01*
X30015D01*
Y17859D01*
D02*
G37*
G36*
X30165D02*
Y17395D01*
X30629D01*
X30620Y17462D01*
X30565Y17594D01*
X30478Y17708D01*
X30364Y17795D01*
X30232Y17850D01*
X30165Y17859D01*
D02*
G37*
G36*
X19815Y17759D02*
Y17295D01*
X20279D01*
X20270Y17362D01*
X20215Y17494D01*
X20128Y17608D01*
X20014Y17695D01*
X19882Y17750D01*
X19815Y17759D01*
D02*
G37*
G36*
X30629Y17245D02*
X30165D01*
Y16781D01*
X30232Y16790D01*
X30364Y16845D01*
X30478Y16932D01*
X30565Y17046D01*
X30620Y17178D01*
X30629Y17245D01*
D02*
G37*
G36*
X19665Y17759D02*
X19598Y17750D01*
X19466Y17695D01*
X19352Y17608D01*
X19265Y17494D01*
X19210Y17362D01*
X19201Y17295D01*
X19665D01*
Y17759D01*
D02*
G37*
G36*
X15748Y17968D02*
X15608Y17954D01*
X15473Y17913D01*
X15348Y17847D01*
X15239Y17757D01*
X15170Y17674D01*
X15169Y17673D01*
X15109Y17673D01*
X15108Y17674D01*
X15039Y17757D01*
X14930Y17847D01*
X14806Y17913D01*
X14670Y17954D01*
X14530Y17968D01*
X14390Y17954D01*
X14254Y17913D01*
X14130Y17847D01*
X14021Y17757D01*
X13931Y17648D01*
X13865Y17524D01*
X13824Y17388D01*
X13810Y17248D01*
X13824Y17108D01*
X13865Y16973D01*
X13931Y16848D01*
X14021Y16739D01*
X14130Y16649D01*
X14254Y16583D01*
X14390Y16542D01*
X14530Y16528D01*
X14670Y16542D01*
X14806Y16583D01*
X14930Y16649D01*
X15039Y16739D01*
X15108Y16822D01*
X15109Y16824D01*
X15169Y16824D01*
X15170Y16822D01*
X15239Y16739D01*
X15348Y16649D01*
X15473Y16583D01*
X15608Y16542D01*
X15748Y16528D01*
X15889Y16542D01*
X16024Y16583D01*
X16148Y16649D01*
X16257Y16739D01*
X16347Y16848D01*
X16413Y16973D01*
X16454Y17108D01*
X16468Y17248D01*
X16454Y17389D01*
X16413Y17524D01*
X16347Y17648D01*
X16257Y17757D01*
X16148Y17847D01*
X16024Y17913D01*
X15889Y17954D01*
X15748Y17968D01*
D02*
G37*
G36*
X23622Y24251D02*
X23482Y24238D01*
X23347Y24197D01*
X23222Y24130D01*
X23113Y24041D01*
X23023Y23931D01*
X22957Y23807D01*
X22916Y23672D01*
X22902Y23531D01*
X22916Y23391D01*
X22957Y23256D01*
X23023Y23131D01*
X23113Y23022D01*
X23222Y22933D01*
X23347Y22866D01*
X23482Y22825D01*
X23622Y22811D01*
X23763Y22825D01*
X23898Y22866D01*
X24022Y22933D01*
X24131Y23022D01*
X24221Y23131D01*
X24234Y23155D01*
X29327D01*
X29332Y23150D01*
X29350Y22971D01*
X29402Y22799D01*
X29487Y22640D01*
X29601Y22501D01*
X29740Y22387D01*
X29899Y22302D01*
X30071Y22250D01*
X30250Y22232D01*
X30429Y22250D01*
X30601Y22302D01*
X30760Y22387D01*
X30899Y22501D01*
X31013Y22640D01*
X31098Y22799D01*
X31150Y22971D01*
X31168Y23150D01*
X31150Y23329D01*
X31098Y23501D01*
X31013Y23660D01*
X30899Y23799D01*
X30760Y23913D01*
X30601Y23998D01*
X30429Y24050D01*
X30250Y24068D01*
X30071Y24050D01*
X29899Y23998D01*
X29740Y23913D01*
X29733Y23908D01*
X24234D01*
X24221Y23931D01*
X24131Y24041D01*
X24022Y24130D01*
X23898Y24197D01*
X23763Y24238D01*
X23622Y24251D01*
D02*
G37*
G36*
X13265Y22765D02*
X12801D01*
X12810Y22698D01*
X12865Y22566D01*
X12952Y22452D01*
X13066Y22365D01*
X13198Y22310D01*
X13265Y22301D01*
Y22765D01*
D02*
G37*
G36*
X15748Y25279D02*
X15608Y25265D01*
X15473Y25224D01*
X15348Y25158D01*
X15239Y25068D01*
X15149Y24959D01*
X15083Y24835D01*
X15042Y24700D01*
X15028Y24559D01*
X15042Y24419D01*
X15083Y24284D01*
X15149Y24159D01*
X15239Y24050D01*
X15348Y23960D01*
X15473Y23894D01*
X15608Y23853D01*
X15748Y23839D01*
X15889Y23853D01*
X15914Y23861D01*
X17681Y22094D01*
X17759Y22034D01*
X17850Y21997D01*
X17947Y21984D01*
X26648D01*
X26661Y21960D01*
X26751Y21851D01*
X26860Y21761D01*
X26984Y21695D01*
X27119Y21654D01*
X27260Y21640D01*
X27400Y21654D01*
X27535Y21695D01*
X27660Y21761D01*
X27769Y21851D01*
X27859Y21960D01*
X27925Y22084D01*
X27966Y22219D01*
X27980Y22360D01*
X27966Y22500D01*
X27925Y22635D01*
X27859Y22760D01*
X27769Y22869D01*
X27660Y22959D01*
X27535Y23025D01*
X27400Y23066D01*
X27260Y23080D01*
X27119Y23066D01*
X26984Y23025D01*
X26860Y22959D01*
X26751Y22869D01*
X26661Y22760D01*
X26648Y22736D01*
X18103D01*
X16446Y24393D01*
X16454Y24419D01*
X16468Y24559D01*
X16454Y24700D01*
X16413Y24835D01*
X16347Y24959D01*
X16257Y25068D01*
X16148Y25158D01*
X16024Y25224D01*
X15889Y25265D01*
X15748Y25279D01*
D02*
G37*
G36*
X24091Y21389D02*
X23950Y21375D01*
X23815Y21334D01*
X23691Y21268D01*
X23581Y21178D01*
X23492Y21069D01*
X23425Y20945D01*
X23384Y20810D01*
X23371Y20669D01*
X23384Y20529D01*
X23392Y20503D01*
X23312Y20423D01*
X23254Y20405D01*
X23130Y20339D01*
X23021Y20249D01*
X22931Y20140D01*
X22865Y20016D01*
X22824Y19880D01*
X22810Y19740D01*
X22824Y19600D01*
X22865Y19464D01*
X22931Y19340D01*
X23021Y19231D01*
X23130Y19141D01*
X23254Y19075D01*
X23284Y19066D01*
X23296Y19017D01*
X22536Y18258D01*
X22510Y18266D01*
X22370Y18280D01*
X22230Y18266D01*
X22094Y18225D01*
X21970Y18159D01*
X21861Y18069D01*
X21771Y17960D01*
X21705Y17836D01*
X21664Y17700D01*
X21650Y17560D01*
X21664Y17420D01*
X21705Y17284D01*
X21771Y17160D01*
X21861Y17051D01*
X21970Y16961D01*
X22094Y16895D01*
X22230Y16854D01*
X22370Y16840D01*
X22510Y16854D01*
X22646Y16895D01*
X22770Y16961D01*
X22879Y17051D01*
X22969Y17160D01*
X23035Y17284D01*
X23076Y17420D01*
X23090Y17560D01*
X23076Y17700D01*
X23068Y17726D01*
X23785Y18443D01*
X23939D01*
X23951Y18419D01*
X24041Y18310D01*
X24150Y18220D01*
X24274Y18154D01*
X24410Y18113D01*
X24550Y18099D01*
X24690Y18113D01*
X24826Y18154D01*
X24950Y18220D01*
X25059Y18310D01*
X25149Y18419D01*
X25215Y18543D01*
X25256Y18678D01*
X25270Y18819D01*
X25256Y18959D01*
X25215Y19094D01*
X25149Y19219D01*
X25059Y19328D01*
X24950Y19418D01*
X24826Y19484D01*
X24690Y19525D01*
X24550Y19539D01*
X24410Y19525D01*
X24274Y19484D01*
X24249Y19471D01*
X24207Y19505D01*
X24236Y19600D01*
X24250Y19740D01*
X24236Y19880D01*
X24225Y19917D01*
X24254Y19970D01*
X24366Y20004D01*
X24491Y20071D01*
X24600Y20160D01*
X24689Y20269D01*
X24756Y20394D01*
X24797Y20529D01*
X24811Y20669D01*
X24797Y20810D01*
X24756Y20945D01*
X24689Y21069D01*
X24600Y21178D01*
X24491Y21268D01*
X24366Y21334D01*
X24231Y21375D01*
X24091Y21389D01*
D02*
G37*
G36*
X21120Y19451D02*
X20980Y19437D01*
X20845Y19396D01*
X20720Y19330D01*
X20611Y19240D01*
X20521Y19131D01*
X20509Y19107D01*
X20352D01*
X20339Y19131D01*
X20249Y19240D01*
X20140Y19330D01*
X20016Y19396D01*
X19881Y19437D01*
X19740Y19451D01*
X19600Y19437D01*
X19465Y19396D01*
X19340Y19330D01*
X19231Y19240D01*
X19141Y19131D01*
X19075Y19007D01*
X19034Y18872D01*
X19020Y18731D01*
X19034Y18591D01*
X19075Y18456D01*
X19141Y18331D01*
X19231Y18222D01*
X19340Y18132D01*
X19465Y18066D01*
X19600Y18025D01*
X19740Y18011D01*
X19881Y18025D01*
X20016Y18066D01*
X20140Y18132D01*
X20249Y18222D01*
X20339Y18331D01*
X20352Y18355D01*
X20509D01*
X20521Y18331D01*
X20611Y18222D01*
X20720Y18132D01*
X20845Y18066D01*
X20980Y18025D01*
X21120Y18011D01*
X21261Y18025D01*
X21396Y18066D01*
X21520Y18132D01*
X21629Y18222D01*
X21719Y18331D01*
X21785Y18456D01*
X21826Y18591D01*
X21840Y18731D01*
X21826Y18872D01*
X21785Y19007D01*
X21719Y19131D01*
X21629Y19240D01*
X21520Y19330D01*
X21396Y19396D01*
X21261Y19437D01*
X21120Y19451D01*
D02*
G37*
%LPD*%
D15*
X24091Y16081D02*
X27091Y19081D01*
X24091Y16081D02*
Y16081D01*
Y14764D02*
Y16081D01*
X24091Y14764D02*
X24091Y14764D01*
X13940Y30400D02*
X15748Y28592D01*
X13370Y30400D02*
X13940D01*
X23622Y27650D02*
X23622Y27650D01*
X14530Y17248D02*
X15748D01*
X15748Y17248D01*
X23629Y18819D02*
X24550D01*
X22370Y17560D02*
X23629Y18819D01*
X27091Y19660D02*
X27091Y19660D01*
X27091Y19660D02*
Y20669D01*
X27091Y19081D02*
Y19660D01*
X23530Y20109D02*
X24091Y20669D01*
X23530Y19740D02*
Y20109D01*
X27091Y14764D02*
X27890Y15563D01*
X27091Y14764D02*
X27091D01*
X18410Y15880D02*
X19526Y14764D01*
X24091D01*
X22122Y10827D02*
X22122Y10827D01*
X19680Y10827D02*
X22122D01*
X15748Y13579D02*
X18500Y10827D01*
X15748Y13579D02*
Y14248D01*
X29869Y23531D02*
X30250Y23150D01*
X23622Y23531D02*
X29869D01*
X19141Y23531D02*
X21654D01*
X18424Y24249D02*
X19141Y23531D01*
X15748Y24559D02*
X17947Y22360D01*
X27260D01*
X15748Y27559D02*
Y28592D01*
X22640Y32480D02*
X22640Y32480D01*
X21185Y32480D02*
X22640D01*
X22051Y31378D02*
X25700D01*
X21185Y30512D02*
X22051Y31378D01*
X18185Y30512D02*
Y32480D01*
X17201Y29528D02*
X18185Y30512D01*
X17201Y29528D02*
Y29528D01*
X28915Y14061D02*
Y14065D01*
X27650Y12795D02*
X28915Y14061D01*
X25681Y10827D02*
X27650Y12795D01*
X25122Y10827D02*
X25681D01*
X15310Y13810D02*
X15748Y14248D01*
X13110Y13810D02*
X15310D01*
X13100Y15880D02*
X18410D01*
X19740Y18731D02*
X21120D01*
X13060Y25130D02*
X17484Y20706D01*
X13060Y25130D02*
Y25230D01*
X17484Y20706D02*
X18424D01*
D16*
X21654Y27650D02*
X23622D01*
X24516Y28543D02*
X25240D01*
X23622Y27650D02*
X24516Y28543D01*
X18980Y27650D02*
X21654D01*
X17390Y26060D02*
X18980Y27650D01*
X14900Y26060D02*
X17390D01*
X14030Y26930D02*
X14900Y26060D01*
X13060Y26930D02*
X14030D01*
X25700Y31378D02*
X26858Y30220D01*
X30270D01*
D17*
X27650Y12795D02*
D03*
D18*
X23531D02*
D03*
X21654Y23531D02*
D03*
X18424Y20706D02*
D03*
Y24249D02*
D03*
X23622Y23531D02*
D03*
X22122Y10827D02*
D03*
X25122D02*
D03*
X27091Y14764D02*
D03*
X24091D02*
D03*
X15748Y17248D02*
D03*
Y14248D02*
D03*
Y27559D02*
D03*
Y24559D02*
D03*
X27091Y20669D02*
D03*
X24091D02*
D03*
X18185Y32480D02*
D03*
X21185D02*
D03*
X18185Y30512D02*
D03*
X21185D02*
D03*
X24091Y16081D02*
D03*
X13400Y28670D02*
D03*
X13370Y30400D02*
D03*
X25240Y28543D02*
D03*
X14530Y17248D02*
D03*
X26800Y16580D02*
D03*
X24550Y18819D02*
D03*
X27091Y19660D02*
D03*
X23530Y19740D02*
D03*
X27890Y15563D02*
D03*
X27260Y22360D02*
D03*
X22640Y32480D02*
D03*
X17201Y29528D02*
D03*
X28915Y14065D02*
D03*
X21120Y18731D02*
D03*
X19740D02*
D03*
X25700Y31378D02*
D03*
X19680Y10827D02*
D03*
X18500D02*
D03*
X19740Y17220D02*
D03*
X22370Y17560D02*
D03*
X30090Y17320D02*
D03*
X22370Y15970D02*
D03*
X13340Y22840D02*
D03*
D19*
X21654Y27650D02*
D03*
X23622Y27650D02*
D03*
D20*
X30270Y30220D02*
D03*
X13100Y15880D02*
D03*
X13060Y25230D02*
D03*
X13060Y26930D02*
D03*
X13170Y11810D02*
D03*
X13110Y13810D02*
D03*
X30250Y23150D02*
D03*
M02*
