G04 Layer_Color=0*
%FSLAX24Y24*%
%MOIN*%
G70*
G01*
G75*
%ADD38C,0.0050*%
%ADD39C,0.0020*%
%ADD40C,0.0070*%
D38*
X57700Y-22800D02*
Y-20800D01*
X54450D02*
Y-14800D01*
X75450Y-20800D02*
Y-14800D01*
X39450Y-20800D02*
Y-8800D01*
X84450Y-20800D02*
Y-8800D01*
X54450D02*
X84450D01*
X54450Y-14800D02*
Y-8800D01*
X39450D02*
X54450D01*
X39450Y-14800D02*
X84450D01*
X39450Y-17800D02*
X84450D01*
X39450Y-20800D02*
X84450D01*
X39450Y-11800D02*
X54450D01*
X25450Y-8800D02*
X39450D01*
X25450Y-20800D02*
Y-8800D01*
Y-20800D02*
X39450D01*
X28950Y-22800D02*
Y-20800D01*
X200Y-22800D02*
Y-20800D01*
X-28550Y-3800D02*
X-26550D01*
X-28550Y15200D02*
X-26550D01*
X-28550Y34200D02*
X-26550D01*
X-28550Y-22800D02*
Y53200D01*
X84450Y-3800D02*
X86450D01*
X84450Y34200D02*
X86450D01*
X57700Y51200D02*
Y53200D01*
X28950Y51200D02*
Y53200D01*
X200Y51200D02*
Y53200D01*
X-26550Y51200D02*
X84450D01*
Y-20800D02*
Y51200D01*
X-26550Y-20800D02*
X84450D01*
X-26550D02*
Y51200D01*
X-28550Y53200D02*
X86450D01*
Y-22800D02*
Y53200D01*
X-28550Y-22800D02*
X86450D01*
X76250Y-18414D02*
X76207Y-18372D01*
X76143Y-18350D01*
X76057D01*
X75993Y-18372D01*
X75950Y-18414D01*
Y-18457D01*
X75971Y-18500D01*
X75993Y-18521D01*
X76036Y-18543D01*
X76164Y-18586D01*
X76207Y-18607D01*
X76229Y-18629D01*
X76250Y-18671D01*
Y-18736D01*
X76207Y-18779D01*
X76143Y-18800D01*
X76057D01*
X75993Y-18779D01*
X75950Y-18736D01*
X76672Y-18457D02*
X76651Y-18414D01*
X76608Y-18372D01*
X76565Y-18350D01*
X76479D01*
X76436Y-18372D01*
X76393Y-18414D01*
X76372Y-18457D01*
X76351Y-18521D01*
Y-18629D01*
X76372Y-18693D01*
X76393Y-18736D01*
X76436Y-18779D01*
X76479Y-18800D01*
X76565D01*
X76608Y-18779D01*
X76651Y-18736D01*
X76672Y-18693D01*
X77141Y-18800D02*
X76970Y-18350D01*
X76798Y-18800D01*
X76863Y-18650D02*
X77077D01*
X77246Y-18350D02*
Y-18800D01*
X77503D01*
X77831Y-18350D02*
X77553D01*
Y-18800D01*
X77831D01*
X77553Y-18564D02*
X77724D01*
X77927Y-18500D02*
X77906Y-18521D01*
X77927Y-18543D01*
X77949Y-18521D01*
X77927Y-18500D01*
Y-18757D02*
X77906Y-18779D01*
X77927Y-18800D01*
X77949Y-18779D01*
X77927Y-18757D01*
X39950Y-18350D02*
Y-18800D01*
Y-18350D02*
X40229D01*
X39950Y-18564D02*
X40121D01*
X40280Y-18350D02*
Y-18800D01*
X40374Y-18350D02*
Y-18800D01*
X40631D01*
X40959Y-18350D02*
X40681D01*
Y-18800D01*
X40959D01*
X40681Y-18564D02*
X40852D01*
X41388Y-18350D02*
Y-18800D01*
Y-18350D02*
X41687Y-18800D01*
Y-18350D02*
Y-18800D01*
X42155D02*
X41983Y-18350D01*
X41812Y-18800D01*
X41876Y-18650D02*
X42090D01*
X42260Y-18350D02*
Y-18800D01*
Y-18350D02*
X42431Y-18800D01*
X42602Y-18350D02*
X42431Y-18800D01*
X42602Y-18350D02*
Y-18800D01*
X43009Y-18350D02*
X42731D01*
Y-18800D01*
X43009D01*
X42731Y-18564D02*
X42902D01*
X43106Y-18500D02*
X43084Y-18521D01*
X43106Y-18543D01*
X43127Y-18521D01*
X43106Y-18500D01*
Y-18757D02*
X43084Y-18779D01*
X43106Y-18800D01*
X43127Y-18779D01*
X43106Y-18757D01*
X39950Y-12536D02*
X40143D01*
X40207Y-12514D01*
X40229Y-12493D01*
X40250Y-12450D01*
Y-12386D01*
X40229Y-12343D01*
X40207Y-12322D01*
X40143Y-12300D01*
X39950D01*
Y-12750D01*
X40672Y-12407D02*
X40651Y-12364D01*
X40608Y-12322D01*
X40565Y-12300D01*
X40479D01*
X40436Y-12322D01*
X40393Y-12364D01*
X40372Y-12407D01*
X40351Y-12471D01*
Y-12579D01*
X40372Y-12643D01*
X40393Y-12686D01*
X40436Y-12729D01*
X40479Y-12750D01*
X40565D01*
X40608Y-12729D01*
X40651Y-12686D01*
X40672Y-12643D01*
X40798Y-12300D02*
Y-12750D01*
Y-12300D02*
X40991D01*
X41055Y-12322D01*
X41077Y-12343D01*
X41098Y-12386D01*
Y-12429D01*
X41077Y-12471D01*
X41055Y-12493D01*
X40991Y-12514D01*
X40798D02*
X40991D01*
X41055Y-12536D01*
X41077Y-12557D01*
X41098Y-12600D01*
Y-12664D01*
X41077Y-12707D01*
X41055Y-12729D01*
X40991Y-12750D01*
X40798D01*
X41553Y-12300D02*
Y-12750D01*
Y-12300D02*
X41702D01*
X41767Y-12322D01*
X41810Y-12364D01*
X41831Y-12407D01*
X41852Y-12471D01*
Y-12579D01*
X41831Y-12643D01*
X41810Y-12686D01*
X41767Y-12729D01*
X41702Y-12750D01*
X41553D01*
X42232Y-12300D02*
X41953D01*
Y-12750D01*
X42232D01*
X41953Y-12514D02*
X42125D01*
X42607Y-12364D02*
X42564Y-12322D01*
X42499Y-12300D01*
X42414D01*
X42349Y-12322D01*
X42307Y-12364D01*
Y-12407D01*
X42328Y-12450D01*
X42349Y-12471D01*
X42392Y-12493D01*
X42521Y-12536D01*
X42564Y-12557D01*
X42585Y-12579D01*
X42607Y-12621D01*
Y-12686D01*
X42564Y-12729D01*
X42499Y-12750D01*
X42414D01*
X42349Y-12729D01*
X42307Y-12686D01*
X42707Y-12300D02*
Y-12750D01*
X43123Y-12407D02*
X43101Y-12364D01*
X43059Y-12322D01*
X43016Y-12300D01*
X42930D01*
X42887Y-12322D01*
X42844Y-12364D01*
X42823Y-12407D01*
X42802Y-12471D01*
Y-12579D01*
X42823Y-12643D01*
X42844Y-12686D01*
X42887Y-12729D01*
X42930Y-12750D01*
X43016D01*
X43059Y-12729D01*
X43101Y-12686D01*
X43123Y-12643D01*
Y-12579D01*
X43016D02*
X43123D01*
X43226Y-12300D02*
Y-12750D01*
Y-12300D02*
X43526Y-12750D01*
Y-12300D02*
Y-12750D01*
X43928Y-12300D02*
X43650D01*
Y-12750D01*
X43928D01*
X43650Y-12514D02*
X43821D01*
X44003Y-12300D02*
Y-12750D01*
Y-12300D02*
X44196D01*
X44261Y-12322D01*
X44282Y-12343D01*
X44303Y-12386D01*
Y-12429D01*
X44282Y-12471D01*
X44261Y-12493D01*
X44196Y-12514D01*
X44003D01*
X44153D02*
X44303Y-12750D01*
X44425Y-12450D02*
X44404Y-12471D01*
X44425Y-12493D01*
X44447Y-12471D01*
X44425Y-12450D01*
Y-12707D02*
X44404Y-12729D01*
X44425Y-12750D01*
X44447Y-12729D01*
X44425Y-12707D01*
X55100Y-9350D02*
Y-9800D01*
X54950Y-9350D02*
X55250D01*
X55304D02*
Y-9800D01*
X55548Y-9350D02*
Y-9800D01*
X55398Y-9350D02*
X55698D01*
X55751D02*
Y-9800D01*
X56008D01*
X56336Y-9350D02*
X56058D01*
Y-9800D01*
X56336D01*
X56058Y-9564D02*
X56229D01*
X56433Y-9500D02*
X56411Y-9521D01*
X56433Y-9543D01*
X56454Y-9521D01*
X56433Y-9500D01*
Y-9757D02*
X56411Y-9779D01*
X56433Y-9800D01*
X56454Y-9779D01*
X56433Y-9757D01*
X54950Y-15586D02*
X55143D01*
X55207Y-15564D01*
X55229Y-15543D01*
X55250Y-15500D01*
Y-15436D01*
X55229Y-15393D01*
X55207Y-15372D01*
X55143Y-15350D01*
X54950D01*
Y-15800D01*
X55693D02*
X55522Y-15350D01*
X55351Y-15800D01*
X55415Y-15650D02*
X55629D01*
X55798Y-15350D02*
Y-15800D01*
Y-15350D02*
X55991D01*
X56055Y-15372D01*
X56077Y-15393D01*
X56098Y-15436D01*
Y-15479D01*
X56077Y-15521D01*
X56055Y-15543D01*
X55991Y-15564D01*
X55798D01*
X55948D02*
X56098Y-15800D01*
X56349Y-15350D02*
Y-15800D01*
X56199Y-15350D02*
X56499D01*
X56906D02*
Y-15800D01*
Y-15350D02*
X57206Y-15800D01*
Y-15350D02*
Y-15800D01*
X57459Y-15350D02*
X57416Y-15372D01*
X57373Y-15414D01*
X57352Y-15457D01*
X57330Y-15521D01*
Y-15629D01*
X57352Y-15693D01*
X57373Y-15736D01*
X57416Y-15779D01*
X57459Y-15800D01*
X57544D01*
X57587Y-15779D01*
X57630Y-15736D01*
X57652Y-15693D01*
X57673Y-15629D01*
Y-15521D01*
X57652Y-15457D01*
X57630Y-15414D01*
X57587Y-15372D01*
X57544Y-15350D01*
X57459D01*
X57799Y-15757D02*
X57778Y-15779D01*
X57799Y-15800D01*
X57821Y-15779D01*
X57799Y-15757D01*
X57941Y-15500D02*
X57919Y-15521D01*
X57941Y-15543D01*
X57962Y-15521D01*
X57941Y-15500D01*
Y-15757D02*
X57919Y-15779D01*
X57941Y-15800D01*
X57962Y-15779D01*
X57941Y-15757D01*
X40229Y-9350D02*
X39950D01*
Y-9800D01*
X40229D01*
X39950Y-9564D02*
X40121D01*
X40304Y-9350D02*
Y-9800D01*
Y-9350D02*
X40603Y-9800D01*
Y-9350D02*
Y-9800D01*
X41049Y-9457D02*
X41028Y-9414D01*
X40985Y-9372D01*
X40942Y-9350D01*
X40856D01*
X40813Y-9372D01*
X40771Y-9414D01*
X40749Y-9457D01*
X40728Y-9521D01*
Y-9629D01*
X40749Y-9693D01*
X40771Y-9736D01*
X40813Y-9779D01*
X40856Y-9800D01*
X40942D01*
X40985Y-9779D01*
X41028Y-9736D01*
X41049Y-9693D01*
Y-9629D01*
X40942D02*
X41049D01*
X41152Y-9350D02*
Y-9800D01*
X41246Y-9350D02*
Y-9800D01*
Y-9350D02*
X41546Y-9800D01*
Y-9350D02*
Y-9800D01*
X41949Y-9350D02*
X41670D01*
Y-9800D01*
X41949D01*
X41670Y-9564D02*
X41842D01*
X42302Y-9350D02*
X42024D01*
Y-9800D01*
X42302D01*
X42024Y-9564D02*
X42195D01*
X42377Y-9350D02*
Y-9800D01*
Y-9350D02*
X42570D01*
X42634Y-9372D01*
X42656Y-9393D01*
X42677Y-9436D01*
Y-9479D01*
X42656Y-9521D01*
X42634Y-9543D01*
X42570Y-9564D01*
X42377D01*
X42527D02*
X42677Y-9800D01*
X42799Y-9500D02*
X42778Y-9521D01*
X42799Y-9543D01*
X42821Y-9521D01*
X42799Y-9500D01*
Y-9757D02*
X42778Y-9779D01*
X42799Y-9800D01*
X42821Y-9779D01*
X42799Y-9757D01*
X54950Y-18350D02*
Y-18800D01*
Y-18350D02*
X55100D01*
X55164Y-18372D01*
X55207Y-18414D01*
X55229Y-18457D01*
X55250Y-18521D01*
Y-18629D01*
X55229Y-18693D01*
X55207Y-18736D01*
X55164Y-18779D01*
X55100Y-18800D01*
X54950D01*
X55351Y-18350D02*
X55458Y-18800D01*
X55565Y-18350D02*
X55458Y-18800D01*
X55565Y-18350D02*
X55672Y-18800D01*
X55779Y-18350D02*
X55672Y-18800D01*
X56190Y-18457D02*
X56169Y-18414D01*
X56126Y-18372D01*
X56083Y-18350D01*
X55998D01*
X55955Y-18372D01*
X55912Y-18414D01*
X55891Y-18457D01*
X55869Y-18521D01*
Y-18629D01*
X55891Y-18693D01*
X55912Y-18736D01*
X55955Y-18779D01*
X55998Y-18800D01*
X56083D01*
X56126Y-18779D01*
X56169Y-18736D01*
X56190Y-18693D01*
Y-18629D01*
X56083D02*
X56190D01*
X56647Y-18350D02*
Y-18800D01*
Y-18350D02*
X56947Y-18800D01*
Y-18350D02*
Y-18800D01*
X57200Y-18350D02*
X57157Y-18372D01*
X57114Y-18414D01*
X57092Y-18457D01*
X57071Y-18521D01*
Y-18629D01*
X57092Y-18693D01*
X57114Y-18736D01*
X57157Y-18779D01*
X57200Y-18800D01*
X57285D01*
X57328Y-18779D01*
X57371Y-18736D01*
X57392Y-18693D01*
X57414Y-18629D01*
Y-18521D01*
X57392Y-18457D01*
X57371Y-18414D01*
X57328Y-18372D01*
X57285Y-18350D01*
X57200D01*
X57540Y-18500D02*
X57519Y-18521D01*
X57540Y-18543D01*
X57562Y-18521D01*
X57540Y-18500D01*
Y-18757D02*
X57519Y-18779D01*
X57540Y-18800D01*
X57562Y-18779D01*
X57540Y-18757D01*
X75950Y-15350D02*
Y-15800D01*
Y-15350D02*
X76143D01*
X76207Y-15372D01*
X76229Y-15393D01*
X76250Y-15436D01*
Y-15479D01*
X76229Y-15521D01*
X76207Y-15543D01*
X76143Y-15564D01*
X75950D01*
X76100D02*
X76250Y-15800D01*
X76629Y-15350D02*
X76351D01*
Y-15800D01*
X76629D01*
X76351Y-15564D02*
X76522D01*
X76704Y-15350D02*
X76876Y-15800D01*
X77047Y-15350D02*
X76876Y-15800D01*
X77126Y-15500D02*
X77105Y-15521D01*
X77126Y-15543D01*
X77148Y-15521D01*
X77126Y-15500D01*
Y-15757D02*
X77105Y-15779D01*
X77126Y-15800D01*
X77148Y-15779D01*
X77126Y-15757D01*
X39950Y-15350D02*
Y-15800D01*
Y-15350D02*
X40100D01*
X40164Y-15372D01*
X40207Y-15414D01*
X40229Y-15457D01*
X40250Y-15521D01*
Y-15629D01*
X40229Y-15693D01*
X40207Y-15736D01*
X40164Y-15779D01*
X40100Y-15800D01*
X39950D01*
X40693D02*
X40522Y-15350D01*
X40351Y-15800D01*
X40415Y-15650D02*
X40629D01*
X40948Y-15350D02*
Y-15800D01*
X40798Y-15350D02*
X41098D01*
X41430D02*
X41152D01*
Y-15800D01*
X41430D01*
X41152Y-15564D02*
X41323D01*
X41527Y-15500D02*
X41505Y-15521D01*
X41527Y-15543D01*
X41548Y-15521D01*
X41527Y-15500D01*
Y-15757D02*
X41505Y-15779D01*
X41527Y-15800D01*
X41548Y-15779D01*
X41527Y-15757D01*
D39*
X27660Y-9700D02*
X38400D01*
X27540Y-9720D02*
X38400D01*
X27480Y-9740D02*
X38400D01*
X27420Y-9760D02*
X38400D01*
X27360Y-9780D02*
X38400D01*
X27320Y-9800D02*
X38400D01*
X27280Y-9820D02*
X38400D01*
X27240Y-9840D02*
X38400D01*
X27200Y-9860D02*
X38400D01*
X27160Y-9880D02*
X38400D01*
X27140Y-9900D02*
X38400D01*
X27100Y-9920D02*
X38400D01*
X27080Y-9940D02*
X38400D01*
X27060Y-9960D02*
X38400D01*
X27040Y-9980D02*
X38400D01*
X27000Y-10000D02*
X38400D01*
X26980Y-10020D02*
X38400D01*
X26960Y-10040D02*
X38400D01*
X26940Y-10060D02*
X38400D01*
X26920Y-10080D02*
X38400D01*
X26900Y-10100D02*
X38400D01*
X26900Y-10120D02*
X38400D01*
X26880Y-10140D02*
X38400D01*
X26860Y-10160D02*
X38400D01*
X26840Y-10180D02*
X38400D01*
X26820Y-10200D02*
X38400D01*
X26820Y-10220D02*
X38400D01*
X26800Y-10240D02*
X38400D01*
X26780Y-10260D02*
X38400D01*
X26760Y-10280D02*
X38400D01*
X26760Y-10300D02*
X38400D01*
X26740Y-10320D02*
X38400D01*
X26740Y-10340D02*
X38400D01*
X26720Y-10360D02*
X38400D01*
X26700Y-10380D02*
X38400D01*
X26700Y-10400D02*
X38400D01*
X26700Y-10420D02*
X38400D01*
X26680Y-10440D02*
X38400D01*
X26680Y-10460D02*
X38400D01*
X26660Y-10480D02*
X38400D01*
X26660Y-10500D02*
X38400D01*
X26640Y-10520D02*
X38400D01*
X26640Y-10540D02*
X38400D01*
X26640Y-10560D02*
X38400D01*
X26620Y-10580D02*
X38400D01*
X26620Y-10600D02*
X38400D01*
X26620Y-10620D02*
X38400D01*
X26620Y-10640D02*
X38400D01*
X26600Y-10660D02*
X38400D01*
X26600Y-10680D02*
X29080D01*
X29500D02*
X30260D01*
X30880D02*
X38400D01*
X26600Y-10700D02*
X28960D01*
X29500D02*
X30240D01*
X30860D02*
X31160D01*
X31780D02*
X38400D01*
X26600Y-10720D02*
X28900D01*
X29500D02*
X30240D01*
X30860D02*
X31160D01*
X31760D02*
X38400D01*
X26600Y-10740D02*
X28840D01*
X29500D02*
X30240D01*
X30860D02*
X31140D01*
X31760D02*
X38400D01*
X26600Y-10760D02*
X28800D01*
X29500D02*
X30240D01*
X30860D02*
X31140D01*
X31760D02*
X38400D01*
X26600Y-10780D02*
X28760D01*
X29500D02*
X30220D01*
X30840D02*
X31140D01*
X31760D02*
X38400D01*
X26600Y-10800D02*
X28720D01*
X29500D02*
X30220D01*
X30840D02*
X31140D01*
X31740D02*
X38400D01*
X26600Y-10820D02*
X28700D01*
X29520D02*
X30220D01*
X30840D02*
X31120D01*
X31740D02*
X38400D01*
X26600Y-10840D02*
X28660D01*
X29520D02*
X30220D01*
X30840D02*
X31120D01*
X31740D02*
X38400D01*
X26600Y-10860D02*
X28640D01*
X29520D02*
X30200D01*
X30820D02*
X31120D01*
X31740D02*
X38400D01*
X26600Y-10880D02*
X28620D01*
X29520D02*
X30200D01*
X30820D02*
X31120D01*
X31720D02*
X38400D01*
X26600Y-10900D02*
X28600D01*
X29520D02*
X30200D01*
X30820D02*
X31100D01*
X31720D02*
X38400D01*
X26600Y-10920D02*
X28580D01*
X29520D02*
X30200D01*
X30820D02*
X31100D01*
X31720D02*
X38400D01*
X26600Y-10940D02*
X28560D01*
X29520D02*
X30180D01*
X30800D02*
X31100D01*
X31720D02*
X38400D01*
X26600Y-10960D02*
X28540D01*
X29520D02*
X30180D01*
X30800D02*
X31100D01*
X31700D02*
X38400D01*
X26600Y-10980D02*
X28520D01*
X29520D02*
X30180D01*
X30800D02*
X31080D01*
X31700D02*
X38400D01*
X26600Y-11000D02*
X28500D01*
X29520D02*
X30180D01*
X30800D02*
X31080D01*
X31700D02*
X38400D01*
X26600Y-11020D02*
X28480D01*
X29520D02*
X30160D01*
X30780D02*
X31080D01*
X31680D02*
X38400D01*
X26600Y-11040D02*
X28480D01*
X29520D02*
X30160D01*
X30780D02*
X31080D01*
X31680D02*
X38400D01*
X26600Y-11060D02*
X28460D01*
X29520D02*
X30160D01*
X30780D02*
X31060D01*
X31680D02*
X38400D01*
X26600Y-11080D02*
X28440D01*
X29520D02*
X30160D01*
X30780D02*
X31060D01*
X31680D02*
X38400D01*
X26600Y-11100D02*
X28440D01*
X29520D02*
X30160D01*
X30760D02*
X31060D01*
X31660D02*
X38400D01*
X26600Y-11120D02*
X28420D01*
X29520D02*
X30140D01*
X30760D02*
X31060D01*
X31660D02*
X38400D01*
X26600Y-11140D02*
X28420D01*
X29520D02*
X30140D01*
X30760D02*
X31040D01*
X31660D02*
X38400D01*
X26600Y-11160D02*
X28400D01*
X29520D02*
X30140D01*
X30760D02*
X31040D01*
X31660D02*
X35900D01*
X36120D02*
X36860D01*
X37060D02*
X38400D01*
X26600Y-11180D02*
X28400D01*
X29520D02*
X30140D01*
X30740D02*
X31040D01*
X31640D02*
X35780D01*
X36200D02*
X36740D01*
X37160D02*
X38400D01*
X26600Y-11200D02*
X28380D01*
X29520D02*
X30120D01*
X30740D02*
X31040D01*
X31900D02*
X35720D01*
X36260D02*
X36680D01*
X37200D02*
X38400D01*
X26600Y-11220D02*
X28380D01*
X28940D02*
X28960D01*
X29520D02*
X30120D01*
X30740D02*
X31020D01*
X31900D02*
X32120D01*
X32740D02*
X33000D01*
X33620D02*
X33960D01*
X34580D02*
X34880D01*
X35500D02*
X35680D01*
X36280D02*
X36640D01*
X37240D02*
X38400D01*
X26600Y-11240D02*
X28360D01*
X28940D02*
X28960D01*
X29520D02*
X30120D01*
X30740D02*
X31020D01*
X31880D02*
X32120D01*
X32720D02*
X33000D01*
X33620D02*
X33960D01*
X34580D02*
X34880D01*
X35500D02*
X35640D01*
X36320D02*
X36600D01*
X37280D02*
X38400D01*
X26600Y-11260D02*
X28360D01*
X28920D02*
X28960D01*
X29520D02*
X30120D01*
X30720D02*
X31020D01*
X31880D02*
X32100D01*
X32720D02*
X33000D01*
X33620D02*
X33960D01*
X34580D02*
X34880D01*
X35500D02*
X35620D01*
X36340D02*
X36560D01*
X37300D02*
X38400D01*
X26600Y-11280D02*
X28340D01*
X28920D02*
X28960D01*
X29520D02*
X30100D01*
X30720D02*
X31020D01*
X31880D02*
X32100D01*
X32720D02*
X33000D01*
X33600D02*
X33960D01*
X34560D02*
X34860D01*
X35480D02*
X35580D01*
X36340D02*
X36520D01*
X37320D02*
X38400D01*
X26600Y-11300D02*
X28340D01*
X28900D02*
X28960D01*
X29520D02*
X30100D01*
X30720D02*
X31000D01*
X31880D02*
X32100D01*
X32720D02*
X32980D01*
X33600D02*
X33940D01*
X34560D02*
X34860D01*
X35480D02*
X35560D01*
X36360D02*
X36500D01*
X37320D02*
X38400D01*
X26600Y-11320D02*
X28320D01*
X28900D02*
X28960D01*
X29520D02*
X30100D01*
X30700D02*
X31000D01*
X31860D02*
X32100D01*
X32700D02*
X32980D01*
X33600D02*
X33940D01*
X34560D02*
X34860D01*
X35480D02*
X35540D01*
X36380D02*
X36480D01*
X37340D02*
X38400D01*
X26600Y-11340D02*
X28300D01*
X28880D02*
X28960D01*
X29540D02*
X30100D01*
X30700D02*
X31000D01*
X31860D02*
X32080D01*
X32700D02*
X32980D01*
X33600D02*
X33940D01*
X34560D02*
X34860D01*
X35480D02*
X35520D01*
X36380D02*
X36460D01*
X37340D02*
X38400D01*
X26600Y-11360D02*
X28300D01*
X28880D02*
X28960D01*
X29540D02*
X30080D01*
X30700D02*
X31000D01*
X31860D02*
X32080D01*
X32700D02*
X32980D01*
X33580D02*
X33940D01*
X34540D02*
X34840D01*
X35460D02*
X35500D01*
X36380D02*
X36440D01*
X37340D02*
X38400D01*
X26600Y-11380D02*
X28280D01*
X28860D02*
X28960D01*
X29540D02*
X30080D01*
X30700D02*
X30980D01*
X31860D02*
X32080D01*
X32700D02*
X32960D01*
X33580D02*
X33920D01*
X34540D02*
X34840D01*
X35460D02*
X35480D01*
X36400D02*
X36420D01*
X37340D02*
X38400D01*
X26600Y-11400D02*
X28280D01*
X28860D02*
X28960D01*
X29540D02*
X30080D01*
X30680D02*
X30980D01*
X31840D02*
X32080D01*
X32680D02*
X32960D01*
X33580D02*
X33920D01*
X34540D02*
X34840D01*
X37360D02*
X38400D01*
X26600Y-11420D02*
X28260D01*
X28840D02*
X28960D01*
X29540D02*
X30080D01*
X30680D02*
X30980D01*
X31840D02*
X32060D01*
X32680D02*
X32960D01*
X33580D02*
X33920D01*
X34540D02*
X34840D01*
X37360D02*
X38400D01*
X26600Y-11440D02*
X28260D01*
X28840D02*
X28960D01*
X29540D02*
X30060D01*
X30680D02*
X30980D01*
X31840D02*
X32060D01*
X32680D02*
X32960D01*
X33560D02*
X33920D01*
X34520D02*
X34820D01*
X37360D02*
X38400D01*
X26600Y-11460D02*
X28240D01*
X28840D02*
X28960D01*
X29540D02*
X30060D01*
X30680D02*
X30960D01*
X31840D02*
X32060D01*
X32680D02*
X32940D01*
X33560D02*
X33900D01*
X34520D02*
X34820D01*
X37360D02*
X38400D01*
X26600Y-11480D02*
X28240D01*
X28820D02*
X28960D01*
X29540D02*
X30060D01*
X30660D02*
X30960D01*
X31820D02*
X32060D01*
X32660D02*
X32940D01*
X33560D02*
X33900D01*
X34520D02*
X34820D01*
X37360D02*
X38400D01*
X26600Y-11500D02*
X28220D01*
X28820D02*
X28960D01*
X29540D02*
X30060D01*
X30660D02*
X30960D01*
X31820D02*
X32040D01*
X32660D02*
X32940D01*
X33560D02*
X33900D01*
X34520D02*
X34820D01*
X37360D02*
X38400D01*
X26600Y-11520D02*
X28220D01*
X28800D02*
X28960D01*
X29540D02*
X30040D01*
X30660D02*
X30960D01*
X31820D02*
X32040D01*
X32660D02*
X32940D01*
X33540D02*
X33900D01*
X34500D02*
X34800D01*
X37340D02*
X38400D01*
X26600Y-11540D02*
X28200D01*
X28800D02*
X28960D01*
X29540D02*
X30040D01*
X30660D02*
X30940D01*
X31820D02*
X32040D01*
X32660D02*
X32920D01*
X33540D02*
X33880D01*
X34500D02*
X34800D01*
X37340D02*
X38400D01*
X26600Y-11560D02*
X28200D01*
X28780D02*
X28940D01*
X29540D02*
X30040D01*
X30640D02*
X30940D01*
X31800D02*
X32040D01*
X32640D02*
X32920D01*
X33540D02*
X33880D01*
X34500D02*
X34800D01*
X37340D02*
X38400D01*
X26600Y-11580D02*
X28180D01*
X28780D02*
X28940D01*
X29540D02*
X30040D01*
X30640D02*
X30940D01*
X31540D02*
X32020D01*
X32640D02*
X32920D01*
X33540D02*
X33880D01*
X34500D02*
X34800D01*
X35500D02*
X35680D01*
X36460D02*
X36640D01*
X37340D02*
X38400D01*
X26600Y-11600D02*
X28160D01*
X28760D02*
X28940D01*
X29540D02*
X30020D01*
X30640D02*
X30940D01*
X31540D02*
X32020D01*
X32640D02*
X32920D01*
X33520D02*
X33880D01*
X34480D02*
X34780D01*
X35460D02*
X35700D01*
X36420D02*
X36660D01*
X37340D02*
X38400D01*
X26600Y-11620D02*
X28160D01*
X28760D02*
X28940D01*
X29540D02*
X30020D01*
X30640D02*
X30920D01*
X31540D02*
X32020D01*
X32640D02*
X32900D01*
X33520D02*
X33860D01*
X34480D02*
X34780D01*
X35440D02*
X35720D01*
X36400D02*
X36680D01*
X37320D02*
X38400D01*
X26600Y-11640D02*
X28140D01*
X28740D02*
X28940D01*
X29540D02*
X30020D01*
X30620D02*
X30920D01*
X31540D02*
X32020D01*
X32620D02*
X32900D01*
X33520D02*
X33860D01*
X34480D02*
X34780D01*
X35420D02*
X35720D01*
X36380D02*
X36680D01*
X37320D02*
X38400D01*
X26600Y-11660D02*
X28140D01*
X28740D02*
X28940D01*
X29540D02*
X30020D01*
X30620D02*
X30920D01*
X31520D02*
X32000D01*
X32620D02*
X32900D01*
X33520D02*
X33860D01*
X34480D02*
X34780D01*
X35400D02*
X35720D01*
X36360D02*
X36680D01*
X37320D02*
X38400D01*
X26600Y-11680D02*
X28120D01*
X28740D02*
X28940D01*
X29540D02*
X30000D01*
X30620D02*
X30920D01*
X31520D02*
X32000D01*
X32620D02*
X32900D01*
X33500D02*
X33860D01*
X34460D02*
X34760D01*
X35400D02*
X35720D01*
X36360D02*
X36700D01*
X37320D02*
X38400D01*
X26600Y-11700D02*
X28120D01*
X28720D02*
X28940D01*
X29540D02*
X30000D01*
X30620D02*
X30900D01*
X31520D02*
X32000D01*
X32620D02*
X32880D01*
X33500D02*
X33840D01*
X34460D02*
X34760D01*
X35380D02*
X35720D01*
X36340D02*
X36680D01*
X37300D02*
X38400D01*
X26600Y-11720D02*
X28100D01*
X28720D02*
X28940D01*
X29540D02*
X30000D01*
X30600D02*
X30900D01*
X31520D02*
X32000D01*
X32600D02*
X32880D01*
X33500D02*
X33840D01*
X34460D02*
X34760D01*
X35380D02*
X35720D01*
X36340D02*
X36680D01*
X37300D02*
X38400D01*
X26600Y-11740D02*
X28100D01*
X28700D02*
X28940D01*
X29540D02*
X30000D01*
X30600D02*
X30900D01*
X31500D02*
X31980D01*
X32600D02*
X32880D01*
X33500D02*
X33840D01*
X34460D02*
X34760D01*
X35360D02*
X35720D01*
X36340D02*
X36680D01*
X37300D02*
X38400D01*
X26600Y-11760D02*
X28080D01*
X28700D02*
X28940D01*
X29540D02*
X29980D01*
X30600D02*
X30900D01*
X31500D02*
X31980D01*
X32600D02*
X32880D01*
X33480D02*
X33840D01*
X34440D02*
X34740D01*
X35360D02*
X35720D01*
X36320D02*
X36680D01*
X37300D02*
X38400D01*
X26600Y-11780D02*
X28080D01*
X28680D02*
X28940D01*
X29540D02*
X29980D01*
X30600D02*
X30880D01*
X31500D02*
X31980D01*
X32600D02*
X32860D01*
X33480D02*
X33820D01*
X34440D02*
X34740D01*
X35360D02*
X35700D01*
X36320D02*
X36680D01*
X37280D02*
X38400D01*
X26600Y-11800D02*
X28060D01*
X28680D02*
X28940D01*
X29540D02*
X29980D01*
X30580D02*
X30880D01*
X31500D02*
X31980D01*
X32580D02*
X32860D01*
X33480D02*
X33820D01*
X34440D02*
X34740D01*
X35360D02*
X35700D01*
X36320D02*
X36660D01*
X37280D02*
X38400D01*
X26600Y-11820D02*
X28060D01*
X28660D02*
X28940D01*
X29540D02*
X29980D01*
X30580D02*
X30880D01*
X31480D02*
X31960D01*
X32580D02*
X32860D01*
X33480D02*
X33820D01*
X34440D02*
X34740D01*
X35340D02*
X35700D01*
X36300D02*
X36660D01*
X37280D02*
X38400D01*
X26600Y-11840D02*
X28040D01*
X28660D02*
X28940D01*
X29540D02*
X29960D01*
X30580D02*
X30860D01*
X31480D02*
X31960D01*
X32580D02*
X32860D01*
X33460D02*
X33820D01*
X34420D02*
X34720D01*
X35340D02*
X35700D01*
X36300D02*
X36660D01*
X37280D02*
X38400D01*
X26600Y-11860D02*
X28040D01*
X28640D02*
X28940D01*
X29540D02*
X29960D01*
X30580D02*
X30860D01*
X31480D02*
X31960D01*
X32580D02*
X32840D01*
X33460D02*
X33800D01*
X34420D02*
X34720D01*
X35340D02*
X35680D01*
X36300D02*
X36660D01*
X37260D02*
X38400D01*
X26600Y-11880D02*
X28020D01*
X28640D02*
X28940D01*
X29560D02*
X29960D01*
X30560D02*
X30860D01*
X31480D02*
X31960D01*
X32560D02*
X32840D01*
X33460D02*
X33800D01*
X34420D02*
X34720D01*
X35340D02*
X35680D01*
X36300D02*
X36640D01*
X37260D02*
X38400D01*
X26600Y-11900D02*
X28000D01*
X28620D02*
X28940D01*
X29560D02*
X29960D01*
X30560D02*
X30860D01*
X31460D02*
X31940D01*
X32560D02*
X32840D01*
X33460D02*
X33800D01*
X34420D02*
X34720D01*
X35320D02*
X35680D01*
X36280D02*
X36640D01*
X37260D02*
X38400D01*
X26600Y-11920D02*
X28000D01*
X28620D02*
X28920D01*
X29560D02*
X29940D01*
X30560D02*
X30840D01*
X31460D02*
X31940D01*
X32560D02*
X32840D01*
X33440D02*
X33800D01*
X34400D02*
X34700D01*
X35320D02*
X35680D01*
X36280D02*
X36640D01*
X37260D02*
X38400D01*
X26600Y-11940D02*
X27980D01*
X28620D02*
X28920D01*
X29560D02*
X29940D01*
X30560D02*
X30840D01*
X31460D02*
X31940D01*
X32560D02*
X32820D01*
X33440D02*
X33780D01*
X34400D02*
X34700D01*
X35320D02*
X35660D01*
X36280D02*
X36640D01*
X37240D02*
X38400D01*
X26600Y-11960D02*
X27980D01*
X28600D02*
X28920D01*
X29560D02*
X29940D01*
X30540D02*
X30840D01*
X31460D02*
X31940D01*
X32540D02*
X32820D01*
X33440D02*
X33780D01*
X34400D02*
X34700D01*
X35320D02*
X35660D01*
X36280D02*
X36620D01*
X37240D02*
X38400D01*
X26600Y-11980D02*
X27960D01*
X28600D02*
X28920D01*
X29560D02*
X29940D01*
X30540D02*
X30840D01*
X31440D02*
X31920D01*
X32540D02*
X32820D01*
X33440D02*
X33780D01*
X34400D02*
X34700D01*
X35300D02*
X35660D01*
X36260D02*
X36620D01*
X37240D02*
X38400D01*
X26600Y-12000D02*
X27960D01*
X28580D02*
X28920D01*
X29560D02*
X29920D01*
X30540D02*
X30820D01*
X31440D02*
X31920D01*
X32540D02*
X32820D01*
X33420D02*
X33780D01*
X34380D02*
X34680D01*
X35300D02*
X35660D01*
X36260D02*
X36620D01*
X37240D02*
X38400D01*
X26600Y-12020D02*
X27940D01*
X28580D02*
X28920D01*
X29560D02*
X29920D01*
X30540D02*
X30820D01*
X31440D02*
X31920D01*
X32540D02*
X32800D01*
X33420D02*
X33760D01*
X34380D02*
X34680D01*
X35300D02*
X35640D01*
X36260D02*
X36620D01*
X37220D02*
X38400D01*
X26600Y-12040D02*
X27940D01*
X28560D02*
X28920D01*
X29560D02*
X29920D01*
X30520D02*
X30820D01*
X31440D02*
X31920D01*
X32520D02*
X32800D01*
X33420D02*
X33760D01*
X34380D02*
X34680D01*
X35300D02*
X35640D01*
X36260D02*
X36600D01*
X37220D02*
X38400D01*
X26600Y-12060D02*
X27920D01*
X29560D02*
X29920D01*
X30520D02*
X30820D01*
X31420D02*
X31900D01*
X32520D02*
X32800D01*
X33420D02*
X33760D01*
X34380D02*
X34680D01*
X35280D02*
X35640D01*
X36240D02*
X36600D01*
X37220D02*
X38400D01*
X26600Y-12080D02*
X27920D01*
X29560D02*
X29900D01*
X30520D02*
X30800D01*
X31420D02*
X31900D01*
X32520D02*
X32800D01*
X33400D02*
X33760D01*
X34360D02*
X34660D01*
X35280D02*
X35640D01*
X36240D02*
X36600D01*
X37220D02*
X38400D01*
X26600Y-12100D02*
X27900D01*
X29560D02*
X29900D01*
X30520D02*
X30800D01*
X31420D02*
X31900D01*
X32520D02*
X32780D01*
X33400D02*
X33740D01*
X34360D02*
X34660D01*
X35280D02*
X35620D01*
X36240D02*
X36600D01*
X37200D02*
X38400D01*
X26600Y-12120D02*
X27900D01*
X29560D02*
X29900D01*
X30500D02*
X30800D01*
X31420D02*
X31900D01*
X32500D02*
X32780D01*
X33400D02*
X33740D01*
X34360D02*
X34660D01*
X35280D02*
X35620D01*
X36240D02*
X36580D01*
X37200D02*
X38400D01*
X26600Y-12140D02*
X27880D01*
X29560D02*
X29900D01*
X30500D02*
X30800D01*
X31400D02*
X31880D01*
X32500D02*
X32780D01*
X33400D02*
X33740D01*
X34360D02*
X34660D01*
X35260D02*
X35620D01*
X36220D02*
X36580D01*
X37200D02*
X38400D01*
X26600Y-12160D02*
X27860D01*
X29560D02*
X29880D01*
X30500D02*
X30780D01*
X31400D02*
X31880D01*
X32500D02*
X32780D01*
X33380D02*
X33740D01*
X34340D02*
X34640D01*
X35260D02*
X35620D01*
X36220D02*
X36580D01*
X37200D02*
X38400D01*
X26600Y-12180D02*
X27860D01*
X29560D02*
X29880D01*
X30500D02*
X30780D01*
X31400D02*
X31880D01*
X32500D02*
X32760D01*
X33380D02*
X33720D01*
X34340D02*
X34640D01*
X35260D02*
X35600D01*
X36220D02*
X36580D01*
X37180D02*
X38400D01*
X26600Y-12200D02*
X27840D01*
X29560D02*
X29880D01*
X30480D02*
X30780D01*
X31400D02*
X31880D01*
X32480D02*
X32760D01*
X33380D02*
X33720D01*
X34340D02*
X34640D01*
X35260D02*
X35600D01*
X36220D02*
X36560D01*
X37180D02*
X38400D01*
X26600Y-12220D02*
X27840D01*
X29560D02*
X29880D01*
X30480D02*
X30780D01*
X31380D02*
X31860D01*
X32480D02*
X32760D01*
X33380D02*
X33720D01*
X34340D02*
X34640D01*
X35240D02*
X35600D01*
X36200D02*
X36560D01*
X37180D02*
X38400D01*
X26600Y-12240D02*
X27820D01*
X29560D02*
X29860D01*
X30480D02*
X30760D01*
X31380D02*
X31860D01*
X32480D02*
X32760D01*
X33360D02*
X33720D01*
X34320D02*
X34620D01*
X35240D02*
X35600D01*
X36200D02*
X36560D01*
X37180D02*
X38400D01*
X26600Y-12260D02*
X27820D01*
X29560D02*
X29860D01*
X30480D02*
X30760D01*
X31380D02*
X31860D01*
X32480D02*
X32740D01*
X33360D02*
X33700D01*
X34320D02*
X34620D01*
X35240D02*
X35580D01*
X36200D02*
X36560D01*
X37160D02*
X38400D01*
X26600Y-12280D02*
X27800D01*
X29560D02*
X29860D01*
X30460D02*
X30760D01*
X31380D02*
X31860D01*
X32460D02*
X32740D01*
X33360D02*
X33700D01*
X34320D02*
X34620D01*
X35240D02*
X35580D01*
X36200D02*
X36540D01*
X37160D02*
X38400D01*
X26600Y-12300D02*
X27800D01*
X29560D02*
X29860D01*
X30460D02*
X30760D01*
X31360D02*
X31840D01*
X32460D02*
X32740D01*
X33360D02*
X33700D01*
X34320D02*
X34620D01*
X35220D02*
X35580D01*
X36180D02*
X36540D01*
X37160D02*
X38400D01*
X26600Y-12320D02*
X27780D01*
X29560D02*
X29840D01*
X30460D02*
X30740D01*
X31360D02*
X31840D01*
X32460D02*
X32740D01*
X33340D02*
X33700D01*
X34300D02*
X34600D01*
X35220D02*
X35580D01*
X36180D02*
X36540D01*
X37160D02*
X38400D01*
X26600Y-12340D02*
X27780D01*
X29560D02*
X29840D01*
X30460D02*
X30740D01*
X31360D02*
X31840D01*
X32460D02*
X32720D01*
X33340D02*
X33680D01*
X34300D02*
X34600D01*
X35220D02*
X35560D01*
X36180D02*
X36540D01*
X37140D02*
X38400D01*
X26600Y-12360D02*
X27760D01*
X29560D02*
X29840D01*
X30440D02*
X30740D01*
X31360D02*
X31840D01*
X32440D02*
X32720D01*
X33340D02*
X33680D01*
X34300D02*
X34600D01*
X35220D02*
X35560D01*
X36180D02*
X36520D01*
X37140D02*
X38400D01*
X26600Y-12380D02*
X27760D01*
X29560D02*
X29840D01*
X30440D02*
X30740D01*
X31360D02*
X31820D01*
X32440D02*
X32720D01*
X33340D02*
X33660D01*
X34300D02*
X34600D01*
X35200D02*
X35560D01*
X36160D02*
X36520D01*
X37140D02*
X38400D01*
X26600Y-12400D02*
X27740D01*
X29580D02*
X29820D01*
X30440D02*
X30720D01*
X31340D02*
X31820D01*
X32440D02*
X32720D01*
X33340D02*
X33660D01*
X34280D02*
X34580D01*
X35200D02*
X35560D01*
X36160D02*
X36520D01*
X37140D02*
X38400D01*
X26600Y-12420D02*
X27740D01*
X29580D02*
X29820D01*
X30440D02*
X30720D01*
X31360D02*
X31820D01*
X32440D02*
X32700D01*
X33360D02*
X33640D01*
X34280D02*
X34580D01*
X35200D02*
X35540D01*
X36160D02*
X36520D01*
X37120D02*
X38400D01*
X26600Y-12440D02*
X27720D01*
X29580D02*
X29820D01*
X30420D02*
X30720D01*
X31360D02*
X31820D01*
X32420D02*
X32700D01*
X33360D02*
X33620D01*
X34280D02*
X34580D01*
X35200D02*
X35540D01*
X36160D02*
X36500D01*
X37120D02*
X38400D01*
X26600Y-12460D02*
X27700D01*
X29580D02*
X29820D01*
X30420D02*
X30720D01*
X31380D02*
X31800D01*
X32420D02*
X32700D01*
X33380D02*
X33580D01*
X34280D02*
X34580D01*
X35180D02*
X35540D01*
X36140D02*
X36500D01*
X37120D02*
X38400D01*
X26600Y-12480D02*
X27700D01*
X28380D02*
X28900D01*
X29580D02*
X29800D01*
X30420D02*
X30700D01*
X31580D02*
X31800D01*
X32420D02*
X32700D01*
X34260D02*
X34560D01*
X35180D02*
X35540D01*
X36140D02*
X36500D01*
X37120D02*
X38400D01*
X26600Y-12500D02*
X27680D01*
X28360D02*
X28900D01*
X29580D02*
X29800D01*
X30420D02*
X30700D01*
X31580D02*
X31800D01*
X32420D02*
X32680D01*
X34260D02*
X34560D01*
X35180D02*
X35520D01*
X36140D02*
X36500D01*
X37100D02*
X38400D01*
X26600Y-12520D02*
X27680D01*
X28360D02*
X28900D01*
X29580D02*
X29800D01*
X30400D02*
X30700D01*
X31560D02*
X31800D01*
X32400D02*
X32680D01*
X34260D02*
X34560D01*
X35180D02*
X35520D01*
X36140D02*
X36480D01*
X37100D02*
X38400D01*
X26600Y-12540D02*
X27660D01*
X28340D02*
X28900D01*
X29580D02*
X29800D01*
X30400D02*
X30700D01*
X31560D02*
X31780D01*
X32400D02*
X32680D01*
X34260D02*
X34560D01*
X35160D02*
X35520D01*
X36120D02*
X36480D01*
X37100D02*
X38400D01*
X26600Y-12560D02*
X27660D01*
X28340D02*
X28900D01*
X29580D02*
X29780D01*
X30400D02*
X30700D01*
X31560D02*
X31780D01*
X32400D02*
X32680D01*
X34240D02*
X34540D01*
X35160D02*
X35520D01*
X36120D02*
X36480D01*
X37100D02*
X38400D01*
X26600Y-12580D02*
X27640D01*
X28320D02*
X28900D01*
X29580D02*
X29780D01*
X30400D02*
X30700D01*
X31560D02*
X31780D01*
X32400D02*
X32680D01*
X34240D02*
X34540D01*
X35160D02*
X35500D01*
X36120D02*
X36480D01*
X37080D02*
X38400D01*
X26600Y-12600D02*
X27640D01*
X28320D02*
X28900D01*
X29580D02*
X29780D01*
X30380D02*
X30700D01*
X31540D02*
X31780D01*
X32380D02*
X32680D01*
X34240D02*
X34540D01*
X35160D02*
X35500D01*
X36120D02*
X36460D01*
X37080D02*
X38400D01*
X26600Y-12620D02*
X27620D01*
X28300D02*
X28900D01*
X29580D02*
X29780D01*
X30380D02*
X30700D01*
X31540D02*
X31760D01*
X32380D02*
X32680D01*
X34240D02*
X34540D01*
X35140D02*
X35500D01*
X36100D02*
X36460D01*
X37060D02*
X38400D01*
X26600Y-12640D02*
X27620D01*
X28300D02*
X28900D01*
X29580D02*
X29760D01*
X30380D02*
X30700D01*
X31540D02*
X31760D01*
X32380D02*
X32680D01*
X34220D02*
X34520D01*
X35140D02*
X35500D01*
X36100D02*
X36460D01*
X37060D02*
X38400D01*
X26600Y-12660D02*
X27600D01*
X28300D02*
X28880D01*
X29580D02*
X29760D01*
X30380D02*
X30700D01*
X31540D02*
X31760D01*
X32380D02*
X32680D01*
X34220D02*
X34520D01*
X35140D02*
X35480D01*
X36100D02*
X36460D01*
X37040D02*
X38400D01*
X26600Y-12680D02*
X27600D01*
X28280D02*
X28880D01*
X29580D02*
X29760D01*
X30360D02*
X30700D01*
X31520D02*
X31760D01*
X32360D02*
X32700D01*
X33580D02*
X33600D01*
X34220D02*
X34520D01*
X35140D02*
X35480D01*
X36100D02*
X36440D01*
X37020D02*
X37220D01*
X37360D02*
X37380D01*
X37440D02*
X37540D01*
X37580D02*
X38400D01*
X26600Y-12700D02*
X27580D01*
X28280D02*
X28880D01*
X29580D02*
X29760D01*
X30360D02*
X30700D01*
X31520D02*
X31740D01*
X32360D02*
X32700D01*
X33560D02*
X33600D01*
X34220D02*
X34520D01*
X35120D02*
X35480D01*
X36080D02*
X36440D01*
X37020D02*
X37260D01*
X37300D02*
X37380D01*
X37440D02*
X37520D01*
X37580D02*
X38400D01*
X26600Y-12720D02*
X27560D01*
X28260D02*
X28880D01*
X29580D02*
X29740D01*
X30360D02*
X30700D01*
X31520D02*
X31740D01*
X32360D02*
X32700D01*
X33540D02*
X33600D01*
X34200D02*
X34500D01*
X35120D02*
X35480D01*
X36080D02*
X36440D01*
X37000D02*
X37260D01*
X37300D02*
X37380D01*
X37460D02*
X37520D01*
X37580D02*
X38400D01*
X26600Y-12740D02*
X27560D01*
X28260D02*
X28880D01*
X29580D02*
X29740D01*
X30360D02*
X30720D01*
X31520D02*
X31740D01*
X32360D02*
X32720D01*
X33520D02*
X33600D01*
X34200D02*
X34500D01*
X35120D02*
X35460D01*
X36080D02*
X36440D01*
X36980D02*
X37260D01*
X37300D02*
X37380D01*
X37460D02*
X37520D01*
X37540D02*
X37560D01*
X37580D02*
X38400D01*
X26600Y-12760D02*
X27540D01*
X28240D02*
X28880D01*
X29580D02*
X29740D01*
X30340D02*
X30720D01*
X31500D02*
X31740D01*
X32340D02*
X32720D01*
X33500D02*
X33580D01*
X34200D02*
X34500D01*
X35120D02*
X35460D01*
X36080D02*
X36420D01*
X36940D02*
X37260D01*
X37300D02*
X37380D01*
X37420D02*
X37440D01*
X37460D02*
X37500D01*
X37540D02*
X37560D01*
X37580D02*
X38400D01*
X26600Y-12780D02*
X27540D01*
X28240D02*
X28880D01*
X29580D02*
X29740D01*
X30340D02*
X30740D01*
X31500D02*
X31720D01*
X32340D02*
X32740D01*
X33460D02*
X33580D01*
X34200D02*
X34500D01*
X35100D02*
X35460D01*
X36060D02*
X36420D01*
X36920D02*
X37260D01*
X37300D02*
X37380D01*
X37420D02*
X37440D01*
X37480D02*
X37500D01*
X37520D02*
X37560D01*
X37580D02*
X38400D01*
X26600Y-12800D02*
X27520D01*
X28240D02*
X28880D01*
X29580D02*
X29720D01*
X30340D02*
X30780D01*
X31500D02*
X31720D01*
X32340D02*
X32760D01*
X33440D02*
X33580D01*
X34180D02*
X34480D01*
X35100D02*
X35460D01*
X36060D02*
X36420D01*
X36880D02*
X37260D01*
X37300D02*
X37380D01*
X37420D02*
X37460D01*
X37520D02*
X37560D01*
X37580D02*
X38400D01*
X26600Y-12820D02*
X27520D01*
X28220D02*
X28880D01*
X29580D02*
X29720D01*
X30340D02*
X30820D01*
X31500D02*
X31720D01*
X32340D02*
X32800D01*
X33400D02*
X33580D01*
X34180D02*
X34480D01*
X35100D02*
X35440D01*
X36060D02*
X36420D01*
X36840D02*
X37260D01*
X37300D02*
X37380D01*
X37420D02*
X37460D01*
X37520D02*
X37560D01*
X37580D02*
X38400D01*
X26600Y-12840D02*
X27500D01*
X28220D02*
X28880D01*
X29580D02*
X29720D01*
X30320D02*
X30880D01*
X31480D02*
X31720D01*
X32320D02*
X32840D01*
X33360D02*
X33560D01*
X34180D02*
X34480D01*
X35100D02*
X35440D01*
X36060D02*
X36400D01*
X36760D02*
X37260D01*
X37300D02*
X37380D01*
X37420D02*
X37460D01*
X37500D02*
X37560D01*
X37580D02*
X38400D01*
X26600Y-12860D02*
X31060D01*
X31300D02*
X32880D01*
X33300D02*
X38400D01*
X26600Y-12880D02*
X32980D01*
X33200D02*
X38400D01*
X26600Y-12900D02*
X38400D01*
X26600Y-12920D02*
X38400D01*
X26600Y-12940D02*
X38400D01*
X26600Y-12960D02*
X38400D01*
X26600Y-12980D02*
X38400D01*
X26600Y-13000D02*
X38400D01*
X26600Y-13020D02*
X38400D01*
X26600Y-13040D02*
X38400D01*
X26600Y-13060D02*
X38400D01*
X26600Y-13080D02*
X38400D01*
X26600Y-13100D02*
X38400D01*
X26600Y-13120D02*
X38400D01*
X26600Y-13140D02*
X38400D01*
X26600Y-13160D02*
X38400D01*
X26600Y-13180D02*
X38400D01*
X26600Y-13200D02*
X38400D01*
X26600Y-13220D02*
X38400D01*
X26600Y-13240D02*
X38400D01*
X26600Y-13260D02*
X38400D01*
X26600Y-13280D02*
X38400D01*
X26600Y-13300D02*
X38400D01*
X26600Y-13320D02*
X28380D01*
X28460D02*
X30200D01*
X30280D02*
X37220D01*
X37360D02*
X37380D01*
X37440D02*
X37540D01*
X37580D02*
X38400D01*
X26600Y-13340D02*
X28380D01*
X28460D02*
X28720D01*
X28800D02*
X30200D01*
X30280D02*
X32260D01*
X32340D02*
X34280D01*
X34360D02*
X36380D01*
X36460D02*
X37280D01*
X37300D02*
X37380D01*
X37440D02*
X37520D01*
X37580D02*
X38400D01*
X26600Y-13360D02*
X27480D01*
X27600D02*
X27780D01*
X27920D02*
X28380D01*
X28460D02*
X28720D01*
X28800D02*
X29860D01*
X30100D02*
X30200D01*
X30280D02*
X32260D01*
X32340D02*
X33220D01*
X33420D02*
X34280D01*
X34360D02*
X35400D01*
X35640D02*
X36380D01*
X36460D02*
X37280D01*
X37300D02*
X37380D01*
X37460D02*
X37520D01*
X37580D02*
X38400D01*
X26600Y-13380D02*
X27480D01*
X27620D02*
X27780D01*
X27920D02*
X28380D01*
X28460D02*
X28720D01*
X28800D02*
X29860D01*
X30100D02*
X30200D01*
X30280D02*
X31080D01*
X31120D02*
X32260D01*
X32340D02*
X33220D01*
X33480D02*
X34280D01*
X34360D02*
X35400D01*
X35640D02*
X36380D01*
X36460D02*
X37280D01*
X37300D02*
X37380D01*
X37460D02*
X37500D01*
X37540D02*
X37560D01*
X37580D02*
X38400D01*
X26600Y-13400D02*
X27480D01*
X27620D02*
X27780D01*
X27920D02*
X28380D01*
X28460D02*
X29860D01*
X30100D02*
X30200D01*
X30280D02*
X31040D01*
X31120D02*
X33220D01*
X33500D02*
X35400D01*
X35640D02*
X37280D01*
X37300D02*
X37380D01*
X37420D02*
X37440D01*
X37480D02*
X37500D01*
X37540D02*
X37560D01*
X37580D02*
X38400D01*
X26600Y-13420D02*
X27480D01*
X27620D02*
X27760D01*
X27920D02*
X28380D01*
X28460D02*
X29860D01*
X29940D02*
X30200D01*
X30280D02*
X31040D01*
X31120D02*
X33220D01*
X33300D02*
X33380D01*
X33520D02*
X35400D01*
X35500D02*
X37280D01*
X37300D02*
X37380D01*
X37420D02*
X37440D01*
X37520D02*
X37560D01*
X37580D02*
X38400D01*
X26600Y-13440D02*
X27480D01*
X27640D02*
X27760D01*
X27920D02*
X28380D01*
X28460D02*
X29860D01*
X29940D02*
X30200D01*
X30280D02*
X31040D01*
X31120D02*
X33220D01*
X33300D02*
X33420D01*
X33520D02*
X35400D01*
X35500D02*
X37280D01*
X37300D02*
X37380D01*
X37420D02*
X37460D01*
X37520D02*
X37560D01*
X37580D02*
X38400D01*
X26600Y-13460D02*
X27480D01*
X27640D02*
X27760D01*
X27920D02*
X28060D01*
X28240D02*
X28380D01*
X28460D02*
X28540D01*
X28640D02*
X28720D01*
X28800D02*
X28920D01*
X28980D02*
X29020D01*
X29140D02*
X29340D01*
X29460D02*
X29480D01*
X29560D02*
X29860D01*
X29940D02*
X30200D01*
X30280D02*
X30440D01*
X30580D02*
X30800D01*
X30940D02*
X30980D01*
X31180D02*
X31280D01*
X31340D02*
X31380D01*
X31440D02*
X31580D01*
X31720D02*
X31880D01*
X31960D02*
X32000D01*
X32120D02*
X32260D01*
X32340D02*
X32500D01*
X32660D02*
X32760D01*
X32920D02*
X33220D01*
X33300D02*
X33440D01*
X33540D02*
X33700D01*
X33840D02*
X34020D01*
X34180D02*
X34280D01*
X34360D02*
X34500D01*
X34620D02*
X34660D01*
X34740D02*
X34840D01*
X34920D02*
X34940D01*
X35060D02*
X35400D01*
X35500D02*
X35780D01*
X35940D02*
X36120D01*
X36280D02*
X36380D01*
X36460D02*
X36620D01*
X36760D02*
X36920D01*
X36980D02*
X37020D01*
X37080D02*
X37280D01*
X37300D02*
X37380D01*
X37420D02*
X37460D01*
X37500D02*
X37560D01*
X37580D02*
X38400D01*
X26600Y-13480D02*
X27480D01*
X27640D02*
X27740D01*
X27820D02*
X27840D01*
X27920D02*
X28040D01*
X28260D02*
X28380D01*
X28460D02*
X28520D01*
X28620D02*
X28720D01*
X28800D02*
X28920D01*
X29160D02*
X29320D01*
X29560D02*
X29860D01*
X29940D02*
X30200D01*
X30280D02*
X30420D01*
X30600D02*
X30760D01*
X30940D02*
X30980D01*
X31180D02*
X31280D01*
X31340D02*
X31360D01*
X31440D02*
X31540D01*
X31760D02*
X31880D01*
X32140D02*
X32260D01*
X32340D02*
X32480D01*
X32640D02*
X32740D01*
X32920D02*
X33220D01*
X33300D02*
X33440D01*
X33540D02*
X33660D01*
X33860D02*
X34000D01*
X34180D02*
X34280D01*
X34360D02*
X34480D01*
X34740D02*
X34840D01*
X35080D02*
X35400D01*
X35500D02*
X35760D01*
X35960D02*
X36100D01*
X36280D02*
X36380D01*
X36460D02*
X36600D01*
X36780D02*
X36920D01*
X36980D02*
X37000D01*
X37080D02*
X38400D01*
X26600Y-13500D02*
X27480D01*
X27560D02*
X27580D01*
X27660D02*
X27740D01*
X27820D02*
X27840D01*
X27920D02*
X28040D01*
X28260D02*
X28380D01*
X28460D02*
X28520D01*
X28600D02*
X28720D01*
X28800D02*
X28920D01*
X29180D02*
X29300D01*
X29560D02*
X29860D01*
X29940D02*
X30200D01*
X30280D02*
X30400D01*
X30620D02*
X30740D01*
X30940D02*
X30980D01*
X31180D02*
X31280D01*
X31440D02*
X31520D01*
X31760D02*
X31880D01*
X32140D02*
X32260D01*
X32340D02*
X32460D01*
X32640D02*
X32720D01*
X32920D02*
X33220D01*
X33300D02*
X33460D01*
X33540D02*
X33660D01*
X33880D02*
X33980D01*
X34160D02*
X34280D01*
X34360D02*
X34460D01*
X34740D02*
X34840D01*
X35100D02*
X35400D01*
X35500D02*
X35760D01*
X35980D02*
X36080D01*
X36280D02*
X36380D01*
X36460D02*
X36580D01*
X36800D02*
X36920D01*
X37080D02*
X38400D01*
X26600Y-13520D02*
X27480D01*
X27560D02*
X27580D01*
X27660D02*
X27740D01*
X27820D02*
X27840D01*
X27920D02*
X28040D01*
X28080D02*
X28200D01*
X28280D02*
X28380D01*
X28460D02*
X28500D01*
X28580D02*
X28720D01*
X28800D02*
X28920D01*
X29020D02*
X29100D01*
X29180D02*
X29280D01*
X29380D02*
X29460D01*
X29560D02*
X29860D01*
X30080D02*
X30200D01*
X30280D02*
X30380D01*
X30460D02*
X30560D01*
X30640D02*
X30740D01*
X30840D02*
X31040D01*
X31120D02*
X31280D01*
X31440D02*
X31500D01*
X31600D02*
X31680D01*
X31780D02*
X31880D01*
X32000D02*
X32060D01*
X32160D02*
X32260D01*
X32340D02*
X32440D01*
X32540D02*
X32720D01*
X32800D02*
X33220D01*
X33300D02*
X33460D01*
X33560D02*
X33640D01*
X33720D02*
X33820D01*
X33880D02*
X33980D01*
X34060D02*
X34280D01*
X34360D02*
X34460D01*
X34560D02*
X34620D01*
X34740D02*
X34840D01*
X34940D02*
X35020D01*
X35100D02*
X35400D01*
X35640D02*
X35760D01*
X35800D02*
X35900D01*
X35980D02*
X36080D01*
X36160D02*
X36380D01*
X36460D02*
X36560D01*
X36640D02*
X36740D01*
X36800D02*
X36920D01*
X37080D02*
X38400D01*
X26600Y-13540D02*
X27480D01*
X27560D02*
X27600D01*
X27660D02*
X27740D01*
X27800D02*
X27840D01*
X27920D02*
X28200D01*
X28280D02*
X28380D01*
X28460D02*
X28480D01*
X28580D02*
X28720D01*
X28800D02*
X28920D01*
X29000D02*
X29100D01*
X29180D02*
X29280D01*
X29360D02*
X29480D01*
X29560D02*
X29860D01*
X30080D02*
X30200D01*
X30280D02*
X30380D01*
X30460D02*
X30560D01*
X30640D02*
X30720D01*
X30820D02*
X31040D01*
X31120D02*
X31280D01*
X31360D02*
X31500D01*
X31580D02*
X31700D01*
X31800D02*
X31880D01*
X31980D02*
X32080D01*
X32160D02*
X32260D01*
X32340D02*
X32440D01*
X32540D02*
X32720D01*
X32800D02*
X33220D01*
X33300D02*
X33460D01*
X33560D02*
X33640D01*
X33700D02*
X33820D01*
X33900D02*
X33980D01*
X34060D02*
X34280D01*
X34360D02*
X34440D01*
X34540D02*
X34640D01*
X34740D02*
X34840D01*
X34940D02*
X35020D01*
X35100D02*
X35400D01*
X35640D02*
X35920D01*
X36000D02*
X36080D01*
X36160D02*
X36380D01*
X36460D02*
X36560D01*
X36620D02*
X36740D01*
X36820D02*
X36920D01*
X37020D02*
X38400D01*
X26600Y-13560D02*
X27480D01*
X27560D02*
X27600D01*
X27680D02*
X27720D01*
X27800D02*
X27840D01*
X27920D02*
X28200D01*
X28280D02*
X28380D01*
X28560D02*
X28720D01*
X28800D02*
X28920D01*
X29000D02*
X29100D01*
X29180D02*
X29280D01*
X29360D02*
X29480D01*
X29560D02*
X29860D01*
X30080D02*
X30200D01*
X30280D02*
X30380D01*
X30440D02*
X30580D01*
X30640D02*
X30720D01*
X30800D02*
X31040D01*
X31120D02*
X31280D01*
X31360D02*
X31500D01*
X31580D02*
X31720D01*
X31800D02*
X31880D01*
X31980D02*
X32080D01*
X32160D02*
X32260D01*
X32340D02*
X32440D01*
X32520D02*
X32720D01*
X32820D02*
X33220D01*
X33300D02*
X33460D01*
X33560D02*
X33620D01*
X33700D02*
X33820D01*
X33900D02*
X33980D01*
X34080D02*
X34280D01*
X34360D02*
X34440D01*
X34520D02*
X34640D01*
X34740D02*
X34840D01*
X34920D02*
X35020D01*
X35100D02*
X35400D01*
X35640D02*
X35920D01*
X36000D02*
X36080D01*
X36180D02*
X36380D01*
X36460D02*
X36540D01*
X36620D02*
X36740D01*
X36820D02*
X36920D01*
X37000D02*
X38400D01*
X26600Y-13580D02*
X27480D01*
X27560D02*
X27600D01*
X27680D02*
X27720D01*
X27800D02*
X27840D01*
X27920D02*
X28060D01*
X28280D02*
X28380D01*
X28540D02*
X28720D01*
X28800D02*
X28920D01*
X29000D02*
X29100D01*
X29180D02*
X29280D01*
X29360D02*
X29480D01*
X29560D02*
X29860D01*
X29940D02*
X30200D01*
X30280D02*
X30380D01*
X30640D02*
X30720D01*
X30800D02*
X31040D01*
X31120D02*
X31280D01*
X31360D02*
X31500D01*
X31580D02*
X31720D01*
X31800D02*
X31880D01*
X31960D02*
X32080D01*
X32160D02*
X32260D01*
X32340D02*
X32440D01*
X32520D02*
X32720D01*
X32880D02*
X33220D01*
X33300D02*
X33460D01*
X33560D02*
X33620D01*
X33900D02*
X33980D01*
X34140D02*
X34280D01*
X34360D02*
X34440D01*
X34520D02*
X34660D01*
X34740D02*
X34840D01*
X34920D02*
X35040D01*
X35100D02*
X35400D01*
X35500D02*
X35780D01*
X36000D02*
X36080D01*
X36240D02*
X36380D01*
X36460D02*
X36540D01*
X36820D02*
X36920D01*
X37000D02*
X38400D01*
X26600Y-13600D02*
X27480D01*
X27560D02*
X27600D01*
X27680D02*
X27720D01*
X27780D02*
X27840D01*
X27920D02*
X28040D01*
X28280D02*
X28380D01*
X28540D02*
X28720D01*
X28800D02*
X28920D01*
X29000D02*
X29100D01*
X29180D02*
X29280D01*
X29360D02*
X29480D01*
X29560D02*
X29860D01*
X29940D02*
X30200D01*
X30280D02*
X30380D01*
X30640D02*
X30720D01*
X30800D02*
X31040D01*
X31120D02*
X31280D01*
X31360D02*
X31500D01*
X31580D02*
X31720D01*
X31800D02*
X31880D01*
X31960D02*
X32080D01*
X32160D02*
X32260D01*
X32340D02*
X32440D01*
X32520D02*
X32740D01*
X32920D02*
X33220D01*
X33300D02*
X33460D01*
X33540D02*
X33620D01*
X33900D02*
X34000D01*
X34160D02*
X34280D01*
X34360D02*
X34440D01*
X34520D02*
X34660D01*
X34740D02*
X34840D01*
X34920D02*
X35040D01*
X35100D02*
X35400D01*
X35500D02*
X35760D01*
X36000D02*
X36100D01*
X36280D02*
X36380D01*
X36460D02*
X36540D01*
X36820D02*
X36920D01*
X37000D02*
X38400D01*
X26600Y-13620D02*
X27480D01*
X27560D02*
X27620D01*
X27680D02*
X27700D01*
X27780D02*
X27840D01*
X27920D02*
X28020D01*
X28120D02*
X28200D01*
X28280D02*
X28380D01*
X28560D02*
X28720D01*
X28800D02*
X28920D01*
X29000D02*
X29100D01*
X29180D02*
X29280D01*
X29360D02*
X29480D01*
X29560D02*
X29860D01*
X29940D02*
X30200D01*
X30280D02*
X30380D01*
X30640D02*
X30720D01*
X30800D02*
X31040D01*
X31120D02*
X31280D01*
X31340D02*
X31500D01*
X31580D02*
X31720D01*
X31800D02*
X31880D01*
X31960D02*
X32080D01*
X32160D02*
X32260D01*
X32340D02*
X32440D01*
X32520D02*
X32780D01*
X32920D02*
X33220D01*
X33300D02*
X33440D01*
X33540D02*
X33620D01*
X33900D02*
X34040D01*
X34180D02*
X34280D01*
X34360D02*
X34440D01*
X34520D02*
X34660D01*
X34740D02*
X34840D01*
X34920D02*
X35040D01*
X35100D02*
X35400D01*
X35500D02*
X35740D01*
X35840D02*
X35920D01*
X36000D02*
X36160D01*
X36280D02*
X36380D01*
X36460D02*
X36540D01*
X36820D02*
X36920D01*
X37000D02*
X38400D01*
X26600Y-13640D02*
X27480D01*
X27560D02*
X27620D01*
X27780D02*
X27840D01*
X27920D02*
X28020D01*
X28100D02*
X28200D01*
X28280D02*
X28380D01*
X28460D02*
X28480D01*
X28580D02*
X28720D01*
X28800D02*
X28920D01*
X29000D02*
X29100D01*
X29180D02*
X29280D01*
X29360D02*
X29480D01*
X29560D02*
X29860D01*
X29940D02*
X30200D01*
X30280D02*
X30380D01*
X30440D02*
X30720D01*
X30800D02*
X31040D01*
X31120D02*
X31280D01*
X31340D02*
X31500D01*
X31580D02*
X31720D01*
X31800D02*
X31880D01*
X31960D02*
X32080D01*
X32160D02*
X32260D01*
X32340D02*
X32440D01*
X32520D02*
X32840D01*
X32920D02*
X33220D01*
X33300D02*
X33440D01*
X33540D02*
X33620D01*
X33700D02*
X34100D01*
X34180D02*
X34280D01*
X34360D02*
X34440D01*
X34540D02*
X34640D01*
X34740D02*
X34840D01*
X34920D02*
X35040D01*
X35100D02*
X35400D01*
X35500D02*
X35740D01*
X35820D02*
X35920D01*
X36000D02*
X36200D01*
X36280D02*
X36380D01*
X36460D02*
X36540D01*
X36620D02*
X36920D01*
X37000D02*
X38400D01*
X26600Y-13660D02*
X27480D01*
X27560D02*
X27620D01*
X27760D02*
X27840D01*
X27920D02*
X28020D01*
X28100D02*
X28200D01*
X28280D02*
X28380D01*
X28460D02*
X28500D01*
X28600D02*
X28720D01*
X28800D02*
X28920D01*
X29000D02*
X29100D01*
X29180D02*
X29280D01*
X29380D02*
X29460D01*
X29560D02*
X29860D01*
X29940D02*
X30200D01*
X30280D02*
X30380D01*
X30460D02*
X30720D01*
X30820D02*
X31040D01*
X31120D02*
X31280D01*
X31340D02*
X31500D01*
X31580D02*
X31700D01*
X31800D02*
X31880D01*
X31960D02*
X32080D01*
X32160D02*
X32260D01*
X32340D02*
X32440D01*
X32540D02*
X32840D01*
X32920D02*
X33220D01*
X33300D02*
X33400D01*
X33520D02*
X33640D01*
X33720D02*
X34100D01*
X34180D02*
X34280D01*
X34360D02*
X34440D01*
X34540D02*
X34640D01*
X34740D02*
X34840D01*
X34920D02*
X35040D01*
X35100D02*
X35400D01*
X35500D02*
X35740D01*
X35800D02*
X35920D01*
X36000D02*
X36200D01*
X36300D02*
X36380D01*
X36460D02*
X36560D01*
X36640D02*
X36920D01*
X37000D02*
X38400D01*
X26600Y-13680D02*
X27480D01*
X27560D02*
X27640D01*
X27760D02*
X27840D01*
X27920D02*
X28020D01*
X28100D02*
X28180D01*
X28280D02*
X28380D01*
X28460D02*
X28520D01*
X28600D02*
X28720D01*
X28800D02*
X28920D01*
X29000D02*
X29100D01*
X29180D02*
X29280D01*
X29400D02*
X29440D01*
X29560D02*
X29860D01*
X29940D02*
X30200D01*
X30280D02*
X30380D01*
X30480D02*
X30600D01*
X30620D02*
X30740D01*
X30840D02*
X31040D01*
X31140D02*
X31280D01*
X31340D02*
X31500D01*
X31600D02*
X31680D01*
X31780D02*
X31880D01*
X31960D02*
X32080D01*
X32160D02*
X32260D01*
X32340D02*
X32440D01*
X32560D02*
X32840D01*
X32920D02*
X33220D01*
X33300D02*
X33360D01*
X33520D02*
X33640D01*
X33740D02*
X33860D01*
X33880D02*
X34100D01*
X34180D02*
X34280D01*
X34360D02*
X34460D01*
X34560D02*
X34620D01*
X34740D02*
X34840D01*
X34920D02*
X35040D01*
X35100D02*
X35400D01*
X35500D02*
X35740D01*
X35820D02*
X35900D01*
X36000D02*
X36200D01*
X36280D02*
X36380D01*
X36460D02*
X36560D01*
X36660D02*
X36780D01*
X36800D02*
X36920D01*
X37000D02*
X38400D01*
X26600Y-13700D02*
X27480D01*
X27560D02*
X27640D01*
X27760D02*
X27840D01*
X27920D02*
X28020D01*
X28280D02*
X28380D01*
X28460D02*
X28520D01*
X28620D02*
X28720D01*
X28800D02*
X28920D01*
X29000D02*
X29100D01*
X29180D02*
X29300D01*
X29560D02*
X29860D01*
X30100D02*
X30200D01*
X30280D02*
X30400D01*
X30620D02*
X30740D01*
X30940D02*
X31040D01*
X31200D02*
X31280D01*
X31340D02*
X31520D01*
X31760D02*
X31880D01*
X31960D02*
X32080D01*
X32160D02*
X32260D01*
X32340D02*
X32460D01*
X32660D02*
X32720D01*
X32920D02*
X33220D01*
X33500D02*
X33660D01*
X33880D02*
X33980D01*
X34180D02*
X34280D01*
X34360D02*
X34460D01*
X34740D02*
X34840D01*
X34920D02*
X35040D01*
X35100D02*
X35400D01*
X35640D02*
X35740D01*
X36000D02*
X36080D01*
X36280D02*
X36380D01*
X36460D02*
X36580D01*
X36800D02*
X36920D01*
X37000D02*
X38400D01*
X26600Y-13720D02*
X27480D01*
X27560D02*
X27640D01*
X27740D02*
X27840D01*
X27920D02*
X28040D01*
X28280D02*
X28380D01*
X28460D02*
X28540D01*
X28640D02*
X28720D01*
X28800D02*
X28920D01*
X29000D02*
X29100D01*
X29180D02*
X29320D01*
X29560D02*
X29860D01*
X30100D02*
X30200D01*
X30280D02*
X30420D01*
X30620D02*
X30760D01*
X30940D02*
X31060D01*
X31200D02*
X31280D01*
X31340D02*
X31540D01*
X31760D02*
X31880D01*
X31960D02*
X32080D01*
X32160D02*
X32260D01*
X32340D02*
X32480D01*
X32660D02*
X32720D01*
X32900D02*
X33220D01*
X33460D02*
X33680D01*
X33880D02*
X33980D01*
X34160D02*
X34280D01*
X34360D02*
X34480D01*
X34640D02*
X34660D01*
X34740D02*
X34840D01*
X34920D02*
X35040D01*
X35100D02*
X35400D01*
X35640D02*
X35740D01*
X36000D02*
X36080D01*
X36260D02*
X36380D01*
X36460D02*
X36600D01*
X36800D02*
X36920D01*
X37000D02*
X38400D01*
X26600Y-13740D02*
X27480D01*
X27560D02*
X27660D01*
X27740D02*
X27840D01*
X27920D02*
X28060D01*
X28180D02*
X28220D01*
X28280D02*
X28380D01*
X28460D02*
X28560D01*
X28660D02*
X28720D01*
X28800D02*
X28920D01*
X29000D02*
X29100D01*
X29180D02*
X29340D01*
X29440D02*
X29480D01*
X29560D02*
X29860D01*
X30100D02*
X30200D01*
X30280D02*
X30460D01*
X30620D02*
X30800D01*
X30940D02*
X31080D01*
X31200D02*
X31280D01*
X31340D02*
X31580D01*
X31720D02*
X31880D01*
X31960D02*
X32080D01*
X32160D02*
X32260D01*
X32340D02*
X32520D01*
X32660D02*
X32720D01*
X32880D02*
X33220D01*
X33420D02*
X33700D01*
X33860D02*
X33980D01*
X34140D02*
X34280D01*
X34360D02*
X34520D01*
X34600D02*
X34660D01*
X34740D02*
X34840D01*
X34920D02*
X35040D01*
X35100D02*
X35400D01*
X35640D02*
X35780D01*
X35900D02*
X35920D01*
X36000D02*
X36080D01*
X36240D02*
X36380D01*
X36460D02*
X36620D01*
X36780D02*
X36920D01*
X37000D02*
X38400D01*
X26600Y-13760D02*
X29480D01*
X29560D02*
X34640D01*
X34720D02*
X38400D01*
X26600Y-13780D02*
X29460D01*
X29560D02*
X34640D01*
X34720D02*
X38400D01*
X26600Y-13800D02*
X29300D01*
X29340D02*
X29440D01*
X29540D02*
X34480D01*
X34520D02*
X34620D01*
X34720D02*
X38400D01*
X26600Y-13820D02*
X29300D01*
X29540D02*
X34480D01*
X34700D02*
X38400D01*
X26600Y-13840D02*
X29300D01*
X29520D02*
X34480D01*
X34680D02*
X38400D01*
X26600Y-13860D02*
X29320D01*
X29500D02*
X34500D01*
X34660D02*
X38400D01*
X26600Y-13880D02*
X38400D01*
X26600Y-13900D02*
X38400D01*
X26600Y-13920D02*
X38400D01*
X26600Y-13940D02*
X38400D01*
X26600Y-13960D02*
X38400D01*
X26600Y-13980D02*
X38400D01*
X26600Y-14000D02*
X38400D01*
X26600Y-14020D02*
X38400D01*
X26600Y-14040D02*
X38400D01*
X26600Y-14060D02*
X38400D01*
X26600Y-14080D02*
X38400D01*
X26600Y-14100D02*
X38400D01*
X26600Y-14120D02*
X38400D01*
X26600Y-14140D02*
X38400D01*
X26600Y-14160D02*
X38380D01*
X26600Y-14180D02*
X38380D01*
X26600Y-14200D02*
X38380D01*
X26600Y-14220D02*
X38360D01*
X26600Y-14240D02*
X38360D01*
X26600Y-14260D02*
X38360D01*
X26600Y-14280D02*
X38340D01*
X26600Y-14300D02*
X38340D01*
X26600Y-14320D02*
X38320D01*
X26600Y-14340D02*
X38320D01*
X26600Y-14360D02*
X38300D01*
X26600Y-14380D02*
X38280D01*
X26600Y-14400D02*
X38280D01*
X26600Y-14420D02*
X38260D01*
X26600Y-14440D02*
X38240D01*
X26600Y-14460D02*
X38220D01*
X26600Y-14480D02*
X38200D01*
X26600Y-14500D02*
X38180D01*
X26600Y-14520D02*
X38160D01*
X26600Y-14540D02*
X38140D01*
X26600Y-14560D02*
X38120D01*
X26600Y-14580D02*
X38100D01*
X26600Y-14600D02*
X38080D01*
X26600Y-14620D02*
X38040D01*
X26600Y-14640D02*
X38020D01*
X26600Y-14660D02*
X37980D01*
X26600Y-14680D02*
X37940D01*
X26600Y-14700D02*
X37900D01*
D40*
X40917Y-19400D02*
X40850Y-19333D01*
X40750Y-19300D01*
X40617D01*
X40517Y-19333D01*
X40450Y-19400D01*
Y-19467D01*
X40483Y-19533D01*
X40517Y-19567D01*
X40583Y-19600D01*
X40783Y-19667D01*
X40850Y-19700D01*
X40883Y-19733D01*
X40917Y-19800D01*
Y-19900D01*
X40850Y-19967D01*
X40750Y-20000D01*
X40617D01*
X40517Y-19967D01*
X40450Y-19900D01*
X41073Y-19533D02*
Y-20233D01*
Y-19633D02*
X41140Y-19567D01*
X41206Y-19533D01*
X41306D01*
X41373Y-19567D01*
X41440Y-19633D01*
X41473Y-19733D01*
Y-19800D01*
X41440Y-19900D01*
X41373Y-19967D01*
X41306Y-20000D01*
X41206D01*
X41140Y-19967D01*
X41073Y-19900D01*
X41690Y-19300D02*
X41723Y-19333D01*
X41756Y-19300D01*
X41723Y-19267D01*
X41690Y-19300D01*
X41723Y-19533D02*
Y-20000D01*
X41880Y-19300D02*
Y-20000D01*
X42213Y-19533D02*
X41880Y-19867D01*
X42013Y-19733D02*
X42246Y-20000D01*
X42356Y-19733D02*
X42756D01*
Y-19667D01*
X42723Y-19600D01*
X42690Y-19567D01*
X42623Y-19533D01*
X42523D01*
X42456Y-19567D01*
X42390Y-19633D01*
X42356Y-19733D01*
Y-19800D01*
X42390Y-19900D01*
X42456Y-19967D01*
X42523Y-20000D01*
X42623D01*
X42690Y-19967D01*
X42756Y-19900D01*
X43856Y-19533D02*
Y-20000D01*
Y-19633D02*
X43789Y-19567D01*
X43723Y-19533D01*
X43623D01*
X43556Y-19567D01*
X43489Y-19633D01*
X43456Y-19733D01*
Y-19800D01*
X43489Y-19900D01*
X43556Y-19967D01*
X43623Y-20000D01*
X43723D01*
X43789Y-19967D01*
X43856Y-19900D01*
X44043Y-19533D02*
Y-20000D01*
Y-19667D02*
X44143Y-19567D01*
X44209Y-19533D01*
X44309D01*
X44376Y-19567D01*
X44409Y-19667D01*
Y-20000D01*
X44992Y-19300D02*
Y-20000D01*
Y-19633D02*
X44926Y-19567D01*
X44859Y-19533D01*
X44759D01*
X44692Y-19567D01*
X44626Y-19633D01*
X44592Y-19733D01*
Y-19800D01*
X44626Y-19900D01*
X44692Y-19967D01*
X44759Y-20000D01*
X44859D01*
X44926Y-19967D01*
X44992Y-19900D01*
X45729Y-19300D02*
Y-20000D01*
X46195Y-19300D02*
Y-20000D01*
X45729Y-19633D02*
X46195D01*
X46555Y-19533D02*
X46489Y-19567D01*
X46422Y-19633D01*
X46389Y-19733D01*
Y-19800D01*
X46422Y-19900D01*
X46489Y-19967D01*
X46555Y-20000D01*
X46655D01*
X46722Y-19967D01*
X46789Y-19900D01*
X46822Y-19800D01*
Y-19733D01*
X46789Y-19633D01*
X46722Y-19567D01*
X46655Y-19533D01*
X46555D01*
X46975Y-19300D02*
Y-20000D01*
X47522Y-19300D02*
Y-20000D01*
Y-19633D02*
X47455Y-19567D01*
X47389Y-19533D01*
X47289D01*
X47222Y-19567D01*
X47155Y-19633D01*
X47122Y-19733D01*
Y-19800D01*
X47155Y-19900D01*
X47222Y-19967D01*
X47289Y-20000D01*
X47389D01*
X47455Y-19967D01*
X47522Y-19900D01*
X48258Y-19667D02*
X48558D01*
X48658Y-19633D01*
X48692Y-19600D01*
X48725Y-19533D01*
Y-19433D01*
X48692Y-19367D01*
X48658Y-19333D01*
X48558Y-19300D01*
X48258D01*
Y-20000D01*
X49381Y-19467D02*
X49348Y-19400D01*
X49281Y-19333D01*
X49215Y-19300D01*
X49081D01*
X49015Y-19333D01*
X48948Y-19400D01*
X48915Y-19467D01*
X48882Y-19567D01*
Y-19733D01*
X48915Y-19833D01*
X48948Y-19900D01*
X49015Y-19967D01*
X49081Y-20000D01*
X49215D01*
X49281Y-19967D01*
X49348Y-19900D01*
X49381Y-19833D01*
X49578Y-19300D02*
Y-20000D01*
Y-19300D02*
X49878D01*
X49978Y-19333D01*
X50011Y-19367D01*
X50045Y-19433D01*
Y-19500D01*
X50011Y-19567D01*
X49978Y-19600D01*
X49878Y-19633D01*
X49578D02*
X49878D01*
X49978Y-19667D01*
X50011Y-19700D01*
X50045Y-19767D01*
Y-19867D01*
X50011Y-19933D01*
X49978Y-19967D01*
X49878Y-20000D01*
X49578D01*
X50751Y-19300D02*
X51018Y-20000D01*
X51284Y-19300D02*
X51018Y-20000D01*
X51408Y-19467D02*
Y-19433D01*
X51441Y-19367D01*
X51474Y-19333D01*
X51541Y-19300D01*
X51674D01*
X51741Y-19333D01*
X51774Y-19367D01*
X51808Y-19433D01*
Y-19500D01*
X51774Y-19567D01*
X51708Y-19667D01*
X51374Y-20000D01*
X51841D01*
X52031Y-19933D02*
X51998Y-19967D01*
X52031Y-20000D01*
X52064Y-19967D01*
X52031Y-19933D01*
X52217Y-19667D02*
X52517D01*
X52617Y-19633D01*
X52651Y-19600D01*
X52684Y-19533D01*
Y-19433D01*
X52651Y-19367D01*
X52617Y-19333D01*
X52517Y-19300D01*
X52217D01*
Y-20000D01*
X53241Y-19633D02*
X53174Y-19567D01*
X53107Y-19533D01*
X53007D01*
X52941Y-19567D01*
X52874Y-19633D01*
X52841Y-19733D01*
Y-19800D01*
X52874Y-19900D01*
X52941Y-19967D01*
X53007Y-20000D01*
X53107D01*
X53174Y-19967D01*
X53241Y-19900D01*
X53391Y-19300D02*
Y-20000D01*
Y-19633D02*
X53457Y-19567D01*
X53524Y-19533D01*
X53624D01*
X53691Y-19567D01*
X53757Y-19633D01*
X53790Y-19733D01*
Y-19800D01*
X53757Y-19900D01*
X53691Y-19967D01*
X53624Y-20000D01*
X53524D01*
X53457Y-19967D01*
X53391Y-19900D01*
X53940Y-19300D02*
Y-20000D01*
Y-19300D02*
X54174D01*
X54274Y-19333D01*
X54340Y-19400D01*
X54374Y-19467D01*
X54407Y-19567D01*
Y-19733D01*
X54374Y-19833D01*
X54340Y-19900D01*
X54274Y-19967D01*
X54174Y-20000D01*
X53940D01*
X54730Y-19533D02*
X54664Y-19567D01*
X54597Y-19633D01*
X54564Y-19733D01*
Y-19800D01*
X54597Y-19900D01*
X54664Y-19967D01*
X54730Y-20000D01*
X54830D01*
X54897Y-19967D01*
X54964Y-19900D01*
X54997Y-19800D01*
Y-19733D01*
X54964Y-19633D01*
X54897Y-19567D01*
X54830Y-19533D01*
X54730D01*
X55550Y-19633D02*
X55483Y-19567D01*
X55417Y-19533D01*
X55317D01*
X55250Y-19567D01*
X55184Y-19633D01*
X55150Y-19733D01*
Y-19800D01*
X55184Y-19900D01*
X55250Y-19967D01*
X55317Y-20000D01*
X55417D01*
X55483Y-19967D01*
X55550Y-19900D01*
X40883Y-16533D02*
X40850Y-16633D01*
X40783Y-16700D01*
X40683Y-16733D01*
X40650D01*
X40550Y-16700D01*
X40483Y-16633D01*
X40450Y-16533D01*
Y-16500D01*
X40483Y-16400D01*
X40550Y-16333D01*
X40650Y-16300D01*
X40683D01*
X40783Y-16333D01*
X40850Y-16400D01*
X40883Y-16533D01*
Y-16700D01*
X40850Y-16867D01*
X40783Y-16967D01*
X40683Y-17000D01*
X40617D01*
X40517Y-16967D01*
X40483Y-16900D01*
X41073Y-17100D02*
X41540Y-16300D01*
X41586Y-16433D02*
X41653Y-16400D01*
X41753Y-16300D01*
Y-17000D01*
X42300Y-16300D02*
X42200Y-16333D01*
X42133Y-16433D01*
X42100Y-16600D01*
Y-16700D01*
X42133Y-16867D01*
X42200Y-16967D01*
X42300Y-17000D01*
X42366D01*
X42466Y-16967D01*
X42533Y-16867D01*
X42566Y-16700D01*
Y-16600D01*
X42533Y-16433D01*
X42466Y-16333D01*
X42366Y-16300D01*
X42300D01*
X42723Y-17100D02*
X43189Y-16300D01*
X43269Y-16467D02*
Y-16433D01*
X43303Y-16367D01*
X43336Y-16333D01*
X43403Y-16300D01*
X43536D01*
X43603Y-16333D01*
X43636Y-16367D01*
X43669Y-16433D01*
Y-16500D01*
X43636Y-16567D01*
X43569Y-16667D01*
X43236Y-17000D01*
X43703D01*
X44059Y-16300D02*
X43959Y-16333D01*
X43893Y-16433D01*
X43859Y-16600D01*
Y-16700D01*
X43893Y-16867D01*
X43959Y-16967D01*
X44059Y-17000D01*
X44126D01*
X44226Y-16967D01*
X44293Y-16867D01*
X44326Y-16700D01*
Y-16600D01*
X44293Y-16433D01*
X44226Y-16333D01*
X44126Y-16300D01*
X44059D01*
X44482Y-16433D02*
X44549Y-16400D01*
X44649Y-16300D01*
Y-17000D01*
X45462Y-16300D02*
X45129Y-17000D01*
X44996Y-16300D02*
X45462D01*
X27483Y-16800D02*
X27217Y-16100D01*
X26950Y-16800D01*
X27050Y-16567D02*
X27383D01*
X27647Y-16100D02*
Y-16800D01*
X27893Y-16100D02*
Y-16667D01*
X27926Y-16767D01*
X27993Y-16800D01*
X28060D01*
X27793Y-16333D02*
X28026D01*
X28226Y-16100D02*
X28260Y-16133D01*
X28293Y-16100D01*
X28260Y-16067D01*
X28226Y-16100D01*
X28260Y-16333D02*
Y-16800D01*
X28416Y-16333D02*
Y-16667D01*
X28450Y-16767D01*
X28516Y-16800D01*
X28616D01*
X28683Y-16767D01*
X28783Y-16667D01*
Y-16333D02*
Y-16800D01*
X28966Y-16333D02*
Y-16800D01*
Y-16467D02*
X29066Y-16367D01*
X29133Y-16333D01*
X29233D01*
X29299Y-16367D01*
X29333Y-16467D01*
Y-16800D01*
Y-16467D02*
X29433Y-16367D01*
X29499Y-16333D01*
X29599D01*
X29666Y-16367D01*
X29699Y-16467D01*
Y-16800D01*
X30469Y-16100D02*
Y-16800D01*
X30869D01*
X31012Y-16100D02*
X31046Y-16133D01*
X31079Y-16100D01*
X31046Y-16067D01*
X31012Y-16100D01*
X31046Y-16333D02*
Y-16800D01*
X31202Y-16333D02*
Y-16800D01*
Y-16467D02*
X31302Y-16367D01*
X31369Y-16333D01*
X31469D01*
X31536Y-16367D01*
X31569Y-16467D01*
Y-16800D01*
Y-16467D02*
X31669Y-16367D01*
X31736Y-16333D01*
X31836D01*
X31902Y-16367D01*
X31936Y-16467D01*
Y-16800D01*
X32222Y-16100D02*
X32256Y-16133D01*
X32289Y-16100D01*
X32256Y-16067D01*
X32222Y-16100D01*
X32256Y-16333D02*
Y-16800D01*
X32512Y-16100D02*
Y-16667D01*
X32545Y-16767D01*
X32612Y-16800D01*
X32679D01*
X32412Y-16333D02*
X32645D01*
X32779Y-16533D02*
X33179D01*
Y-16467D01*
X33145Y-16400D01*
X33112Y-16367D01*
X33045Y-16333D01*
X32945D01*
X32879Y-16367D01*
X32812Y-16433D01*
X32779Y-16533D01*
Y-16600D01*
X32812Y-16700D01*
X32879Y-16767D01*
X32945Y-16800D01*
X33045D01*
X33112Y-16767D01*
X33179Y-16700D01*
X33729Y-16100D02*
Y-16800D01*
Y-16433D02*
X33662Y-16367D01*
X33595Y-16333D01*
X33495D01*
X33429Y-16367D01*
X33362Y-16433D01*
X33329Y-16533D01*
Y-16600D01*
X33362Y-16700D01*
X33429Y-16767D01*
X33495Y-16800D01*
X33595D01*
X33662Y-16767D01*
X33729Y-16700D01*
X26950Y-17233D02*
X27017Y-17200D01*
X27117Y-17100D01*
Y-17800D01*
X27497Y-17267D02*
Y-17233D01*
X27530Y-17167D01*
X27563Y-17133D01*
X27630Y-17100D01*
X27763D01*
X27830Y-17133D01*
X27863Y-17167D01*
X27896Y-17233D01*
Y-17300D01*
X27863Y-17367D01*
X27796Y-17467D01*
X27463Y-17800D01*
X27930D01*
X28486Y-17333D02*
Y-17800D01*
Y-17433D02*
X28420Y-17367D01*
X28353Y-17333D01*
X28253D01*
X28186Y-17367D01*
X28120Y-17433D01*
X28086Y-17533D01*
Y-17600D01*
X28120Y-17700D01*
X28186Y-17767D01*
X28253Y-17800D01*
X28353D01*
X28420Y-17767D01*
X28486Y-17700D01*
X29223Y-17100D02*
Y-17800D01*
Y-17100D02*
X29523D01*
X29623Y-17133D01*
X29656Y-17167D01*
X29689Y-17233D01*
Y-17300D01*
X29656Y-17367D01*
X29623Y-17400D01*
X29523Y-17433D01*
X29223D01*
X29456D02*
X29689Y-17800D01*
X30013Y-17333D02*
X29946Y-17367D01*
X29879Y-17433D01*
X29846Y-17533D01*
Y-17600D01*
X29879Y-17700D01*
X29946Y-17767D01*
X30013Y-17800D01*
X30113D01*
X30179Y-17767D01*
X30246Y-17700D01*
X30279Y-17600D01*
Y-17533D01*
X30246Y-17433D01*
X30179Y-17367D01*
X30113Y-17333D01*
X30013D01*
X30833Y-17100D02*
Y-17800D01*
Y-17433D02*
X30766Y-17367D01*
X30699Y-17333D01*
X30599D01*
X30533Y-17367D01*
X30466Y-17433D01*
X30433Y-17533D01*
Y-17600D01*
X30466Y-17700D01*
X30533Y-17767D01*
X30599Y-17800D01*
X30699D01*
X30766Y-17767D01*
X30833Y-17700D01*
X31019Y-17100D02*
Y-17800D01*
Y-17433D02*
X31086Y-17367D01*
X31152Y-17333D01*
X31252D01*
X31319Y-17367D01*
X31386Y-17433D01*
X31419Y-17533D01*
Y-17600D01*
X31386Y-17700D01*
X31319Y-17767D01*
X31252Y-17800D01*
X31152D01*
X31086Y-17767D01*
X31019Y-17700D01*
X31736Y-17333D02*
X31669Y-17367D01*
X31602Y-17433D01*
X31569Y-17533D01*
Y-17600D01*
X31602Y-17700D01*
X31669Y-17767D01*
X31736Y-17800D01*
X31836D01*
X31902Y-17767D01*
X31969Y-17700D01*
X32002Y-17600D01*
Y-17533D01*
X31969Y-17433D01*
X31902Y-17367D01*
X31836Y-17333D01*
X31736D01*
X32156D02*
Y-17800D01*
Y-17533D02*
X32189Y-17433D01*
X32256Y-17367D01*
X32322Y-17333D01*
X32422D01*
X32652D02*
X32585Y-17367D01*
X32519Y-17433D01*
X32485Y-17533D01*
Y-17600D01*
X32519Y-17700D01*
X32585Y-17767D01*
X32652Y-17800D01*
X32752D01*
X32819Y-17767D01*
X32885Y-17700D01*
X32919Y-17600D01*
Y-17533D01*
X32885Y-17433D01*
X32819Y-17367D01*
X32752Y-17333D01*
X32652D01*
X33072D02*
Y-17667D01*
X33105Y-17767D01*
X33172Y-17800D01*
X33272D01*
X33339Y-17767D01*
X33439Y-17667D01*
Y-17333D02*
Y-17800D01*
X34022Y-17333D02*
Y-17867D01*
X33988Y-17967D01*
X33955Y-18000D01*
X33889Y-18033D01*
X33789D01*
X33722Y-18000D01*
X34022Y-17433D02*
X33955Y-17367D01*
X33889Y-17333D01*
X33789D01*
X33722Y-17367D01*
X33655Y-17433D01*
X33622Y-17533D01*
Y-17600D01*
X33655Y-17700D01*
X33722Y-17767D01*
X33789Y-17800D01*
X33889D01*
X33955Y-17767D01*
X34022Y-17700D01*
X34208Y-17100D02*
Y-17800D01*
Y-17467D02*
X34308Y-17367D01*
X34375Y-17333D01*
X34475D01*
X34542Y-17367D01*
X34575Y-17467D01*
Y-17800D01*
X35308Y-17100D02*
Y-17800D01*
Y-17100D02*
X35608D01*
X35708Y-17133D01*
X35741Y-17167D01*
X35775Y-17233D01*
Y-17300D01*
X35741Y-17367D01*
X35708Y-17400D01*
X35608Y-17433D01*
X35308D01*
X35541D02*
X35775Y-17800D01*
X36331Y-17100D02*
Y-17800D01*
Y-17433D02*
X36265Y-17367D01*
X36198Y-17333D01*
X36098D01*
X36031Y-17367D01*
X35965Y-17433D01*
X35931Y-17533D01*
Y-17600D01*
X35965Y-17700D01*
X36031Y-17767D01*
X36098Y-17800D01*
X36198D01*
X36265Y-17767D01*
X36331Y-17700D01*
X26950Y-18100D02*
Y-18800D01*
Y-18100D02*
X27383D01*
X26950Y-18433D02*
X27217D01*
X27463Y-18333D02*
Y-18800D01*
Y-18533D02*
X27497Y-18433D01*
X27563Y-18367D01*
X27630Y-18333D01*
X27730D01*
X27793Y-18533D02*
X28193D01*
Y-18467D01*
X28160Y-18400D01*
X28126Y-18367D01*
X28060Y-18333D01*
X27960D01*
X27893Y-18367D01*
X27826Y-18433D01*
X27793Y-18533D01*
Y-18600D01*
X27826Y-18700D01*
X27893Y-18767D01*
X27960Y-18800D01*
X28060D01*
X28126Y-18767D01*
X28193Y-18700D01*
X28343Y-18333D02*
Y-18800D01*
Y-18467D02*
X28443Y-18367D01*
X28510Y-18333D01*
X28610D01*
X28676Y-18367D01*
X28710Y-18467D01*
Y-18800D01*
X29293Y-18433D02*
X29226Y-18367D01*
X29160Y-18333D01*
X29060D01*
X28993Y-18367D01*
X28926Y-18433D01*
X28893Y-18533D01*
Y-18600D01*
X28926Y-18700D01*
X28993Y-18767D01*
X29060Y-18800D01*
X29160D01*
X29226Y-18767D01*
X29293Y-18700D01*
X29443Y-18100D02*
Y-18800D01*
Y-18467D02*
X29543Y-18367D01*
X29609Y-18333D01*
X29709D01*
X29776Y-18367D01*
X29809Y-18467D01*
Y-18800D01*
X30359Y-18433D02*
X30326Y-18367D01*
X30226Y-18333D01*
X30126D01*
X30026Y-18367D01*
X29993Y-18433D01*
X30026Y-18500D01*
X30093Y-18533D01*
X30259Y-18567D01*
X30326Y-18600D01*
X30359Y-18667D01*
Y-18700D01*
X30326Y-18767D01*
X30226Y-18800D01*
X30126D01*
X30026Y-18767D01*
X29993Y-18700D01*
X31056Y-18100D02*
Y-18800D01*
Y-18100D02*
X31489D01*
X31056Y-18433D02*
X31322D01*
X31736Y-18333D02*
X31669Y-18367D01*
X31602Y-18433D01*
X31569Y-18533D01*
Y-18600D01*
X31602Y-18700D01*
X31669Y-18767D01*
X31736Y-18800D01*
X31836D01*
X31902Y-18767D01*
X31969Y-18700D01*
X32002Y-18600D01*
Y-18533D01*
X31969Y-18433D01*
X31902Y-18367D01*
X31836Y-18333D01*
X31736D01*
X32156D02*
Y-18800D01*
Y-18533D02*
X32189Y-18433D01*
X32256Y-18367D01*
X32322Y-18333D01*
X32422D01*
X32485Y-18533D02*
X32885D01*
Y-18467D01*
X32852Y-18400D01*
X32819Y-18367D01*
X32752Y-18333D01*
X32652D01*
X32585Y-18367D01*
X32519Y-18433D01*
X32485Y-18533D01*
Y-18600D01*
X32519Y-18700D01*
X32585Y-18767D01*
X32652Y-18800D01*
X32752D01*
X32819Y-18767D01*
X32885Y-18700D01*
X33402Y-18433D02*
X33369Y-18367D01*
X33269Y-18333D01*
X33169D01*
X33069Y-18367D01*
X33035Y-18433D01*
X33069Y-18500D01*
X33135Y-18533D01*
X33302Y-18567D01*
X33369Y-18600D01*
X33402Y-18667D01*
Y-18700D01*
X33369Y-18767D01*
X33269Y-18800D01*
X33169D01*
X33069Y-18767D01*
X33035Y-18700D01*
X33649Y-18100D02*
Y-18667D01*
X33682Y-18767D01*
X33749Y-18800D01*
X33815D01*
X33549Y-18333D02*
X33782D01*
X26950Y-19100D02*
Y-19800D01*
Y-19100D02*
X27417Y-19800D01*
Y-19100D02*
Y-19800D01*
X28076Y-19200D02*
X28010Y-19133D01*
X27910Y-19100D01*
X27776D01*
X27677Y-19133D01*
X27610Y-19200D01*
Y-19267D01*
X27643Y-19333D01*
X27677Y-19367D01*
X27743Y-19400D01*
X27943Y-19467D01*
X28010Y-19500D01*
X28043Y-19533D01*
X28076Y-19600D01*
Y-19700D01*
X28010Y-19767D01*
X27910Y-19800D01*
X27776D01*
X27677Y-19767D01*
X27610Y-19700D01*
X28233Y-19100D02*
X28400Y-19800D01*
X28566Y-19100D02*
X28400Y-19800D01*
X28566Y-19100D02*
X28733Y-19800D01*
X28900Y-19100D02*
X28733Y-19800D01*
X29623Y-19267D02*
Y-19233D01*
X29656Y-19167D01*
X29689Y-19133D01*
X29756Y-19100D01*
X29889D01*
X29956Y-19133D01*
X29989Y-19167D01*
X30023Y-19233D01*
Y-19300D01*
X29989Y-19367D01*
X29923Y-19467D01*
X29589Y-19800D01*
X30056D01*
X30413Y-19100D02*
X30313Y-19133D01*
X30246Y-19233D01*
X30213Y-19400D01*
Y-19500D01*
X30246Y-19667D01*
X30313Y-19767D01*
X30413Y-19800D01*
X30479D01*
X30579Y-19767D01*
X30646Y-19667D01*
X30679Y-19500D01*
Y-19400D01*
X30646Y-19233D01*
X30579Y-19133D01*
X30479Y-19100D01*
X30413D01*
X31002D02*
X30902Y-19133D01*
X30869Y-19200D01*
Y-19267D01*
X30902Y-19333D01*
X30969Y-19367D01*
X31102Y-19400D01*
X31202Y-19433D01*
X31269Y-19500D01*
X31302Y-19567D01*
Y-19667D01*
X31269Y-19733D01*
X31236Y-19767D01*
X31136Y-19800D01*
X31002D01*
X30902Y-19767D01*
X30869Y-19733D01*
X30836Y-19667D01*
Y-19567D01*
X30869Y-19500D01*
X30936Y-19433D01*
X31036Y-19400D01*
X31169Y-19367D01*
X31236Y-19333D01*
X31269Y-19267D01*
Y-19200D01*
X31236Y-19133D01*
X31136Y-19100D01*
X31002D01*
X31859Y-19200D02*
X31826Y-19133D01*
X31726Y-19100D01*
X31659D01*
X31559Y-19133D01*
X31492Y-19233D01*
X31459Y-19400D01*
Y-19567D01*
X31492Y-19700D01*
X31559Y-19767D01*
X31659Y-19800D01*
X31692D01*
X31792Y-19767D01*
X31859Y-19700D01*
X31892Y-19600D01*
Y-19567D01*
X31859Y-19467D01*
X31792Y-19400D01*
X31692Y-19367D01*
X31659D01*
X31559Y-19400D01*
X31492Y-19467D01*
X31459Y-19567D01*
X72170Y-22150D02*
Y-21450D01*
X71820Y-21800D01*
X72287D01*
X43120Y-21567D02*
X43237Y-21450D01*
X43470D01*
X43587Y-21567D01*
Y-21683D01*
X43470Y-21800D01*
X43353D01*
X43470D01*
X43587Y-21917D01*
Y-22033D01*
X43470Y-22150D01*
X43237D01*
X43120Y-22033D01*
X14787Y-22150D02*
X14320D01*
X14787Y-21683D01*
Y-21567D01*
X14670Y-21450D01*
X14437D01*
X14320Y-21567D01*
X-9636Y-24500D02*
X-9569Y-24467D01*
X-9469Y-24367D01*
Y-25067D01*
X72153Y52550D02*
X71820Y52083D01*
X72320D01*
X72153Y52550D02*
Y51850D01*
X43187Y52550D02*
X43553D01*
X43353Y52283D01*
X43453D01*
X43520Y52250D01*
X43553Y52217D01*
X43587Y52117D01*
Y52050D01*
X43553Y51950D01*
X43487Y51883D01*
X43387Y51850D01*
X43287D01*
X43187Y51883D01*
X43153Y51917D01*
X43120Y51983D01*
X14353Y52383D02*
Y52417D01*
X14387Y52483D01*
X14420Y52517D01*
X14487Y52550D01*
X14620D01*
X14687Y52517D01*
X14720Y52483D01*
X14753Y52417D01*
Y52350D01*
X14720Y52283D01*
X14653Y52183D01*
X14320Y51850D01*
X14787D01*
X-14280Y52417D02*
X-14213Y52450D01*
X-14113Y52550D01*
Y51850D01*
X-27800Y-13430D02*
Y-14130D01*
Y-13430D02*
X-27567D01*
X-27467Y-13463D01*
X-27400Y-13530D01*
X-27367Y-13597D01*
X-27333Y-13697D01*
Y-13863D01*
X-27367Y-13963D01*
X-27400Y-14030D01*
X-27467Y-14097D01*
X-27567Y-14130D01*
X-27800D01*
X-27300Y5303D02*
X-27333Y5370D01*
X-27400Y5437D01*
X-27467Y5470D01*
X-27600D01*
X-27667Y5437D01*
X-27733Y5370D01*
X-27767Y5303D01*
X-27800Y5203D01*
Y5037D01*
X-27767Y4937D01*
X-27733Y4870D01*
X-27667Y4803D01*
X-27600Y4770D01*
X-27467D01*
X-27400Y4803D01*
X-27333Y4870D01*
X-27300Y4937D01*
X-27800Y24570D02*
Y23870D01*
Y24570D02*
X-27500D01*
X-27400Y24537D01*
X-27367Y24503D01*
X-27333Y24437D01*
Y24370D01*
X-27367Y24303D01*
X-27400Y24270D01*
X-27500Y24237D01*
X-27800D02*
X-27500D01*
X-27400Y24203D01*
X-27367Y24170D01*
X-27333Y24103D01*
Y24003D01*
X-27367Y23937D01*
X-27400Y23903D01*
X-27500Y23870D01*
X-27800D01*
X-27267Y42790D02*
X-27533Y43490D01*
X-27800Y42790D01*
X-27700Y43023D02*
X-27367D01*
X85200Y-13430D02*
Y-14130D01*
Y-13430D02*
X85433D01*
X85533Y-13463D01*
X85600Y-13530D01*
X85633Y-13597D01*
X85667Y-13697D01*
Y-13863D01*
X85633Y-13963D01*
X85600Y-14030D01*
X85533Y-14097D01*
X85433Y-14130D01*
X85200D01*
X25664Y20697D02*
X25630Y20764D01*
X25564Y20830D01*
X25497Y20864D01*
X25364D01*
X25297Y20830D01*
X25230Y20764D01*
X25197Y20697D01*
X25164Y20597D01*
Y20430D01*
X25197Y20330D01*
X25230Y20264D01*
X25297Y20197D01*
X25364Y20164D01*
X25497D01*
X25564Y20197D01*
X25630Y20264D01*
X25664Y20330D01*
X85200Y24570D02*
Y23870D01*
Y24570D02*
X85500D01*
X85600Y24537D01*
X85633Y24503D01*
X85667Y24437D01*
Y24370D01*
X85633Y24303D01*
X85600Y24270D01*
X85500Y24237D01*
X85200D02*
X85500D01*
X85600Y24203D01*
X85633Y24170D01*
X85667Y24103D01*
Y24003D01*
X85633Y23937D01*
X85600Y23903D01*
X85500Y23870D01*
X85200D01*
X85733Y42790D02*
X85467Y43490D01*
X85200Y42790D01*
X85300Y43023D02*
X85633D01*
M02*
