G04 Layer_Color=255*
%FSLAX25Y25*%
%MOIN*%
G70*
G01*
G75*
%ADD32C,0.03937*%
%ADD33C,0.10236*%
%ADD34C,0.13000*%
%ADD38R,0.11811X0.03937*%
D32*
X619579Y133300D02*
D03*
X629421D02*
D03*
X609736D02*
D03*
X624500D02*
D03*
X634342D02*
D03*
X614657D02*
D03*
D33*
X498675Y131230D02*
D03*
X518360Y163710D02*
D03*
X478990D02*
D03*
X620472Y86614D02*
D03*
X590551D02*
D03*
D34*
X579800Y392700D02*
D03*
X687500D02*
D03*
X579800Y125200D02*
D03*
X689800D02*
D03*
D38*
X664189Y304800D02*
D03*
X676000Y174800D02*
D03*
Y194800D02*
D03*
X664189Y184800D02*
D03*
Y204800D02*
D03*
X676000Y214800D02*
D03*
Y294800D02*
D03*
X664189Y284800D02*
D03*
Y264800D02*
D03*
X676000Y274800D02*
D03*
Y234800D02*
D03*
X664189Y224800D02*
D03*
Y244800D02*
D03*
X676000Y254800D02*
D03*
X616000Y304800D02*
D03*
Y264800D02*
D03*
X604189Y254800D02*
D03*
Y234800D02*
D03*
X616000Y244800D02*
D03*
Y284800D02*
D03*
X604189Y274800D02*
D03*
Y294800D02*
D03*
X616000Y224800D02*
D03*
X604189Y214800D02*
D03*
Y194800D02*
D03*
X616000Y204800D02*
D03*
Y184800D02*
D03*
X604189Y174800D02*
D03*
M02*
