G04 Layer_Color=32768*
%FSLAX25Y25*%
%MOIN*%
G70*
G01*
G75*
%ADD40C,0.00600*%
%ADD41C,0.00394*%
%ADD73C,0.00197*%
G36*
X502496Y149531D02*
X506346D01*
Y145531D01*
X502496D01*
Y140531D01*
X494996D01*
Y141791D01*
X491146D01*
Y153271D01*
X494996D01*
Y154531D01*
X502496D01*
Y149531D01*
D02*
G37*
G36*
X685200Y166500D02*
X594700Y166500D01*
X594700Y309000D01*
X685200Y309000D01*
X685200Y166500D01*
D02*
G37*
G36*
X609312Y80700D02*
X602412D01*
Y92200D01*
X609312D01*
Y80700D01*
D02*
G37*
G36*
X697168Y153800D02*
X697866D01*
Y142400D01*
X697168D01*
Y139400D01*
X688263D01*
Y142400D01*
X687566D01*
Y153800D01*
X688263D01*
Y156800D01*
X697168D01*
Y153800D01*
D02*
G37*
G36*
X696455Y373450D02*
X697968D01*
Y359250D01*
X696455D01*
Y353800D01*
X685282D01*
Y359250D01*
X683769D01*
Y373450D01*
X685282D01*
Y378900D01*
X696455D01*
Y373450D01*
D02*
G37*
G36*
X658400Y379250D02*
X628400D01*
Y401350D01*
X658400D01*
Y379250D01*
D02*
G37*
G36*
X658402Y321432D02*
X628402D01*
Y343532D01*
X658402D01*
Y321432D01*
D02*
G37*
G36*
Y350432D02*
X628402D01*
Y372532D01*
X658402D01*
Y350432D01*
D02*
G37*
D40*
X594600Y166500D02*
X685200D01*
X594600Y309000D02*
X685200D01*
Y166500D02*
Y309000D01*
X594600Y166500D02*
Y309000D01*
X617160Y294050D02*
X649009D01*
Y287500D02*
Y294050D01*
Y287500D02*
X650834D01*
Y263500D02*
Y287500D01*
X649009Y263500D02*
X650834D01*
X649009Y256950D02*
Y263500D01*
X617160Y256950D02*
X649009D01*
X617160D02*
Y263500D01*
X615334D02*
X617160D01*
X615334D02*
Y287500D01*
X617160D01*
Y294050D01*
X688263Y139400D02*
X697168D01*
X688263D02*
Y142400D01*
X687566D02*
X688263D01*
X687566D02*
Y153800D01*
X688263D01*
Y156800D01*
X697168D01*
Y153800D02*
Y156800D01*
Y153800D02*
X697866D01*
Y142400D02*
Y153800D01*
X697168Y142400D02*
X697866D01*
X697168Y139400D02*
Y142400D01*
X645182Y217400D02*
X656355D01*
Y211950D02*
Y217400D01*
Y211950D02*
X657868D01*
Y197750D02*
Y211950D01*
X656355Y197750D02*
X657868D01*
X656355Y192300D02*
Y197750D01*
X645182Y192300D02*
X656355D01*
X645182D02*
Y197750D01*
X643669D02*
X645182D01*
X643669D02*
Y211950D01*
X645182D01*
Y217400D01*
X494996Y154531D02*
X502496D01*
Y149531D02*
Y154531D01*
Y149531D02*
X506346D01*
Y145531D02*
Y149531D01*
X502496Y145531D02*
X506346D01*
X502496Y140531D02*
Y145531D01*
X494996Y140531D02*
X502496D01*
X494996D02*
Y141791D01*
Y153271D02*
Y154531D01*
X491146Y141791D02*
X494996D01*
X491146Y153271D02*
X494996D01*
X491146Y141791D02*
Y153271D01*
X628400Y379250D02*
Y401350D01*
X658400D01*
Y379250D02*
Y401350D01*
X628400Y379250D02*
X658400D01*
X628402Y350432D02*
Y372532D01*
X658402D01*
Y350432D02*
Y372532D01*
X628402Y350432D02*
X658402D01*
X628402Y321432D02*
Y343532D01*
X658402D01*
Y321432D02*
Y343532D01*
X628402Y321432D02*
X658402D01*
X685282Y378900D02*
X696455D01*
Y373450D02*
Y378900D01*
Y373450D02*
X697968D01*
Y359250D02*
Y373450D01*
X696455Y359250D02*
X697968D01*
X696455Y353800D02*
Y359250D01*
X685282Y353800D02*
X696455D01*
X685282D02*
Y359250D01*
X683769D02*
X685282D01*
X683769D02*
Y373450D01*
X685282D01*
Y378900D01*
X602412Y80700D02*
X609312D01*
X602412D02*
Y92200D01*
X609312D01*
Y80700D02*
Y92200D01*
D41*
X656527Y144032D02*
Y147968D01*
X654558Y146000D02*
X658495D01*
X622027Y144632D02*
Y148568D01*
X620058Y146600D02*
X623995D01*
X588427Y144332D02*
Y148268D01*
X586458Y146300D02*
X590395D01*
X677218Y324982D02*
Y328919D01*
X675250Y326950D02*
X679187D01*
D73*
X673246Y187248D02*
X699946D01*
X673246Y159348D02*
X699946D01*
X673246D02*
Y187248D01*
X699946Y159348D02*
Y187248D01*
X673246Y217358D02*
X699946D01*
X673246Y189458D02*
X699946D01*
X673246D02*
Y217358D01*
X699946Y189458D02*
Y217358D01*
X673146Y247258D02*
X699846D01*
X673146Y219358D02*
X699846D01*
X673146D02*
Y247258D01*
X699846Y219358D02*
Y247258D01*
X650287Y140882D02*
X662767D01*
X650287Y151118D02*
X662767D01*
Y140882D02*
Y151118D01*
X650287Y140882D02*
Y151118D01*
X615787Y141482D02*
X628267D01*
X615787Y151718D02*
X628267D01*
Y141482D02*
Y151718D01*
X615787Y141482D02*
Y151718D01*
X582187Y141182D02*
X594667D01*
X582187Y151418D02*
X594667D01*
Y141182D02*
Y151418D01*
X582187Y141182D02*
Y151418D01*
X671683Y350403D02*
X702183D01*
X671683Y303403D02*
X702183D01*
X671683D02*
Y350403D01*
X702183Y303403D02*
Y350403D01*
M02*
