G04 Layer_Color=16711935*
%FSLAX25Y25*%
%MOIN*%
G70*
G01*
G75*
%ADD41C,0.00394*%
%ADD72C,0.00000*%
D41*
X688546Y185848D02*
X698046D01*
X688546Y178748D02*
X698046D01*
X688546D02*
Y185848D01*
X698046Y178748D02*
Y185848D01*
Y160648D02*
Y167648D01*
X688546Y160648D02*
Y167648D01*
Y160648D02*
X698046D01*
X688546Y167648D02*
X698046D01*
X673946Y179848D02*
X682017D01*
X673946Y166848D02*
X682017D01*
X673946D02*
Y179848D01*
X682017Y166848D02*
Y179848D01*
X688546Y215958D02*
X698046D01*
X688546Y208858D02*
X698046D01*
X688546D02*
Y215958D01*
X698046Y208858D02*
Y215958D01*
Y190758D02*
Y197758D01*
X688546Y190758D02*
Y197758D01*
Y190758D02*
X698046D01*
X688546Y197758D02*
X698046D01*
X673946Y209958D02*
X682017D01*
X673946Y196958D02*
X682017D01*
X673946D02*
Y209958D01*
X682017Y196958D02*
Y209958D01*
X688446Y245858D02*
X697946D01*
X688446Y238758D02*
X697946D01*
X688446D02*
Y245858D01*
X697946Y238758D02*
Y245858D01*
Y220658D02*
Y227658D01*
X688446Y220658D02*
Y227658D01*
Y220658D02*
X697946D01*
X688446Y227658D02*
X697946D01*
X673846Y239858D02*
X681917D01*
X673846Y226858D02*
X681917D01*
X673846D02*
Y239858D01*
X681917Y226858D02*
Y239858D01*
X652491Y141965D02*
X660562D01*
X652491Y150035D02*
X660562D01*
Y141965D02*
Y150035D01*
X652491Y141965D02*
Y150035D01*
X617991Y142565D02*
X626062D01*
X617991Y150635D02*
X626062D01*
Y142565D02*
Y150635D01*
X617991Y142565D02*
Y150635D01*
X584391Y142265D02*
X592462D01*
X584391Y150335D02*
X592462D01*
Y142265D02*
Y150335D01*
X584391Y142265D02*
Y150335D01*
X681683Y349403D02*
X695753D01*
X681683Y338903D02*
X695753D01*
X681683D02*
Y349403D01*
X695753Y338903D02*
Y349403D01*
Y304403D02*
Y314903D01*
X681683Y304403D02*
Y314903D01*
Y304403D02*
X695753D01*
X681683Y314903D02*
X695753D01*
X673183Y337403D02*
X681253D01*
X673183Y316903D02*
X681253D01*
X673183D02*
Y337403D01*
X681253Y316903D02*
Y337403D01*
D72*
X649834Y276700D02*
G03*
X649834Y274300I0J-1200D01*
G01*
X688566Y146900D02*
G03*
X688566Y149300I0J1200D01*
G01*
X656869Y206050D02*
G03*
X656869Y203650I0J-1200D01*
G01*
X497496Y152531D02*
G03*
X497496Y152531I-500J0D01*
G01*
X642200Y400350D02*
G03*
X644600Y400350I1200J0D01*
G01*
X642202Y371532D02*
G03*
X644602Y371532I1200J0D01*
G01*
X642202Y342532D02*
G03*
X644602Y342532I1200J0D01*
G01*
X696969Y367550D02*
G03*
X696969Y365150I0J-1200D01*
G01*
M02*
