G04 Layer_Color=32896*
%FSLAX25Y25*%
%MOIN*%
G70*
G01*
G75*
%ADD43C,0.00472*%
D43*
X685000Y315455D02*
X683163D01*
X684082D01*
Y312700D01*
X680867D02*
X681786D01*
X682245Y313159D01*
Y314077D01*
X681786Y314537D01*
X680867D01*
X680408Y314077D01*
Y313618D01*
X682245D01*
X678112Y312700D02*
X679031D01*
X679490Y313159D01*
Y314077D01*
X679031Y314537D01*
X678112D01*
X677653Y314077D01*
Y313618D01*
X679490D01*
X676735Y312700D02*
Y314537D01*
X675357D01*
X674898Y314077D01*
Y312700D01*
X673980D02*
X672602D01*
X672143Y313159D01*
X672602Y313618D01*
X673521D01*
X673980Y314077D01*
X673521Y314537D01*
X672143D01*
X671225D02*
Y313159D01*
X670766Y312700D01*
X669388D01*
Y312241D01*
X669847Y311782D01*
X670307D01*
X669388Y312700D02*
Y314537D01*
X665715Y314996D02*
X665256Y315455D01*
X664337D01*
X663878Y314996D01*
Y314537D01*
X664337Y314077D01*
X664796D01*
X664337D01*
X663878Y313618D01*
Y313159D01*
X664337Y312700D01*
X665256D01*
X665715Y313159D01*
X662960Y312700D02*
Y313159D01*
X662501D01*
Y312700D01*
X662960D01*
X658827D02*
X660664D01*
X658827Y314537D01*
Y314996D01*
X659286Y315455D01*
X660205D01*
X660664Y314996D01*
X655154Y315455D02*
Y312700D01*
Y314077D01*
X653317D01*
Y315455D01*
Y312700D01*
X651021D02*
X651940D01*
X652399Y313159D01*
Y314077D01*
X651940Y314537D01*
X651021D01*
X650562Y314077D01*
Y313618D01*
X652399D01*
X649185Y314537D02*
X648266D01*
X647807Y314077D01*
Y312700D01*
X649185D01*
X649644Y313159D01*
X649185Y313618D01*
X647807D01*
X645052Y315455D02*
Y312700D01*
X646430D01*
X646889Y313159D01*
Y314077D01*
X646430Y314537D01*
X645052D01*
X642756Y312700D02*
X643675D01*
X644134Y313159D01*
Y314077D01*
X643675Y314537D01*
X642756D01*
X642297Y314077D01*
Y313618D01*
X644134D01*
X641379Y314537D02*
Y312700D01*
Y313618D01*
X640920Y314077D01*
X640460Y314537D01*
X640001D01*
X638624Y312700D02*
X637246D01*
X636787Y313159D01*
X637246Y313618D01*
X638165D01*
X638624Y314077D01*
X638165Y314537D01*
X636787D01*
M02*
