M48
;Layer_Color=9474304
;FILE_FORMAT=2:5
INCH,LZ
;TYPE=PLATED
T1F00S00C0.01181
T2F00S00C0.01575
T3F00S00C0.02362
T4F00S00C0.02362
T5F00S00C0.03200
T6F00S00C0.07087
T7F00S00C0.08661
T8F00S00C0.10827
%
T01
X05804Y01444
X05798Y01485
X05885Y01398
X0597Y0149441
X06135Y01484
X06133Y01443
X0622Y01406
X06307Y0149841
X06375Y0145188
X06476Y01441
X06566Y01398
X06523Y01534
X06656Y01562
X06655Y0148841
X06865Y01481
X0691Y0148
X06979Y01535
X06982Y01427
X06828Y01428
X06837Y01594
X06949Y01588
X06958Y01629
X07013Y01596
X06958Y01836
X06957Y01931
Y02137
X06956Y0223
X06957Y02436
X0696402Y0261278
X06784Y02418
X06841Y02348
X06761Y02293
X0682Y02034
X0664189Y01924
X06557Y01909
X06489Y01907
X06576Y01968
X06548Y0206
X06508Y02061
X06417Y02039
X06415Y02087
X06363Y02008
X0631Y02184
X06385Y02227
X06359Y02293
X06366Y02397
X06541Y02702
X06277Y02798
X06326Y01797
X06307Y01572
X0625Y01588
X06491Y0168
X06588Y01716
X06627Y01792
X06854Y01759
X06758Y01639
X06235Y01791
X06187Y01931
X06188Y01976
X06219Y02048
X06224Y02124
X06216Y02544
X0610472Y0254728
X06159Y02673
X06242Y02693
X06105Y02748
X06186Y02933
X05963Y02894
X0597Y01567
X06168Y0317
X06203Y0314
X06055Y03358
X0587122Y0344858
X06055Y03648
Y03935
X06387Y03943
X06388Y03896
X0648913Y03903
X0645669Y03954
X06397Y03761
X06388Y03656
X06379Y03614
X0648913Y03615
X0645669Y03666
X0653Y0376
X0652841Y03471
X06397Y03473
X06389Y03364
X06378Y03325
X0648913
X0645669Y03376
X06473Y03186
X06396Y03182
X06793Y03295
Y03344
X06855Y03325
X06871Y03279
X0687Y03231
X06959
X06909Y03644
Y03684
X0681Y03655
T02
X06703Y01556
X06375Y01594
X06523Y02595
X06956Y03094
X0587122Y0309121
Y03042
X06098Y02847
X05873Y0253542
Y0248621
X05999Y02349
X06117Y02247
X05875Y0198043
Y0193121
Y01882
X06036Y01596
X06055Y03244
X0615Y03394
X06212Y03427
X06245Y03369
X06247Y03657
X06216Y03721
X06155Y03683
X06055Y03825
X06151Y03973
X06208Y04001
X06244Y03949
X06055Y03538
X0587122Y0359621
Y0364543
X06651Y03595
X06661Y03882
X06946Y03446
X06675Y03166
T03
X0609736Y01333
X0614657
X0619579
X0629421
X0634342
T04
X06245Y01333
T05
X0547932Y0137529
Y0147529
X0605862Y0091614
Y0081614
X0547932Y0157529
T06
X0590551Y0086614
X0620472
T07
X0498675Y013123
X051836Y016371
X047899
T08
X05798Y01252
X06898
X05798Y03927
X06875
M30
