G04 Layer_Color=65535*
%FSLAX43Y43*%
%MOMM*%
G71*
G01*
G75*
%ADD21C,0.305*%
%ADD22C,0.762*%
%ADD23C,0.762*%
%ADD42C,0.254*%
%ADD58C,0.200*%
%ADD59C,0.250*%
%ADD60C,0.152*%
%ADD61C,0.100*%
%ADD62C,0.150*%
%ADD63C,0.076*%
%ADD64C,0.127*%
%ADD65C,0.102*%
%ADD66R,4.877X4.445*%
G36*
X18546Y20913D02*
Y20912D01*
Y20909D01*
Y20906D01*
Y20901D01*
Y20895D01*
X18545Y20887D01*
Y20870D01*
X18544Y20852D01*
X18542Y20833D01*
X18540Y20816D01*
X18537Y20799D01*
Y20798D01*
X18536Y20797D01*
X18535Y20794D01*
X18534Y20790D01*
X18532Y20785D01*
X18531Y20780D01*
X18526Y20767D01*
X18520Y20753D01*
X18512Y20737D01*
X18502Y20721D01*
X18491Y20706D01*
X18490Y20705D01*
X18489Y20703D01*
X18486Y20701D01*
X18483Y20697D01*
X18479Y20693D01*
X18473Y20688D01*
X18461Y20677D01*
X18446Y20665D01*
X18427Y20652D01*
X18406Y20640D01*
X18382Y20630D01*
X18381D01*
X18379Y20629D01*
X18375Y20627D01*
X18370Y20625D01*
X18363Y20624D01*
X18357Y20622D01*
X18348Y20619D01*
X18337Y20617D01*
X18327Y20615D01*
X18315Y20612D01*
X18290Y20608D01*
X18261Y20605D01*
X18230Y20604D01*
X18218D01*
X18211Y20605D01*
X18204D01*
X18195Y20606D01*
X18186D01*
X18166Y20609D01*
X18144Y20611D01*
X18122Y20616D01*
X18100Y20622D01*
X18099D01*
X18098Y20623D01*
X18095Y20624D01*
X18091Y20625D01*
X18086Y20627D01*
X18081Y20629D01*
X18068Y20634D01*
X18053Y20640D01*
X18038Y20648D01*
X18022Y20656D01*
X18007Y20666D01*
X18006Y20667D01*
X18001Y20670D01*
X17994Y20675D01*
X17987Y20683D01*
X17977Y20692D01*
X17968Y20701D01*
X17958Y20712D01*
X17949Y20724D01*
X17949Y20726D01*
X17946Y20729D01*
X17943Y20736D01*
X17937Y20745D01*
X17932Y20756D01*
X17927Y20769D01*
X17922Y20784D01*
X17917Y20800D01*
Y20801D01*
Y20802D01*
X17917Y20805D01*
X17916Y20808D01*
X17914Y20818D01*
X17912Y20830D01*
X17910Y20844D01*
X17909Y20862D01*
X17908Y20882D01*
X17907Y20902D01*
Y21133D01*
X18546D01*
Y20913D01*
D02*
G37*
G36*
X18248Y20512D02*
X18257D01*
X18267Y20511D01*
X18279Y20509D01*
X18291Y20507D01*
X18318Y20503D01*
X18347Y20496D01*
X18376Y20487D01*
X18391Y20481D01*
X18405Y20475D01*
X18406Y20474D01*
X18409Y20473D01*
X18412Y20470D01*
X18417Y20468D01*
X18423Y20463D01*
X18431Y20459D01*
X18447Y20447D01*
X18466Y20431D01*
X18485Y20413D01*
X18502Y20391D01*
X18518Y20366D01*
X18519Y20365D01*
X18520Y20363D01*
X18522Y20359D01*
X18525Y20354D01*
X18527Y20347D01*
X18531Y20339D01*
X18534Y20331D01*
X18538Y20320D01*
X18542Y20309D01*
X18545Y20298D01*
X18551Y20271D01*
X18556Y20242D01*
X18557Y20227D01*
Y20211D01*
Y20210D01*
Y20207D01*
Y20202D01*
X18557Y20195D01*
X18556Y20187D01*
X18555Y20177D01*
X18553Y20167D01*
X18551Y20155D01*
X18545Y20130D01*
X18542Y20116D01*
X18537Y20103D01*
X18531Y20089D01*
X18525Y20075D01*
X18517Y20062D01*
X18508Y20050D01*
X18507Y20049D01*
X18506Y20048D01*
X18503Y20044D01*
X18499Y20040D01*
X18494Y20034D01*
X18488Y20028D01*
X18481Y20022D01*
X18473Y20014D01*
X18463Y20007D01*
X18454Y19999D01*
X18442Y19991D01*
X18429Y19983D01*
X18416Y19976D01*
X18402Y19970D01*
X18387Y19964D01*
X18370Y19958D01*
X18351Y20041D01*
X18352D01*
X18355Y20042D01*
X18358Y20044D01*
X18363Y20046D01*
X18369Y20048D01*
X18375Y20051D01*
X18390Y20058D01*
X18407Y20067D01*
X18423Y20079D01*
X18439Y20092D01*
X18447Y20099D01*
X18453Y20106D01*
Y20107D01*
X18454Y20108D01*
X18455Y20111D01*
X18458Y20114D01*
X18460Y20119D01*
X18463Y20123D01*
X18469Y20136D01*
X18474Y20151D01*
X18480Y20170D01*
X18483Y20190D01*
X18485Y20213D01*
Y20214D01*
Y20216D01*
Y20220D01*
X18484Y20225D01*
Y20231D01*
X18483Y20239D01*
X18480Y20256D01*
X18476Y20275D01*
X18470Y20296D01*
X18461Y20317D01*
X18449Y20336D01*
Y20337D01*
X18447Y20338D01*
X18446Y20340D01*
X18443Y20344D01*
X18434Y20352D01*
X18424Y20363D01*
X18410Y20375D01*
X18394Y20386D01*
X18376Y20397D01*
X18354Y20405D01*
X18353D01*
X18351Y20406D01*
X18348Y20407D01*
X18344Y20409D01*
X18338Y20410D01*
X18332Y20411D01*
X18324Y20413D01*
X18317Y20415D01*
X18299Y20419D01*
X18278Y20422D01*
X18255Y20424D01*
X18232Y20425D01*
X18218D01*
X18211Y20424D01*
X18203D01*
X18194Y20423D01*
X18183Y20423D01*
X18162Y20419D01*
X18137Y20416D01*
X18113Y20410D01*
X18090Y20402D01*
X18089D01*
X18087Y20401D01*
X18084Y20399D01*
X18080Y20397D01*
X18075Y20395D01*
X18069Y20391D01*
X18056Y20384D01*
X18041Y20373D01*
X18026Y20361D01*
X18012Y20345D01*
X17999Y20328D01*
Y20327D01*
X17998Y20326D01*
X17996Y20323D01*
X17994Y20319D01*
X17992Y20314D01*
X17989Y20309D01*
X17984Y20295D01*
X17979Y20280D01*
X17974Y20261D01*
X17970Y20241D01*
X17969Y20219D01*
Y20218D01*
Y20216D01*
Y20212D01*
X17970Y20207D01*
Y20201D01*
X17972Y20194D01*
X17975Y20177D01*
X17980Y20158D01*
X17987Y20138D01*
X17997Y20119D01*
X18003Y20109D01*
X18010Y20099D01*
X18011Y20099D01*
X18012Y20097D01*
X18014Y20095D01*
X18018Y20092D01*
X18022Y20087D01*
X18027Y20083D01*
X18033Y20078D01*
X18040Y20073D01*
X18048Y20067D01*
X18058Y20061D01*
X18067Y20055D01*
X18079Y20050D01*
X18091Y20045D01*
X18103Y20040D01*
X18117Y20035D01*
X18131Y20032D01*
X18110Y19947D01*
X18109D01*
X18105Y19948D01*
X18100Y19950D01*
X18092Y19952D01*
X18084Y19956D01*
X18074Y19959D01*
X18063Y19964D01*
X18051Y19969D01*
X18026Y19983D01*
X18012Y19990D01*
X17999Y19999D01*
X17986Y20009D01*
X17974Y20019D01*
X17962Y20031D01*
X17951Y20043D01*
X17950Y20044D01*
X17949Y20047D01*
X17946Y20050D01*
X17943Y20055D01*
X17938Y20062D01*
X17934Y20070D01*
X17929Y20080D01*
X17924Y20090D01*
X17919Y20102D01*
X17914Y20115D01*
X17910Y20129D01*
X17905Y20144D01*
X17902Y20159D01*
X17899Y20177D01*
X17897Y20194D01*
X17897Y20212D01*
Y20213D01*
Y20216D01*
Y20222D01*
X17897Y20229D01*
Y20238D01*
X17899Y20248D01*
X17900Y20260D01*
X17902Y20272D01*
X17907Y20299D01*
X17914Y20327D01*
X17924Y20355D01*
X17931Y20368D01*
X17938Y20381D01*
X17939Y20382D01*
X17940Y20384D01*
X17943Y20387D01*
X17946Y20391D01*
X17950Y20397D01*
X17955Y20403D01*
X17962Y20410D01*
X17969Y20417D01*
X17977Y20425D01*
X17987Y20433D01*
X17997Y20441D01*
X18007Y20449D01*
X18020Y20457D01*
X18033Y20465D01*
X18046Y20472D01*
X18060Y20479D01*
X18061D01*
X18064Y20481D01*
X18068Y20482D01*
X18074Y20484D01*
X18082Y20487D01*
X18091Y20489D01*
X18100Y20493D01*
X18111Y20495D01*
X18124Y20499D01*
X18137Y20502D01*
X18151Y20505D01*
X18166Y20507D01*
X18198Y20511D01*
X18232Y20513D01*
X18241D01*
X18248Y20512D01*
D02*
G37*
G36*
X18546Y19622D02*
Y19621D01*
Y19619D01*
Y19615D01*
Y19610D01*
Y19604D01*
X18545Y19596D01*
Y19580D01*
X18544Y19562D01*
X18542Y19543D01*
X18540Y19525D01*
X18537Y19509D01*
Y19508D01*
X18536Y19506D01*
X18535Y19504D01*
X18534Y19499D01*
X18532Y19495D01*
X18531Y19490D01*
X18526Y19477D01*
X18520Y19462D01*
X18512Y19446D01*
X18502Y19431D01*
X18491Y19415D01*
X18490Y19414D01*
X18489Y19413D01*
X18486Y19410D01*
X18483Y19407D01*
X18479Y19402D01*
X18473Y19398D01*
X18461Y19387D01*
X18446Y19375D01*
X18427Y19362D01*
X18406Y19349D01*
X18382Y19339D01*
X18381D01*
X18379Y19338D01*
X18375Y19336D01*
X18370Y19335D01*
X18363Y19333D01*
X18357Y19331D01*
X18348Y19329D01*
X18337Y19326D01*
X18327Y19324D01*
X18315Y19322D01*
X18290Y19317D01*
X18261Y19315D01*
X18230Y19314D01*
X18218D01*
X18211Y19315D01*
X18204D01*
X18195Y19316D01*
X18186D01*
X18166Y19318D01*
X18144Y19321D01*
X18122Y19325D01*
X18100Y19331D01*
X18099D01*
X18098Y19332D01*
X18095Y19333D01*
X18091Y19335D01*
X18086Y19336D01*
X18081Y19338D01*
X18068Y19343D01*
X18053Y19349D01*
X18038Y19357D01*
X18022Y19366D01*
X18007Y19375D01*
X18006Y19376D01*
X18001Y19380D01*
X17994Y19385D01*
X17987Y19393D01*
X17977Y19401D01*
X17968Y19411D01*
X17958Y19421D01*
X17949Y19433D01*
X17949Y19435D01*
X17946Y19439D01*
X17943Y19446D01*
X17937Y19454D01*
X17932Y19465D01*
X17927Y19478D01*
X17922Y19493D01*
X17917Y19510D01*
Y19511D01*
Y19511D01*
X17917Y19514D01*
X17916Y19517D01*
X17914Y19527D01*
X17912Y19539D01*
X17910Y19554D01*
X17909Y19571D01*
X17908Y19591D01*
X17907Y19612D01*
Y19842D01*
X18546D01*
Y19622D01*
D02*
G37*
G36*
X18248Y19221D02*
X18257D01*
X18267Y19220D01*
X18279Y19219D01*
X18291Y19217D01*
X18318Y19213D01*
X18347Y19206D01*
X18376Y19196D01*
X18391Y19191D01*
X18405Y19184D01*
X18406Y19183D01*
X18409Y19182D01*
X18412Y19180D01*
X18417Y19177D01*
X18423Y19173D01*
X18431Y19168D01*
X18447Y19156D01*
X18466Y19141D01*
X18485Y19122D01*
X18502Y19101D01*
X18518Y19076D01*
X18519Y19075D01*
X18520Y19072D01*
X18522Y19069D01*
X18525Y19064D01*
X18527Y19057D01*
X18531Y19049D01*
X18534Y19040D01*
X18538Y19030D01*
X18542Y19019D01*
X18545Y19007D01*
X18551Y18980D01*
X18556Y18952D01*
X18557Y18936D01*
Y18921D01*
Y18920D01*
Y18916D01*
Y18911D01*
X18557Y18904D01*
X18556Y18896D01*
X18555Y18887D01*
X18553Y18877D01*
X18551Y18864D01*
X18545Y18839D01*
X18542Y18825D01*
X18537Y18812D01*
X18531Y18799D01*
X18525Y18785D01*
X18517Y18772D01*
X18508Y18760D01*
X18507Y18759D01*
X18506Y18757D01*
X18503Y18754D01*
X18499Y18749D01*
X18494Y18743D01*
X18488Y18737D01*
X18481Y18731D01*
X18473Y18723D01*
X18463Y18716D01*
X18454Y18708D01*
X18442Y18701D01*
X18429Y18693D01*
X18416Y18686D01*
X18402Y18679D01*
X18387Y18673D01*
X18370Y18668D01*
X18351Y18751D01*
X18352D01*
X18355Y18752D01*
X18358Y18754D01*
X18363Y18755D01*
X18369Y18757D01*
X18375Y18760D01*
X18390Y18767D01*
X18407Y18777D01*
X18423Y18788D01*
X18439Y18801D01*
X18447Y18808D01*
X18453Y18816D01*
Y18817D01*
X18454Y18818D01*
X18455Y18820D01*
X18458Y18824D01*
X18460Y18828D01*
X18463Y18832D01*
X18469Y18845D01*
X18474Y18861D01*
X18480Y18879D01*
X18483Y18899D01*
X18485Y18922D01*
Y18923D01*
Y18926D01*
Y18929D01*
X18484Y18935D01*
Y18941D01*
X18483Y18948D01*
X18480Y18966D01*
X18476Y18985D01*
X18470Y19006D01*
X18461Y19026D01*
X18449Y19045D01*
Y19046D01*
X18447Y19047D01*
X18446Y19050D01*
X18443Y19053D01*
X18434Y19062D01*
X18424Y19072D01*
X18410Y19084D01*
X18394Y19096D01*
X18376Y19106D01*
X18354Y19115D01*
X18353D01*
X18351Y19116D01*
X18348Y19116D01*
X18344Y19118D01*
X18338Y19119D01*
X18332Y19121D01*
X18324Y19122D01*
X18317Y19124D01*
X18299Y19129D01*
X18278Y19131D01*
X18255Y19134D01*
X18232Y19135D01*
X18218D01*
X18211Y19134D01*
X18203D01*
X18194Y19133D01*
X18183Y19132D01*
X18162Y19129D01*
X18137Y19125D01*
X18113Y19119D01*
X18090Y19111D01*
X18089D01*
X18087Y19110D01*
X18084Y19109D01*
X18080Y19107D01*
X18075Y19104D01*
X18069Y19101D01*
X18056Y19093D01*
X18041Y19083D01*
X18026Y19071D01*
X18012Y19055D01*
X17999Y19038D01*
Y19037D01*
X17998Y19035D01*
X17996Y19032D01*
X17994Y19029D01*
X17992Y19024D01*
X17989Y19019D01*
X17984Y19005D01*
X17979Y18989D01*
X17974Y18970D01*
X17970Y18950D01*
X17969Y18928D01*
Y18928D01*
Y18925D01*
Y18922D01*
X17970Y18916D01*
Y18910D01*
X17972Y18903D01*
X17975Y18887D01*
X17980Y18868D01*
X17987Y18848D01*
X17997Y18828D01*
X18003Y18818D01*
X18010Y18809D01*
X18011Y18808D01*
X18012Y18806D01*
X18014Y18805D01*
X18018Y18801D01*
X18022Y18797D01*
X18027Y18792D01*
X18033Y18787D01*
X18040Y18782D01*
X18048Y18776D01*
X18058Y18771D01*
X18067Y18765D01*
X18079Y18760D01*
X18091Y18754D01*
X18103Y18749D01*
X18117Y18745D01*
X18131Y18741D01*
X18110Y18657D01*
X18109D01*
X18105Y18657D01*
X18100Y18659D01*
X18092Y18662D01*
X18084Y18665D01*
X18074Y18669D01*
X18063Y18673D01*
X18051Y18678D01*
X18026Y18692D01*
X18012Y18700D01*
X17999Y18708D01*
X17986Y18718D01*
X17974Y18728D01*
X17962Y18741D01*
X17951Y18753D01*
X17950Y18754D01*
X17949Y18756D01*
X17946Y18760D01*
X17943Y18765D01*
X17938Y18772D01*
X17934Y18779D01*
X17929Y18789D01*
X17924Y18799D01*
X17919Y18812D01*
X17914Y18825D01*
X17910Y18838D01*
X17905Y18853D01*
X17902Y18869D01*
X17899Y18886D01*
X17897Y18903D01*
X17897Y18922D01*
Y18922D01*
Y18926D01*
Y18932D01*
X17897Y18939D01*
Y18948D01*
X17899Y18958D01*
X17900Y18969D01*
X17902Y18981D01*
X17907Y19008D01*
X17914Y19037D01*
X17924Y19064D01*
X17931Y19077D01*
X17938Y19090D01*
X17939Y19091D01*
X17940Y19093D01*
X17943Y19097D01*
X17946Y19101D01*
X17950Y19106D01*
X17955Y19112D01*
X17962Y19119D01*
X17969Y19127D01*
X17977Y19135D01*
X17987Y19142D01*
X17997Y19150D01*
X18007Y19159D01*
X18020Y19167D01*
X18033Y19174D01*
X18046Y19181D01*
X18060Y19188D01*
X18061D01*
X18064Y19190D01*
X18068Y19192D01*
X18074Y19194D01*
X18082Y19196D01*
X18091Y19199D01*
X18100Y19202D01*
X18111Y19205D01*
X18124Y19208D01*
X18137Y19212D01*
X18151Y19214D01*
X18166Y19217D01*
X18198Y19220D01*
X18232Y19222D01*
X18241D01*
X18248Y19221D01*
D02*
G37*
G36*
X18546Y18311D02*
Y18310D01*
Y18308D01*
Y18305D01*
Y18301D01*
Y18295D01*
Y18289D01*
X18545Y18275D01*
X18544Y18260D01*
X18544Y18243D01*
X18542Y18228D01*
X18539Y18214D01*
Y18213D01*
Y18212D01*
X18538Y18210D01*
X18538Y18206D01*
X18536Y18197D01*
X18532Y18186D01*
X18529Y18174D01*
X18524Y18161D01*
X18518Y18148D01*
X18510Y18135D01*
X18509Y18133D01*
X18506Y18130D01*
X18501Y18124D01*
X18494Y18117D01*
X18486Y18108D01*
X18475Y18100D01*
X18462Y18092D01*
X18448Y18084D01*
X18447Y18083D01*
X18441Y18081D01*
X18434Y18078D01*
X18422Y18074D01*
X18409Y18070D01*
X18395Y18068D01*
X18378Y18065D01*
X18361Y18064D01*
X18353D01*
X18347Y18065D01*
X18340Y18066D01*
X18332Y18067D01*
X18323Y18068D01*
X18313Y18070D01*
X18292Y18077D01*
X18280Y18081D01*
X18268Y18086D01*
X18257Y18092D01*
X18246Y18099D01*
X18234Y18107D01*
X18223Y18116D01*
X18222Y18117D01*
X18221Y18119D01*
X18218Y18122D01*
X18214Y18126D01*
X18210Y18132D01*
X18205Y18139D01*
X18201Y18148D01*
X18195Y18158D01*
X18189Y18171D01*
X18185Y18184D01*
X18180Y18200D01*
X18176Y18217D01*
X18172Y18236D01*
X18169Y18256D01*
X18168Y18279D01*
X18167Y18303D01*
Y18467D01*
X17907D01*
Y18552D01*
X18546D01*
Y18311D01*
D02*
G37*
G36*
X18150Y17995D02*
X18159D01*
X18170Y17993D01*
X18182Y17992D01*
X18196Y17990D01*
X18210Y17987D01*
X18226Y17983D01*
X18241Y17978D01*
X18258Y17972D01*
X18273Y17965D01*
X18288Y17958D01*
X18303Y17948D01*
X18317Y17937D01*
X18329Y17925D01*
X18330Y17924D01*
X18331Y17922D01*
X18334Y17919D01*
X18337Y17914D01*
X18341Y17908D01*
X18345Y17901D01*
X18350Y17893D01*
X18355Y17884D01*
X18360Y17874D01*
X18364Y17863D01*
X18369Y17851D01*
X18373Y17838D01*
X18376Y17824D01*
X18378Y17810D01*
X18380Y17795D01*
X18381Y17779D01*
Y17778D01*
Y17775D01*
Y17770D01*
X18380Y17764D01*
X18379Y17755D01*
X18377Y17745D01*
X18376Y17735D01*
X18373Y17724D01*
X18370Y17712D01*
X18365Y17699D01*
X18360Y17686D01*
X18354Y17673D01*
X18347Y17660D01*
X18338Y17647D01*
X18329Y17634D01*
X18318Y17622D01*
X18317Y17621D01*
X18315Y17620D01*
X18311Y17617D01*
X18306Y17613D01*
X18299Y17608D01*
X18292Y17603D01*
X18283Y17597D01*
X18273Y17592D01*
X18261Y17586D01*
X18248Y17581D01*
X18234Y17576D01*
X18219Y17571D01*
X18202Y17567D01*
X18184Y17564D01*
X18165Y17563D01*
X18145Y17562D01*
X18130D01*
X18123Y17563D01*
X18114Y17563D01*
X18104Y17564D01*
X18094Y17565D01*
X18072Y17569D01*
X18047Y17573D01*
X18025Y17580D01*
X18014Y17584D01*
X18004Y17589D01*
X18003D01*
X18001Y17589D01*
X17999Y17591D01*
X17995Y17594D01*
X17987Y17600D01*
X17975Y17608D01*
X17962Y17620D01*
X17949Y17633D01*
X17936Y17649D01*
X17924Y17667D01*
Y17668D01*
X17923Y17670D01*
X17922Y17673D01*
X17920Y17676D01*
X17918Y17681D01*
X17916Y17686D01*
X17910Y17700D01*
X17905Y17717D01*
X17901Y17736D01*
X17897Y17757D01*
X17897Y17779D01*
Y17780D01*
Y17783D01*
X17897Y17789D01*
Y17796D01*
X17898Y17803D01*
X17900Y17813D01*
X17902Y17823D01*
X17904Y17835D01*
X17908Y17848D01*
X17912Y17860D01*
X17917Y17873D01*
X17923Y17887D01*
X17930Y17899D01*
X17938Y17912D01*
X17948Y17925D01*
X17959Y17936D01*
X17960Y17937D01*
X17962Y17938D01*
X17966Y17941D01*
X17970Y17945D01*
X17977Y17950D01*
X17985Y17955D01*
X17994Y17960D01*
X18005Y17965D01*
X18017Y17971D01*
X18030Y17977D01*
X18045Y17982D01*
X18061Y17986D01*
X18079Y17990D01*
X18097Y17993D01*
X18117Y17995D01*
X18138Y17996D01*
X18144D01*
X18150Y17995D01*
D02*
G37*
G36*
X18370Y17446D02*
X18102Y17372D01*
X18003Y17345D01*
X18004D01*
X18006Y17344D01*
X18010Y17343D01*
X18014Y17343D01*
X18018Y17342D01*
X18023Y17340D01*
X18029Y17338D01*
X18037Y17337D01*
X18046Y17334D01*
X18057Y17331D01*
X18069Y17329D01*
X18083Y17325D01*
X18098Y17321D01*
X18370Y17247D01*
Y17167D01*
X18101Y17097D01*
X18013Y17074D01*
X18102Y17047D01*
X18370Y16968D01*
Y16891D01*
X17907Y17037D01*
Y17117D01*
X18184Y17191D01*
X18263Y17210D01*
X17907Y17304D01*
Y17385D01*
X18370Y17527D01*
Y17446D01*
D02*
G37*
G36*
X18153Y16850D02*
X18163Y16849D01*
X18175Y16847D01*
X18187Y16845D01*
X18201Y16843D01*
X18214Y16840D01*
X18230Y16836D01*
X18245Y16832D01*
X18260Y16825D01*
X18275Y16819D01*
X18289Y16811D01*
X18303Y16801D01*
X18316Y16791D01*
X18317Y16790D01*
X18318Y16788D01*
X18322Y16785D01*
X18326Y16780D01*
X18331Y16774D01*
X18337Y16767D01*
X18343Y16759D01*
X18349Y16749D01*
X18355Y16738D01*
X18360Y16727D01*
X18366Y16714D01*
X18370Y16700D01*
X18375Y16685D01*
X18378Y16670D01*
X18380Y16652D01*
X18381Y16635D01*
Y16634D01*
Y16631D01*
Y16626D01*
X18380Y16619D01*
X18379Y16612D01*
X18377Y16603D01*
X18376Y16592D01*
X18373Y16581D01*
X18370Y16569D01*
X18365Y16557D01*
X18360Y16545D01*
X18354Y16532D01*
X18346Y16519D01*
X18337Y16507D01*
X18328Y16495D01*
X18317Y16483D01*
X18316Y16482D01*
X18314Y16481D01*
X18310Y16478D01*
X18305Y16474D01*
X18299Y16469D01*
X18291Y16464D01*
X18281Y16459D01*
X18271Y16454D01*
X18259Y16449D01*
X18246Y16443D01*
X18231Y16438D01*
X18215Y16434D01*
X18198Y16430D01*
X18180Y16427D01*
X18160Y16425D01*
X18139Y16424D01*
X18128D01*
X18118Y16425D01*
Y16770D01*
X18115D01*
X18111Y16769D01*
X18106Y16768D01*
X18099Y16767D01*
X18092Y16767D01*
X18075Y16763D01*
X18056Y16758D01*
X18037Y16750D01*
X18018Y16741D01*
X18001Y16728D01*
Y16727D01*
X18000Y16726D01*
X17995Y16721D01*
X17988Y16712D01*
X17981Y16701D01*
X17975Y16687D01*
X17968Y16670D01*
X17963Y16651D01*
X17962Y16641D01*
X17962Y16631D01*
Y16630D01*
Y16629D01*
Y16624D01*
X17962Y16615D01*
X17964Y16605D01*
X17967Y16593D01*
X17971Y16581D01*
X17976Y16569D01*
X17984Y16557D01*
X17985Y16555D01*
X17988Y16552D01*
X17994Y16547D01*
X18001Y16540D01*
X18012Y16532D01*
X18024Y16524D01*
X18040Y16515D01*
X18057Y16508D01*
X18046Y16428D01*
X18046D01*
X18043Y16429D01*
X18040Y16430D01*
X18034Y16431D01*
X18028Y16434D01*
X18021Y16437D01*
X18006Y16444D01*
X17988Y16454D01*
X17969Y16466D01*
X17951Y16481D01*
X17936Y16499D01*
Y16500D01*
X17934Y16502D01*
X17932Y16504D01*
X17930Y16508D01*
X17927Y16513D01*
X17923Y16520D01*
X17920Y16527D01*
X17917Y16534D01*
X17912Y16544D01*
X17909Y16554D01*
X17905Y16565D01*
X17903Y16576D01*
X17898Y16602D01*
X17897Y16616D01*
X17897Y16631D01*
Y16631D01*
Y16635D01*
X17897Y16640D01*
Y16647D01*
X17898Y16656D01*
X17900Y16666D01*
X17902Y16677D01*
X17904Y16689D01*
X17908Y16702D01*
X17912Y16715D01*
X17917Y16728D01*
X17923Y16741D01*
X17930Y16754D01*
X17938Y16767D01*
X17948Y16780D01*
X17959Y16792D01*
X17960Y16793D01*
X17962Y16794D01*
X17966Y16797D01*
X17970Y16801D01*
X17977Y16806D01*
X17985Y16810D01*
X17994Y16816D01*
X18004Y16821D01*
X18016Y16826D01*
X18029Y16832D01*
X18044Y16837D01*
X18059Y16841D01*
X18076Y16845D01*
X18094Y16848D01*
X18113Y16850D01*
X18134Y16851D01*
X18145D01*
X18153Y16850D01*
D02*
G37*
G36*
X18370Y16258D02*
X18300D01*
X18302Y16257D01*
X18304Y16256D01*
X18307Y16254D01*
X18316Y16249D01*
X18326Y16242D01*
X18337Y16234D01*
X18348Y16226D01*
X18357Y16217D01*
X18364Y16209D01*
X18365Y16208D01*
X18367Y16204D01*
X18370Y16200D01*
X18373Y16194D01*
X18376Y16186D01*
X18378Y16178D01*
X18380Y16169D01*
X18381Y16159D01*
Y16158D01*
Y16157D01*
Y16152D01*
X18379Y16144D01*
X18377Y16133D01*
X18375Y16121D01*
X18370Y16108D01*
X18363Y16094D01*
X18355Y16078D01*
X18282Y16106D01*
X18283Y16107D01*
X18285Y16111D01*
X18287Y16116D01*
X18291Y16124D01*
X18294Y16133D01*
X18297Y16142D01*
X18299Y16152D01*
X18299Y16163D01*
Y16164D01*
Y16167D01*
X18299Y16172D01*
X18298Y16178D01*
X18296Y16185D01*
X18292Y16193D01*
X18289Y16201D01*
X18284Y16209D01*
X18283Y16210D01*
X18281Y16212D01*
X18278Y16216D01*
X18273Y16220D01*
X18266Y16224D01*
X18259Y16230D01*
X18250Y16234D01*
X18240Y16237D01*
X18240D01*
X18239Y16238D01*
X18236D01*
X18234Y16239D01*
X18225Y16242D01*
X18214Y16243D01*
X18200Y16246D01*
X18184Y16249D01*
X18167Y16250D01*
X18149Y16250D01*
X17907D01*
Y16329D01*
X18370D01*
Y16258D01*
D02*
G37*
G36*
X18248Y16045D02*
X18257D01*
X18267Y16044D01*
X18279Y16042D01*
X18291Y16041D01*
X18318Y16036D01*
X18347Y16029D01*
X18376Y16020D01*
X18391Y16015D01*
X18405Y16008D01*
X18406Y16007D01*
X18409Y16006D01*
X18412Y16004D01*
X18417Y16001D01*
X18423Y15997D01*
X18431Y15992D01*
X18447Y15980D01*
X18466Y15965D01*
X18485Y15946D01*
X18502Y15925D01*
X18518Y15900D01*
X18519Y15899D01*
X18520Y15896D01*
X18522Y15893D01*
X18525Y15887D01*
X18527Y15881D01*
X18531Y15873D01*
X18534Y15864D01*
X18538Y15854D01*
X18542Y15842D01*
X18545Y15831D01*
X18551Y15804D01*
X18556Y15776D01*
X18557Y15760D01*
Y15745D01*
Y15744D01*
Y15740D01*
Y15735D01*
X18557Y15728D01*
X18556Y15720D01*
X18555Y15711D01*
X18553Y15700D01*
X18551Y15688D01*
X18545Y15663D01*
X18542Y15649D01*
X18537Y15636D01*
X18531Y15622D01*
X18525Y15609D01*
X18517Y15596D01*
X18508Y15583D01*
X18507Y15583D01*
X18506Y15581D01*
X18503Y15577D01*
X18499Y15573D01*
X18494Y15567D01*
X18488Y15561D01*
X18481Y15555D01*
X18473Y15547D01*
X18463Y15540D01*
X18454Y15532D01*
X18442Y15525D01*
X18429Y15517D01*
X18416Y15510D01*
X18402Y15503D01*
X18387Y15497D01*
X18370Y15492D01*
X18351Y15575D01*
X18352D01*
X18355Y15576D01*
X18358Y15577D01*
X18363Y15579D01*
X18369Y15581D01*
X18375Y15584D01*
X18390Y15591D01*
X18407Y15601D01*
X18423Y15612D01*
X18439Y15625D01*
X18447Y15632D01*
X18453Y15640D01*
Y15641D01*
X18454Y15641D01*
X18455Y15644D01*
X18458Y15648D01*
X18460Y15652D01*
X18463Y15656D01*
X18469Y15669D01*
X18474Y15685D01*
X18480Y15703D01*
X18483Y15723D01*
X18485Y15746D01*
Y15747D01*
Y15750D01*
Y15753D01*
X18484Y15758D01*
Y15764D01*
X18483Y15772D01*
X18480Y15790D01*
X18476Y15809D01*
X18470Y15829D01*
X18461Y15850D01*
X18449Y15869D01*
Y15870D01*
X18447Y15871D01*
X18446Y15874D01*
X18443Y15877D01*
X18434Y15886D01*
X18424Y15896D01*
X18410Y15908D01*
X18394Y15920D01*
X18376Y15930D01*
X18354Y15939D01*
X18353D01*
X18351Y15939D01*
X18348Y15940D01*
X18344Y15942D01*
X18338Y15943D01*
X18332Y15945D01*
X18324Y15946D01*
X18317Y15948D01*
X18299Y15952D01*
X18278Y15955D01*
X18255Y15958D01*
X18232Y15958D01*
X18218D01*
X18211Y15958D01*
X18203D01*
X18194Y15957D01*
X18183Y15956D01*
X18162Y15952D01*
X18137Y15949D01*
X18113Y15943D01*
X18090Y15935D01*
X18089D01*
X18087Y15934D01*
X18084Y15932D01*
X18080Y15931D01*
X18075Y15928D01*
X18069Y15925D01*
X18056Y15917D01*
X18041Y15907D01*
X18026Y15894D01*
X18012Y15879D01*
X17999Y15861D01*
Y15861D01*
X17998Y15859D01*
X17996Y15856D01*
X17994Y15853D01*
X17992Y15848D01*
X17989Y15842D01*
X17984Y15829D01*
X17979Y15813D01*
X17974Y15794D01*
X17970Y15774D01*
X17969Y15752D01*
Y15751D01*
Y15749D01*
Y15745D01*
X17970Y15740D01*
Y15734D01*
X17972Y15727D01*
X17975Y15711D01*
X17980Y15692D01*
X17987Y15672D01*
X17997Y15652D01*
X18003Y15642D01*
X18010Y15633D01*
X18011Y15632D01*
X18012Y15630D01*
X18014Y15628D01*
X18018Y15625D01*
X18022Y15621D01*
X18027Y15616D01*
X18033Y15611D01*
X18040Y15606D01*
X18048Y15600D01*
X18058Y15595D01*
X18067Y15589D01*
X18079Y15583D01*
X18091Y15578D01*
X18103Y15573D01*
X18117Y15569D01*
X18131Y15565D01*
X18110Y15480D01*
X18109D01*
X18105Y15481D01*
X18100Y15483D01*
X18092Y15486D01*
X18084Y15489D01*
X18074Y15493D01*
X18063Y15497D01*
X18051Y15502D01*
X18026Y15516D01*
X18012Y15524D01*
X17999Y15532D01*
X17986Y15542D01*
X17974Y15552D01*
X17962Y15564D01*
X17951Y15577D01*
X17950Y15577D01*
X17949Y15580D01*
X17946Y15583D01*
X17943Y15589D01*
X17938Y15596D01*
X17934Y15603D01*
X17929Y15613D01*
X17924Y15623D01*
X17919Y15635D01*
X17914Y15648D01*
X17910Y15662D01*
X17905Y15677D01*
X17902Y15693D01*
X17899Y15710D01*
X17897Y15727D01*
X17897Y15745D01*
Y15746D01*
Y15750D01*
Y15756D01*
X17897Y15763D01*
Y15771D01*
X17899Y15782D01*
X17900Y15793D01*
X17902Y15805D01*
X17907Y15832D01*
X17914Y15861D01*
X17924Y15888D01*
X17931Y15901D01*
X17938Y15914D01*
X17939Y15915D01*
X17940Y15917D01*
X17943Y15920D01*
X17946Y15925D01*
X17950Y15930D01*
X17955Y15936D01*
X17962Y15943D01*
X17969Y15951D01*
X17977Y15958D01*
X17987Y15966D01*
X17997Y15974D01*
X18007Y15983D01*
X18020Y15991D01*
X18033Y15998D01*
X18046Y16005D01*
X18060Y16012D01*
X18061D01*
X18064Y16014D01*
X18068Y16016D01*
X18074Y16017D01*
X18082Y16020D01*
X18091Y16023D01*
X18100Y16026D01*
X18111Y16029D01*
X18124Y16032D01*
X18137Y16036D01*
X18151Y16038D01*
X18166Y16041D01*
X18198Y16044D01*
X18232Y16046D01*
X18241D01*
X18248Y16045D01*
D02*
G37*
G36*
X18150Y15415D02*
X18159D01*
X18170Y15413D01*
X18182Y15412D01*
X18196Y15409D01*
X18210Y15407D01*
X18226Y15402D01*
X18241Y15398D01*
X18258Y15392D01*
X18273Y15385D01*
X18288Y15377D01*
X18303Y15368D01*
X18317Y15357D01*
X18329Y15344D01*
X18330Y15344D01*
X18331Y15342D01*
X18334Y15338D01*
X18337Y15334D01*
X18341Y15328D01*
X18345Y15321D01*
X18350Y15313D01*
X18355Y15304D01*
X18360Y15293D01*
X18364Y15283D01*
X18369Y15271D01*
X18373Y15258D01*
X18376Y15244D01*
X18378Y15230D01*
X18380Y15214D01*
X18381Y15199D01*
Y15198D01*
Y15195D01*
Y15189D01*
X18380Y15183D01*
X18379Y15175D01*
X18377Y15165D01*
X18376Y15155D01*
X18373Y15143D01*
X18370Y15131D01*
X18365Y15118D01*
X18360Y15105D01*
X18354Y15092D01*
X18347Y15079D01*
X18338Y15066D01*
X18329Y15054D01*
X18318Y15042D01*
X18317Y15041D01*
X18315Y15040D01*
X18311Y15037D01*
X18306Y15033D01*
X18299Y15028D01*
X18292Y15023D01*
X18283Y15017D01*
X18273Y15012D01*
X18261Y15006D01*
X18248Y15001D01*
X18234Y14995D01*
X18219Y14991D01*
X18202Y14987D01*
X18184Y14984D01*
X18165Y14982D01*
X18145Y14981D01*
X18130D01*
X18123Y14982D01*
X18114Y14983D01*
X18104Y14984D01*
X18094Y14985D01*
X18072Y14988D01*
X18047Y14993D01*
X18025Y15000D01*
X18014Y15004D01*
X18004Y15008D01*
X18003D01*
X18001Y15009D01*
X17999Y15011D01*
X17995Y15014D01*
X17987Y15020D01*
X17975Y15028D01*
X17962Y15040D01*
X17949Y15052D01*
X17936Y15069D01*
X17924Y15087D01*
Y15088D01*
X17923Y15090D01*
X17922Y15092D01*
X17920Y15096D01*
X17918Y15101D01*
X17916Y15106D01*
X17910Y15120D01*
X17905Y15137D01*
X17901Y15156D01*
X17897Y15176D01*
X17897Y15199D01*
Y15200D01*
Y15203D01*
X17897Y15208D01*
Y15215D01*
X17898Y15223D01*
X17900Y15233D01*
X17902Y15243D01*
X17904Y15255D01*
X17908Y15267D01*
X17912Y15279D01*
X17917Y15292D01*
X17923Y15306D01*
X17930Y15319D01*
X17938Y15331D01*
X17948Y15344D01*
X17959Y15356D01*
X17960Y15357D01*
X17962Y15358D01*
X17966Y15361D01*
X17970Y15365D01*
X17977Y15370D01*
X17985Y15375D01*
X17994Y15380D01*
X18005Y15385D01*
X18017Y15391D01*
X18030Y15396D01*
X18045Y15402D01*
X18061Y15406D01*
X18079Y15410D01*
X18097Y15413D01*
X18117Y15415D01*
X18138Y15415D01*
X18144D01*
X18150Y15415D01*
D02*
G37*
G36*
X18370Y14819D02*
X18304D01*
X18305Y14818D01*
X18307Y14816D01*
X18311Y14813D01*
X18316Y14809D01*
X18322Y14804D01*
X18328Y14798D01*
X18335Y14790D01*
X18343Y14781D01*
X18350Y14772D01*
X18357Y14761D01*
X18363Y14748D01*
X18369Y14735D01*
X18374Y14722D01*
X18377Y14706D01*
X18380Y14690D01*
X18381Y14672D01*
Y14671D01*
Y14671D01*
Y14665D01*
X18380Y14658D01*
X18379Y14647D01*
X18377Y14635D01*
X18374Y14623D01*
X18370Y14609D01*
X18365Y14596D01*
X18364Y14594D01*
X18363Y14590D01*
X18359Y14584D01*
X18355Y14576D01*
X18349Y14567D01*
X18342Y14559D01*
X18334Y14550D01*
X18325Y14543D01*
X18324Y14542D01*
X18321Y14541D01*
X18316Y14537D01*
X18309Y14534D01*
X18301Y14529D01*
X18291Y14526D01*
X18280Y14522D01*
X18268Y14519D01*
X18267D01*
X18264Y14518D01*
X18258Y14517D01*
X18250Y14516D01*
X18240Y14515D01*
X18227Y14515D01*
X18210Y14514D01*
X17907D01*
Y14593D01*
X18196D01*
X18205Y14593D01*
X18215D01*
X18227Y14595D01*
X18239Y14597D01*
X18250Y14599D01*
X18260Y14602D01*
X18260D01*
X18264Y14604D01*
X18268Y14606D01*
X18273Y14610D01*
X18279Y14614D01*
X18285Y14620D01*
X18292Y14627D01*
X18298Y14635D01*
X18299Y14636D01*
X18300Y14639D01*
X18302Y14644D01*
X18305Y14650D01*
X18308Y14658D01*
X18310Y14667D01*
X18311Y14677D01*
X18312Y14689D01*
Y14690D01*
Y14691D01*
Y14694D01*
X18311Y14697D01*
X18311Y14707D01*
X18308Y14718D01*
X18305Y14732D01*
X18299Y14747D01*
X18291Y14761D01*
X18280Y14775D01*
X18279Y14777D01*
X18277Y14779D01*
X18274Y14781D01*
X18270Y14783D01*
X18266Y14787D01*
X18260Y14790D01*
X18253Y14793D01*
X18246Y14796D01*
X18237Y14800D01*
X18227Y14802D01*
X18215Y14806D01*
X18203Y14807D01*
X18190Y14809D01*
X18176Y14811D01*
X17907D01*
Y14890D01*
X18370D01*
Y14819D01*
D02*
G37*
G36*
Y14322D02*
X18304D01*
X18305Y14321D01*
X18307Y14320D01*
X18311Y14317D01*
X18316Y14313D01*
X18322Y14308D01*
X18328Y14302D01*
X18335Y14294D01*
X18343Y14285D01*
X18350Y14276D01*
X18357Y14264D01*
X18363Y14252D01*
X18369Y14239D01*
X18374Y14225D01*
X18377Y14210D01*
X18380Y14193D01*
X18381Y14176D01*
Y14175D01*
Y14174D01*
Y14169D01*
X18380Y14161D01*
X18379Y14151D01*
X18377Y14139D01*
X18374Y14127D01*
X18370Y14113D01*
X18365Y14100D01*
X18364Y14098D01*
X18363Y14094D01*
X18359Y14088D01*
X18355Y14080D01*
X18349Y14071D01*
X18342Y14062D01*
X18334Y14054D01*
X18325Y14047D01*
X18324Y14046D01*
X18321Y14044D01*
X18316Y14041D01*
X18309Y14037D01*
X18301Y14033D01*
X18291Y14030D01*
X18280Y14025D01*
X18268Y14023D01*
X18267D01*
X18264Y14022D01*
X18258Y14021D01*
X18250Y14020D01*
X18240Y14019D01*
X18227Y14018D01*
X18210Y14017D01*
X17907D01*
Y14096D01*
X18196D01*
X18205Y14097D01*
X18215D01*
X18227Y14099D01*
X18239Y14101D01*
X18250Y14102D01*
X18260Y14106D01*
X18260D01*
X18264Y14108D01*
X18268Y14110D01*
X18273Y14114D01*
X18279Y14118D01*
X18285Y14124D01*
X18292Y14131D01*
X18298Y14139D01*
X18299Y14140D01*
X18300Y14143D01*
X18302Y14147D01*
X18305Y14153D01*
X18308Y14162D01*
X18310Y14171D01*
X18311Y14181D01*
X18312Y14192D01*
Y14193D01*
Y14195D01*
Y14198D01*
X18311Y14201D01*
X18311Y14211D01*
X18308Y14222D01*
X18305Y14236D01*
X18299Y14250D01*
X18291Y14265D01*
X18280Y14279D01*
X18279Y14281D01*
X18277Y14283D01*
X18274Y14284D01*
X18270Y14287D01*
X18266Y14290D01*
X18260Y14294D01*
X18253Y14296D01*
X18246Y14300D01*
X18237Y14303D01*
X18227Y14306D01*
X18215Y14309D01*
X18203Y14311D01*
X18190Y14313D01*
X18176Y14315D01*
X17907D01*
Y14393D01*
X18370D01*
Y14322D01*
D02*
G37*
%LPC*%
G36*
X18471Y21048D02*
X17982D01*
Y20912D01*
Y20911D01*
Y20909D01*
Y20906D01*
Y20902D01*
Y20896D01*
X17983Y20890D01*
X17984Y20876D01*
X17985Y20860D01*
X17988Y20844D01*
X17990Y20828D01*
X17994Y20813D01*
X17994Y20811D01*
X17996Y20807D01*
X17999Y20800D01*
X18002Y20792D01*
X18007Y20783D01*
X18013Y20773D01*
X18020Y20765D01*
X18027Y20756D01*
X18028Y20754D01*
X18032Y20751D01*
X18039Y20746D01*
X18048Y20739D01*
X18059Y20731D01*
X18073Y20723D01*
X18089Y20716D01*
X18107Y20709D01*
X18108D01*
X18110Y20708D01*
X18112Y20708D01*
X18117Y20707D01*
X18121Y20705D01*
X18127Y20704D01*
X18134Y20702D01*
X18142Y20701D01*
X18160Y20697D01*
X18181Y20695D01*
X18205Y20693D01*
X18231Y20692D01*
X18240D01*
X18247Y20693D01*
X18256D01*
X18266Y20694D01*
X18276Y20695D01*
X18288Y20696D01*
X18312Y20700D01*
X18338Y20706D01*
X18363Y20714D01*
X18375Y20719D01*
X18385Y20725D01*
X18386D01*
X18388Y20727D01*
X18390Y20728D01*
X18394Y20731D01*
X18403Y20738D01*
X18415Y20747D01*
X18427Y20759D01*
X18438Y20772D01*
X18448Y20788D01*
X18457Y20805D01*
X18458Y20807D01*
X18460Y20811D01*
X18461Y20820D01*
X18463Y20825D01*
X18464Y20831D01*
X18466Y20839D01*
X18467Y20847D01*
X18467Y20856D01*
X18469Y20866D01*
X18470Y20876D01*
Y20889D01*
X18471Y20901D01*
Y20915D01*
Y21048D01*
D02*
G37*
G36*
Y19757D02*
X17982D01*
Y19621D01*
Y19621D01*
Y19619D01*
Y19615D01*
Y19611D01*
Y19606D01*
X17983Y19600D01*
X17984Y19585D01*
X17985Y19569D01*
X17988Y19553D01*
X17990Y19537D01*
X17994Y19523D01*
X17994Y19521D01*
X17996Y19517D01*
X17999Y19510D01*
X18002Y19502D01*
X18007Y19492D01*
X18013Y19483D01*
X18020Y19474D01*
X18027Y19465D01*
X18028Y19464D01*
X18032Y19460D01*
X18039Y19455D01*
X18048Y19448D01*
X18059Y19440D01*
X18073Y19433D01*
X18089Y19426D01*
X18107Y19419D01*
X18108D01*
X18110Y19418D01*
X18112Y19417D01*
X18117Y19416D01*
X18121Y19414D01*
X18127Y19414D01*
X18134Y19412D01*
X18142Y19410D01*
X18160Y19407D01*
X18181Y19404D01*
X18205Y19402D01*
X18231Y19401D01*
X18240D01*
X18247Y19402D01*
X18256D01*
X18266Y19403D01*
X18276Y19404D01*
X18288Y19406D01*
X18312Y19409D01*
X18338Y19415D01*
X18363Y19423D01*
X18375Y19428D01*
X18385Y19434D01*
X18386D01*
X18388Y19436D01*
X18390Y19438D01*
X18394Y19440D01*
X18403Y19447D01*
X18415Y19457D01*
X18427Y19468D01*
X18438Y19482D01*
X18448Y19498D01*
X18457Y19515D01*
X18458Y19517D01*
X18460Y19521D01*
X18461Y19530D01*
X18463Y19535D01*
X18464Y19541D01*
X18466Y19549D01*
X18467Y19556D01*
X18467Y19565D01*
X18469Y19575D01*
X18470Y19586D01*
Y19598D01*
X18471Y19610D01*
Y19624D01*
Y19757D01*
D02*
G37*
G36*
Y18467D02*
X18242D01*
Y18302D01*
Y18301D01*
Y18299D01*
Y18294D01*
X18243Y18289D01*
Y18282D01*
X18244Y18275D01*
X18246Y18257D01*
X18250Y18238D01*
X18255Y18219D01*
X18262Y18201D01*
X18267Y18193D01*
X18273Y18186D01*
X18274Y18184D01*
X18279Y18181D01*
X18285Y18175D01*
X18295Y18169D01*
X18307Y18163D01*
X18322Y18157D01*
X18338Y18153D01*
X18358Y18152D01*
X18365D01*
X18372Y18152D01*
X18382Y18154D01*
X18393Y18157D01*
X18404Y18160D01*
X18415Y18165D01*
X18427Y18172D01*
X18428Y18173D01*
X18431Y18176D01*
X18436Y18180D01*
X18442Y18186D01*
X18448Y18194D01*
X18455Y18203D01*
X18460Y18213D01*
X18465Y18225D01*
Y18226D01*
X18466Y18229D01*
X18467Y18235D01*
X18468Y18243D01*
X18469Y18254D01*
X18470Y18268D01*
X18471Y18284D01*
Y18304D01*
Y18467D01*
D02*
G37*
G36*
X18138Y17915D02*
X18130D01*
X18124Y17914D01*
X18117D01*
X18108Y17913D01*
X18098Y17912D01*
X18089Y17910D01*
X18067Y17906D01*
X18045Y17899D01*
X18024Y17889D01*
X18014Y17884D01*
X18006Y17877D01*
X18005Y17876D01*
X18004Y17875D01*
X17999Y17870D01*
X17992Y17861D01*
X17984Y17850D01*
X17975Y17836D01*
X17969Y17819D01*
X17963Y17800D01*
X17962Y17789D01*
X17962Y17779D01*
Y17778D01*
Y17777D01*
Y17773D01*
X17962Y17770D01*
X17963Y17764D01*
X17964Y17758D01*
X17967Y17744D01*
X17972Y17729D01*
X17981Y17713D01*
X17985Y17705D01*
X17991Y17697D01*
X17998Y17689D01*
X18006Y17681D01*
X18007Y17680D01*
X18007Y17680D01*
X18010Y17678D01*
X18014Y17675D01*
X18019Y17673D01*
X18025Y17669D01*
X18032Y17666D01*
X18040Y17661D01*
X18048Y17658D01*
X18059Y17654D01*
X18069Y17651D01*
X18081Y17648D01*
X18095Y17646D01*
X18109Y17644D01*
X18124Y17642D01*
X18150D01*
X18155Y17643D01*
X18163D01*
X18170Y17644D01*
X18180Y17646D01*
X18189Y17647D01*
X18210Y17652D01*
X18232Y17659D01*
X18253Y17669D01*
X18262Y17675D01*
X18271Y17682D01*
X18272D01*
X18273Y17684D01*
X18278Y17689D01*
X18285Y17698D01*
X18293Y17709D01*
X18302Y17723D01*
X18309Y17739D01*
X18314Y17758D01*
X18315Y17769D01*
X18316Y17779D01*
Y17780D01*
Y17782D01*
Y17785D01*
X18315Y17789D01*
X18314Y17794D01*
X18313Y17800D01*
X18311Y17814D01*
X18305Y17828D01*
X18298Y17845D01*
X18292Y17854D01*
X18286Y17861D01*
X18279Y17869D01*
X18272Y17877D01*
X18271D01*
X18270Y17879D01*
X18267Y17880D01*
X18263Y17883D01*
X18259Y17886D01*
X18253Y17889D01*
X18247Y17893D01*
X18239Y17896D01*
X18229Y17899D01*
X18220Y17903D01*
X18208Y17906D01*
X18197Y17909D01*
X18183Y17912D01*
X18169Y17913D01*
X18155Y17914D01*
X18138Y17915D01*
D02*
G37*
G36*
X18183Y16766D02*
Y16508D01*
X18186D01*
X18188Y16508D01*
X18193D01*
X18203Y16511D01*
X18216Y16514D01*
X18230Y16518D01*
X18244Y16523D01*
X18258Y16529D01*
X18270Y16538D01*
X18271D01*
X18272Y16540D01*
X18277Y16545D01*
X18285Y16553D01*
X18293Y16564D01*
X18301Y16578D01*
X18309Y16594D01*
X18314Y16613D01*
X18315Y16624D01*
X18316Y16635D01*
Y16636D01*
Y16638D01*
Y16640D01*
X18315Y16644D01*
X18314Y16654D01*
X18311Y16666D01*
X18307Y16681D01*
X18300Y16696D01*
X18292Y16711D01*
X18279Y16726D01*
X18278Y16728D01*
X18273Y16732D01*
X18265Y16737D01*
X18253Y16744D01*
X18240Y16752D01*
X18223Y16758D01*
X18205Y16763D01*
X18183Y16766D01*
D02*
G37*
G36*
X18138Y15335D02*
X18130D01*
X18124Y15334D01*
X18117D01*
X18108Y15333D01*
X18098Y15331D01*
X18089Y15330D01*
X18067Y15325D01*
X18045Y15318D01*
X18024Y15309D01*
X18014Y15304D01*
X18006Y15297D01*
X18005Y15296D01*
X18004Y15295D01*
X17999Y15290D01*
X17992Y15281D01*
X17984Y15270D01*
X17975Y15256D01*
X17969Y15239D01*
X17963Y15220D01*
X17962Y15209D01*
X17962Y15199D01*
Y15198D01*
Y15196D01*
Y15193D01*
X17962Y15189D01*
X17963Y15184D01*
X17964Y15178D01*
X17967Y15164D01*
X17972Y15149D01*
X17981Y15133D01*
X17985Y15124D01*
X17991Y15117D01*
X17998Y15109D01*
X18006Y15101D01*
X18007Y15100D01*
X18007Y15099D01*
X18010Y15098D01*
X18014Y15095D01*
X18019Y15092D01*
X18025Y15089D01*
X18032Y15085D01*
X18040Y15081D01*
X18048Y15078D01*
X18059Y15074D01*
X18069Y15071D01*
X18081Y15068D01*
X18095Y15065D01*
X18109Y15064D01*
X18124Y15062D01*
X18150D01*
X18155Y15063D01*
X18163D01*
X18170Y15064D01*
X18180Y15065D01*
X18189Y15067D01*
X18210Y15072D01*
X18232Y15078D01*
X18253Y15089D01*
X18262Y15095D01*
X18271Y15102D01*
X18272D01*
X18273Y15104D01*
X18278Y15109D01*
X18285Y15117D01*
X18293Y15129D01*
X18302Y15143D01*
X18309Y15159D01*
X18314Y15178D01*
X18315Y15188D01*
X18316Y15199D01*
Y15200D01*
Y15201D01*
Y15205D01*
X18315Y15208D01*
X18314Y15214D01*
X18313Y15220D01*
X18311Y15234D01*
X18305Y15248D01*
X18298Y15265D01*
X18292Y15273D01*
X18286Y15281D01*
X18279Y15289D01*
X18272Y15297D01*
X18271D01*
X18270Y15298D01*
X18267Y15300D01*
X18263Y15303D01*
X18259Y15305D01*
X18253Y15309D01*
X18247Y15312D01*
X18239Y15316D01*
X18229Y15319D01*
X18220Y15323D01*
X18208Y15326D01*
X18197Y15329D01*
X18183Y15331D01*
X18169Y15333D01*
X18155Y15334D01*
X18138Y15335D01*
D02*
G37*
%LPD*%
D21*
X25019Y24714D02*
X25248D01*
X30328D02*
X30556D01*
X25248D02*
Y25476D01*
X30328D01*
Y23952D02*
Y25476D01*
X25248Y23952D02*
X30328D01*
X25248D02*
Y24714D01*
X25070Y29362D02*
X25298D01*
X30378D02*
X30607D01*
X25298D02*
Y30124D01*
X30378D01*
Y28600D02*
Y30124D01*
X25298Y28600D02*
X30378D01*
X25298D02*
Y29362D01*
X25044Y33731D02*
X25273D01*
X30353D02*
X30582D01*
X25273D02*
Y34493D01*
X30353D01*
Y32969D02*
Y34493D01*
X25273Y32969D02*
X30353D01*
X25273D02*
Y33731D01*
X26568Y38430D02*
X26797D01*
X31877D02*
X32106D01*
X26797D02*
Y39192D01*
X31877D01*
Y37668D02*
Y39192D01*
X26797Y37668D02*
X31877D01*
X26797D02*
Y38430D01*
X20755Y17950D02*
X23355D01*
X20305Y17500D02*
X20755Y17950D01*
X20305Y14300D02*
X20755Y13845D01*
X28105Y13850D02*
X30805D01*
X28105Y17950D02*
X30805D01*
Y13850D02*
Y17950D01*
X20305Y14300D02*
Y17500D01*
X20755Y13850D02*
X23355D01*
X24641Y22802D02*
X27241D01*
X24191Y22352D02*
X24641Y22802D01*
X24191Y19152D02*
X24641Y18697D01*
X31991Y18702D02*
X34691D01*
X31991Y22802D02*
X34691D01*
Y18702D02*
Y22802D01*
X24191Y19152D02*
Y22352D01*
X24641Y18702D02*
X27241D01*
X14024Y47491D02*
X16624D01*
X13574Y47041D02*
X14024Y47491D01*
X13574Y43841D02*
X14024Y43386D01*
X21374Y43391D02*
X24074D01*
X21374Y47491D02*
X24074D01*
Y43391D02*
Y47491D01*
X13574Y43841D02*
Y47041D01*
X14024Y43391D02*
X16624D01*
X14024Y52494D02*
X16624D01*
X13574Y52044D02*
X14024Y52494D01*
X13574Y48844D02*
X14024Y48389D01*
X21374Y48394D02*
X24074D01*
X21374Y52494D02*
X24074D01*
Y48394D02*
Y52494D01*
X13574Y48844D02*
Y52044D01*
X14024Y48394D02*
X16624D01*
X38430Y30912D02*
X39192D01*
X38430Y25832D02*
Y30912D01*
Y25832D02*
X39954D01*
Y30912D01*
X39192D02*
X39954D01*
X39192Y25603D02*
Y25832D01*
Y30912D02*
Y31140D01*
X39167Y40132D02*
X39929D01*
Y45212D01*
X38405D02*
X39929D01*
X38405Y40132D02*
Y45212D01*
Y40132D02*
X39167D01*
Y45212D02*
Y45441D01*
Y39903D02*
Y40132D01*
X36347Y38049D02*
X37109D01*
Y43129D01*
X35585D02*
X37109D01*
X35585Y38049D02*
Y43129D01*
Y38049D02*
X36347D01*
Y43129D02*
Y43358D01*
Y37821D02*
Y38049D01*
X34671Y26213D02*
X35433D01*
Y31293D01*
X33909D02*
X35433D01*
X33909Y26213D02*
Y31293D01*
Y26213D02*
X34671D01*
Y31293D02*
Y31521D01*
Y25984D02*
Y26213D01*
X18175Y42109D02*
X22516D01*
X18175Y37563D02*
X22516D01*
X18225Y33092D02*
X22567D01*
X18225Y28520D02*
X22567D01*
X10921Y92554D02*
X77421D01*
Y82554D02*
Y92554D01*
X10921Y82554D02*
X77421D01*
X10921D02*
Y92554D01*
D22*
X3439Y925D02*
G03*
X3439Y924I270J269D01*
G01*
X3464Y899D02*
G03*
X3734Y787I270J269D01*
G01*
X305Y4216D02*
G03*
X417Y3947I381J0D01*
G01*
X305Y4216D02*
G03*
X416Y3947I381J0D01*
G01*
X3464Y899D02*
G03*
X3734Y787I269J269D01*
G01*
X416Y90236D02*
G03*
X305Y89967I269J-269D01*
G01*
X417Y90237D02*
G03*
X305Y89967I269J-270D01*
G01*
X4775Y94437D02*
G03*
X4505Y94325I0J-381D01*
G01*
X4775Y94437D02*
G03*
X4506Y94326I0J-381D01*
G01*
X85700Y787D02*
G03*
X85969Y899I0J381D01*
G01*
X85700Y787D02*
G03*
X85969Y899I0J381D01*
G01*
X90058Y4988D02*
G03*
X90170Y5258I-269J270D01*
G01*
X90058Y4988D02*
G03*
X90170Y5258I-269J269D01*
G01*
X88153Y94376D02*
G03*
X87694Y94437I-269J-269D01*
G01*
X88154Y94376D02*
G03*
X87694Y94437I-270J-269D01*
G01*
X90170Y92202D02*
G03*
X90058Y92471I-381J0D01*
G01*
X90170Y92202D02*
G03*
X90058Y92472I-381J0D01*
G01*
X3464Y899D02*
X3464Y899D01*
X3439Y924D02*
X3464Y899D01*
X3439Y924D02*
X3439Y924D01*
X3439Y925D02*
X3439Y924D01*
X417Y3947D02*
X3439Y925D01*
X416Y3947D02*
X417Y3947D01*
X3734Y787D02*
X84506D01*
X305Y4216D02*
Y89967D01*
X416Y90236D02*
X417Y90237D01*
X4505Y94325D01*
X4506Y94326D01*
X4775Y94437D02*
X4801D01*
X87694D01*
X84506Y787D02*
X85700D01*
X85969Y899D02*
X85969Y899D01*
X90058Y4988D01*
X90058Y4988D01*
X90170Y5258D02*
Y91821D01*
Y92202D01*
X90058Y92472D02*
X90058Y92471D01*
X88154Y94376D02*
X90058Y92472D01*
X88153Y94376D02*
X88154Y94376D01*
D23*
X3439Y924D02*
D03*
D42*
X88066Y55970D02*
X88091D01*
X88066D02*
Y56845D01*
X82591D02*
X88066D01*
X82591Y55920D02*
Y56845D01*
X88066Y53495D02*
X88091D01*
X88066Y52595D02*
Y53495D01*
X82541Y52595D02*
X88066D01*
X82541D02*
Y53545D01*
X1824Y78295D02*
X1854D01*
Y79445D01*
X10104D01*
Y78220D02*
Y79445D01*
X1899Y61445D02*
Y62795D01*
Y61445D02*
X10104D01*
X10149D01*
Y63020D01*
X88367Y37934D02*
X88392Y39234D01*
X82292D02*
X88392D01*
X82292Y37934D02*
Y39234D01*
X88242Y30009D02*
X88267Y28809D01*
X82317Y28834D02*
X88267Y28809D01*
X82317Y28834D02*
Y29959D01*
X88281Y57919D02*
Y58969D01*
X80011Y57919D02*
X88281D01*
X80011D02*
Y58919D01*
X88281Y79869D02*
Y80919D01*
X80011D02*
X88281D01*
X80011Y79869D02*
Y80919D01*
X65950Y13983D02*
Y14008D01*
X64725Y13983D02*
X65950D01*
X64725Y2683D02*
Y13983D01*
Y2683D02*
X66200D01*
X77450Y13933D02*
Y13958D01*
X78705D01*
Y2683D02*
Y13958D01*
X77275Y2683D02*
X78705D01*
X17536Y9325D02*
X17561Y10875D01*
X1908Y9325D02*
X17536D01*
X1908D02*
Y10850D01*
Y19975D02*
Y21825D01*
X17536D01*
X17561Y19900D01*
X37927Y15719D02*
Y16744D01*
X37902Y16769D02*
X37927Y16744D01*
X37852Y11994D02*
X37927Y11919D01*
Y12544D01*
X37902Y12569D02*
X37927Y12544D01*
X37902Y12569D02*
Y12794D01*
X35427Y11994D02*
X37852D01*
X35427D02*
Y12794D01*
X35577Y16744D02*
X37927D01*
X35502Y16669D02*
X35577Y16744D01*
X35502Y15869D02*
Y16669D01*
X81056Y86737D02*
Y87762D01*
X81031Y87787D02*
X81056Y87762D01*
X80981Y83012D02*
X81056Y82937D01*
Y83562D01*
X81031Y83587D02*
X81056Y83562D01*
X81031Y83587D02*
Y83812D01*
X78556Y83012D02*
X80981D01*
X78556D02*
Y83812D01*
X78706Y87762D02*
X81056D01*
X78631Y87687D02*
X78706Y87762D01*
X78631Y86887D02*
Y87687D01*
X41246Y58187D02*
X42271D01*
X42296Y58212D01*
X37446Y58187D02*
X37521Y58262D01*
X37446Y58187D02*
X38071D01*
X38096Y58212D01*
X38321D01*
X37521Y58262D02*
Y60687D01*
X38321D01*
X42271Y58187D02*
Y60537D01*
X42196Y60612D02*
X42271Y60537D01*
X41396Y60612D02*
X42196D01*
X36038Y68305D02*
X37063D01*
X36013Y68280D02*
X36038Y68305D01*
X40788Y68230D02*
X40863Y68305D01*
X40238D02*
X40863D01*
X40213Y68280D02*
X40238Y68305D01*
X39988Y68280D02*
X40213D01*
X40788Y65805D02*
Y68230D01*
X39988Y65805D02*
X40788D01*
X36038Y65955D02*
Y68305D01*
Y65955D02*
X36113Y65880D01*
X36913D01*
X79853Y46096D02*
Y47121D01*
Y46096D02*
X79878Y46071D01*
X79853Y50921D02*
X79928Y50846D01*
X79853Y50296D02*
Y50921D01*
Y50296D02*
X79878Y50271D01*
Y50046D02*
Y50271D01*
X79928Y50846D02*
X82353D01*
Y50046D02*
Y50846D01*
X79853Y46096D02*
X82203D01*
X82278Y46171D01*
Y46971D01*
X17319Y65959D02*
X18344D01*
X18369Y65984D01*
X13519Y65959D02*
X13594Y66034D01*
X13519Y65959D02*
X14144D01*
X14169Y65984D01*
X14394D01*
X13594Y66034D02*
Y68459D01*
X14394D01*
X18344Y65959D02*
Y68309D01*
X18269Y68384D02*
X18344Y68309D01*
X17469Y68384D02*
X18269D01*
X17522Y56561D02*
X18547D01*
X18572Y56586D01*
X13722Y56561D02*
X13797Y56636D01*
X13722Y56561D02*
X14347D01*
X14372Y56586D01*
X14597D01*
X13797Y56636D02*
Y59061D01*
X14597D01*
X18547Y56561D02*
Y58911D01*
X18472Y58986D02*
X18547Y58911D01*
X17672Y58986D02*
X18472D01*
X53103Y17032D02*
X61153D01*
X53103Y2957D02*
Y17032D01*
Y2957D02*
X61578D01*
Y17082D01*
X61153Y17032D02*
X61578Y17082D01*
X51553Y9994D02*
X52569D01*
X62128Y13169D02*
X63144D01*
X51403Y16219D02*
X52419D01*
X51911Y16726D02*
Y15711D01*
X9601Y6858D02*
Y7858D01*
X10101D01*
X10268Y7691D01*
Y7358D01*
X10101Y7191D01*
X9601D01*
X9934D02*
X10268Y6858D01*
X11267Y7858D02*
X10601D01*
Y7358D01*
X10934D01*
X10601D01*
Y6858D01*
X11601Y7524D02*
Y6858D01*
Y7191D01*
X11767Y7358D01*
X11934Y7524D01*
X12100D01*
X12767D02*
X13100D01*
X13267Y7358D01*
Y6858D01*
X12767D01*
X12600Y7025D01*
X12767Y7191D01*
X13267D01*
X13600Y6858D02*
Y7524D01*
X13767D01*
X13933Y7358D01*
Y6858D01*
Y7358D01*
X14100Y7524D01*
X14266Y7358D01*
Y6858D01*
X15099D02*
X14766D01*
X14600Y7025D01*
Y7358D01*
X14766Y7524D01*
X15099D01*
X15266Y7358D01*
Y7191D01*
X14600D01*
X51397Y19494D02*
Y17971D01*
X52159D01*
X52413Y18224D01*
Y18478D01*
X52159Y18732D01*
X51397D01*
X52159D01*
X52413Y18986D01*
Y19240D01*
X52159Y19494D01*
X51397D01*
X52920Y17971D02*
X53428D01*
X53174D01*
Y19494D01*
X52920Y19240D01*
D58*
X78303Y30378D02*
G03*
X78938Y30378I317J0D01*
G01*
X83212Y26062D02*
G03*
X87172Y26062I1980J-1500D01*
G01*
X18175Y42109D02*
G03*
X22516Y42109I2171J-1520D01*
G01*
X18175Y37563D02*
G03*
X22516Y37563I2171J-1520D01*
G01*
X18225Y33092D02*
G03*
X22567Y33092I2171J-1520D01*
G01*
X18225Y28520D02*
G03*
X22567Y28520I2171J-1520D01*
G01*
X7942Y57155D02*
Y57655D01*
X2442D02*
X7942D01*
X2442Y57155D02*
Y57655D01*
X7942Y45055D02*
Y45555D01*
X2442Y45055D02*
X7942D01*
X2442D02*
Y45555D01*
X77506Y30378D02*
X78303D01*
X78938D02*
X79736D01*
Y25298D02*
Y30378D01*
X77506Y25298D02*
X79736D01*
X77506D02*
Y30378D01*
X10439Y4242D02*
Y5004D01*
Y4242D02*
X15519D01*
Y5766D01*
X10439D02*
X15519D01*
X10439Y5004D02*
Y5766D01*
X15519Y5004D02*
X15748D01*
X10211D02*
X10439D01*
X80112Y14453D02*
X80340D01*
X85420D02*
X85649D01*
X80340D02*
Y15215D01*
X85420D01*
Y13691D02*
Y15215D01*
X80340Y13691D02*
X85420D01*
X80340D02*
Y14453D01*
X80188Y17399D02*
X80416D01*
X85496D02*
X85725D01*
X80416D02*
Y18161D01*
X85496D01*
Y16637D02*
Y18161D01*
X80416Y16637D02*
X85496D01*
X80416D02*
Y17399D01*
X85319Y20625D02*
X85547D01*
X80010D02*
X80239D01*
X85319Y19863D02*
Y20625D01*
X80239Y19863D02*
X85319D01*
X80239D02*
Y21387D01*
X85319D01*
Y20625D02*
Y21387D01*
X83212Y26062D02*
X87172D01*
X69494Y15824D02*
Y25984D01*
X72034D01*
Y27254D01*
X74574D01*
Y15824D02*
Y27254D01*
X69494Y15824D02*
X74574D01*
D59*
X88147Y25912D02*
G03*
X88147Y25912I-125J0D01*
G01*
X23473Y41960D02*
G03*
X23473Y41960I-125J0D01*
G01*
Y37414D02*
G03*
X23473Y37414I-125J0D01*
G01*
X23524Y32943D02*
G03*
X23524Y32943I-125J0D01*
G01*
Y28371D02*
G03*
X23524Y28371I-125J0D01*
G01*
X1629Y24710D02*
X8419D01*
Y28185D01*
X12309D01*
Y37905D01*
X8419D02*
X12309D01*
X8419D02*
Y41380D01*
X1629D02*
X8419D01*
X1629Y24710D02*
Y41380D01*
D60*
X72123Y36805D02*
G03*
X72123Y37414I0J305D01*
G01*
X77127Y35930D02*
Y38289D01*
X72123Y35930D02*
Y38289D01*
D61*
X58526Y69471D02*
X58359Y69638D01*
X58026D01*
X57860Y69471D01*
Y68805D01*
X58026Y68638D01*
X58359D01*
X58526Y68805D01*
X59026Y68638D02*
X59359D01*
X59526Y68805D01*
Y69138D01*
X59359Y69305D01*
X59026D01*
X58859Y69138D01*
Y68805D01*
X59026Y68638D01*
X59859Y69305D02*
Y68638D01*
Y68971D01*
X60026Y69138D01*
X60192Y69305D01*
X60359D01*
X60859Y68638D02*
Y69305D01*
X61358D01*
X61525Y69138D01*
Y68638D01*
X62358D02*
X62025D01*
X61858Y68805D01*
Y69138D01*
X62025Y69305D01*
X62358D01*
X62525Y69138D01*
Y68971D01*
X61858D01*
X62858Y68638D02*
X63191D01*
X63025D01*
Y69638D01*
X62858D01*
X63691Y68638D02*
X64024D01*
X63858D01*
Y69638D01*
X63691D01*
X57860Y68198D02*
Y67365D01*
X58026Y67199D01*
X58359D01*
X58526Y67365D01*
Y68198D01*
X58859Y67199D02*
Y67865D01*
X59026D01*
X59193Y67698D01*
Y67199D01*
Y67698D01*
X59359Y67865D01*
X59526Y67698D01*
Y67199D01*
X59859Y68198D02*
Y67199D01*
X60359D01*
X60525Y67365D01*
Y67532D01*
Y67698D01*
X60359Y67865D01*
X59859D01*
X60859Y67199D02*
X61192D01*
X61025D01*
Y67865D01*
X60859D01*
X61692Y67199D02*
X62025D01*
X61858D01*
Y68198D01*
X61692D01*
X62525Y67199D02*
X62858D01*
X62691D01*
Y67865D01*
X62525D01*
X64024D02*
X63524D01*
X63358Y67698D01*
Y67365D01*
X63524Y67199D01*
X64024D01*
X64524Y67865D02*
X64857D01*
X65024Y67698D01*
Y67199D01*
X64524D01*
X64357Y67365D01*
X64524Y67532D01*
X65024D01*
X65357Y67199D02*
X65690D01*
X65524D01*
Y68198D01*
X65357D01*
X67190D02*
Y67199D01*
X67690D01*
X67856Y67365D01*
Y67532D01*
X67690Y67698D01*
X67190D01*
X67690D01*
X67856Y67865D01*
Y68032D01*
X67690Y68198D01*
X67190D01*
X68356Y67199D02*
X68689D01*
X68856Y67365D01*
Y67698D01*
X68689Y67865D01*
X68356D01*
X68190Y67698D01*
Y67365D01*
X68356Y67199D01*
X69356Y67865D02*
X69689D01*
X69856Y67698D01*
Y67199D01*
X69356D01*
X69189Y67365D01*
X69356Y67532D01*
X69856D01*
X70189Y67865D02*
Y67199D01*
Y67532D01*
X70356Y67698D01*
X70522Y67865D01*
X70689D01*
X71855Y68198D02*
Y67199D01*
X71355D01*
X71189Y67365D01*
Y67698D01*
X71355Y67865D01*
X71855D01*
X57860Y65759D02*
Y66759D01*
X58359D01*
X58526Y66592D01*
Y66259D01*
X58359Y66092D01*
X57860D01*
X58193D02*
X58526Y65759D01*
X59359D02*
X59026D01*
X58859Y65926D01*
Y66259D01*
X59026Y66425D01*
X59359D01*
X59526Y66259D01*
Y66092D01*
X58859D01*
X59859Y66425D02*
X60192Y65759D01*
X60525Y66425D01*
X61858Y66592D02*
X62025Y66759D01*
X62358D01*
X62525Y66592D01*
Y66425D01*
X62358Y66259D01*
X62192D01*
X62358D01*
X62525Y66092D01*
Y65926D01*
X62358Y65759D01*
X62025D01*
X61858Y65926D01*
X83953Y44992D02*
X83620D01*
X83786D01*
Y44159D01*
X83620Y43993D01*
X83453D01*
X83287Y44159D01*
X84286Y44992D02*
Y44159D01*
X84453Y43993D01*
X84786D01*
X84953Y44159D01*
Y44992D01*
X85286Y43993D02*
Y44992D01*
X85619Y44659D01*
X85952Y44992D01*
Y43993D01*
X86286D02*
Y44992D01*
X86785D01*
X86952Y44826D01*
Y44493D01*
X86785Y44326D01*
X86286D01*
X87285Y44826D02*
X87452Y44992D01*
X87785D01*
X87952Y44826D01*
Y44659D01*
X87785Y44493D01*
X87952Y44326D01*
Y44159D01*
X87785Y43993D01*
X87452D01*
X87285Y44159D01*
Y44326D01*
X87452Y44493D01*
X87285Y44659D01*
Y44826D01*
X87452Y44493D02*
X87785D01*
D62*
X64516Y53511D02*
X65049D01*
X64783Y53778D02*
Y53245D01*
X65316Y53111D02*
X65582D01*
X65449D01*
Y53911D01*
X65316Y53778D01*
X66515Y53111D02*
X65982D01*
X66515Y53645D01*
Y53778D01*
X66382Y53911D01*
X66115D01*
X65982Y53778D01*
X66782Y53911D02*
Y53378D01*
X67049Y53111D01*
X67315Y53378D01*
Y53911D01*
X67715Y53111D02*
X67982D01*
X68115Y53245D01*
Y53511D01*
X67982Y53645D01*
X67715D01*
X67582Y53511D01*
Y53245D01*
X67715Y53111D01*
X68381D02*
X68648D01*
X68515D01*
Y53911D01*
X68381D01*
X69181Y53778D02*
Y53645D01*
X69048D01*
X69314D01*
X69181D01*
Y53245D01*
X69314Y53111D01*
X69714D02*
X70114D01*
X70247Y53245D01*
X70114Y53378D01*
X69848D01*
X69714Y53511D01*
X69848Y53645D01*
X70247D01*
X52654Y53981D02*
X52521Y54114D01*
X52254D01*
X52121Y53981D01*
Y53448D01*
X52254Y53315D01*
X52521D01*
X52654Y53448D01*
Y53714D01*
X52387D01*
X53320Y54114D02*
X53054D01*
X52921Y53981D01*
Y53448D01*
X53054Y53315D01*
X53320D01*
X53454Y53448D01*
Y53981D01*
X53320Y54114D01*
X53720Y53315D02*
Y54114D01*
X53987Y53848D01*
X54253Y54114D01*
Y53315D01*
X54520Y53181D02*
X55053D01*
X55853Y53981D02*
X55720Y54114D01*
X55453D01*
X55320Y53981D01*
Y53448D01*
X55453Y53315D01*
X55720D01*
X55853Y53448D01*
Y53714D01*
X55586D01*
X56120Y53315D02*
Y54114D01*
X56653Y53315D01*
Y54114D01*
X56919D02*
Y53315D01*
X57319D01*
X57452Y53448D01*
Y53981D01*
X57319Y54114D01*
X56919D01*
X57719Y53181D02*
X58252D01*
X58519Y53315D02*
X58785D01*
X58652D01*
Y54114D01*
X58519Y53981D01*
D63*
X2396Y42892D02*
X2311Y42977D01*
X2142D01*
X2057Y42892D01*
Y42807D01*
X2142Y42723D01*
X2311D01*
X2396Y42638D01*
Y42553D01*
X2311Y42469D01*
X2142D01*
X2057Y42553D01*
X2650Y42469D02*
X2819D01*
X2904Y42553D01*
Y42723D01*
X2819Y42807D01*
X2650D01*
X2565Y42723D01*
Y42553D01*
X2650Y42469D01*
X3073D02*
X3242D01*
X3158D01*
Y42977D01*
X3073D01*
X3750Y42469D02*
X3581D01*
X3496Y42553D01*
Y42723D01*
X3581Y42807D01*
X3750D01*
X3835Y42723D01*
Y42638D01*
X3496D01*
X4004Y42469D02*
Y42807D01*
X4258D01*
X4343Y42723D01*
Y42469D01*
X4597D02*
X4766D01*
X4850Y42553D01*
Y42723D01*
X4766Y42807D01*
X4597D01*
X4512Y42723D01*
Y42553D01*
X4597Y42469D01*
X5020D02*
X5189D01*
X5104D01*
Y42807D01*
X5020D01*
X5782Y42977D02*
Y42469D01*
X5528D01*
X5443Y42553D01*
Y42723D01*
X5528Y42807D01*
X5782D01*
X6289Y42892D02*
X6205Y42977D01*
X6035D01*
X5951Y42892D01*
Y42553D01*
X6035Y42469D01*
X6205D01*
X6289Y42553D01*
X6543Y42469D02*
X6713D01*
X6797Y42553D01*
Y42723D01*
X6713Y42807D01*
X6543D01*
X6459Y42723D01*
Y42553D01*
X6543Y42469D01*
X6966D02*
Y42807D01*
X7220D01*
X7305Y42723D01*
Y42469D01*
X7474D02*
Y42807D01*
X7728D01*
X7813Y42723D01*
Y42469D01*
X8236D02*
X8067D01*
X7982Y42553D01*
Y42723D01*
X8067Y42807D01*
X8236D01*
X8321Y42723D01*
Y42638D01*
X7982D01*
X8829Y42807D02*
X8575D01*
X8490Y42723D01*
Y42553D01*
X8575Y42469D01*
X8829D01*
X9082Y42892D02*
Y42807D01*
X8998D01*
X9167D01*
X9082D01*
Y42553D01*
X9167Y42469D01*
X9506D02*
X9675D01*
X9760Y42553D01*
Y42723D01*
X9675Y42807D01*
X9506D01*
X9421Y42723D01*
Y42553D01*
X9506Y42469D01*
X9929Y42807D02*
Y42469D01*
Y42638D01*
X10013Y42723D01*
X10098Y42807D01*
X10183D01*
X81255Y51850D02*
Y51511D01*
X81509D01*
Y51680D01*
Y51511D01*
X81763D01*
Y52019D02*
Y52188D01*
Y52104D01*
X81255D01*
Y52019D01*
X81763Y52442D02*
Y52612D01*
Y52527D01*
X81424D01*
Y52442D01*
X81932Y53035D02*
Y53119D01*
X81847Y53204D01*
X81424D01*
Y52950D01*
X81509Y52865D01*
X81678D01*
X81763Y52950D01*
Y53204D01*
X81255Y53373D02*
X81763D01*
X81509D01*
X81424Y53458D01*
Y53627D01*
X81509Y53712D01*
X81763D01*
X81339Y53966D02*
X81424D01*
Y53881D01*
Y54050D01*
Y53966D01*
X81678D01*
X81763Y54050D01*
X81339Y54643D02*
X81255Y54558D01*
Y54389D01*
X81339Y54304D01*
X81424D01*
X81509Y54389D01*
Y54558D01*
X81593Y54643D01*
X81678D01*
X81763Y54558D01*
Y54389D01*
X81678Y54304D01*
X81424Y54812D02*
X81678D01*
X81763Y54897D01*
X81678Y54981D01*
X81763Y55066D01*
X81678Y55151D01*
X81424D01*
X81763Y55320D02*
Y55489D01*
Y55405D01*
X81424D01*
Y55320D01*
X81339Y55828D02*
X81424D01*
Y55743D01*
Y55912D01*
Y55828D01*
X81678D01*
X81763Y55912D01*
X81424Y56505D02*
Y56251D01*
X81509Y56166D01*
X81678D01*
X81763Y56251D01*
Y56505D01*
X81255Y56674D02*
X81763D01*
X81509D01*
X81424Y56759D01*
Y56928D01*
X81509Y57013D01*
X81763D01*
X69960Y34493D02*
X70807Y35340D01*
Y34493D02*
X69960Y35340D01*
X70384Y34493D02*
Y35340D01*
X70807Y34916D02*
X69960D01*
D64*
X12332Y57019D02*
Y56849D01*
Y56934D01*
X12755D01*
X12840Y56849D01*
Y56765D01*
X12755Y56680D01*
X12332Y57188D02*
X12755D01*
X12840Y57273D01*
Y57442D01*
X12755Y57526D01*
X12332D01*
X12840Y57696D02*
X12332D01*
X12501Y57865D01*
X12332Y58034D01*
X12840D01*
Y58204D02*
X12332D01*
Y58458D01*
X12417Y58542D01*
X12586D01*
X12670Y58458D01*
Y58204D01*
X12840Y58711D02*
Y58881D01*
Y58796D01*
X12332D01*
X12417Y58711D01*
Y59135D02*
X12332Y59219D01*
Y59389D01*
X12417Y59473D01*
X12755D01*
X12840Y59389D01*
Y59219D01*
X12755Y59135D01*
X12417D01*
X15172Y69367D02*
X15003D01*
X15088D01*
Y68944D01*
X15003Y68859D01*
X14918D01*
X14834Y68944D01*
X15341Y69367D02*
Y68944D01*
X15426Y68859D01*
X15595D01*
X15680Y68944D01*
Y69367D01*
X15849Y68859D02*
Y69367D01*
X16019Y69198D01*
X16188Y69367D01*
Y68859D01*
X16357D02*
Y69367D01*
X16611D01*
X16696Y69283D01*
Y69113D01*
X16611Y69029D01*
X16357D01*
X16865Y68944D02*
X16950Y68859D01*
X17119D01*
X17204Y68944D01*
Y69283D01*
X17119Y69367D01*
X16950D01*
X16865Y69283D01*
Y69198D01*
X16950Y69113D01*
X17204D01*
X42253Y67848D02*
Y68017D01*
Y67932D01*
X41830D01*
X41745Y68017D01*
Y68102D01*
X41830Y68186D01*
X42253Y67678D02*
X41830D01*
X41745Y67594D01*
Y67425D01*
X41830Y67340D01*
X42253D01*
X41745Y67171D02*
X42253D01*
X42083Y67001D01*
X42253Y66832D01*
X41745D01*
Y66663D02*
X42253D01*
Y66409D01*
X42168Y66324D01*
X41999D01*
X41914Y66409D01*
Y66663D01*
X42253Y66155D02*
Y65816D01*
X42168D01*
X41830Y66155D01*
X41745D01*
X32080Y12522D02*
X32588D01*
Y12268D01*
X32503Y12184D01*
X32334D01*
X32249Y12268D01*
Y12522D01*
Y12353D02*
X32080Y12184D01*
X31996Y12014D02*
Y11676D01*
X32419Y11507D02*
X32080Y11337D01*
X32419Y11168D01*
X32080Y10914D02*
Y10745D01*
X32165Y10660D01*
X32334D01*
X32419Y10745D01*
Y10914D01*
X32334Y10999D01*
X32165D01*
X32080Y10914D01*
Y10491D02*
Y10322D01*
Y10406D01*
X32588D01*
Y10491D01*
X32503Y9983D02*
X32419D01*
Y10068D01*
Y9898D01*
Y9983D01*
X32165D01*
X32080Y9898D01*
X32588Y9306D02*
X32080D01*
Y9560D01*
X32165Y9644D01*
X32334D01*
X32419Y9560D01*
Y9306D01*
X32080Y9137D02*
Y8967D01*
Y9052D01*
X32419D01*
Y9137D01*
Y8713D02*
X32080Y8544D01*
X32419Y8375D01*
X31996Y8206D02*
Y7867D01*
X32080Y7359D02*
Y7698D01*
X32419Y7359D01*
X32503D01*
X32588Y7444D01*
Y7613D01*
X32503Y7698D01*
X24714Y8077D02*
Y8585D01*
X24968D01*
X25053Y8500D01*
Y8331D01*
X24968Y8246D01*
X24714D01*
X24883D02*
X25053Y8077D01*
X25222Y7993D02*
X25561D01*
X25730Y8416D02*
X25899Y8077D01*
X26068Y8416D01*
X26322Y8077D02*
X26492D01*
X26576Y8162D01*
Y8331D01*
X26492Y8416D01*
X26322D01*
X26238Y8331D01*
Y8162D01*
X26322Y8077D01*
X26746D02*
X26915D01*
X26830D01*
Y8585D01*
X26746D01*
X27253Y8500D02*
Y8416D01*
X27169D01*
X27338D01*
X27253D01*
Y8162D01*
X27338Y8077D01*
X27930Y8585D02*
Y8077D01*
X27677D01*
X27592Y8162D01*
Y8331D01*
X27677Y8416D01*
X27930D01*
X28100Y8077D02*
X28269D01*
X28184D01*
Y8416D01*
X28100D01*
X28523D02*
X28692Y8077D01*
X28862Y8416D01*
X29031Y7993D02*
X29369D01*
X29539Y8077D02*
X29708D01*
X29623D01*
Y8585D01*
X29539Y8500D01*
X20599Y7468D02*
Y8102D01*
X20917D01*
X21023Y7997D01*
Y7785D01*
X20917Y7679D01*
X20599D01*
X21234Y7891D02*
Y7468D01*
Y7679D01*
X21340Y7785D01*
X21446Y7891D01*
X21552D01*
X22186Y7468D02*
X21975D01*
X21869Y7573D01*
Y7785D01*
X21975Y7891D01*
X22186D01*
X22292Y7785D01*
Y7679D01*
X21869D01*
X22504Y7468D02*
X22821D01*
X22927Y7573D01*
X22821Y7679D01*
X22610D01*
X22504Y7785D01*
X22610Y7891D01*
X22927D01*
X23139Y7468D02*
X23456D01*
X23562Y7573D01*
X23456Y7679D01*
X23244D01*
X23139Y7785D01*
X23244Y7891D01*
X23562D01*
X24197Y7997D02*
X24091Y8102D01*
X23879D01*
X23773Y7997D01*
Y7573D01*
X23879Y7468D01*
X24091D01*
X24197Y7573D01*
X24514Y7468D02*
X24726D01*
X24831Y7573D01*
Y7785D01*
X24726Y7891D01*
X24514D01*
X24408Y7785D01*
Y7573D01*
X24514Y7468D01*
X25043D02*
Y7891D01*
X25360D01*
X25466Y7785D01*
Y7468D01*
X25678Y7362D02*
X26101D01*
X26736Y7468D02*
X26313D01*
X26736Y7891D01*
Y7997D01*
X26630Y8102D01*
X26418D01*
X26313Y7997D01*
X34671Y9220D02*
X34925D01*
X34798D01*
Y8458D01*
X34671D01*
X34925D01*
X35687Y9220D02*
X35433D01*
X35306Y9093D01*
Y8585D01*
X35433Y8458D01*
X35687D01*
X35814Y8585D01*
Y9093D01*
X35687Y9220D01*
X36575Y8966D02*
X36195D01*
X36068Y8839D01*
Y8585D01*
X36195Y8458D01*
X36575D01*
X36956D02*
X37210D01*
X37337Y8585D01*
Y8839D01*
X37210Y8966D01*
X36956D01*
X36829Y8839D01*
Y8585D01*
X36956Y8458D01*
X37591D02*
Y8966D01*
X37972D01*
X38099Y8839D01*
Y8458D01*
X38353D02*
Y8966D01*
X38734D01*
X38861Y8839D01*
Y8458D01*
X39115Y8331D02*
X39622D01*
X39876Y8966D02*
Y8458D01*
Y8712D01*
X40003Y8839D01*
X40130Y8966D01*
X40257D01*
X41019Y8458D02*
X40765D01*
X40638Y8585D01*
Y8839D01*
X40765Y8966D01*
X41019D01*
X41146Y8839D01*
Y8712D01*
X40638D01*
X41400Y8966D02*
X41654Y8458D01*
X41908Y8966D01*
X42669Y8458D02*
X42162D01*
X42669Y8966D01*
Y9093D01*
X42542Y9220D01*
X42289D01*
X42162Y9093D01*
X38557Y57683D02*
X38303D01*
X38430D01*
Y57048D01*
X38303Y56921D01*
X38176D01*
X38049Y57048D01*
X38811Y57683D02*
Y57048D01*
X38938Y56921D01*
X39192D01*
X39319Y57048D01*
Y57683D01*
X39573Y56921D02*
Y57683D01*
X39827Y57429D01*
X40081Y57683D01*
Y56921D01*
X40334D02*
Y57683D01*
X40715D01*
X40842Y57556D01*
Y57302D01*
X40715Y57175D01*
X40334D01*
X41604Y56921D02*
X41096D01*
X41604Y57429D01*
Y57556D01*
X41477Y57683D01*
X41223D01*
X41096Y57556D01*
X82753Y86487D02*
Y86741D01*
Y86614D01*
X82118D01*
X81991Y86741D01*
Y86868D01*
X82118Y86995D01*
X82753Y86233D02*
X82118D01*
X81991Y86106D01*
Y85852D01*
X82118Y85725D01*
X82753D01*
X81991Y85471D02*
X82753D01*
X82499Y85218D01*
X82753Y84964D01*
X81991D01*
Y84710D02*
X82753D01*
Y84329D01*
X82626Y84202D01*
X82372D01*
X82245Y84329D01*
Y84710D01*
X81991Y83948D02*
Y83694D01*
Y83821D01*
X82753D01*
X82626Y83948D01*
X79654Y8865D02*
Y9626D01*
X79908Y9372D01*
X80162Y9626D01*
Y8865D01*
X80416D02*
X80670D01*
X80543D01*
Y9372D01*
X80416D01*
X81559D02*
X81178D01*
X81051Y9245D01*
Y8992D01*
X81178Y8865D01*
X81559D01*
X81813Y9372D02*
Y8865D01*
Y9119D01*
X81940Y9245D01*
X82067Y9372D01*
X82194D01*
X82701Y8865D02*
X82955D01*
X83082Y8992D01*
Y9245D01*
X82955Y9372D01*
X82701D01*
X82574Y9245D01*
Y8992D01*
X82701Y8865D01*
X83336D02*
X83717D01*
X83844Y8992D01*
X83717Y9119D01*
X83463D01*
X83336Y9245D01*
X83463Y9372D01*
X83844D01*
X84098D02*
Y8992D01*
X84225Y8865D01*
X84352Y8992D01*
X84479Y8865D01*
X84606Y8992D01*
Y9372D01*
X84860Y8865D02*
X85114D01*
X84987D01*
Y9372D01*
X84860D01*
X85621Y9499D02*
Y9372D01*
X85495D01*
X85748D01*
X85621D01*
Y8992D01*
X85748Y8865D01*
X86637Y9372D02*
X86256D01*
X86129Y9245D01*
Y8992D01*
X86256Y8865D01*
X86637D01*
X86891Y9626D02*
Y8865D01*
Y9245D01*
X87018Y9372D01*
X87272D01*
X87399Y9245D01*
Y8865D01*
X85395Y93574D02*
X86157D01*
Y93193D01*
X86030Y93066D01*
X85776D01*
X85649Y93193D01*
Y93574D01*
X86030Y92304D02*
X86157Y92431D01*
Y92685D01*
X86030Y92812D01*
X85522D01*
X85395Y92685D01*
Y92431D01*
X85522Y92304D01*
X85776Y92050D02*
Y91542D01*
X85395Y91288D02*
Y91034D01*
Y91161D01*
X86157D01*
X86030Y91288D01*
Y90654D02*
X86157Y90527D01*
Y90273D01*
X86030Y90146D01*
X85522D01*
X85395Y90273D01*
Y90527D01*
X85522Y90654D01*
X86030D01*
X85395Y89511D02*
X86157D01*
X85776Y89892D01*
Y89384D01*
X1880Y43536D02*
Y44297D01*
X2260D01*
X2387Y44170D01*
Y43916D01*
X2260Y43790D01*
X1880D01*
X2641Y44297D02*
X2895D01*
X2768D01*
Y43536D01*
X2641D01*
X2895D01*
X3276Y44297D02*
Y43536D01*
Y43790D01*
X3784Y44297D01*
X3403Y43916D01*
X3784Y43536D01*
X4546Y44170D02*
X4419Y44297D01*
X4165D01*
X4038Y44170D01*
Y44043D01*
X4165Y43916D01*
X4419D01*
X4546Y43790D01*
Y43663D01*
X4419Y43536D01*
X4165D01*
X4038Y43663D01*
X4800Y44297D02*
X5054D01*
X4927D01*
Y43536D01*
X4800D01*
X5054D01*
X5434Y43409D02*
X5942D01*
X6196Y44297D02*
Y43663D01*
X6323Y43536D01*
X6577D01*
X6704Y43663D01*
Y44297D01*
X6958Y43536D02*
Y44043D01*
X7212Y44297D01*
X7466Y44043D01*
Y43536D01*
Y43916D01*
X6958D01*
X7720Y43536D02*
Y44297D01*
X8101D01*
X8228Y44170D01*
Y43916D01*
X8101Y43790D01*
X7720D01*
X7974D02*
X8228Y43536D01*
X8481Y44297D02*
X8989D01*
X8735D01*
Y43536D01*
X9243D02*
Y44043D01*
X9497Y44297D01*
X9751Y44043D01*
Y43536D01*
Y43916D01*
X9243D01*
X83109Y82220D02*
X83617Y81458D01*
Y82220D02*
X83109Y81458D01*
X83871D02*
Y81966D01*
X84124Y82220D01*
X84378Y81966D01*
Y81458D01*
Y81839D01*
X83871D01*
X85140Y82093D02*
X85013Y82220D01*
X84759D01*
X84632Y82093D01*
Y81585D01*
X84759Y81458D01*
X85013D01*
X85140Y81585D01*
X85394Y82220D02*
X85902D01*
X85648D01*
Y81458D01*
X11430Y69977D02*
X10668D01*
Y69596D01*
X10795Y69469D01*
X11303D01*
X11430Y69596D01*
Y69977D01*
X10668Y69088D02*
Y68834D01*
X10795Y68707D01*
X11049D01*
X11176Y68834D01*
Y69088D01*
X11049Y69215D01*
X10795D01*
X10668Y69088D01*
X11176Y67946D02*
Y68327D01*
X11049Y68453D01*
X10795D01*
X10668Y68327D01*
Y67946D01*
Y67692D02*
X11430D01*
X10922D02*
X11176Y67311D01*
X10922Y67692D02*
X10668Y67311D01*
Y66930D02*
Y66676D01*
Y66803D01*
X11176D01*
Y66930D01*
X10668Y66295D02*
X11176D01*
Y65914D01*
X11049Y65787D01*
X10668D01*
X10414Y65280D02*
Y65153D01*
X10541Y65026D01*
X11176D01*
Y65406D01*
X11049Y65533D01*
X10795D01*
X10668Y65406D01*
Y65026D01*
X16840Y26289D02*
X16332D01*
X16205Y26162D01*
Y25908D01*
X16332Y25781D01*
X16840D01*
X16967Y25908D01*
Y26162D01*
X16713Y26035D02*
X16967Y26289D01*
Y26162D02*
X16840Y26289D01*
X16967Y26924D02*
X16205D01*
X16586Y26543D01*
Y27051D01*
X16789Y30734D02*
X16282D01*
X16155Y30607D01*
Y30353D01*
X16282Y30226D01*
X16789D01*
X16916Y30353D01*
Y30607D01*
X16662Y30480D02*
X16916Y30734D01*
Y30607D02*
X16789Y30734D01*
X16282Y30988D02*
X16155Y31115D01*
Y31369D01*
X16282Y31496D01*
X16409D01*
X16536Y31369D01*
Y31242D01*
Y31369D01*
X16662Y31496D01*
X16789D01*
X16916Y31369D01*
Y31115D01*
X16789Y30988D01*
X16866Y35230D02*
X16358D01*
X16231Y35103D01*
Y34849D01*
X16358Y34722D01*
X16866D01*
X16993Y34849D01*
Y35103D01*
X16739Y34976D02*
X16993Y35230D01*
Y35103D02*
X16866Y35230D01*
X16993Y35991D02*
Y35484D01*
X16485Y35991D01*
X16358D01*
X16231Y35864D01*
Y35611D01*
X16358Y35484D01*
X16942Y39852D02*
X16434D01*
X16307Y39725D01*
Y39472D01*
X16434Y39345D01*
X16942D01*
X17069Y39472D01*
Y39725D01*
X16815Y39599D02*
X17069Y39852D01*
Y39725D02*
X16942Y39852D01*
X17069Y40106D02*
Y40360D01*
Y40233D01*
X16307D01*
X16434Y40106D01*
X31369Y27178D02*
Y27940D01*
X31750D01*
X31877Y27813D01*
Y27559D01*
X31750Y27432D01*
X31369D01*
X31623D02*
X31877Y27178D01*
X32131D02*
X32385D01*
X32258D01*
Y27940D01*
X32131Y27813D01*
X32766D02*
X32893Y27940D01*
X33146D01*
X33273Y27813D01*
Y27305D01*
X33146Y27178D01*
X32893D01*
X32766Y27305D01*
Y27813D01*
X33782Y40945D02*
Y41707D01*
X34163D01*
X34290Y41580D01*
Y41326D01*
X34163Y41199D01*
X33782D01*
X34036D02*
X34290Y40945D01*
X34544Y41072D02*
X34671Y40945D01*
X34925D01*
X35052Y41072D01*
Y41580D01*
X34925Y41707D01*
X34671D01*
X34544Y41580D01*
Y41453D01*
X34671Y41326D01*
X35052D01*
X40564Y41656D02*
Y42418D01*
X40945D01*
X41072Y42291D01*
Y42037D01*
X40945Y41910D01*
X40564D01*
X40818D02*
X41072Y41656D01*
X41326Y42291D02*
X41453Y42418D01*
X41706D01*
X41833Y42291D01*
Y42164D01*
X41706Y42037D01*
X41833Y41910D01*
Y41783D01*
X41706Y41656D01*
X41453D01*
X41326Y41783D01*
Y41910D01*
X41453Y42037D01*
X41326Y42164D01*
Y42291D01*
X41453Y42037D02*
X41706D01*
X36449Y27102D02*
Y27864D01*
X36830D01*
X36957Y27737D01*
Y27483D01*
X36830Y27356D01*
X36449D01*
X36703D02*
X36957Y27102D01*
X37211Y27864D02*
X37719D01*
Y27737D01*
X37211Y27229D01*
Y27102D01*
X11951Y48552D02*
X12713D01*
Y48933D01*
X12586Y49060D01*
X12078D01*
X11951Y48933D01*
Y48552D01*
X12713Y49314D02*
Y49568D01*
Y49441D01*
X11951D01*
X12078Y49314D01*
X11799Y42951D02*
X12560D01*
Y43332D01*
X12433Y43459D01*
X11925D01*
X11799Y43332D01*
Y42951D01*
X12560Y44221D02*
Y43713D01*
X12052Y44221D01*
X11925D01*
X11799Y44094D01*
Y43840D01*
X11925Y43713D01*
X22568Y18860D02*
X23330D01*
Y19240D01*
X23203Y19367D01*
X22695D01*
X22568Y19240D01*
Y18860D01*
X22695Y19621D02*
X22568Y19748D01*
Y20002D01*
X22695Y20129D01*
X22822D01*
X22949Y20002D01*
Y19875D01*
Y20002D01*
X23076Y20129D01*
X23203D01*
X23330Y20002D01*
Y19748D01*
X23203Y19621D01*
X21565Y12167D02*
X22327D01*
Y12547D01*
X22200Y12674D01*
X21692D01*
X21565Y12547D01*
Y12167D01*
X22327Y13309D02*
X21565D01*
X21946Y12928D01*
Y13436D01*
X27076Y39878D02*
Y40640D01*
X27457D01*
X27584Y40513D01*
Y40259D01*
X27457Y40132D01*
X27076D01*
X27330D02*
X27584Y39878D01*
X27838D02*
X28092D01*
X27965D01*
Y40640D01*
X27838Y40513D01*
X26238Y35204D02*
Y35966D01*
X26619D01*
X26746Y35839D01*
Y35585D01*
X26619Y35458D01*
X26238D01*
X26492D02*
X26746Y35204D01*
X27508D02*
X27000D01*
X27508Y35712D01*
Y35839D01*
X27381Y35966D01*
X27127D01*
X27000Y35839D01*
X26441Y31013D02*
Y31775D01*
X26822D01*
X26949Y31648D01*
Y31394D01*
X26822Y31267D01*
X26441D01*
X26695D02*
X26949Y31013D01*
X27203Y31648D02*
X27330Y31775D01*
X27584D01*
X27711Y31648D01*
Y31521D01*
X27584Y31394D01*
X27457D01*
X27584D01*
X27711Y31267D01*
Y31140D01*
X27584Y31013D01*
X27330D01*
X27203Y31140D01*
X26619Y26238D02*
Y27000D01*
X27000D01*
X27127Y26873D01*
Y26619D01*
X27000Y26492D01*
X26619D01*
X26873D02*
X27127Y26238D01*
X27762D02*
Y27000D01*
X27381Y26619D01*
X27889D01*
X77013Y31699D02*
X76759D01*
X76632Y31572D01*
Y31064D01*
X76759Y30937D01*
X77013D01*
X77140Y31064D01*
Y31572D01*
X77013Y31699D01*
X77394Y30683D02*
Y31445D01*
X77774D01*
X77901Y31318D01*
Y31064D01*
X77774Y30937D01*
X77394D01*
X78155D02*
Y31445D01*
X78409Y31699D01*
X78663Y31445D01*
Y30937D01*
Y31318D01*
X78155D01*
X78917Y30937D02*
Y31445D01*
X79044D01*
X79171Y31318D01*
Y30937D01*
Y31318D01*
X79298Y31445D01*
X79425Y31318D01*
Y30937D01*
X79679Y30683D02*
Y31445D01*
X80060D01*
X80187Y31318D01*
Y31064D01*
X80060Y30937D01*
X79679D01*
X78918Y34315D02*
X78156D01*
Y34696D01*
X78283Y34823D01*
X78537D01*
X78664Y34696D01*
Y34315D01*
X78410Y35077D02*
X78918D01*
X78664D01*
X78537Y35204D01*
X78410Y35331D01*
Y35458D01*
X78918Y36220D02*
Y35966D01*
X78791Y35839D01*
X78537D01*
X78410Y35966D01*
Y36220D01*
X78537Y36347D01*
X78664D01*
Y35839D01*
X78918Y36601D02*
Y36982D01*
X78791Y37109D01*
X78664Y36982D01*
Y36728D01*
X78537Y36601D01*
X78410Y36728D01*
Y37109D01*
X78918Y37362D02*
X78410D01*
X78156Y37616D01*
X78410Y37870D01*
X78918D01*
X78537D01*
Y37362D01*
X78918Y38124D02*
X78410D01*
Y38251D01*
X78537Y38378D01*
X78918D01*
X78537D01*
X78410Y38505D01*
X78537Y38632D01*
X78918D01*
X79172Y38886D02*
X78410D01*
Y39267D01*
X78537Y39394D01*
X78791D01*
X78918Y39267D01*
Y38886D01*
X80823Y42139D02*
Y42900D01*
X81204D01*
X81331Y42773D01*
Y42519D01*
X81204Y42393D01*
X80823D01*
X81585Y42646D02*
Y42139D01*
Y42393D01*
X81712Y42519D01*
X81838Y42646D01*
X81965D01*
X82727Y42139D02*
X82473D01*
X82346Y42266D01*
Y42519D01*
X82473Y42646D01*
X82727D01*
X82854Y42519D01*
Y42393D01*
X82346D01*
X83108Y42139D02*
X83489D01*
X83616Y42266D01*
X83489Y42393D01*
X83235D01*
X83108Y42519D01*
X83235Y42646D01*
X83616D01*
X83870Y42139D02*
X84251D01*
X84378Y42266D01*
X84251Y42393D01*
X83997D01*
X83870Y42519D01*
X83997Y42646D01*
X84378D01*
X84632D02*
Y42266D01*
X84759Y42139D01*
X85139D01*
Y42646D01*
X85393D02*
Y42139D01*
Y42393D01*
X85520Y42519D01*
X85647Y42646D01*
X85774D01*
X86536Y42139D02*
X86282D01*
X86155Y42266D01*
Y42519D01*
X86282Y42646D01*
X86536D01*
X86663Y42519D01*
Y42393D01*
X86155D01*
X87425Y42773D02*
X87298Y42900D01*
X87044D01*
X86917Y42773D01*
Y42266D01*
X87044Y42139D01*
X87298D01*
X87425Y42266D01*
X87806Y42139D02*
X88059D01*
X88186Y42266D01*
Y42519D01*
X88059Y42646D01*
X87806D01*
X87679Y42519D01*
Y42266D01*
X87806Y42139D01*
X88440D02*
Y42646D01*
X88821D01*
X88948Y42519D01*
Y42139D01*
X87782Y21920D02*
Y22428D01*
X87655Y22555D01*
X87401D01*
X87274Y22428D01*
Y21920D01*
X87401Y21793D01*
X87655D01*
X87528Y22047D02*
X87782Y21793D01*
X87655D02*
X87782Y21920D01*
X88544Y22555D02*
X88036D01*
Y22174D01*
X88290Y22301D01*
X88417D01*
X88544Y22174D01*
Y21920D01*
X88417Y21793D01*
X88163D01*
X88036Y21920D01*
X78181Y22174D02*
Y22936D01*
X78562D01*
X78689Y22809D01*
Y22555D01*
X78562Y22428D01*
X78181D01*
X78435D02*
X78689Y22174D01*
X78943D02*
X79197D01*
X79070D01*
Y22936D01*
X78943Y22809D01*
X79578Y22174D02*
X79831D01*
X79705D01*
Y22936D01*
X79578Y22809D01*
X78359Y18948D02*
Y19710D01*
X78740D01*
X78867Y19583D01*
Y19329D01*
X78740Y19202D01*
X78359D01*
X78613D02*
X78867Y18948D01*
X79121D02*
X79374D01*
X79248D01*
Y19710D01*
X79121Y19583D01*
X80263Y18948D02*
X79755D01*
X80263Y19456D01*
Y19583D01*
X80136Y19710D01*
X79882D01*
X79755Y19583D01*
X78283Y16002D02*
Y16764D01*
X78663D01*
X78790Y16637D01*
Y16383D01*
X78663Y16256D01*
X78283D01*
X78537D02*
X78790Y16002D01*
X79044D02*
X79298D01*
X79171D01*
Y16764D01*
X79044Y16637D01*
X80187Y16764D02*
X79679D01*
Y16383D01*
X79933Y16510D01*
X80060D01*
X80187Y16383D01*
Y16129D01*
X80060Y16002D01*
X79806D01*
X79679Y16129D01*
X74854Y18288D02*
Y19050D01*
X75235D01*
X75362Y18923D01*
Y18669D01*
X75235Y18542D01*
X74854D01*
X75108D02*
X75362Y18288D01*
X75616D02*
Y19050D01*
X75996D01*
X76123Y18923D01*
Y18669D01*
X75996Y18542D01*
X75616D01*
X76758Y19050D02*
X76504D01*
X76377Y18923D01*
Y18415D01*
X76504Y18288D01*
X76758D01*
X76885Y18415D01*
Y18923D01*
X76758Y19050D01*
X77139D02*
X77647D01*
X77393D01*
Y18288D01*
X35433Y11328D02*
X35179D01*
X35306D01*
Y10693D01*
X35179Y10566D01*
X35052D01*
X34925Y10693D01*
X35687Y11328D02*
Y10693D01*
X35814Y10566D01*
X36068D01*
X36195Y10693D01*
Y11328D01*
X36449Y10566D02*
Y11328D01*
X36702Y11074D01*
X36956Y11328D01*
Y10566D01*
X37210D02*
Y11328D01*
X37591D01*
X37718Y11201D01*
Y10947D01*
X37591Y10820D01*
X37210D01*
X38480Y11328D02*
X38226Y11201D01*
X37972Y10947D01*
Y10693D01*
X38099Y10566D01*
X38353D01*
X38480Y10693D01*
Y10820D01*
X38353Y10947D01*
X37972D01*
X13276Y35276D02*
X13170Y35382D01*
X12958D01*
X12852Y35276D01*
Y35170D01*
X12958Y35065D01*
X13170D01*
X13276Y34959D01*
Y34853D01*
X13170Y34747D01*
X12958D01*
X12852Y34853D01*
X13805Y34747D02*
Y35382D01*
X13487Y35065D01*
X13910D01*
X13250Y33168D02*
X13144Y33274D01*
X12933D01*
X12827Y33168D01*
Y33062D01*
X12933Y32956D01*
X13144D01*
X13250Y32851D01*
Y32745D01*
X13144Y32639D01*
X12933D01*
X12827Y32745D01*
X13462Y33168D02*
X13568Y33274D01*
X13779D01*
X13885Y33168D01*
Y33062D01*
X13779Y32956D01*
X13673D01*
X13779D01*
X13885Y32851D01*
Y32745D01*
X13779Y32639D01*
X13568D01*
X13462Y32745D01*
X13326Y31136D02*
X13221Y31242D01*
X13009D01*
X12903Y31136D01*
Y31030D01*
X13009Y30924D01*
X13221D01*
X13326Y30819D01*
Y30713D01*
X13221Y30607D01*
X13009D01*
X12903Y30713D01*
X13961Y30607D02*
X13538D01*
X13961Y31030D01*
Y31136D01*
X13855Y31242D01*
X13644D01*
X13538Y31136D01*
X13377Y29180D02*
X13271Y29286D01*
X13060D01*
X12954Y29180D01*
Y29074D01*
X13060Y28969D01*
X13271D01*
X13377Y28863D01*
Y28757D01*
X13271Y28651D01*
X13060D01*
X12954Y28757D01*
X13589Y28651D02*
X13800D01*
X13695D01*
Y29286D01*
X13589Y29180D01*
X56109Y43510D02*
Y43933D01*
X56320Y44145D01*
X56532Y43933D01*
Y43510D01*
Y43828D01*
X56109D01*
X56743Y43510D02*
Y44145D01*
X57167Y43510D01*
Y44145D01*
X57378Y43510D02*
Y43933D01*
X57590Y44145D01*
X57801Y43933D01*
Y43510D01*
Y43828D01*
X57378D01*
X58013Y44145D02*
Y43510D01*
X58436D01*
X58965Y44145D02*
X58754D01*
X58648Y44039D01*
Y43616D01*
X58754Y43510D01*
X58965D01*
X59071Y43616D01*
Y44039D01*
X58965Y44145D01*
X59706Y44039D02*
X59600Y44145D01*
X59388D01*
X59283Y44039D01*
Y43616D01*
X59388Y43510D01*
X59600D01*
X59706Y43616D01*
Y43828D01*
X59494D01*
X59917Y43404D02*
X60341D01*
X60975Y44039D02*
X60870Y44145D01*
X60658D01*
X60552Y44039D01*
Y43616D01*
X60658Y43510D01*
X60870D01*
X60975Y43616D01*
Y43828D01*
X60764D01*
X61187Y43510D02*
Y44145D01*
X61610Y43510D01*
Y44145D01*
X61822D02*
Y43510D01*
X62139D01*
X62245Y43616D01*
Y44039D01*
X62139Y44145D01*
X61822D01*
X9330Y57192D02*
X9246Y57277D01*
X9076D01*
X8992Y57192D01*
Y56854D01*
X9076Y56769D01*
X9246D01*
X9330Y56854D01*
Y57023D01*
X9161D01*
X9753Y57277D02*
X9584D01*
X9499Y57192D01*
Y56854D01*
X9584Y56769D01*
X9753D01*
X9838Y56854D01*
Y57192D01*
X9753Y57277D01*
X10007Y56769D02*
Y57277D01*
X10177Y57108D01*
X10346Y57277D01*
Y56769D01*
X10515Y56684D02*
X10854D01*
X11361Y57192D02*
X11277Y57277D01*
X11108D01*
X11023Y57192D01*
Y56854D01*
X11108Y56769D01*
X11277D01*
X11361Y56854D01*
Y57023D01*
X11192D01*
X11531Y56769D02*
Y57277D01*
X11869Y56769D01*
Y57277D01*
X12039D02*
Y56769D01*
X12293D01*
X12377Y56854D01*
Y57192D01*
X12293Y57277D01*
X12039D01*
X12546Y56684D02*
X12885D01*
X13054Y56769D02*
X13224D01*
X13139D01*
Y57277D01*
X13054Y57192D01*
X31801Y53823D02*
X32139D01*
X31970Y53992D02*
Y53653D01*
X32647Y54076D02*
X32309D01*
Y53823D01*
X32478Y53907D01*
X32563D01*
X32647Y53823D01*
Y53653D01*
X32563Y53569D01*
X32393D01*
X32309Y53653D01*
X32816Y54076D02*
Y53738D01*
X32986Y53569D01*
X33155Y53738D01*
Y54076D01*
X33324Y53484D02*
X33663D01*
X33832Y53992D02*
X33917Y54076D01*
X34086D01*
X34171Y53992D01*
Y53907D01*
X34086Y53823D01*
X34001D01*
X34086D01*
X34171Y53738D01*
Y53653D01*
X34086Y53569D01*
X33917D01*
X33832Y53653D01*
X34340Y53484D02*
X34679D01*
X35186Y54076D02*
X35017D01*
X35102D01*
Y53653D01*
X35017Y53569D01*
X34932D01*
X34848Y53653D01*
X35356Y53907D02*
Y53653D01*
X35440Y53569D01*
X35694D01*
Y53907D01*
X35863Y53569D02*
Y53907D01*
X35948D01*
X36033Y53823D01*
Y53569D01*
Y53823D01*
X36117Y53907D01*
X36202Y53823D01*
Y53569D01*
X36371Y53399D02*
Y53907D01*
X36625D01*
X36710Y53823D01*
Y53653D01*
X36625Y53569D01*
X36371D01*
X36879Y53992D02*
X36964Y54076D01*
X37133D01*
X37218Y53992D01*
Y53907D01*
X37133Y53823D01*
X37048D01*
X37133D01*
X37218Y53738D01*
Y53653D01*
X37133Y53569D01*
X36964D01*
X36879Y53653D01*
X31479Y44543D02*
X31394Y44628D01*
X31225D01*
X31140Y44543D01*
Y44204D01*
X31225Y44120D01*
X31394D01*
X31479Y44204D01*
Y44374D01*
X31310D01*
X31902Y44628D02*
X31733D01*
X31648Y44543D01*
Y44204D01*
X31733Y44120D01*
X31902D01*
X31987Y44204D01*
Y44543D01*
X31902Y44628D01*
X32156Y44120D02*
Y44628D01*
X32325Y44458D01*
X32495Y44628D01*
Y44120D01*
X32664Y44035D02*
X33002D01*
X33510Y44543D02*
X33426Y44628D01*
X33256D01*
X33172Y44543D01*
Y44204D01*
X33256Y44120D01*
X33426D01*
X33510Y44204D01*
Y44374D01*
X33341D01*
X33680Y44120D02*
Y44628D01*
X34018Y44120D01*
Y44628D01*
X34187D02*
Y44120D01*
X34441D01*
X34526Y44204D01*
Y44543D01*
X34441Y44628D01*
X34187D01*
X34695Y44035D02*
X35034D01*
X35203Y44120D02*
X35372D01*
X35288D01*
Y44628D01*
X35203Y44543D01*
X61290Y35403D02*
X61396Y35509D01*
X61608D01*
X61713Y35403D01*
Y35297D01*
X61608Y35192D01*
X61502D01*
X61608D01*
X61713Y35086D01*
Y34980D01*
X61608Y34874D01*
X61396D01*
X61290Y34980D01*
X61925Y35509D02*
Y35086D01*
X62137Y34874D01*
X62348Y35086D01*
Y35509D01*
X62560Y35403D02*
X62666Y35509D01*
X62877D01*
X62983Y35403D01*
Y35297D01*
X62877Y35192D01*
X62771D01*
X62877D01*
X62983Y35086D01*
Y34980D01*
X62877Y34874D01*
X62666D01*
X62560Y34980D01*
X63195Y34768D02*
X63618D01*
X64253Y34874D02*
X63829D01*
X64253Y35297D01*
Y35403D01*
X64147Y35509D01*
X63935D01*
X63829Y35403D01*
X75616Y20244D02*
X75954D01*
X75785Y20413D02*
Y20074D01*
X76378Y20498D02*
X76208D01*
X76124Y20413D01*
Y20074D01*
X76208Y19990D01*
X76378D01*
X76462Y20074D01*
Y20413D01*
X76378Y20498D01*
X76631Y20328D02*
Y20074D01*
X76716Y19990D01*
X76970D01*
Y20328D01*
X77224Y20413D02*
Y20328D01*
X77139D01*
X77309D01*
X77224D01*
Y20074D01*
X77309Y19990D01*
X78156Y41326D02*
X78494D01*
X78325Y41495D02*
Y41156D01*
X79002Y41580D02*
X78664D01*
Y41072D01*
X79002D01*
X78664Y41326D02*
X78833D01*
X79171Y41580D02*
X79510Y41072D01*
Y41580D02*
X79171Y41072D01*
X80772Y39827D02*
X81111D01*
X81534Y40081D02*
X81364D01*
X81280Y39996D01*
Y39658D01*
X81364Y39573D01*
X81534D01*
X81618Y39658D01*
Y39996D01*
X81534Y40081D01*
X81788D02*
Y39658D01*
X81872Y39573D01*
X82042D01*
X82126Y39658D01*
Y40081D01*
X82296D02*
X82634D01*
X82465D01*
Y39573D01*
X47616Y32609D02*
X47511Y32715D01*
X47299D01*
X47193Y32609D01*
Y32186D01*
X47299Y32080D01*
X47511D01*
X47616Y32186D01*
X47828Y32080D02*
X48040D01*
X47934D01*
Y32715D01*
X47828Y32609D01*
X47083Y39264D02*
X46977Y39370D01*
X46766D01*
X46660Y39264D01*
Y38841D01*
X46766Y38735D01*
X46977D01*
X47083Y38841D01*
X47718Y38735D02*
X47295D01*
X47718Y39158D01*
Y39264D01*
X47612Y39370D01*
X47400D01*
X47295Y39264D01*
X47312Y34895D02*
X47206Y35001D01*
X46994D01*
X46888Y34895D01*
Y34472D01*
X46994Y34366D01*
X47206D01*
X47312Y34472D01*
X47841Y34366D02*
Y35001D01*
X47523Y34684D01*
X47946D01*
X46804Y40737D02*
X46698Y40843D01*
X46486D01*
X46380Y40737D01*
Y40314D01*
X46486Y40208D01*
X46698D01*
X46804Y40314D01*
X47015Y40737D02*
X47121Y40843D01*
X47333D01*
X47438Y40737D01*
Y40631D01*
X47333Y40526D01*
X47227D01*
X47333D01*
X47438Y40420D01*
Y40314D01*
X47333Y40208D01*
X47121D01*
X47015Y40314D01*
D65*
X73152Y73368D02*
X73088Y73431D01*
X72961D01*
X72898Y73368D01*
Y73114D01*
X72961Y73050D01*
X73088D01*
X73152Y73114D01*
Y73241D01*
X73025D01*
X73469Y73431D02*
X73342D01*
X73279Y73368D01*
Y73114D01*
X73342Y73050D01*
X73469D01*
X73533Y73114D01*
Y73368D01*
X73469Y73431D01*
X73660Y73050D02*
Y73431D01*
X73787Y73304D01*
X73914Y73431D01*
Y73050D01*
X74041Y72987D02*
X74295D01*
X74675Y73368D02*
X74612Y73431D01*
X74485D01*
X74422Y73368D01*
Y73114D01*
X74485Y73050D01*
X74612D01*
X74675Y73114D01*
Y73241D01*
X74548D01*
X74802Y73050D02*
Y73431D01*
X75056Y73050D01*
Y73431D01*
X75183D02*
Y73050D01*
X75374D01*
X75437Y73114D01*
Y73368D01*
X75374Y73431D01*
X75183D01*
X75564Y72987D02*
X75818D01*
X75945Y73050D02*
X76072D01*
X76008D01*
Y73431D01*
X75945Y73368D01*
X4420Y72047D02*
X4356Y72110D01*
X4229D01*
X4166Y72047D01*
Y71793D01*
X4229Y71730D01*
X4356D01*
X4420Y71793D01*
Y71920D01*
X4293D01*
X4737Y72110D02*
X4610D01*
X4546Y72047D01*
Y71793D01*
X4610Y71730D01*
X4737D01*
X4800Y71793D01*
Y72047D01*
X4737Y72110D01*
X4927Y71730D02*
Y72110D01*
X5054Y71984D01*
X5181Y72110D01*
Y71730D01*
X5308Y71666D02*
X5562D01*
X5943Y72047D02*
X5880Y72110D01*
X5753D01*
X5689Y72047D01*
Y71793D01*
X5753Y71730D01*
X5880D01*
X5943Y71793D01*
Y71920D01*
X5816D01*
X6070Y71730D02*
Y72110D01*
X6324Y71730D01*
Y72110D01*
X6451D02*
Y71730D01*
X6641D01*
X6705Y71793D01*
Y72047D01*
X6641Y72110D01*
X6451D01*
X6832Y71666D02*
X7086D01*
X7213Y71730D02*
X7340D01*
X7276D01*
Y72110D01*
X7213Y72047D01*
X1549Y58610D02*
X1803D01*
X1676Y58737D02*
Y58483D01*
X1930Y58420D02*
X2057D01*
X1994D01*
Y58801D01*
X1930Y58737D01*
X2502Y58420D02*
X2248D01*
X2502Y58674D01*
Y58737D01*
X2438Y58801D01*
X2311D01*
X2248Y58737D01*
X2629Y58801D02*
Y58547D01*
X2756Y58420D01*
X2882Y58547D01*
Y58801D01*
X3009Y58357D02*
X3263D01*
X3390Y58420D02*
X3517D01*
X3454D01*
Y58801D01*
X3390Y58737D01*
X31979Y60782D02*
Y60528D01*
X32106Y60401D01*
X32233Y60528D01*
Y60782D01*
X32359Y60338D02*
X32613D01*
X32740Y60782D02*
Y60401D01*
X32931D01*
X32994Y60465D01*
Y60528D01*
X32931Y60592D01*
X32740D01*
X32931D01*
X32994Y60655D01*
Y60719D01*
X32931Y60782D01*
X32740D01*
X33121Y60401D02*
Y60655D01*
X33248Y60782D01*
X33375Y60655D01*
Y60401D01*
Y60592D01*
X33121D01*
X33502Y60782D02*
X33756D01*
X33629D01*
Y60401D01*
X33883Y60338D02*
X34137D01*
X34264Y60401D02*
X34391D01*
X34327D01*
Y60782D01*
X34264Y60719D01*
X16434Y64490D02*
Y64237D01*
X16561Y64110D01*
X16688Y64237D01*
Y64490D01*
X16815Y64046D02*
X17069D01*
X17196Y64490D02*
Y64110D01*
X17386D01*
X17449Y64173D01*
Y64237D01*
X17386Y64300D01*
X17196D01*
X17386D01*
X17449Y64364D01*
Y64427D01*
X17386Y64490D01*
X17196D01*
X17576Y64110D02*
Y64364D01*
X17703Y64490D01*
X17830Y64364D01*
Y64110D01*
Y64300D01*
X17576D01*
X17957Y64490D02*
X18211D01*
X18084D01*
Y64110D01*
X18338Y64046D02*
X18592D01*
X18719Y64110D02*
X18846D01*
X18783D01*
Y64490D01*
X18719Y64427D01*
X19036Y64046D02*
X19290D01*
X19671Y64490D02*
X19544D01*
X19608D01*
Y64173D01*
X19544Y64110D01*
X19481D01*
X19417Y64173D01*
X19798Y64490D02*
Y64173D01*
X19862Y64110D01*
X19989D01*
X20052Y64173D01*
Y64490D01*
X20179Y64110D02*
Y64490D01*
X20306Y64364D01*
X20433Y64490D01*
Y64110D01*
X20560D02*
Y64490D01*
X20750D01*
X20814Y64427D01*
Y64300D01*
X20750Y64237D01*
X20560D01*
X21195Y64490D02*
X20941D01*
Y64300D01*
X21068Y64364D01*
X21131D01*
X21195Y64300D01*
Y64173D01*
X21131Y64110D01*
X21004D01*
X20941Y64173D01*
D66*
X60782Y62116D02*
D03*
M02*
