G04 Layer_Physical_Order=4*
G04 Layer_Color=16711680*
%FSLAX43Y43*%
%MOMM*%
G71*
G01*
G75*
%ADD12O,1.600X0.600*%
%ADD18C,0.508*%
%ADD19C,0.330*%
%ADD20C,0.559*%
%ADD21C,0.305*%
%ADD22C,0.762*%
%ADD23C,0.762*%
%ADD24C,0.750*%
%ADD25C,1.000*%
%ADD26C,1.524*%
%ADD27C,1.600*%
%ADD28R,2.100X3.000*%
%ADD29R,0.800X1.600*%
%ADD30R,1.100X3.600*%
%ADD31R,3.600X1.100*%
%ADD32C,1.220*%
%ADD33C,1.400*%
%ADD34O,1.000X2.000*%
%ADD35O,1.000X2.000*%
%ADD36C,1.676*%
%ADD37C,1.200*%
%ADD38R,1.200X1.200*%
%ADD39C,4.000*%
%ADD40C,1.270*%
%ADD41C,5.000*%
D12*
X8824Y63470D02*
D03*
Y64470D02*
D03*
Y65470D02*
D03*
Y66470D02*
D03*
Y67470D02*
D03*
Y68470D02*
D03*
Y69470D02*
D03*
Y70470D02*
D03*
Y71470D02*
D03*
Y72470D02*
D03*
Y73470D02*
D03*
Y74470D02*
D03*
Y75470D02*
D03*
Y76470D02*
D03*
Y77470D02*
D03*
X3124D02*
D03*
Y76470D02*
D03*
Y75470D02*
D03*
Y74470D02*
D03*
Y73470D02*
D03*
Y72470D02*
D03*
Y71470D02*
D03*
Y70470D02*
D03*
Y69470D02*
D03*
Y68470D02*
D03*
Y67470D02*
D03*
Y66470D02*
D03*
Y65470D02*
D03*
Y64470D02*
D03*
Y63470D02*
D03*
X81331Y59994D02*
D03*
Y60994D02*
D03*
Y61994D02*
D03*
Y62994D02*
D03*
Y63994D02*
D03*
Y64994D02*
D03*
Y65994D02*
D03*
Y66994D02*
D03*
Y67994D02*
D03*
Y68994D02*
D03*
Y69994D02*
D03*
Y70994D02*
D03*
Y71994D02*
D03*
Y72994D02*
D03*
Y73994D02*
D03*
Y74994D02*
D03*
Y75994D02*
D03*
Y76994D02*
D03*
Y77994D02*
D03*
Y78994D02*
D03*
X87031D02*
D03*
Y77994D02*
D03*
Y76994D02*
D03*
Y75994D02*
D03*
Y74994D02*
D03*
Y73994D02*
D03*
Y72994D02*
D03*
Y71994D02*
D03*
Y70994D02*
D03*
Y69994D02*
D03*
Y68994D02*
D03*
Y67994D02*
D03*
Y66994D02*
D03*
Y65994D02*
D03*
Y64994D02*
D03*
Y63994D02*
D03*
Y62994D02*
D03*
Y61994D02*
D03*
Y60994D02*
D03*
Y59994D02*
D03*
D18*
X34442Y56109D02*
X34785Y55766D01*
X34442Y56109D02*
Y58030D01*
X34531Y58119D01*
Y59178D01*
X34493Y59217D02*
X34531Y59178D01*
X34493Y59217D02*
Y60163D01*
X34531Y60202D01*
Y66815D01*
X34785Y55766D02*
X36789D01*
X41351Y55677D02*
X41440Y55766D01*
X36878Y55677D02*
X41351D01*
X36789Y55766D02*
X36878Y55677D01*
X41440Y55766D02*
X42342Y54864D01*
Y44425D02*
Y54864D01*
X75327Y42469D02*
X79346D01*
X75200Y42342D02*
X75327Y42469D01*
X74253Y42342D02*
X75200D01*
X74126Y42469D02*
X74253Y42342D01*
X66802Y42469D02*
X74126D01*
X79346D02*
X81153Y44276D01*
X50063Y45974D02*
X56286Y39751D01*
X50063Y45974D02*
Y81501D01*
X47295Y75006D02*
Y81611D01*
X45009Y72720D02*
X47295Y75006D01*
X56286Y16540D02*
Y39751D01*
X45009Y69672D02*
Y72720D01*
X14732Y54839D02*
X18263Y51308D01*
X14732Y54839D02*
Y57861D01*
X46101Y10490D02*
Y13513D01*
X47650Y15062D01*
Y22174D01*
X70841Y80442D02*
Y81661D01*
X31039Y53048D02*
X31115Y52972D01*
X70841Y81661D02*
Y83744D01*
X42901Y91364D02*
X44145Y90119D01*
X86766Y17399D02*
X87960Y16205D01*
Y12903D02*
Y16205D01*
X69063Y17655D02*
Y33829D01*
X69980Y34747D01*
X70209Y34519D01*
X69063Y17655D02*
X75313Y11405D01*
X86462D01*
X87960Y12903D01*
X60960Y20625D02*
Y38583D01*
X73381Y75577D02*
Y83744D01*
X76403Y55550D02*
Y72554D01*
X73381Y75577D02*
X76403Y72554D01*
X78080Y45415D02*
Y53873D01*
X76403Y55550D02*
X78080Y53873D01*
X60960Y38583D02*
X67158Y44780D01*
X77445D01*
X78080Y45415D01*
X31318Y61198D02*
X31369Y61147D01*
Y53378D02*
Y61147D01*
X31318Y61198D02*
Y76352D01*
X32131Y77165D01*
X31039Y53048D02*
X31369Y53378D01*
X17069Y63449D02*
Y67259D01*
X16167Y58966D02*
Y62548D01*
X17069Y63449D01*
X16167Y58966D02*
X17272Y57861D01*
X81153Y44276D02*
Y47371D01*
X44450Y44374D02*
X48285D01*
X50241Y42418D01*
D19*
X41755Y56223D02*
X41923D01*
X41666Y56312D02*
X41755Y56223D01*
X41214Y56312D02*
X41666D01*
X41125Y56223D02*
X41214Y56312D01*
X37105Y56223D02*
X41125D01*
X81699Y44175D02*
X86030Y48506D01*
X81699Y44050D02*
Y44175D01*
X79572Y41923D02*
X81699Y44050D01*
X79446Y41923D02*
X79572D01*
X79129Y41605D02*
X79446Y41923D01*
X27102Y24587D02*
X30937Y20752D01*
X25857Y24587D02*
X27102D01*
X40996Y59487D02*
X43955Y62446D01*
Y76924D01*
X44120Y77089D01*
X21615Y36043D02*
X24968Y39395D01*
Y41732D01*
X21138Y40111D02*
X21615Y40589D01*
X21138Y39761D02*
Y40111D01*
X17851Y36474D02*
X21138Y39761D01*
X14961Y36474D02*
X17851D01*
X21188Y31094D02*
X21666Y31572D01*
X21188Y30744D02*
Y31094D01*
X15311Y24867D02*
X21188Y30744D01*
X9931Y24867D02*
X15311D01*
X6285Y27022D02*
Y27991D01*
X6274Y28002D02*
X6285Y27991D01*
X6274Y28002D02*
Y32944D01*
X7061Y26246D02*
Y26494D01*
X6532Y27022D02*
X7061Y26494D01*
X6285Y27022D02*
X6532D01*
X21666Y24867D02*
Y27000D01*
X20498Y23698D02*
X21666Y24867D01*
X9609Y23698D02*
X20498D01*
X7061Y26246D02*
X9609Y23698D01*
X21666Y31572D02*
X21692Y31547D01*
X24232D01*
X25857Y29921D01*
Y24587D02*
Y29921D01*
X51029Y46660D02*
X52553Y45136D01*
X56858D01*
X51029Y46660D02*
Y81128D01*
X52515Y82614D02*
X53529D01*
X51029Y81128D02*
X52515Y82614D01*
X53529D02*
X53770Y82855D01*
X53975D01*
X53518Y85154D02*
X54471Y84201D01*
X53975Y82855D02*
X54471Y83350D01*
Y84201D01*
X51804Y85943D02*
Y87541D01*
Y85943D02*
X52592Y85154D01*
X53529D01*
X49238Y89954D02*
X49301Y89891D01*
X45441Y88824D02*
X46850Y87414D01*
Y82055D02*
Y87414D01*
Y82055D02*
X47295Y81611D01*
X37389Y70358D02*
Y72695D01*
X36754Y45575D02*
X37466Y44863D01*
X36754Y45575D02*
Y48412D01*
X41808Y79553D02*
X41808D01*
X40284Y79858D02*
X40988Y80561D01*
X38548Y80026D02*
Y82711D01*
X38202Y79680D02*
X38548Y80026D01*
X41808Y79553D02*
X42901Y80645D01*
X44120Y77089D02*
Y83239D01*
X45314Y79858D02*
Y79883D01*
X55753Y16007D02*
X56286Y16540D01*
X5347Y74689D02*
Y75070D01*
X7732Y63225D02*
Y72303D01*
X5347Y74689D02*
X7732Y72303D01*
Y63225D02*
X8079Y62878D01*
X9569D01*
X9916Y63225D01*
Y64012D01*
X13164Y67259D01*
X14529D01*
X40311Y12368D02*
X41707Y10973D01*
X40311Y12368D02*
Y39300D01*
X37466Y42145D02*
X40311Y39300D01*
X70841Y80442D02*
X71120Y80162D01*
X30188Y37910D02*
X31420Y36678D01*
X32474Y36538D02*
X35255Y33757D01*
X32474Y36538D02*
Y37114D01*
X30772Y38816D02*
X32474Y37114D01*
X45441Y91364D02*
X46850Y89954D01*
X49238D01*
X22022Y54991D02*
Y65049D01*
Y54991D02*
X25425Y51587D01*
X22758Y55745D02*
X26670Y51834D01*
X22758Y55745D02*
Y64821D01*
X22796D01*
X23571Y55905D02*
Y64389D01*
X24359Y56380D02*
Y64008D01*
X23571Y55905D02*
X27762Y51714D01*
X26543Y38943D02*
X27853Y37632D01*
X26543Y38943D02*
Y42189D01*
X8375Y35045D02*
X9449D01*
X6274Y32944D02*
X8375Y35045D01*
X26670Y43383D02*
Y51834D01*
X66878Y82944D02*
X66980Y82842D01*
X66878Y82944D02*
X67018Y83084D01*
Y87541D01*
X68301Y88824D01*
X27538Y81844D02*
X28944Y83249D01*
X27520Y81844D02*
X27538D01*
X30188Y37910D02*
Y41356D01*
X28778Y42766D02*
X30188Y41356D01*
X28778Y42766D02*
Y50973D01*
X28816Y51011D01*
Y51922D01*
X24359Y56380D02*
X28816Y51922D01*
X28944Y87465D02*
X28956Y87477D01*
X28944Y83249D02*
Y87465D01*
X26378Y88303D02*
Y89319D01*
X25641Y87567D02*
X26378Y88303D01*
X24626Y87567D02*
X25641D01*
X27661Y82838D02*
Y83744D01*
X23838Y86779D02*
X24626Y87567D01*
X23838Y85763D02*
Y86779D01*
X23101Y85027D02*
X23838Y85763D01*
X27762Y51486D02*
Y51714D01*
X26670Y43383D02*
X29134Y40919D01*
X20066Y71153D02*
X20625Y71712D01*
X20066Y46533D02*
Y71153D01*
Y46533D02*
X23724Y42875D01*
X20625Y71712D02*
Y82550D01*
X21298Y84239D02*
X22086Y85027D01*
X21298Y83223D02*
Y84239D01*
X20625Y82550D02*
X21298Y83223D01*
X23724Y42875D02*
X25832D01*
X26378Y89319D02*
X26415Y89356D01*
X22086Y85027D02*
X23101D01*
X7595Y79985D02*
X10465D01*
X7391Y80188D02*
X7595Y79985D01*
X7633Y80772D02*
X7837Y80569D01*
X7569Y80772D02*
X7633D01*
X10465Y79985D02*
X11405Y79045D01*
X6198Y80188D02*
X7391D01*
X40988Y80561D02*
Y82612D01*
X24372Y73470D02*
X25121Y74219D01*
Y83744D01*
X22428Y74574D02*
X22581Y74727D01*
Y83744D01*
X19558Y72136D02*
X20041Y72619D01*
Y83744D01*
X16866Y71298D02*
X17501Y71933D01*
X26442Y90145D02*
X27661Y91364D01*
X26442Y89329D02*
Y90145D01*
X45441Y79756D02*
Y83744D01*
X73304Y31725D02*
X79445D01*
X82048Y34328D01*
X82837D01*
X83267Y34759D01*
X75489Y23774D02*
X79629Y27915D01*
Y30429D01*
X80162Y30963D01*
X83221D01*
X83267Y31009D01*
X83922Y24562D02*
Y29870D01*
X84487Y30435D01*
Y33078D01*
X83698D02*
X84487D01*
X83267Y33509D02*
X83698Y33078D01*
X68301Y88824D02*
Y91364D01*
X40932Y47155D02*
X40970Y47117D01*
X37466Y42145D02*
Y44863D01*
X86030Y48506D02*
Y54432D01*
X85187Y55275D02*
X86030Y54432D01*
X83591Y55275D02*
X85187D01*
X70209Y34519D02*
X70866D01*
X50521Y88824D02*
X51804Y87541D01*
X9449Y26899D02*
Y29045D01*
Y26899D02*
X10389Y25959D01*
X12217D01*
X14961Y28702D01*
X7544Y32461D02*
X8033D01*
X9449Y31045D01*
X6071Y36093D02*
X8306Y38329D01*
X67793Y16791D02*
X71400Y13183D01*
X67793Y16791D02*
Y37287D01*
X14961Y28702D02*
Y36474D01*
X8306Y38329D02*
X13919D01*
X14808Y61671D02*
X14910Y64287D01*
X82837Y35189D02*
X83267Y34759D01*
X82294Y35189D02*
X82837D01*
X81204Y36279D02*
X82294Y35189D01*
X81204Y36279D02*
Y38481D01*
X81178Y38506D02*
X81204Y38481D01*
X30201Y91364D02*
X31483D01*
Y90843D02*
Y91364D01*
Y90843D02*
X32246Y90081D01*
X35801D01*
X36538Y89345D01*
Y88303D02*
Y89345D01*
X36474Y88240D02*
X36538Y88303D01*
X36474Y86868D02*
Y88240D01*
Y86868D02*
X36538Y86805D01*
Y82436D02*
Y86805D01*
X35306Y81204D02*
X36538Y82436D01*
X30061Y53805D02*
X30188Y53932D01*
X30061Y42309D02*
Y53805D01*
Y42309D02*
X30772Y41598D01*
Y38816D02*
Y41598D01*
X35255Y33757D02*
X36627D01*
X25857Y42875D02*
X26543Y42189D01*
X6909Y81432D02*
X7569Y80772D01*
X6909Y81432D02*
Y81890D01*
X7837Y80569D02*
X7964Y80696D01*
X12065D01*
X78626Y45072D02*
Y54100D01*
X77724Y44171D02*
X78626Y45072D01*
X75413Y44171D02*
X77724D01*
X74727Y43485D02*
X75413Y44171D01*
X77978Y54747D02*
X78626Y54100D01*
X77978Y54747D02*
X78003Y54773D01*
Y83185D01*
X79756Y71578D02*
Y83947D01*
X79172Y70994D02*
X79756Y71578D01*
X45314Y79883D02*
X45441Y79756D01*
X34679Y81204D02*
X35306D01*
X17501Y75311D02*
Y83744D01*
X17475Y75336D02*
X17501Y75311D01*
X17475Y75336D02*
Y75514D01*
Y71958D02*
Y75514D01*
Y71958D02*
X17501Y71933D01*
X30188Y53932D02*
Y54959D01*
X32741Y88824D02*
X32893D01*
X33871Y87846D01*
Y81870D02*
Y87846D01*
X35373Y57954D02*
X37105Y56223D01*
X30823Y55594D02*
Y60921D01*
X30772Y60972D02*
X30823Y60921D01*
X30772Y60972D02*
Y77297D01*
X34679Y81204D01*
X30188Y54959D02*
X30823Y55594D01*
X27394Y80891D02*
X27762Y81259D01*
X27978Y79718D02*
X28803Y80543D01*
X26810Y81133D02*
X27520Y81844D01*
X26226Y81403D02*
X27661Y82838D01*
X27280Y55931D02*
X27457Y56109D01*
Y78461D01*
X32741Y83744D01*
X24359Y64008D02*
X27000Y66650D01*
Y78650D01*
X27978Y79628D01*
Y79718D01*
X23571Y64389D02*
X26543Y67361D01*
Y78839D01*
X27394Y79690D01*
Y80891D01*
X22796Y64821D02*
X26086Y68111D01*
Y79029D01*
X26810Y79753D01*
Y81133D01*
X22022Y65049D02*
X25629Y68656D01*
Y79218D01*
X26226Y79815D01*
Y81403D01*
X29312Y57607D02*
Y77311D01*
X33871Y81870D01*
X67793Y37287D02*
X72111Y41605D01*
X79129D01*
X34531Y66815D02*
X34671Y66954D01*
X40970Y14326D02*
X43028Y12268D01*
X40970Y14326D02*
Y47117D01*
X43129Y22708D02*
X43891Y21946D01*
X43129Y22708D02*
Y43721D01*
X41923Y56223D02*
X43396Y54750D01*
X43129Y43721D02*
X43396Y43988D01*
Y54750D01*
D20*
X32461Y61671D02*
Y75159D01*
X32512Y75108D02*
X32614D01*
X32461Y75159D02*
X32512Y75108D01*
X66980Y78588D02*
Y82842D01*
X4368Y61671D02*
X14808D01*
D21*
X50063Y81501D02*
X51765Y83203D01*
X49301Y44856D02*
Y89891D01*
Y44856D02*
X53657Y40500D01*
X44145Y83228D02*
Y90119D01*
X51765Y83203D02*
Y85039D01*
X50521Y86284D02*
X51765Y85039D01*
X42901Y80645D02*
Y83744D01*
X27853Y37632D02*
X31623Y33863D01*
X36347Y36779D02*
X37922Y35204D01*
Y30734D02*
Y35204D01*
X28803Y80543D02*
X31039Y82779D01*
Y82822D01*
Y84665D02*
Y85362D01*
Y84665D02*
X31445Y84259D01*
Y83228D02*
Y84259D01*
X31039Y82822D02*
X31445Y83228D01*
X31039Y87205D02*
Y87986D01*
Y87205D02*
X31445Y86799D01*
Y85768D02*
Y86799D01*
X31039Y85362D02*
X31445Y85768D01*
X30201Y88824D02*
X31039Y87986D01*
X27661Y88824D02*
X28982Y87503D01*
X28956Y87477D02*
X28982Y87503D01*
X27762Y81259D02*
X30201Y83698D01*
Y83744D01*
X33147Y38430D02*
X38024D01*
X36551Y29362D02*
X37922Y30734D01*
X38024Y38430D02*
X39243Y37211D01*
Y32182D02*
Y37211D01*
X31648Y29362D02*
X36551D01*
X31587Y33852D02*
X31623Y33863D01*
X42738Y83581D02*
X42901Y83744D01*
X41580Y84963D02*
X42901Y86284D01*
X39040Y84963D02*
X40361Y86284D01*
X31521Y33833D02*
X31587Y33852D01*
X38548Y82711D02*
X39065Y83228D01*
Y84259D01*
X39040Y84285D02*
X39065Y84259D01*
X39040Y84285D02*
Y84963D01*
X41580D02*
X41605Y84937D01*
Y83228D02*
Y84937D01*
X40988Y82612D02*
X41605Y83228D01*
X44138Y83221D02*
X44145Y83228D01*
X35281Y82652D02*
Y83744D01*
X29134Y54534D02*
X30378Y55778D01*
Y60737D01*
X30328Y60787D02*
X30378Y60737D01*
X30328Y60787D02*
Y77699D01*
X35281Y82652D01*
D22*
X3439Y925D02*
G03*
X3439Y924I270J269D01*
G01*
X3464Y899D02*
G03*
X3734Y787I270J269D01*
G01*
X305Y4216D02*
G03*
X417Y3947I381J0D01*
G01*
X305Y4216D02*
G03*
X416Y3947I381J0D01*
G01*
X3464Y899D02*
G03*
X3734Y787I269J269D01*
G01*
X416Y90236D02*
G03*
X305Y89967I269J-269D01*
G01*
X417Y90237D02*
G03*
X305Y89967I269J-270D01*
G01*
X4775Y94437D02*
G03*
X4505Y94325I0J-381D01*
G01*
X4775Y94437D02*
G03*
X4506Y94326I0J-381D01*
G01*
X85700Y787D02*
G03*
X85969Y899I0J381D01*
G01*
X85700Y787D02*
G03*
X85969Y899I0J381D01*
G01*
X90058Y4988D02*
G03*
X90170Y5258I-269J270D01*
G01*
X90058Y4988D02*
G03*
X90170Y5258I-269J269D01*
G01*
X88153Y94376D02*
G03*
X87694Y94437I-269J-269D01*
G01*
X88154Y94376D02*
G03*
X87694Y94437I-270J-269D01*
G01*
X90170Y92202D02*
G03*
X90058Y92471I-381J0D01*
G01*
X90170Y92202D02*
G03*
X90058Y92472I-381J0D01*
G01*
X3464Y899D02*
X3464Y899D01*
X3439Y924D02*
X3464Y899D01*
X3439Y924D02*
X3439Y924D01*
X3439Y925D02*
X3439Y924D01*
X417Y3947D02*
X3439Y925D01*
X416Y3947D02*
X417Y3947D01*
X3734Y787D02*
X84506D01*
X305Y4216D02*
Y89967D01*
X416Y90236D02*
X417Y90237D01*
X4505Y94325D01*
X4506Y94326D01*
X4775Y94437D02*
X4801D01*
X87694D01*
X84506Y787D02*
X85700D01*
X85969Y899D02*
X85969Y899D01*
X90058Y4988D01*
X90058Y4988D01*
X90170Y5258D02*
Y91821D01*
Y92202D01*
X90058Y92472D02*
X90058Y92471D01*
X88154Y94376D02*
X90058Y92472D01*
X88153Y94376D02*
X88154Y94376D01*
D23*
X3439Y924D02*
D03*
D24*
X83591Y55275D02*
D03*
Y54020D02*
D03*
D25*
X83267Y33509D02*
D03*
Y36009D02*
D03*
Y31009D02*
D03*
Y34759D02*
D03*
Y37259D02*
D03*
Y32259D02*
D03*
D26*
X71400Y13183D02*
D03*
X76530D02*
D03*
X66270D02*
D03*
X16561Y19050D02*
D03*
Y12050D02*
D03*
Y15550D02*
D03*
X14910Y64287D02*
D03*
X62332Y36449D02*
D03*
X76632Y21387D02*
D03*
X79934Y40411D02*
D03*
X81178Y38506D02*
D03*
X46025Y32233D02*
D03*
X45491Y38862D02*
D03*
X45669Y34595D02*
D03*
X45187Y40869D02*
D03*
D27*
X36627Y12929D02*
D03*
Y15469D02*
D03*
X79756Y83947D02*
D03*
Y86487D02*
D03*
X38456Y59487D02*
D03*
X40996D02*
D03*
X68580Y80162D02*
D03*
X71120D02*
D03*
X67081Y40208D02*
D03*
X64541D02*
D03*
X14808Y61671D02*
D03*
X17348D02*
D03*
X39853Y67005D02*
D03*
X37313D02*
D03*
X81153Y49911D02*
D03*
Y47371D02*
D03*
X14529Y67259D02*
D03*
X17069D02*
D03*
X14732Y57861D02*
D03*
X17272D02*
D03*
D28*
X39690Y4136D02*
D03*
X48540D02*
D03*
X27437Y4227D02*
D03*
X36287D02*
D03*
D29*
X44740Y7036D02*
D03*
X45990D02*
D03*
X43490D02*
D03*
X42240D02*
D03*
X32487Y7127D02*
D03*
X33737D02*
D03*
X31237D02*
D03*
X29987D02*
D03*
D30*
X60453Y13007D02*
D03*
D31*
X55753Y16007D02*
D03*
Y9957D02*
D03*
D32*
X3899Y26120D02*
D03*
X6159D02*
D03*
X3899Y39970D02*
D03*
X6159D02*
D03*
X9449Y37045D02*
D03*
X11449D02*
D03*
X9449Y35045D02*
D03*
X11449D02*
D03*
X9449Y33045D02*
D03*
X11449D02*
D03*
X9449Y31045D02*
D03*
X11449D02*
D03*
X9449Y29045D02*
D03*
X11449D02*
D03*
D33*
X9169Y5004D02*
D03*
X16789D02*
D03*
X86690Y14453D02*
D03*
X79070D02*
D03*
X86766Y17399D02*
D03*
X79146D02*
D03*
X78969Y20625D02*
D03*
X86589D02*
D03*
X31598Y24714D02*
D03*
X23978D02*
D03*
X31648Y29362D02*
D03*
X24028D02*
D03*
X31623Y33731D02*
D03*
X24003D02*
D03*
X33147Y38430D02*
D03*
X25527D02*
D03*
X39192Y32182D02*
D03*
Y24562D02*
D03*
X39167Y38862D02*
D03*
Y46482D02*
D03*
X36347Y36779D02*
D03*
Y44399D02*
D03*
X34671Y24943D02*
D03*
Y32563D02*
D03*
X64745Y55143D02*
D03*
X58623Y55016D02*
D03*
D34*
X86462Y24562D02*
D03*
X83922D02*
D03*
X21615Y40589D02*
D03*
X20345D02*
D03*
X21615Y36043D02*
D03*
X20345D02*
D03*
X21666Y31572D02*
D03*
X20396D02*
D03*
X21666Y27000D02*
D03*
X20396D02*
D03*
D35*
X85192Y24562D02*
D03*
X19075Y40589D02*
D03*
Y36043D02*
D03*
X19126Y31572D02*
D03*
Y27000D02*
D03*
D36*
X12421Y91364D02*
D03*
Y88824D02*
D03*
Y86284D02*
D03*
Y83744D02*
D03*
X14961Y91364D02*
D03*
Y88824D02*
D03*
Y86284D02*
D03*
Y83744D02*
D03*
X17501Y91364D02*
D03*
Y88824D02*
D03*
Y86284D02*
D03*
Y83744D02*
D03*
X20041Y91364D02*
D03*
Y88824D02*
D03*
Y86284D02*
D03*
Y83744D02*
D03*
X22581Y91364D02*
D03*
Y88824D02*
D03*
Y86284D02*
D03*
Y83744D02*
D03*
X25121Y91364D02*
D03*
Y88824D02*
D03*
Y86284D02*
D03*
Y83744D02*
D03*
X27661Y91364D02*
D03*
Y88824D02*
D03*
Y86284D02*
D03*
Y83744D02*
D03*
X30201Y91364D02*
D03*
Y88824D02*
D03*
Y86284D02*
D03*
Y83744D02*
D03*
X32741Y91364D02*
D03*
Y88824D02*
D03*
Y86284D02*
D03*
Y83744D02*
D03*
X35281Y91364D02*
D03*
Y88824D02*
D03*
Y86284D02*
D03*
Y83744D02*
D03*
X37821Y91364D02*
D03*
Y88824D02*
D03*
X40361Y86284D02*
D03*
Y83744D02*
D03*
Y91364D02*
D03*
Y88824D02*
D03*
X42901Y86284D02*
D03*
Y83744D02*
D03*
Y91364D02*
D03*
Y88824D02*
D03*
X45441Y86284D02*
D03*
Y83744D02*
D03*
Y91364D02*
D03*
Y88824D02*
D03*
X47981Y86284D02*
D03*
Y83744D02*
D03*
Y91364D02*
D03*
Y88824D02*
D03*
X50521Y86284D02*
D03*
Y83744D02*
D03*
Y91364D02*
D03*
Y88824D02*
D03*
X53061Y86284D02*
D03*
Y83744D02*
D03*
Y91364D02*
D03*
Y88824D02*
D03*
X55601Y86284D02*
D03*
Y83744D02*
D03*
Y91364D02*
D03*
Y88824D02*
D03*
X58141Y86284D02*
D03*
Y83744D02*
D03*
Y91364D02*
D03*
Y88824D02*
D03*
X60681Y86284D02*
D03*
Y83744D02*
D03*
Y91364D02*
D03*
Y88824D02*
D03*
X63221Y86284D02*
D03*
Y83744D02*
D03*
Y91364D02*
D03*
Y88824D02*
D03*
X65761Y86284D02*
D03*
Y83744D02*
D03*
Y91364D02*
D03*
Y88824D02*
D03*
X68301Y86284D02*
D03*
Y83744D02*
D03*
Y91364D02*
D03*
Y88824D02*
D03*
X70841Y86284D02*
D03*
Y83744D02*
D03*
Y91364D02*
D03*
Y88824D02*
D03*
X73381Y86284D02*
D03*
Y83744D02*
D03*
Y91364D02*
D03*
Y88824D02*
D03*
X75921Y86284D02*
D03*
Y83744D02*
D03*
Y91364D02*
D03*
Y88824D02*
D03*
X37821Y86284D02*
D03*
Y83744D02*
D03*
D37*
X72034Y23444D02*
D03*
Y20904D02*
D03*
D38*
Y18364D02*
D03*
D39*
X8651Y15550D02*
D03*
D40*
X28397Y10516D02*
D03*
X30937Y20752D02*
D03*
X32614Y75108D02*
D03*
X56858Y45136D02*
D03*
X37389Y70358D02*
D03*
X36754Y48412D02*
D03*
X41808Y79553D02*
D03*
X40284Y79858D02*
D03*
X38202Y79680D02*
D03*
X45314Y79858D02*
D03*
X53696Y40386D02*
D03*
X45009Y69672D02*
D03*
X18263Y51308D02*
D03*
X5156Y74879D02*
D03*
X46101Y10490D02*
D03*
X47650Y22174D02*
D03*
X41707Y10973D02*
D03*
X43028Y12268D02*
D03*
X31420Y36678D02*
D03*
X35636Y59690D02*
D03*
X9398Y55702D02*
D03*
X32461Y61671D02*
D03*
X66980Y78588D02*
D03*
X4064Y61976D02*
D03*
X11582Y75387D02*
D03*
X29134Y54534D02*
D03*
X27280Y55931D02*
D03*
X27762Y51486D02*
D03*
X25425Y51587D02*
D03*
X11405Y79045D02*
D03*
X19558Y72136D02*
D03*
X16866Y71298D02*
D03*
X22428Y74574D02*
D03*
X24372Y73470D02*
D03*
X5232Y73101D02*
D03*
X6198Y80188D02*
D03*
X83896Y60808D02*
D03*
Y69926D02*
D03*
X83972Y76124D02*
D03*
X24968Y41732D02*
D03*
X29134Y40919D02*
D03*
X84171Y64994D02*
D03*
X73304Y31725D02*
D03*
X75489Y23774D02*
D03*
X31115Y52972D02*
D03*
X40970Y47117D02*
D03*
X70866Y34519D02*
D03*
X6071Y36093D02*
D03*
X7544Y32461D02*
D03*
X9931Y24867D02*
D03*
X13919Y38329D02*
D03*
X36627Y33757D02*
D03*
X5232Y66040D02*
D03*
X6909Y81890D02*
D03*
X12065Y80696D02*
D03*
X60960Y20625D02*
D03*
X74727Y43485D02*
D03*
X78003Y83185D02*
D03*
X79172Y70994D02*
D03*
X32131Y77165D02*
D03*
X37389Y72695D02*
D03*
X17475Y75514D02*
D03*
X22581Y76860D02*
D03*
X43891Y21946D02*
D03*
X29312Y57607D02*
D03*
X34671Y66954D02*
D03*
X66802Y42469D02*
D03*
X35585Y57556D02*
D03*
X50241Y42418D02*
D03*
X42342Y44425D02*
D03*
X44450Y44374D02*
D03*
D41*
X3526Y5479D02*
D03*
X83526D02*
D03*
X81026Y91179D02*
D03*
X7326D02*
D03*
M02*
