G04 Layer_Physical_Order=1*
G04 Layer_Color=255*
%FSLAX43Y43*%
%MOMM*%
G71*
G01*
G75*
%ADD10R,3.000X2.100*%
%ADD11R,1.600X0.800*%
%ADD12O,1.600X0.600*%
%ADD13O,1.500X0.550*%
%ADD14R,2.400X3.300*%
%ADD15R,0.559X2.184*%
%ADD16R,0.559X0.610*%
%ADD17R,0.610X0.559*%
%ADD18C,0.508*%
%ADD19C,0.330*%
%ADD20C,0.559*%
%ADD21C,0.305*%
%ADD22C,0.762*%
%ADD23C,0.762*%
%ADD24C,0.750*%
%ADD25C,1.000*%
%ADD26C,1.524*%
%ADD27C,1.600*%
%ADD28R,2.100X3.000*%
%ADD29R,0.800X1.600*%
%ADD30R,1.100X3.600*%
%ADD31R,3.600X1.100*%
%ADD32C,1.220*%
%ADD33C,1.400*%
%ADD34O,1.000X2.000*%
%ADD35O,1.000X2.000*%
%ADD36C,1.676*%
%ADD37C,1.200*%
%ADD38R,1.200X1.200*%
%ADD39C,4.000*%
%ADD40C,1.270*%
%ADD41C,5.000*%
D10*
X4142Y46305D02*
D03*
Y56405D02*
D03*
D11*
X7042Y48855D02*
D03*
Y50105D02*
D03*
Y51355D02*
D03*
Y52605D02*
D03*
Y53855D02*
D03*
D12*
X8824Y63470D02*
D03*
Y64470D02*
D03*
Y65470D02*
D03*
Y66470D02*
D03*
Y67470D02*
D03*
Y68470D02*
D03*
Y69470D02*
D03*
Y70470D02*
D03*
Y71470D02*
D03*
Y72470D02*
D03*
Y73470D02*
D03*
Y74470D02*
D03*
Y75470D02*
D03*
Y76470D02*
D03*
Y77470D02*
D03*
X3124D02*
D03*
Y76470D02*
D03*
Y75470D02*
D03*
Y74470D02*
D03*
Y73470D02*
D03*
Y72470D02*
D03*
Y71470D02*
D03*
Y70470D02*
D03*
Y69470D02*
D03*
Y68470D02*
D03*
Y67470D02*
D03*
Y66470D02*
D03*
Y65470D02*
D03*
Y64470D02*
D03*
Y63470D02*
D03*
X81331Y59994D02*
D03*
Y60994D02*
D03*
Y61994D02*
D03*
Y62994D02*
D03*
Y63994D02*
D03*
Y64994D02*
D03*
Y65994D02*
D03*
Y66994D02*
D03*
Y67994D02*
D03*
Y68994D02*
D03*
Y69994D02*
D03*
Y70994D02*
D03*
Y71994D02*
D03*
Y72994D02*
D03*
Y73994D02*
D03*
Y74994D02*
D03*
Y75994D02*
D03*
Y76994D02*
D03*
Y77994D02*
D03*
Y78994D02*
D03*
X87031D02*
D03*
Y77994D02*
D03*
Y76994D02*
D03*
Y75994D02*
D03*
Y74994D02*
D03*
Y73994D02*
D03*
Y72994D02*
D03*
Y71994D02*
D03*
Y70994D02*
D03*
Y69994D02*
D03*
Y68994D02*
D03*
Y67994D02*
D03*
Y66994D02*
D03*
Y65994D02*
D03*
Y64994D02*
D03*
Y63994D02*
D03*
Y62994D02*
D03*
Y61994D02*
D03*
Y60994D02*
D03*
Y59994D02*
D03*
D13*
X75921Y29743D02*
D03*
Y28473D02*
D03*
Y27203D02*
D03*
Y25933D02*
D03*
X81321Y29743D02*
D03*
Y28473D02*
D03*
Y27203D02*
D03*
Y25933D02*
D03*
D14*
X22255Y15900D02*
D03*
X29205D02*
D03*
X26141Y20752D02*
D03*
X33091D02*
D03*
X15524Y45441D02*
D03*
X22474D02*
D03*
X15524Y50444D02*
D03*
X22474D02*
D03*
D15*
X72720Y34747D02*
D03*
X73990D02*
D03*
X75260D02*
D03*
X76530D02*
D03*
Y39472D02*
D03*
X75260D02*
D03*
X73990D02*
D03*
X72720D02*
D03*
D16*
X30366Y10744D02*
D03*
X31204D02*
D03*
D17*
X31242Y8649D02*
D03*
Y9487D02*
D03*
D18*
X32461Y61671D02*
X44501D01*
X45999Y60173D01*
Y41834D02*
Y60173D01*
Y41834D02*
X48514Y39319D01*
Y30505D02*
Y39319D01*
X44958Y69672D02*
X48031Y66599D01*
Y43002D02*
Y66599D01*
Y43002D02*
X50419Y40615D01*
Y24943D02*
Y40615D01*
X47650Y22174D02*
X50419Y24943D01*
X30059Y12050D02*
X48514Y30505D01*
X16561Y12050D02*
X30059D01*
X24186Y22708D02*
X26129Y20764D01*
X22611Y17221D02*
X26141Y20752D01*
X20142Y22708D02*
X24186D01*
X13746D02*
X20142D01*
X11449Y25005D02*
X13746Y22708D01*
X41580Y20625D02*
X60960D01*
X36627Y15672D02*
X41580Y20625D01*
X34671Y66954D02*
X37262D01*
X7493Y59538D02*
X35636D01*
X11449Y25005D02*
Y35045D01*
X32131Y77165D02*
X44450D01*
X47473Y80188D01*
X68580D01*
X50317Y42469D02*
X66802D01*
X29079Y52972D02*
X31115D01*
X17399Y50444D02*
X18263Y51308D01*
X15524Y50444D02*
X17399D01*
X11449Y35045D02*
X12776Y36373D01*
Y42692D01*
X15524Y45441D02*
Y50444D01*
X12776Y42692D02*
X15524Y45441D01*
X46101Y7331D02*
Y10490D01*
X45898Y7128D02*
X46101Y7331D01*
X6452Y60579D02*
X7493Y59538D01*
X81973Y70994D02*
X85808Y74828D01*
X86055Y74904D02*
X86941D01*
X85979Y74828D02*
X86055Y74904D01*
X85808Y74828D02*
X85979D01*
X3124Y62915D02*
X4064Y61976D01*
X3124Y62915D02*
Y64470D01*
X81331Y64994D02*
X84171D01*
X76924Y90081D02*
X79756Y87249D01*
X53696Y40386D02*
X64541D01*
X86941Y74904D02*
X87031Y74994D01*
X84171Y64994D02*
X85547Y66421D01*
Y68783D01*
X85758Y68994D01*
X87031D01*
X28305Y53746D02*
X29079Y52972D01*
X7042Y48855D02*
X9967D01*
X14859Y53746D01*
X28305D01*
X3124Y70470D02*
X4384D01*
X6452Y60579D02*
Y68402D01*
X4384Y70470D02*
X6452Y68402D01*
X3124Y69470D02*
Y70470D01*
X33737Y7127D02*
Y10038D01*
X36627Y12929D01*
X79172Y70994D02*
X81973D01*
X17069Y67259D02*
X34366D01*
X34671Y66954D01*
X42342Y44425D02*
X44399D01*
D19*
X31204Y10744D02*
Y12103D01*
X29121Y10744D02*
X30366D01*
X29987Y7127D02*
Y10365D01*
X30366Y10744D01*
X31204Y9525D02*
X31242Y9487D01*
X31204Y9525D02*
Y10744D01*
X31237Y7127D02*
Y8636D01*
X41046Y21946D02*
X43891D01*
X31204Y12103D02*
X41046Y21946D01*
X28892Y10516D02*
X29121Y10744D01*
X28397Y10516D02*
X28892D01*
X33091Y20752D02*
X33091Y20752D01*
X30937Y20752D02*
X33091D01*
X29561Y16104D02*
Y22662D01*
X22611Y16104D02*
Y17221D01*
X26129Y20764D02*
X26141Y20752D01*
X36627Y15469D02*
Y15672D01*
X37262Y66954D02*
X37313Y67005D01*
X38252Y59690D02*
X38456Y59487D01*
X35636Y59690D02*
X38252D01*
X3526Y5479D02*
X9169D01*
X21138Y36521D02*
X21615Y36043D01*
X21138Y36521D02*
Y36871D01*
X19680Y38329D02*
X21138Y36871D01*
X13919Y38329D02*
X19680D01*
X21138Y41067D02*
X21615Y40589D01*
X21138Y41067D02*
Y41417D01*
X20422Y42133D02*
X21138Y41417D01*
X20422Y42133D02*
Y43764D01*
X21666Y27000D02*
X25222D01*
X29561Y22662D01*
X37765Y78626D02*
X39053D01*
X37576Y78169D02*
X40437D01*
Y78181D02*
X41808Y79553D01*
X43167Y77711D02*
X45314Y79858D01*
X37386Y77711D02*
X43167D01*
X76238Y45136D02*
X76479Y44895D01*
X56858Y45136D02*
X76238D01*
X36886Y70714D02*
X37389Y70211D01*
X33960Y70714D02*
X36886D01*
X37580Y71425D02*
X78112D01*
X37530Y71476D02*
X37580Y71425D01*
X33990Y71476D02*
X37530D01*
X38202Y71882D02*
X77881D01*
X37363Y72720D02*
X38202Y71882D01*
X33533Y71933D02*
X33990Y71476D01*
X70409Y72796D02*
X80289Y82677D01*
X39424Y72796D02*
X70409D01*
X71120Y72339D02*
X81001Y82220D01*
X39235Y72339D02*
X71120D01*
X77881Y71882D02*
X80586Y74586D01*
X78112Y71425D02*
X80273Y73586D01*
X17475Y75514D02*
X21877D01*
X21992Y75629D01*
X22865D01*
X22979Y75514D01*
X23818D01*
X26231Y73101D01*
X39053Y78626D02*
X40284Y79858D01*
X38151Y79731D02*
X38202Y79680D01*
X37257Y79134D02*
X37765Y78626D01*
X11493Y79134D02*
X37257D01*
X37068Y78676D02*
X37576Y78169D01*
X12527Y78676D02*
X37068D01*
X36878Y78219D02*
X37386Y77711D01*
X12716Y78219D02*
X36878D01*
X10922Y81890D02*
X61366D01*
X36690Y87414D02*
X76389D01*
X5155Y74878D02*
X5156Y74879D01*
X3532Y74878D02*
X5155D01*
X3124Y74470D02*
X3532Y74878D01*
X3124Y73470D02*
Y74470D01*
X44653Y6807D02*
Y10541D01*
X46253Y12141D01*
X53569D02*
X55753Y9957D01*
X46253Y12141D02*
X53569D01*
X41707Y7569D02*
Y10973D01*
Y7569D02*
X42240Y7036D01*
X43028Y12268D02*
X43490Y11806D01*
Y7036D02*
Y11806D01*
X67081Y40208D02*
X67856Y40983D01*
X64541Y38659D02*
Y40208D01*
X9415Y24867D02*
X9931D01*
X8420Y25862D02*
X9415Y24867D01*
X73419Y39916D02*
X73863Y39472D01*
X73419Y39916D02*
Y40737D01*
X73173Y40983D02*
X73419Y40737D01*
X67856Y40983D02*
X73173D01*
X8420Y25862D02*
Y31472D01*
X9449Y32501D01*
X72466Y32377D02*
Y34493D01*
X72250Y32161D02*
X72466Y32377D01*
X72250Y31288D02*
Y32161D01*
Y31288D02*
X72466Y31072D01*
Y25051D02*
Y31072D01*
Y34493D02*
X72720Y34747D01*
X72466Y25051D02*
X73053Y24463D01*
X8824Y75470D02*
X11500D01*
X11582Y75387D01*
X37160Y35230D02*
X38506Y36576D01*
Y38202D01*
X8996Y71298D02*
X16866D01*
X9675Y72136D02*
X16213D01*
X8824Y73470D02*
X24372D01*
X7290Y78257D02*
X10922Y81890D01*
X17518Y72136D02*
X19558D01*
X17302Y72352D02*
X17518Y72136D01*
X16429Y72352D02*
X17302D01*
X16213Y72136D02*
X16429Y72352D01*
X9622Y72189D02*
X9675Y72136D01*
X9105Y72189D02*
X9622D01*
X8824Y72470D02*
X9105Y72189D01*
X8824Y71470D02*
X8996Y71298D01*
X4272Y73101D02*
X5232D01*
X3922Y72751D02*
X4272Y73101D01*
X3405Y72751D02*
X3922D01*
X3124Y72470D02*
X3405Y72751D01*
X5232Y72949D02*
Y73101D01*
X4853Y66470D02*
X4978Y66345D01*
X3124Y66470D02*
X4853D01*
X3124Y65470D02*
Y66470D01*
Y68470D01*
Y71470D02*
Y72470D01*
X5613Y79604D02*
X6198Y80188D01*
X4343Y77172D02*
Y80569D01*
X12967Y84976D02*
X12967D01*
X12941Y85001D02*
X12967Y84976D01*
X12967D02*
X13005Y85014D01*
X11900Y85001D02*
X12941D01*
X11163Y84265D02*
X11900Y85001D01*
X11163Y83223D02*
Y84265D01*
Y83223D02*
X11189Y83198D01*
Y83198D02*
Y83198D01*
X6706Y78715D02*
X11189Y83198D01*
X6706Y70274D02*
Y78715D01*
X7290Y70942D02*
Y78257D01*
X5613Y77442D02*
Y79604D01*
X3922Y75751D02*
X5613Y77442D01*
X3405Y75751D02*
X3922D01*
X3124Y75470D02*
X3405Y75751D01*
X3124Y76751D02*
X3922D01*
X4343Y77172D01*
X3124Y76470D02*
Y76751D01*
X20396Y26470D02*
Y27000D01*
Y26470D02*
X22127Y24740D01*
X22181D01*
X20396Y31042D02*
Y31572D01*
Y31042D02*
X22076Y29362D01*
X22130D01*
X20345Y40589D02*
X20696Y40238D01*
Y39708D02*
Y40238D01*
Y39708D02*
X22102Y38303D01*
X22155D01*
X7510Y69470D02*
X8824D01*
X7762Y70470D02*
X8824D01*
X7290Y70942D02*
X7762Y70470D01*
X6706Y70274D02*
X7510Y69470D01*
X33998Y86284D02*
X35281D01*
X33998D02*
Y86805D01*
X33261Y87541D02*
X33998Y86805D01*
X3124Y77470D02*
Y80493D01*
X10172Y87541D01*
X33261D01*
X86766Y14529D02*
Y17399D01*
X86690Y14453D02*
X86766Y14529D01*
X86589Y20625D02*
Y22889D01*
X88087Y24387D01*
Y29682D01*
X87841Y29928D02*
X88087Y29682D01*
X86912Y29928D02*
X87841D01*
X84581Y32259D02*
X86912Y29928D01*
X83267Y32259D02*
X84581D01*
X86111Y24211D02*
X86462Y24562D01*
X86111Y23237D02*
Y24211D01*
X85352Y22479D02*
X86111Y23237D01*
X82508Y22479D02*
X85352D01*
X77090Y27897D02*
X82508Y22479D01*
X76496Y27897D02*
X77090D01*
X75921Y28473D02*
X76496Y27897D01*
X75734Y25933D02*
X75921D01*
X74752Y26916D02*
X75734Y25933D01*
X74752Y26916D02*
Y30032D01*
X75959Y31239D01*
Y34176D01*
X75921Y27203D02*
X76107D01*
X78969Y24342D01*
Y20625D02*
Y24342D01*
Y17577D02*
Y20625D01*
Y17577D02*
X79146Y17399D01*
X79070Y14453D02*
Y15740D01*
X80266Y16935D01*
Y20236D01*
X82508Y22479D01*
X72034Y20904D02*
Y22003D01*
X73053Y23022D01*
Y24463D01*
X72034Y23444D02*
Y24656D01*
X76530Y39472D02*
X76835Y39776D01*
X77673D01*
X78511Y38938D01*
Y35052D02*
Y38938D01*
X73419Y34176D02*
X73990Y34747D01*
X73419Y33367D02*
Y34176D01*
X73304Y33253D02*
X73419Y33367D01*
X73304Y31725D02*
Y33253D01*
X74689Y34176D02*
X75260Y34747D01*
X74689Y31275D02*
Y34176D01*
X74016Y30602D02*
X74689Y31275D01*
X74016Y25248D02*
Y30602D01*
Y25248D02*
X75489Y23774D01*
X81305Y32259D02*
X83267D01*
X75959Y34176D02*
X76645Y34411D01*
X78511Y35052D01*
X84841Y24913D02*
X85192Y24562D01*
X84841Y24913D02*
Y25981D01*
X83772D02*
X84841D01*
X82550Y27203D02*
X83772Y25981D01*
X81321Y27203D02*
X82550D01*
X42901Y88824D02*
X44183D01*
Y89345D01*
X44920Y90081D01*
X76924D01*
X79756Y86487D02*
Y87249D01*
X69723Y26968D02*
X72034Y24656D01*
X69723Y26968D02*
Y36474D01*
X72720Y39472D01*
X70866Y34519D02*
Y35992D01*
X72835Y37960D01*
X73173D01*
X73863Y38650D01*
Y39472D01*
X6071Y33934D02*
Y36093D01*
Y33934D02*
X7544Y32461D01*
X4877Y66243D02*
X4978Y66345D01*
X62332Y36449D02*
X64541Y38659D01*
X78511Y35052D02*
X81305Y32259D01*
X75489Y22174D02*
Y23774D01*
Y22174D02*
X76632Y21387D01*
X82837Y33939D02*
X83267Y33509D01*
X82294Y33939D02*
X82837D01*
X79781Y36452D02*
X82294Y33939D01*
X79781Y36452D02*
X79934Y40411D01*
X36627Y26899D02*
Y33757D01*
X34671Y24943D02*
X36627Y26899D01*
X39167Y38862D02*
X45491D01*
X45491Y38862D01*
X38506Y38202D02*
X39167Y38862D01*
X36627Y33757D02*
X44831D01*
X45669Y34595D01*
X36347Y36779D02*
Y40081D01*
X37135Y40869D01*
X45187D01*
X9449Y32501D02*
Y33045D01*
X8824Y76470D02*
X9105Y76751D01*
X9622D01*
X4877Y66243D02*
X5080Y66040D01*
X5232D01*
X5664Y81890D02*
X6909D01*
X4343Y80569D02*
X5664Y81890D01*
X12065Y80620D02*
Y80696D01*
X45974Y32182D02*
X46025Y32233D01*
X39192Y32182D02*
X45974D01*
X15372Y79642D02*
X15461Y79731D01*
X38151D01*
X13043Y79642D02*
X15372D01*
X12065Y80620D02*
X13043Y79642D01*
X45898Y7128D02*
X45990Y7036D01*
X35281Y88824D02*
X36690Y87414D01*
X76389D02*
X76452Y87351D01*
X77724D01*
X77953Y87122D01*
Y83185D02*
Y87122D01*
X76479Y39522D02*
Y44895D01*
Y39522D02*
X76530Y39472D01*
X74727Y40005D02*
Y43485D01*
Y40005D02*
X75260Y39472D01*
X87031Y78994D02*
Y81803D01*
X86157Y82677D02*
X87031Y81803D01*
X86623Y78402D02*
X87031Y77994D01*
X86286Y78402D02*
X86623D01*
X85827Y78861D02*
X86286Y78402D01*
X85827Y78861D02*
Y80442D01*
X84049Y82220D02*
X85827Y80442D01*
X81001Y82220D02*
X84049D01*
X8824Y77470D02*
X10170Y78816D01*
X10351Y78636D01*
Y78608D02*
Y78636D01*
X10968Y77991D02*
X11841D01*
X9622Y76751D02*
X10592Y77720D01*
X10779Y77534D02*
X12031D01*
X10351Y78608D02*
X10968Y77991D01*
X10592Y77720D02*
X10592D01*
X10779Y77534D01*
X11405Y79045D02*
X11493Y79134D01*
X12031Y77534D02*
X12716Y78219D01*
X11841Y77991D02*
X12527Y78676D01*
X80273Y73586D02*
X80923D01*
X81331Y73994D01*
X24372Y73470D02*
X25909Y71933D01*
X33533D01*
X80923Y74586D02*
X81331Y74994D01*
X80586Y74586D02*
X80923D01*
X33299Y71374D02*
X33960Y70714D01*
X20320Y71374D02*
X33299D01*
X19558Y72136D02*
X20320Y71374D01*
X80289Y82677D02*
X86157D01*
X37825Y73749D02*
X39235Y72339D01*
X36952Y73749D02*
X37825D01*
X36304Y73101D02*
X36952Y73749D01*
X26231Y73101D02*
X36304D01*
X22187Y74333D02*
X22428Y74574D01*
X8824Y74470D02*
X8961Y74333D01*
X22187D01*
X38015Y74206D02*
X39424Y72796D01*
X36763Y74206D02*
X38015D01*
X36115Y73558D02*
X36763Y74206D01*
X26467Y73558D02*
X36115D01*
X22581Y76860D02*
X23165D01*
X26467Y73558D01*
X29312Y57607D02*
X29362Y57556D01*
X35585D01*
X44399Y44425D02*
X44450Y44374D01*
X81153Y64816D02*
X81331Y64994D01*
X81153Y64586D02*
Y64816D01*
X80586Y64586D02*
X81153D01*
X80239Y64239D02*
X80586Y64586D01*
X80239Y59402D02*
Y64239D01*
Y59402D02*
X81153Y58488D01*
Y49911D02*
Y58488D01*
D20*
X44094Y75108D02*
X47574Y78588D01*
X32614Y75108D02*
X44094D01*
X47574Y78588D02*
X66980D01*
X17348Y61671D02*
X32461D01*
D21*
X25425Y51587D02*
X29642Y47371D01*
X31039Y48362D02*
X36703D01*
X36754Y48412D01*
X29642Y47371D02*
X37185D01*
X37403Y47588D02*
X39625D01*
X37185Y47371D02*
X37403Y47588D01*
X13005Y85014D02*
X64491D01*
X61366Y81890D02*
X63221Y83744D01*
X31420Y36678D02*
X36246Y36678D01*
X20422Y43764D02*
Y48392D01*
X7551Y53855D02*
X9398Y55702D01*
X82733Y65994D02*
X83972Y67234D01*
X81331Y65994D02*
X82733D01*
X83972Y67234D02*
Y69994D01*
X11703Y55778D02*
X27457D01*
X11249Y54534D02*
X29185D01*
X27915Y51486D02*
X31039Y48362D01*
X27762Y51486D02*
X27915D01*
X34290Y35230D02*
X37160D01*
X32791Y33731D02*
X34290Y35230D01*
X30658Y40919D02*
X33147Y38430D01*
X31623Y33731D02*
X32791D01*
X85890Y73861D02*
X87031Y73994D01*
X83828Y71255D02*
X85890Y73861D01*
X83828Y69994D02*
Y71255D01*
X22155Y38303D02*
X25527D01*
X20345Y35567D02*
X20709Y35203D01*
Y35167D02*
Y35203D01*
Y35167D02*
X21240Y34636D01*
X21276D01*
X22028Y33884D01*
X20345Y35567D02*
Y36043D01*
X8070Y51355D02*
X11249Y54534D01*
X7042Y51355D02*
X8070D01*
X8529Y52605D02*
X11703Y55778D01*
X64491Y85014D02*
X65761Y83744D01*
X83083Y59994D02*
X83896Y60808D01*
X81331Y59994D02*
X83083D01*
X83828Y69994D02*
X83972D01*
X81331D02*
X83828D01*
X83843Y75994D02*
X83972Y76124D01*
X81331Y75994D02*
X83843D01*
X7042Y53855D02*
X7551D01*
X34442Y24714D02*
X34671Y24943D01*
X31598Y24714D02*
X34442D01*
X22181Y24740D02*
X23305D01*
X22130Y29362D02*
X24028D01*
X7042Y52605D02*
X8529D01*
X22474Y44226D02*
X24968Y41732D01*
X31521Y33833D02*
X31623Y33731D01*
X29134Y40919D02*
X30658D01*
X22028Y33884D02*
X24003D01*
X83972Y69994D02*
X87031D01*
X39625Y47588D02*
X40096Y47117D01*
X40970D01*
X20422Y48392D02*
X22474Y50444D01*
D22*
X3439Y925D02*
G03*
X3439Y924I270J269D01*
G01*
X3464Y899D02*
G03*
X3734Y787I270J269D01*
G01*
X305Y4216D02*
G03*
X417Y3947I381J0D01*
G01*
X305Y4216D02*
G03*
X416Y3947I381J0D01*
G01*
X3464Y899D02*
G03*
X3734Y787I269J269D01*
G01*
X416Y90236D02*
G03*
X305Y89967I269J-269D01*
G01*
X417Y90237D02*
G03*
X305Y89967I269J-270D01*
G01*
X4775Y94437D02*
G03*
X4505Y94325I0J-381D01*
G01*
X4775Y94437D02*
G03*
X4506Y94326I0J-381D01*
G01*
X85700Y787D02*
G03*
X85969Y899I0J381D01*
G01*
X85700Y787D02*
G03*
X85969Y899I0J381D01*
G01*
X90058Y4988D02*
G03*
X90170Y5258I-269J270D01*
G01*
X90058Y4988D02*
G03*
X90170Y5258I-269J269D01*
G01*
X88153Y94376D02*
G03*
X87694Y94437I-269J-269D01*
G01*
X88154Y94376D02*
G03*
X87694Y94437I-270J-269D01*
G01*
X90170Y92202D02*
G03*
X90058Y92471I-381J0D01*
G01*
X90170Y92202D02*
G03*
X90058Y92472I-381J0D01*
G01*
X3464Y899D02*
X3464Y899D01*
X3439Y924D02*
X3464Y899D01*
X3439Y924D02*
X3439Y924D01*
X3439Y925D02*
X3439Y924D01*
X417Y3947D02*
X3439Y925D01*
X416Y3947D02*
X417Y3947D01*
X3734Y787D02*
X84506D01*
X305Y4216D02*
Y89967D01*
X416Y90236D02*
X417Y90237D01*
X4505Y94325D01*
X4506Y94326D01*
X4775Y94437D02*
X4801D01*
X87694D01*
X84506Y787D02*
X85700D01*
X85969Y899D02*
X85969Y899D01*
X90058Y4988D01*
X90058Y4988D01*
X90170Y5258D02*
Y91821D01*
Y92202D01*
X90058Y92472D02*
X90058Y92471D01*
X88154Y94376D02*
X90058Y92472D01*
X88153Y94376D02*
X88154Y94376D01*
D23*
X3439Y924D02*
D03*
D24*
X83591Y55275D02*
D03*
Y54020D02*
D03*
D25*
X83267Y33509D02*
D03*
Y36009D02*
D03*
Y31009D02*
D03*
Y34759D02*
D03*
Y37259D02*
D03*
Y32259D02*
D03*
D26*
X71400Y13183D02*
D03*
X76530D02*
D03*
X66270D02*
D03*
X16561Y19050D02*
D03*
Y12050D02*
D03*
Y15550D02*
D03*
X14910Y64287D02*
D03*
X62332Y36449D02*
D03*
X76632Y21387D02*
D03*
X79934Y40411D02*
D03*
X81178Y38506D02*
D03*
X46025Y32233D02*
D03*
X45491Y38862D02*
D03*
X45669Y34595D02*
D03*
X45187Y40869D02*
D03*
D27*
X36627Y12929D02*
D03*
Y15469D02*
D03*
X79756Y83947D02*
D03*
Y86487D02*
D03*
X38456Y59487D02*
D03*
X40996D02*
D03*
X68580Y80162D02*
D03*
X71120D02*
D03*
X67081Y40208D02*
D03*
X64541D02*
D03*
X14808Y61671D02*
D03*
X17348D02*
D03*
X39853Y67005D02*
D03*
X37313D02*
D03*
X81153Y49911D02*
D03*
Y47371D02*
D03*
X14529Y67259D02*
D03*
X17069D02*
D03*
X14732Y57861D02*
D03*
X17272D02*
D03*
D28*
X39690Y4136D02*
D03*
X48540D02*
D03*
X27437Y4227D02*
D03*
X36287D02*
D03*
D29*
X44740Y7036D02*
D03*
X45990D02*
D03*
X43490D02*
D03*
X42240D02*
D03*
X32487Y7127D02*
D03*
X33737D02*
D03*
X31237D02*
D03*
X29987D02*
D03*
D30*
X60453Y13007D02*
D03*
D31*
X55753Y16007D02*
D03*
Y9957D02*
D03*
D32*
X3899Y26120D02*
D03*
X6159D02*
D03*
X3899Y39970D02*
D03*
X6159D02*
D03*
X9449Y37045D02*
D03*
X11449D02*
D03*
X9449Y35045D02*
D03*
X11449D02*
D03*
X9449Y33045D02*
D03*
X11449D02*
D03*
X9449Y31045D02*
D03*
X11449D02*
D03*
X9449Y29045D02*
D03*
X11449D02*
D03*
D33*
X9169Y5004D02*
D03*
X16789D02*
D03*
X86690Y14453D02*
D03*
X79070D02*
D03*
X86766Y17399D02*
D03*
X79146D02*
D03*
X78969Y20625D02*
D03*
X86589D02*
D03*
X31598Y24714D02*
D03*
X23978D02*
D03*
X31648Y29362D02*
D03*
X24028D02*
D03*
X31623Y33731D02*
D03*
X24003D02*
D03*
X33147Y38430D02*
D03*
X25527D02*
D03*
X39192Y32182D02*
D03*
Y24562D02*
D03*
X39167Y38862D02*
D03*
Y46482D02*
D03*
X36347Y36779D02*
D03*
Y44399D02*
D03*
X34671Y24943D02*
D03*
Y32563D02*
D03*
X64745Y55143D02*
D03*
X58623Y55016D02*
D03*
D34*
X86462Y24562D02*
D03*
X83922D02*
D03*
X21615Y40589D02*
D03*
X20345D02*
D03*
X21615Y36043D02*
D03*
X20345D02*
D03*
X21666Y31572D02*
D03*
X20396D02*
D03*
X21666Y27000D02*
D03*
X20396D02*
D03*
D35*
X85192Y24562D02*
D03*
X19075Y40589D02*
D03*
Y36043D02*
D03*
X19126Y31572D02*
D03*
Y27000D02*
D03*
D36*
X12421Y91364D02*
D03*
Y88824D02*
D03*
Y86284D02*
D03*
Y83744D02*
D03*
X14961Y91364D02*
D03*
Y88824D02*
D03*
Y86284D02*
D03*
Y83744D02*
D03*
X17501Y91364D02*
D03*
Y88824D02*
D03*
Y86284D02*
D03*
Y83744D02*
D03*
X20041Y91364D02*
D03*
Y88824D02*
D03*
Y86284D02*
D03*
Y83744D02*
D03*
X22581Y91364D02*
D03*
Y88824D02*
D03*
Y86284D02*
D03*
Y83744D02*
D03*
X25121Y91364D02*
D03*
Y88824D02*
D03*
Y86284D02*
D03*
Y83744D02*
D03*
X27661Y91364D02*
D03*
Y88824D02*
D03*
Y86284D02*
D03*
Y83744D02*
D03*
X30201Y91364D02*
D03*
Y88824D02*
D03*
Y86284D02*
D03*
Y83744D02*
D03*
X32741Y91364D02*
D03*
Y88824D02*
D03*
Y86284D02*
D03*
Y83744D02*
D03*
X35281Y91364D02*
D03*
Y88824D02*
D03*
Y86284D02*
D03*
Y83744D02*
D03*
X37821Y91364D02*
D03*
Y88824D02*
D03*
X40361Y86284D02*
D03*
Y83744D02*
D03*
Y91364D02*
D03*
Y88824D02*
D03*
X42901Y86284D02*
D03*
Y83744D02*
D03*
Y91364D02*
D03*
Y88824D02*
D03*
X45441Y86284D02*
D03*
Y83744D02*
D03*
Y91364D02*
D03*
Y88824D02*
D03*
X47981Y86284D02*
D03*
Y83744D02*
D03*
Y91364D02*
D03*
Y88824D02*
D03*
X50521Y86284D02*
D03*
Y83744D02*
D03*
Y91364D02*
D03*
Y88824D02*
D03*
X53061Y86284D02*
D03*
Y83744D02*
D03*
Y91364D02*
D03*
Y88824D02*
D03*
X55601Y86284D02*
D03*
Y83744D02*
D03*
Y91364D02*
D03*
Y88824D02*
D03*
X58141Y86284D02*
D03*
Y83744D02*
D03*
Y91364D02*
D03*
Y88824D02*
D03*
X60681Y86284D02*
D03*
Y83744D02*
D03*
Y91364D02*
D03*
Y88824D02*
D03*
X63221Y86284D02*
D03*
Y83744D02*
D03*
Y91364D02*
D03*
Y88824D02*
D03*
X65761Y86284D02*
D03*
Y83744D02*
D03*
Y91364D02*
D03*
Y88824D02*
D03*
X68301Y86284D02*
D03*
Y83744D02*
D03*
Y91364D02*
D03*
Y88824D02*
D03*
X70841Y86284D02*
D03*
Y83744D02*
D03*
Y91364D02*
D03*
Y88824D02*
D03*
X73381Y86284D02*
D03*
Y83744D02*
D03*
Y91364D02*
D03*
Y88824D02*
D03*
X75921Y86284D02*
D03*
Y83744D02*
D03*
Y91364D02*
D03*
Y88824D02*
D03*
X37821Y86284D02*
D03*
Y83744D02*
D03*
D37*
X72034Y23444D02*
D03*
Y20904D02*
D03*
D38*
Y18364D02*
D03*
D39*
X8651Y15550D02*
D03*
D40*
X28397Y10516D02*
D03*
X30937Y20752D02*
D03*
X32614Y75108D02*
D03*
X56858Y45136D02*
D03*
X37389Y70358D02*
D03*
X36754Y48412D02*
D03*
X41808Y79553D02*
D03*
X40284Y79858D02*
D03*
X38202Y79680D02*
D03*
X45314Y79858D02*
D03*
X53696Y40386D02*
D03*
X45009Y69672D02*
D03*
X18263Y51308D02*
D03*
X5156Y74879D02*
D03*
X46101Y10490D02*
D03*
X47650Y22174D02*
D03*
X41707Y10973D02*
D03*
X43028Y12268D02*
D03*
X31420Y36678D02*
D03*
X35636Y59690D02*
D03*
X9398Y55702D02*
D03*
X32461Y61671D02*
D03*
X66980Y78588D02*
D03*
X4064Y61976D02*
D03*
X11582Y75387D02*
D03*
X29134Y54534D02*
D03*
X27280Y55931D02*
D03*
X27762Y51486D02*
D03*
X25425Y51587D02*
D03*
X11405Y79045D02*
D03*
X19558Y72136D02*
D03*
X16866Y71298D02*
D03*
X22428Y74574D02*
D03*
X24372Y73470D02*
D03*
X5232Y73101D02*
D03*
X6198Y80188D02*
D03*
X83896Y60808D02*
D03*
Y69926D02*
D03*
X83972Y76124D02*
D03*
X24968Y41732D02*
D03*
X29134Y40919D02*
D03*
X84171Y64994D02*
D03*
X73304Y31725D02*
D03*
X75489Y23774D02*
D03*
X31115Y52972D02*
D03*
X40970Y47117D02*
D03*
X70866Y34519D02*
D03*
X6071Y36093D02*
D03*
X7544Y32461D02*
D03*
X9931Y24867D02*
D03*
X13919Y38329D02*
D03*
X36627Y33757D02*
D03*
X5232Y66040D02*
D03*
X6909Y81890D02*
D03*
X12065Y80696D02*
D03*
X60960Y20625D02*
D03*
X74727Y43485D02*
D03*
X78003Y83185D02*
D03*
X79172Y70994D02*
D03*
X32131Y77165D02*
D03*
X37389Y72695D02*
D03*
X17475Y75514D02*
D03*
X22581Y76860D02*
D03*
X43891Y21946D02*
D03*
X29312Y57607D02*
D03*
X34671Y66954D02*
D03*
X66802Y42469D02*
D03*
X35585Y57556D02*
D03*
X50241Y42418D02*
D03*
X42342Y44425D02*
D03*
X44450Y44374D02*
D03*
D41*
X3526Y5479D02*
D03*
X83526D02*
D03*
X81026Y91179D02*
D03*
X7326D02*
D03*
M02*
