G04 Layer_Color=8388736*
%FSLAX25Y25*%
%MOIN*%
G70*
G01*
G75*
%ADD35R,0.04343X0.03950*%
%ADD36R,0.03950X0.04343*%
%ADD37R,0.07099X0.12611*%
%ADD38R,0.23635X0.25210*%
G04:AMPARAMS|DCode=39|XSize=29.65mil|YSize=57.21mil|CornerRadius=5.95mil|HoleSize=0mil|Usage=FLASHONLY|Rotation=270.000|XOffset=0mil|YOffset=0mil|HoleType=Round|Shape=RoundedRectangle|*
%AMROUNDEDRECTD39*
21,1,0.02965,0.04532,0,0,270.0*
21,1,0.01776,0.05721,0,0,270.0*
1,1,0.01190,-0.02266,-0.00888*
1,1,0.01190,-0.02266,0.00888*
1,1,0.01190,0.02266,0.00888*
1,1,0.01190,0.02266,-0.00888*
%
%ADD39ROUNDEDRECTD39*%
%ADD40R,0.03005X0.02847*%
%ADD41R,0.04343X0.03950*%
%ADD42R,0.07493X0.04540*%
%ADD43R,0.07493X0.07493*%
%ADD44C,0.07493*%
%ADD45R,0.07493X0.07493*%
%ADD46C,0.06800*%
%ADD47C,0.07296*%
%ADD48R,0.08674X0.08674*%
%ADD49C,0.08674*%
%ADD50C,0.06312*%
%ADD51R,0.08674X0.08674*%
%ADD52C,0.05800*%
D35*
X133858Y299016D02*
D03*
Y291535D02*
D03*
X141732Y295276D02*
D03*
D36*
X281693Y173228D02*
D03*
X289173D02*
D03*
X285433Y181102D02*
D03*
D37*
X156654Y225197D02*
D03*
X138622D02*
D03*
X284606Y313779D02*
D03*
X266575D02*
D03*
D38*
X147638Y196850D02*
D03*
X275591Y285433D02*
D03*
D39*
X266240Y169665D02*
D03*
Y174665D02*
D03*
Y179665D02*
D03*
Y184665D02*
D03*
X245571Y169665D02*
D03*
Y174665D02*
D03*
Y179665D02*
D03*
Y184665D02*
D03*
D40*
X205197Y118110D02*
D03*
X208189D02*
D03*
D41*
X223610Y165224D02*
D03*
Y170146D02*
D03*
D42*
X196850Y182677D02*
D03*
Y171654D02*
D03*
D43*
X157323Y118110D02*
D03*
D44*
X167323D02*
D03*
X177323D02*
D03*
X187323D02*
D03*
X265748Y236220D02*
D03*
Y246220D02*
D03*
Y256220D02*
D03*
D45*
Y226220D02*
D03*
D46*
X305118Y334646D02*
D03*
Y98425D02*
D03*
X127953D02*
D03*
Y334646D02*
D03*
D47*
X184240Y207055D02*
D03*
Y242488D02*
D03*
D48*
X216535Y276496D02*
D03*
X236220Y276496D02*
D03*
D49*
X216535Y235315D02*
D03*
X236220Y235315D02*
D03*
X235315Y127953D02*
D03*
D50*
X157480Y275591D02*
D03*
Y245591D02*
D03*
Y172480D02*
D03*
Y142480D02*
D03*
X181850Y324803D02*
D03*
X211850D02*
D03*
X181850Y305118D02*
D03*
X211850D02*
D03*
X221220Y108268D02*
D03*
X251220D02*
D03*
X270905Y147638D02*
D03*
X240905D02*
D03*
X270905Y206693D02*
D03*
X240905D02*
D03*
D51*
X276496Y127953D02*
D03*
D52*
X233300Y169665D02*
D03*
M02*
