G04 Layer_Physical_Order=1*
G04 Layer_Color=255*
%FSLAX25Y25*%
%MOIN*%
G70*
G01*
G75*
%ADD10R,0.03543X0.03150*%
%ADD11R,0.03150X0.03543*%
%ADD12R,0.06299X0.11811*%
%ADD13R,0.22835X0.24410*%
G04:AMPARAMS|DCode=14|XSize=21.65mil|YSize=49.21mil|CornerRadius=1.95mil|HoleSize=0mil|Usage=FLASHONLY|Rotation=270.000|XOffset=0mil|YOffset=0mil|HoleType=Round|Shape=RoundedRectangle|*
%AMROUNDEDRECTD14*
21,1,0.02165,0.04532,0,0,270.0*
21,1,0.01776,0.04921,0,0,270.0*
1,1,0.00390,-0.02266,-0.00888*
1,1,0.00390,-0.02266,0.00888*
1,1,0.00390,0.02266,0.00888*
1,1,0.00390,0.02266,-0.00888*
%
%ADD14ROUNDEDRECTD14*%
%ADD15R,0.02205X0.02047*%
%ADD16R,0.03543X0.03150*%
%ADD17R,0.06693X0.03740*%
%ADD18C,0.01000*%
%ADD19R,0.06693X0.06693*%
%ADD20C,0.06693*%
%ADD21R,0.06693X0.06693*%
%ADD22C,0.06000*%
%ADD23C,0.06496*%
%ADD24R,0.07874X0.07874*%
%ADD25C,0.07874*%
%ADD26C,0.05512*%
%ADD27R,0.07874X0.07874*%
%ADD28C,0.05000*%
D10*
X133858Y299016D02*
D03*
Y291535D02*
D03*
X141732Y295276D02*
D03*
D11*
X281693Y173228D02*
D03*
X289173D02*
D03*
X285433Y181102D02*
D03*
D12*
X156654Y225197D02*
D03*
X138622D02*
D03*
X284606Y313779D02*
D03*
X266575D02*
D03*
D13*
X147638Y196850D02*
D03*
X275591Y285433D02*
D03*
D14*
X266240Y169665D02*
D03*
Y174665D02*
D03*
Y179665D02*
D03*
Y184665D02*
D03*
X245571Y169665D02*
D03*
Y174665D02*
D03*
Y179665D02*
D03*
Y184665D02*
D03*
D15*
X205197Y118110D02*
D03*
X208189D02*
D03*
D16*
X223610Y165224D02*
D03*
Y170146D02*
D03*
D17*
X196850Y182677D02*
D03*
Y171654D02*
D03*
D18*
X222712Y179665D02*
X242235D01*
X238890Y174665D02*
X245571D01*
X252924Y165224D02*
X261576D01*
X270905Y189331D02*
Y206693D01*
X266240Y184665D02*
X270905Y189331D01*
X233300Y169665D02*
X245571D01*
X220512Y313779D02*
X266575D01*
X211850Y305118D02*
X220512Y313779D01*
X266240Y179665D02*
X269765D01*
X275200Y185100D01*
Y236600D01*
X270500Y241300D02*
X275200Y236600D01*
X263600Y241300D02*
X270500D01*
X260900Y244000D02*
X263600Y241300D01*
X260900Y244000D02*
Y250000D01*
X262100Y251200D01*
X268300D01*
X270595Y253495D01*
Y259005D01*
X268500Y261100D02*
X270595Y259005D01*
X172990Y261100D02*
X268500D01*
X157480Y245591D02*
X172990Y261100D01*
X156654Y219000D02*
Y225197D01*
X142600Y218000D02*
X156654Y219000D01*
X134700Y210100D02*
X142600Y218000D01*
X134700Y184000D02*
Y210100D01*
Y184000D02*
X146220Y172480D01*
X157480D01*
X279421Y313779D02*
X284606D01*
X268397Y324803D02*
X279421Y313779D01*
X211850Y324803D02*
X268397D01*
X133858Y296300D02*
Y299016D01*
Y296300D02*
X135700D01*
X138000Y294000D01*
Y284000D02*
Y294000D01*
Y284000D02*
X146409Y275591D01*
X157480D01*
X281693Y133150D02*
Y173228D01*
X276496Y127953D02*
X281693Y133150D01*
X167166Y127953D02*
X235315D01*
X157323Y118110D02*
X167166Y127953D01*
X257365Y169665D02*
X266240D01*
X252924Y165224D02*
X257365Y169665D01*
X223610Y165224D02*
X252924D01*
X138622Y217300D02*
Y225197D01*
X132700Y211378D02*
X138622Y217300D01*
X132700Y142733D02*
Y211378D01*
Y142733D02*
X157323Y118110D01*
X179300Y171654D02*
X196850D01*
X153200Y145554D02*
X179300Y171654D01*
X153200Y138200D02*
Y145554D01*
Y138200D02*
X157323Y134077D01*
Y118110D02*
Y134077D01*
X245157Y285433D02*
X275591D01*
X236220Y276496D02*
X245157Y285433D01*
X147638Y196850D02*
X174035D01*
X184240Y207055D01*
X219700Y182677D02*
X222712Y179665D01*
X196850Y182677D02*
X219700D01*
X270905Y127953D02*
X276496D01*
X251220Y108268D02*
X270905Y127953D01*
X191414Y235315D02*
X216535D01*
X184240Y242488D02*
X191414Y235315D01*
X275591Y254259D02*
Y285433D01*
X270500Y249168D02*
X275591Y254259D01*
X268696Y249168D02*
X270500D01*
X265748Y246220D02*
X268696Y249168D01*
X237304Y176251D02*
X238890Y174665D01*
X224086Y176251D02*
X237304D01*
X220300Y172465D02*
X224086Y176251D01*
X220300Y160300D02*
Y172465D01*
Y160300D02*
X222500Y158100D01*
X260443D01*
X270905Y147638D01*
X208189Y118110D02*
X211378D01*
X221220Y108268D01*
X227820Y256220D02*
X265748D01*
X226400Y254800D02*
X227820Y256220D01*
X226400Y232200D02*
Y254800D01*
X201255Y207055D02*
X226400Y232200D01*
X184240Y207055D02*
X201255D01*
X266240Y174665D02*
X271700D01*
X278137Y181102D01*
X285433D01*
X235315Y127953D02*
X259714D01*
X275161Y143400D01*
Y151639D01*
X261576Y165224D02*
X275161Y151639D01*
X141732Y295276D02*
X172008D01*
X181850Y305118D01*
X242235Y179665D02*
X245571D01*
X240905Y180995D02*
X242235Y179665D01*
X240905Y180995D02*
Y206693D01*
X202990Y118110D02*
X205197D01*
X198100Y123000D02*
X202990Y118110D01*
X172213Y123000D02*
X198100D01*
X167323Y118110D02*
X172213Y123000D01*
X251406Y236220D02*
X265748D01*
X250500Y235315D02*
X251406Y236220D01*
X236220Y235315D02*
X250500D01*
X255900Y174665D02*
X266240D01*
X245571D02*
X255900D01*
X245571D02*
Y179665D01*
X133858Y260664D02*
Y291535D01*
Y260664D02*
X138622Y255900D01*
Y225197D02*
Y255900D01*
X266240Y169665D02*
X270265D01*
X277600Y177000D01*
X283528D01*
X287300Y173228D01*
X289173D01*
X226300Y276496D02*
X236220D01*
X226300Y276496D02*
X226300Y276496D01*
X216535Y276496D02*
X226300D01*
D19*
X157323Y118110D02*
D03*
D20*
X167323D02*
D03*
X177323D02*
D03*
X187323D02*
D03*
X265748Y236220D02*
D03*
Y246220D02*
D03*
Y256220D02*
D03*
D21*
Y226220D02*
D03*
D22*
X305118Y334646D02*
D03*
Y98425D02*
D03*
X127953D02*
D03*
Y334646D02*
D03*
D23*
X184240Y207055D02*
D03*
Y242488D02*
D03*
D24*
X216535Y276496D02*
D03*
X236220Y276496D02*
D03*
D25*
X216535Y235315D02*
D03*
X236220Y235315D02*
D03*
X235315Y127953D02*
D03*
D26*
X157480Y275591D02*
D03*
Y245591D02*
D03*
Y172480D02*
D03*
Y142480D02*
D03*
X181850Y324803D02*
D03*
X211850D02*
D03*
X181850Y305118D02*
D03*
X211850D02*
D03*
X221220Y108268D02*
D03*
X251220D02*
D03*
X270905Y147638D02*
D03*
X240905D02*
D03*
X270905Y206693D02*
D03*
X240905D02*
D03*
D27*
X276496Y127953D02*
D03*
D28*
X233300Y169665D02*
D03*
M02*
