G04 Layer_Color=16711935*
%FSLAX25Y25*%
%MOIN*%
G70*
G01*
G75*
%ADD43R,0.07493X0.07493*%
%ADD44C,0.07493*%
%ADD45R,0.07493X0.07493*%
%ADD46C,0.06800*%
%ADD47C,0.07296*%
%ADD48R,0.08674X0.08674*%
%ADD49C,0.08674*%
%ADD50C,0.06312*%
%ADD51R,0.08674X0.08674*%
%ADD52C,0.05800*%
D43*
X157323Y118110D02*
D03*
D44*
X167323D02*
D03*
X177323D02*
D03*
X187323D02*
D03*
X265748Y236220D02*
D03*
Y246220D02*
D03*
Y256220D02*
D03*
D45*
Y226220D02*
D03*
D46*
X305118Y334646D02*
D03*
Y98425D02*
D03*
X127953D02*
D03*
Y334646D02*
D03*
D47*
X184240Y207055D02*
D03*
Y242488D02*
D03*
D48*
X216535Y276496D02*
D03*
X236220Y276496D02*
D03*
D49*
X216535Y235315D02*
D03*
X236220Y235315D02*
D03*
X235315Y127953D02*
D03*
D50*
X157480Y275591D02*
D03*
Y245591D02*
D03*
Y172480D02*
D03*
Y142480D02*
D03*
X181850Y324803D02*
D03*
X211850D02*
D03*
X181850Y305118D02*
D03*
X211850D02*
D03*
X221220Y108268D02*
D03*
X251220D02*
D03*
X270905Y147638D02*
D03*
X240905D02*
D03*
X270905Y206693D02*
D03*
X240905D02*
D03*
D51*
X276496Y127953D02*
D03*
D52*
X233300Y169665D02*
D03*
M02*
