G04 Layer_Color=0*
%FSLAX25Y25*%
%MOIN*%
G70*
G01*
G75*
%ADD55C,0.00500*%
%ADD56C,0.00200*%
%ADD57C,0.00700*%
D55*
X577000Y-228000D02*
Y-208000D01*
X544500D02*
Y-148000D01*
X754500Y-208000D02*
Y-148000D01*
X394500Y-208000D02*
Y-88000D01*
X844500Y-208000D02*
Y-88000D01*
X544500D02*
X844500D01*
X544500Y-148000D02*
Y-88000D01*
X394500D02*
X544500D01*
X394500Y-148000D02*
X844500D01*
X394500Y-178000D02*
X844500D01*
X394500Y-208000D02*
X844500D01*
X394500Y-118000D02*
X544500D01*
X254500Y-88000D02*
X394500D01*
X254500Y-208000D02*
Y-88000D01*
Y-208000D02*
X394500D01*
X289500Y-228000D02*
Y-208000D01*
X2000Y-228000D02*
Y-208000D01*
X-285500Y-38000D02*
X-265500D01*
X-285500Y152000D02*
X-265500D01*
X-285500Y342000D02*
X-265500D01*
X-285500Y-228000D02*
Y532000D01*
X844500Y-38000D02*
X864500D01*
X406390Y165496D02*
X426390D01*
X844500Y342000D02*
X864500D01*
X577000Y512000D02*
Y532000D01*
X289500Y512000D02*
Y532000D01*
X2000Y512000D02*
Y532000D01*
X-265500Y512000D02*
X844500D01*
Y-208000D02*
Y512000D01*
X-265500Y-208000D02*
X844500D01*
X-265500D02*
Y512000D01*
X-285500Y532000D02*
X864500D01*
Y-228000D02*
Y532000D01*
X-285500Y-228000D02*
X864500D01*
X762499Y-184144D02*
X762071Y-183715D01*
X761428Y-183501D01*
X760571D01*
X759929Y-183715D01*
X759500Y-184144D01*
Y-184572D01*
X759714Y-185001D01*
X759929Y-185215D01*
X760357Y-185429D01*
X761642Y-185858D01*
X762071Y-186072D01*
X762285Y-186286D01*
X762499Y-186715D01*
Y-187357D01*
X762071Y-187786D01*
X761428Y-188000D01*
X760571D01*
X759929Y-187786D01*
X759500Y-187357D01*
X766720Y-184572D02*
X766506Y-184144D01*
X766077Y-183715D01*
X765649Y-183501D01*
X764792D01*
X764363Y-183715D01*
X763935Y-184144D01*
X763721Y-184572D01*
X763506Y-185215D01*
Y-186286D01*
X763721Y-186929D01*
X763935Y-187357D01*
X764363Y-187786D01*
X764792Y-188000D01*
X765649D01*
X766077Y-187786D01*
X766506Y-187357D01*
X766720Y-186929D01*
X771412Y-188000D02*
X769698Y-183501D01*
X767984Y-188000D01*
X768627Y-186500D02*
X770769D01*
X772462Y-183501D02*
Y-188000D01*
X775032D01*
X778310Y-183501D02*
X775525D01*
Y-188000D01*
X778310D01*
X775525Y-185643D02*
X777239D01*
X779274Y-185001D02*
X779060Y-185215D01*
X779274Y-185429D01*
X779489Y-185215D01*
X779274Y-185001D01*
Y-187572D02*
X779060Y-187786D01*
X779274Y-188000D01*
X779489Y-187786D01*
X779274Y-187572D01*
X399500Y-183501D02*
Y-188000D01*
Y-183501D02*
X402285D01*
X399500Y-185643D02*
X401214D01*
X402799Y-183501D02*
Y-188000D01*
X403742Y-183501D02*
Y-188000D01*
X406313D01*
X409591Y-183501D02*
X406806D01*
Y-188000D01*
X409591D01*
X406806Y-185643D02*
X408520D01*
X413875Y-183501D02*
Y-188000D01*
Y-183501D02*
X416875Y-188000D01*
Y-183501D02*
Y-188000D01*
X421545D02*
X419831Y-183501D01*
X418118Y-188000D01*
X418760Y-186500D02*
X420903D01*
X422595Y-183501D02*
Y-188000D01*
Y-183501D02*
X424309Y-188000D01*
X426023Y-183501D02*
X424309Y-188000D01*
X426023Y-183501D02*
Y-188000D01*
X430093Y-183501D02*
X427308D01*
Y-188000D01*
X430093D01*
X427308Y-185643D02*
X429022D01*
X431058Y-185001D02*
X430843Y-185215D01*
X431058Y-185429D01*
X431272Y-185215D01*
X431058Y-185001D01*
Y-187572D02*
X430843Y-187786D01*
X431058Y-188000D01*
X431272Y-187786D01*
X431058Y-187572D01*
X399500Y-125358D02*
X401428D01*
X402071Y-125143D01*
X402285Y-124929D01*
X402499Y-124501D01*
Y-123858D01*
X402285Y-123429D01*
X402071Y-123215D01*
X401428Y-123001D01*
X399500D01*
Y-127500D01*
X406720Y-124072D02*
X406506Y-123644D01*
X406077Y-123215D01*
X405649Y-123001D01*
X404792D01*
X404363Y-123215D01*
X403935Y-123644D01*
X403721Y-124072D01*
X403506Y-124715D01*
Y-125786D01*
X403721Y-126429D01*
X403935Y-126857D01*
X404363Y-127286D01*
X404792Y-127500D01*
X405649D01*
X406077Y-127286D01*
X406506Y-126857D01*
X406720Y-126429D01*
X407984Y-123001D02*
Y-127500D01*
Y-123001D02*
X409912D01*
X410555Y-123215D01*
X410769Y-123429D01*
X410983Y-123858D01*
Y-124286D01*
X410769Y-124715D01*
X410555Y-124929D01*
X409912Y-125143D01*
X407984D02*
X409912D01*
X410555Y-125358D01*
X410769Y-125572D01*
X410983Y-126000D01*
Y-126643D01*
X410769Y-127071D01*
X410555Y-127286D01*
X409912Y-127500D01*
X407984D01*
X415525Y-123001D02*
Y-127500D01*
Y-123001D02*
X417025D01*
X417667Y-123215D01*
X418096Y-123644D01*
X418310Y-124072D01*
X418525Y-124715D01*
Y-125786D01*
X418310Y-126429D01*
X418096Y-126857D01*
X417667Y-127286D01*
X417025Y-127500D01*
X415525D01*
X422317Y-123001D02*
X419531D01*
Y-127500D01*
X422317D01*
X419531Y-125143D02*
X421245D01*
X426066Y-123644D02*
X425637Y-123215D01*
X424995Y-123001D01*
X424138D01*
X423495Y-123215D01*
X423066Y-123644D01*
Y-124072D01*
X423281Y-124501D01*
X423495Y-124715D01*
X423923Y-124929D01*
X425209Y-125358D01*
X425637Y-125572D01*
X425851Y-125786D01*
X426066Y-126215D01*
Y-126857D01*
X425637Y-127286D01*
X424995Y-127500D01*
X424138D01*
X423495Y-127286D01*
X423066Y-126857D01*
X427073Y-123001D02*
Y-127500D01*
X431229Y-124072D02*
X431015Y-123644D01*
X430586Y-123215D01*
X430158Y-123001D01*
X429301D01*
X428872Y-123215D01*
X428444Y-123644D01*
X428230Y-124072D01*
X428015Y-124715D01*
Y-125786D01*
X428230Y-126429D01*
X428444Y-126857D01*
X428872Y-127286D01*
X429301Y-127500D01*
X430158D01*
X430586Y-127286D01*
X431015Y-126857D01*
X431229Y-126429D01*
Y-125786D01*
X430158D02*
X431229D01*
X432257Y-123001D02*
Y-127500D01*
Y-123001D02*
X435257Y-127500D01*
Y-123001D02*
Y-127500D01*
X439284Y-123001D02*
X436499D01*
Y-127500D01*
X439284D01*
X436499Y-125143D02*
X438213D01*
X440034Y-123001D02*
Y-127500D01*
Y-123001D02*
X441962D01*
X442605Y-123215D01*
X442819Y-123429D01*
X443034Y-123858D01*
Y-124286D01*
X442819Y-124715D01*
X442605Y-124929D01*
X441962Y-125143D01*
X440034D01*
X441534D02*
X443034Y-127500D01*
X444255Y-124501D02*
X444040Y-124715D01*
X444255Y-124929D01*
X444469Y-124715D01*
X444255Y-124501D01*
Y-127071D02*
X444040Y-127286D01*
X444255Y-127500D01*
X444469Y-127286D01*
X444255Y-127071D01*
X551000Y-93501D02*
Y-98000D01*
X549500Y-93501D02*
X552499D01*
X553035D02*
Y-98000D01*
X555477Y-93501D02*
Y-98000D01*
X553978Y-93501D02*
X556977D01*
X557513D02*
Y-98000D01*
X560083D01*
X563361Y-93501D02*
X560576D01*
Y-98000D01*
X563361D01*
X560576Y-95643D02*
X562290D01*
X564325Y-95001D02*
X564111Y-95215D01*
X564325Y-95429D01*
X564540Y-95215D01*
X564325Y-95001D01*
Y-97571D02*
X564111Y-97786D01*
X564325Y-98000D01*
X564540Y-97786D01*
X564325Y-97571D01*
X549500Y-155858D02*
X551428D01*
X552071Y-155643D01*
X552285Y-155429D01*
X552499Y-155001D01*
Y-154358D01*
X552285Y-153929D01*
X552071Y-153715D01*
X551428Y-153501D01*
X549500D01*
Y-158000D01*
X556934D02*
X555220Y-153501D01*
X553506Y-158000D01*
X554149Y-156500D02*
X556291D01*
X557984Y-153501D02*
Y-158000D01*
Y-153501D02*
X559912D01*
X560555Y-153715D01*
X560769Y-153929D01*
X560983Y-154358D01*
Y-154786D01*
X560769Y-155215D01*
X560555Y-155429D01*
X559912Y-155643D01*
X557984D01*
X559484D02*
X560983Y-158000D01*
X563490Y-153501D02*
Y-158000D01*
X561990Y-153501D02*
X564990D01*
X569060D02*
Y-158000D01*
Y-153501D02*
X572059Y-158000D01*
Y-153501D02*
Y-158000D01*
X574587Y-153501D02*
X574159Y-153715D01*
X573731Y-154144D01*
X573516Y-154572D01*
X573302Y-155215D01*
Y-156286D01*
X573516Y-156929D01*
X573731Y-157357D01*
X574159Y-157786D01*
X574587Y-158000D01*
X575444D01*
X575873Y-157786D01*
X576301Y-157357D01*
X576516Y-156929D01*
X576730Y-156286D01*
Y-155215D01*
X576516Y-154572D01*
X576301Y-154144D01*
X575873Y-153715D01*
X575444Y-153501D01*
X574587D01*
X577994Y-157571D02*
X577780Y-157786D01*
X577994Y-158000D01*
X578208Y-157786D01*
X577994Y-157571D01*
X579408Y-155001D02*
X579194Y-155215D01*
X579408Y-155429D01*
X579622Y-155215D01*
X579408Y-155001D01*
Y-157571D02*
X579194Y-157786D01*
X579408Y-158000D01*
X579622Y-157786D01*
X579408Y-157571D01*
X402285Y-93501D02*
X399500D01*
Y-98000D01*
X402285D01*
X399500Y-95643D02*
X401214D01*
X403035Y-93501D02*
Y-98000D01*
Y-93501D02*
X406034Y-98000D01*
Y-93501D02*
Y-98000D01*
X410491Y-94572D02*
X410276Y-94144D01*
X409848Y-93715D01*
X409419Y-93501D01*
X408562D01*
X408134Y-93715D01*
X407705Y-94144D01*
X407491Y-94572D01*
X407277Y-95215D01*
Y-96286D01*
X407491Y-96929D01*
X407705Y-97357D01*
X408134Y-97786D01*
X408562Y-98000D01*
X409419D01*
X409848Y-97786D01*
X410276Y-97357D01*
X410491Y-96929D01*
Y-96286D01*
X409419D02*
X410491D01*
X411519Y-93501D02*
Y-98000D01*
X412462Y-93501D02*
Y-98000D01*
Y-93501D02*
X415461Y-98000D01*
Y-93501D02*
Y-98000D01*
X419489Y-93501D02*
X416704D01*
Y-98000D01*
X419489D01*
X416704Y-95643D02*
X418417D01*
X423024Y-93501D02*
X420238D01*
Y-98000D01*
X423024D01*
X420238Y-95643D02*
X421952D01*
X423773Y-93501D02*
Y-98000D01*
Y-93501D02*
X425702D01*
X426344Y-93715D01*
X426558Y-93929D01*
X426773Y-94358D01*
Y-94786D01*
X426558Y-95215D01*
X426344Y-95429D01*
X425702Y-95643D01*
X423773D01*
X425273D02*
X426773Y-98000D01*
X427994Y-95001D02*
X427780Y-95215D01*
X427994Y-95429D01*
X428208Y-95215D01*
X427994Y-95001D01*
Y-97571D02*
X427780Y-97786D01*
X427994Y-98000D01*
X428208Y-97786D01*
X427994Y-97571D01*
X549500Y-183501D02*
Y-188000D01*
Y-183501D02*
X551000D01*
X551642Y-183715D01*
X552071Y-184144D01*
X552285Y-184572D01*
X552499Y-185215D01*
Y-186286D01*
X552285Y-186929D01*
X552071Y-187357D01*
X551642Y-187786D01*
X551000Y-188000D01*
X549500D01*
X553506Y-183501D02*
X554577Y-188000D01*
X555649Y-183501D02*
X554577Y-188000D01*
X555649Y-183501D02*
X556720Y-188000D01*
X557791Y-183501D02*
X556720Y-188000D01*
X561904Y-184572D02*
X561690Y-184144D01*
X561262Y-183715D01*
X560833Y-183501D01*
X559976D01*
X559548Y-183715D01*
X559119Y-184144D01*
X558905Y-184572D01*
X558691Y-185215D01*
Y-186286D01*
X558905Y-186929D01*
X559119Y-187357D01*
X559548Y-187786D01*
X559976Y-188000D01*
X560833D01*
X561262Y-187786D01*
X561690Y-187357D01*
X561904Y-186929D01*
Y-186286D01*
X560833D02*
X561904D01*
X566468Y-183501D02*
Y-188000D01*
Y-183501D02*
X569467Y-188000D01*
Y-183501D02*
Y-188000D01*
X571995Y-183501D02*
X571567Y-183715D01*
X571138Y-184144D01*
X570924Y-184572D01*
X570710Y-185215D01*
Y-186286D01*
X570924Y-186929D01*
X571138Y-187357D01*
X571567Y-187786D01*
X571995Y-188000D01*
X572852D01*
X573281Y-187786D01*
X573709Y-187357D01*
X573923Y-186929D01*
X574138Y-186286D01*
Y-185215D01*
X573923Y-184572D01*
X573709Y-184144D01*
X573281Y-183715D01*
X572852Y-183501D01*
X571995D01*
X575402Y-185001D02*
X575187Y-185215D01*
X575402Y-185429D01*
X575616Y-185215D01*
X575402Y-185001D01*
Y-187572D02*
X575187Y-187786D01*
X575402Y-188000D01*
X575616Y-187786D01*
X575402Y-187572D01*
X759500Y-153501D02*
Y-158000D01*
Y-153501D02*
X761428D01*
X762071Y-153715D01*
X762285Y-153929D01*
X762499Y-154358D01*
Y-154786D01*
X762285Y-155215D01*
X762071Y-155429D01*
X761428Y-155643D01*
X759500D01*
X761000D02*
X762499Y-158000D01*
X766291Y-153501D02*
X763506D01*
Y-158000D01*
X766291D01*
X763506Y-155643D02*
X765220D01*
X767041Y-153501D02*
X768755Y-158000D01*
X770469Y-153501D02*
X768755Y-158000D01*
X771262Y-155001D02*
X771047Y-155215D01*
X771262Y-155429D01*
X771476Y-155215D01*
X771262Y-155001D01*
Y-157571D02*
X771047Y-157786D01*
X771262Y-158000D01*
X771476Y-157786D01*
X771262Y-157571D01*
X399500Y-153501D02*
Y-158000D01*
Y-153501D02*
X401000D01*
X401642Y-153715D01*
X402071Y-154144D01*
X402285Y-154572D01*
X402499Y-155215D01*
Y-156286D01*
X402285Y-156929D01*
X402071Y-157357D01*
X401642Y-157786D01*
X401000Y-158000D01*
X399500D01*
X406934D02*
X405220Y-153501D01*
X403506Y-158000D01*
X404149Y-156500D02*
X406291D01*
X409484Y-153501D02*
Y-158000D01*
X407984Y-153501D02*
X410983D01*
X414304D02*
X411519D01*
Y-158000D01*
X414304D01*
X411519Y-155643D02*
X413233D01*
X415268Y-155001D02*
X415054Y-155215D01*
X415268Y-155429D01*
X415482Y-155215D01*
X415268Y-155001D01*
Y-157571D02*
X415054Y-157786D01*
X415268Y-158000D01*
X415482Y-157786D01*
X415268Y-157571D01*
D56*
X276600Y-97000D02*
X384000D01*
X275400Y-97200D02*
X384000D01*
X274800Y-97400D02*
X384000D01*
X274200Y-97600D02*
X384000D01*
X273600Y-97800D02*
X384000D01*
X273200Y-98000D02*
X384000D01*
X272800Y-98200D02*
X384000D01*
X272400Y-98400D02*
X384000D01*
X272000Y-98600D02*
X384000D01*
X271600Y-98800D02*
X384000D01*
X271400Y-99000D02*
X384000D01*
X271000Y-99200D02*
X384000D01*
X270800Y-99400D02*
X384000D01*
X270600Y-99600D02*
X384000D01*
X270400Y-99800D02*
X384000D01*
X270000Y-100000D02*
X384000D01*
X269800Y-100200D02*
X384000D01*
X269600Y-100400D02*
X384000D01*
X269400Y-100600D02*
X384000D01*
X269200Y-100800D02*
X384000D01*
X269000Y-101000D02*
X384000D01*
X269000Y-101200D02*
X384000D01*
X268800Y-101400D02*
X384000D01*
X268600Y-101600D02*
X384000D01*
X268400Y-101800D02*
X384000D01*
X268200Y-102000D02*
X384000D01*
X268200Y-102200D02*
X384000D01*
X268000Y-102400D02*
X384000D01*
X267800Y-102600D02*
X384000D01*
X267600Y-102800D02*
X384000D01*
X267600Y-103000D02*
X384000D01*
X267400Y-103200D02*
X384000D01*
X267400Y-103400D02*
X384000D01*
X267200Y-103600D02*
X384000D01*
X267000Y-103800D02*
X384000D01*
X267000Y-104000D02*
X384000D01*
X267000Y-104200D02*
X384000D01*
X266800Y-104400D02*
X384000D01*
X266800Y-104600D02*
X384000D01*
X266600Y-104800D02*
X384000D01*
X266600Y-105000D02*
X384000D01*
X266400Y-105200D02*
X384000D01*
X266400Y-105400D02*
X384000D01*
X266400Y-105600D02*
X384000D01*
X266200Y-105800D02*
X384000D01*
X266200Y-106000D02*
X384000D01*
X266200Y-106200D02*
X384000D01*
X266200Y-106400D02*
X384000D01*
X266000Y-106600D02*
X384000D01*
X266000Y-106800D02*
X290800D01*
X295000D02*
X302600D01*
X308800D02*
X384000D01*
X266000Y-107000D02*
X289600D01*
X295000D02*
X302400D01*
X308600D02*
X311600D01*
X317800D02*
X384000D01*
X266000Y-107200D02*
X289000D01*
X295000D02*
X302400D01*
X308600D02*
X311600D01*
X317600D02*
X384000D01*
X266000Y-107400D02*
X288400D01*
X295000D02*
X302400D01*
X308600D02*
X311400D01*
X317600D02*
X384000D01*
X266000Y-107600D02*
X288000D01*
X295000D02*
X302400D01*
X308600D02*
X311400D01*
X317600D02*
X384000D01*
X266000Y-107800D02*
X287600D01*
X295000D02*
X302200D01*
X308400D02*
X311400D01*
X317600D02*
X384000D01*
X266000Y-108000D02*
X287200D01*
X295000D02*
X302200D01*
X308400D02*
X311400D01*
X317400D02*
X384000D01*
X266000Y-108200D02*
X287000D01*
X295200D02*
X302200D01*
X308400D02*
X311200D01*
X317400D02*
X384000D01*
X266000Y-108400D02*
X286600D01*
X295200D02*
X302200D01*
X308400D02*
X311200D01*
X317400D02*
X384000D01*
X266000Y-108600D02*
X286400D01*
X295200D02*
X302000D01*
X308200D02*
X311200D01*
X317400D02*
X384000D01*
X266000Y-108800D02*
X286200D01*
X295200D02*
X302000D01*
X308200D02*
X311200D01*
X317200D02*
X384000D01*
X266000Y-109000D02*
X286000D01*
X295200D02*
X302000D01*
X308200D02*
X311000D01*
X317200D02*
X384000D01*
X266000Y-109200D02*
X285800D01*
X295200D02*
X302000D01*
X308200D02*
X311000D01*
X317200D02*
X384000D01*
X266000Y-109400D02*
X285600D01*
X295200D02*
X301800D01*
X308000D02*
X311000D01*
X317200D02*
X384000D01*
X266000Y-109600D02*
X285400D01*
X295200D02*
X301800D01*
X308000D02*
X311000D01*
X317000D02*
X384000D01*
X266000Y-109800D02*
X285200D01*
X295200D02*
X301800D01*
X308000D02*
X310800D01*
X317000D02*
X384000D01*
X266000Y-110000D02*
X285000D01*
X295200D02*
X301800D01*
X308000D02*
X310800D01*
X317000D02*
X384000D01*
X266000Y-110200D02*
X284800D01*
X295200D02*
X301600D01*
X307800D02*
X310800D01*
X316800D02*
X384000D01*
X266000Y-110400D02*
X284800D01*
X295200D02*
X301600D01*
X307800D02*
X310800D01*
X316800D02*
X384000D01*
X266000Y-110600D02*
X284600D01*
X295200D02*
X301600D01*
X307800D02*
X310600D01*
X316800D02*
X384000D01*
X266000Y-110800D02*
X284400D01*
X295200D02*
X301600D01*
X307800D02*
X310600D01*
X316800D02*
X384000D01*
X266000Y-111000D02*
X284400D01*
X295200D02*
X301600D01*
X307600D02*
X310600D01*
X316600D02*
X384000D01*
X266000Y-111200D02*
X284200D01*
X295200D02*
X301400D01*
X307600D02*
X310600D01*
X316600D02*
X384000D01*
X266000Y-111400D02*
X284200D01*
X295200D02*
X301400D01*
X307600D02*
X310400D01*
X316600D02*
X384000D01*
X266000Y-111600D02*
X284000D01*
X295200D02*
X301400D01*
X307600D02*
X310400D01*
X316600D02*
X359000D01*
X361200D02*
X368600D01*
X370600D02*
X384000D01*
X266000Y-111800D02*
X284000D01*
X295200D02*
X301400D01*
X307400D02*
X310400D01*
X316400D02*
X357800D01*
X362000D02*
X367400D01*
X371600D02*
X384000D01*
X266000Y-112000D02*
X283800D01*
X295200D02*
X301200D01*
X307400D02*
X310400D01*
X319000D02*
X357200D01*
X362600D02*
X366800D01*
X372000D02*
X384000D01*
X266000Y-112200D02*
X283800D01*
X289400D02*
X289600D01*
X295200D02*
X301200D01*
X307400D02*
X310200D01*
X319000D02*
X321200D01*
X327400D02*
X330000D01*
X336200D02*
X339600D01*
X345800D02*
X348800D01*
X355000D02*
X356800D01*
X362800D02*
X366400D01*
X372400D02*
X384000D01*
X266000Y-112400D02*
X283600D01*
X289400D02*
X289600D01*
X295200D02*
X301200D01*
X307400D02*
X310200D01*
X318800D02*
X321200D01*
X327200D02*
X330000D01*
X336200D02*
X339600D01*
X345800D02*
X348800D01*
X355000D02*
X356400D01*
X363200D02*
X366000D01*
X372800D02*
X384000D01*
X266000Y-112600D02*
X283600D01*
X289200D02*
X289600D01*
X295200D02*
X301200D01*
X307200D02*
X310200D01*
X318800D02*
X321000D01*
X327200D02*
X330000D01*
X336200D02*
X339600D01*
X345800D02*
X348800D01*
X355000D02*
X356200D01*
X363400D02*
X365600D01*
X373000D02*
X384000D01*
X266000Y-112800D02*
X283400D01*
X289200D02*
X289600D01*
X295200D02*
X301000D01*
X307200D02*
X310200D01*
X318800D02*
X321000D01*
X327200D02*
X330000D01*
X336000D02*
X339600D01*
X345600D02*
X348600D01*
X354800D02*
X355800D01*
X363400D02*
X365200D01*
X373200D02*
X384000D01*
X266000Y-113000D02*
X283400D01*
X289000D02*
X289600D01*
X295200D02*
X301000D01*
X307200D02*
X310000D01*
X318800D02*
X321000D01*
X327200D02*
X329800D01*
X336000D02*
X339400D01*
X345600D02*
X348600D01*
X354800D02*
X355600D01*
X363600D02*
X365000D01*
X373200D02*
X384000D01*
X266000Y-113200D02*
X283200D01*
X289000D02*
X289600D01*
X295200D02*
X301000D01*
X307000D02*
X310000D01*
X318600D02*
X321000D01*
X327000D02*
X329800D01*
X336000D02*
X339400D01*
X345600D02*
X348600D01*
X354800D02*
X355400D01*
X363800D02*
X364800D01*
X373400D02*
X384000D01*
X266000Y-113400D02*
X283000D01*
X288800D02*
X289600D01*
X295400D02*
X301000D01*
X307000D02*
X310000D01*
X318600D02*
X320800D01*
X327000D02*
X329800D01*
X336000D02*
X339400D01*
X345600D02*
X348600D01*
X354800D02*
X355200D01*
X363800D02*
X364600D01*
X373400D02*
X384000D01*
X266000Y-113600D02*
X283000D01*
X288800D02*
X289600D01*
X295400D02*
X300800D01*
X307000D02*
X310000D01*
X318600D02*
X320800D01*
X327000D02*
X329800D01*
X335800D02*
X339400D01*
X345400D02*
X348400D01*
X354600D02*
X355000D01*
X363800D02*
X364400D01*
X373400D02*
X384000D01*
X266000Y-113800D02*
X282800D01*
X288600D02*
X289600D01*
X295400D02*
X300800D01*
X307000D02*
X309800D01*
X318600D02*
X320800D01*
X327000D02*
X329600D01*
X335800D02*
X339200D01*
X345400D02*
X348400D01*
X354600D02*
X354800D01*
X364000D02*
X364200D01*
X373400D02*
X384000D01*
X266000Y-114000D02*
X282800D01*
X288600D02*
X289600D01*
X295400D02*
X300800D01*
X306800D02*
X309800D01*
X318400D02*
X320800D01*
X326800D02*
X329600D01*
X335800D02*
X339200D01*
X345400D02*
X348400D01*
X373600D02*
X384000D01*
X266000Y-114200D02*
X282600D01*
X288400D02*
X289600D01*
X295400D02*
X300800D01*
X306800D02*
X309800D01*
X318400D02*
X320600D01*
X326800D02*
X329600D01*
X335800D02*
X339200D01*
X345400D02*
X348400D01*
X373600D02*
X384000D01*
X266000Y-114400D02*
X282600D01*
X288400D02*
X289600D01*
X295400D02*
X300600D01*
X306800D02*
X309800D01*
X318400D02*
X320600D01*
X326800D02*
X329600D01*
X335600D02*
X339200D01*
X345200D02*
X348200D01*
X373600D02*
X384000D01*
X266000Y-114600D02*
X282400D01*
X288400D02*
X289600D01*
X295400D02*
X300600D01*
X306800D02*
X309600D01*
X318400D02*
X320600D01*
X326800D02*
X329400D01*
X335600D02*
X339000D01*
X345200D02*
X348200D01*
X373600D02*
X384000D01*
X266000Y-114800D02*
X282400D01*
X288200D02*
X289600D01*
X295400D02*
X300600D01*
X306600D02*
X309600D01*
X318200D02*
X320600D01*
X326600D02*
X329400D01*
X335600D02*
X339000D01*
X345200D02*
X348200D01*
X373600D02*
X384000D01*
X266000Y-115000D02*
X282200D01*
X288200D02*
X289600D01*
X295400D02*
X300600D01*
X306600D02*
X309600D01*
X318200D02*
X320400D01*
X326600D02*
X329400D01*
X335600D02*
X339000D01*
X345200D02*
X348200D01*
X373600D02*
X384000D01*
X266000Y-115200D02*
X282200D01*
X288000D02*
X289600D01*
X295400D02*
X300400D01*
X306600D02*
X309600D01*
X318200D02*
X320400D01*
X326600D02*
X329400D01*
X335400D02*
X339000D01*
X345000D02*
X348000D01*
X373400D02*
X384000D01*
X266000Y-115400D02*
X282000D01*
X288000D02*
X289600D01*
X295400D02*
X300400D01*
X306600D02*
X309400D01*
X318200D02*
X320400D01*
X326600D02*
X329200D01*
X335400D02*
X338800D01*
X345000D02*
X348000D01*
X373400D02*
X384000D01*
X266000Y-115600D02*
X282000D01*
X287800D02*
X289400D01*
X295400D02*
X300400D01*
X306400D02*
X309400D01*
X318000D02*
X320400D01*
X326400D02*
X329200D01*
X335400D02*
X338800D01*
X345000D02*
X348000D01*
X373400D02*
X384000D01*
X266000Y-115800D02*
X281800D01*
X287800D02*
X289400D01*
X295400D02*
X300400D01*
X306400D02*
X309400D01*
X315400D02*
X320200D01*
X326400D02*
X329200D01*
X335400D02*
X338800D01*
X345000D02*
X348000D01*
X355000D02*
X356800D01*
X364600D02*
X366400D01*
X373400D02*
X384000D01*
X266000Y-116000D02*
X281600D01*
X287600D02*
X289400D01*
X295400D02*
X300200D01*
X306400D02*
X309400D01*
X315400D02*
X320200D01*
X326400D02*
X329200D01*
X335200D02*
X338800D01*
X344800D02*
X347800D01*
X354600D02*
X357000D01*
X364200D02*
X366600D01*
X373400D02*
X384000D01*
X266000Y-116200D02*
X281600D01*
X287600D02*
X289400D01*
X295400D02*
X300200D01*
X306400D02*
X309200D01*
X315400D02*
X320200D01*
X326400D02*
X329000D01*
X335200D02*
X338600D01*
X344800D02*
X347800D01*
X354400D02*
X357200D01*
X364000D02*
X366800D01*
X373200D02*
X384000D01*
X266000Y-116400D02*
X281400D01*
X287400D02*
X289400D01*
X295400D02*
X300200D01*
X306200D02*
X309200D01*
X315400D02*
X320200D01*
X326200D02*
X329000D01*
X335200D02*
X338600D01*
X344800D02*
X347800D01*
X354200D02*
X357200D01*
X363800D02*
X366800D01*
X373200D02*
X384000D01*
X266000Y-116600D02*
X281400D01*
X287400D02*
X289400D01*
X295400D02*
X300200D01*
X306200D02*
X309200D01*
X315200D02*
X320000D01*
X326200D02*
X329000D01*
X335200D02*
X338600D01*
X344800D02*
X347800D01*
X354000D02*
X357200D01*
X363600D02*
X366800D01*
X373200D02*
X384000D01*
X266000Y-116800D02*
X281200D01*
X287400D02*
X289400D01*
X295400D02*
X300000D01*
X306200D02*
X309200D01*
X315200D02*
X320000D01*
X326200D02*
X329000D01*
X335000D02*
X338600D01*
X344600D02*
X347600D01*
X354000D02*
X357200D01*
X363600D02*
X367000D01*
X373200D02*
X384000D01*
X266000Y-117000D02*
X281200D01*
X287200D02*
X289400D01*
X295400D02*
X300000D01*
X306200D02*
X309000D01*
X315200D02*
X320000D01*
X326200D02*
X328800D01*
X335000D02*
X338400D01*
X344600D02*
X347600D01*
X353800D02*
X357200D01*
X363400D02*
X366800D01*
X373000D02*
X384000D01*
X266000Y-117200D02*
X281000D01*
X287200D02*
X289400D01*
X295400D02*
X300000D01*
X306000D02*
X309000D01*
X315200D02*
X320000D01*
X326000D02*
X328800D01*
X335000D02*
X338400D01*
X344600D02*
X347600D01*
X353800D02*
X357200D01*
X363400D02*
X366800D01*
X373000D02*
X384000D01*
X266000Y-117400D02*
X281000D01*
X287000D02*
X289400D01*
X295400D02*
X300000D01*
X306000D02*
X309000D01*
X315000D02*
X319800D01*
X326000D02*
X328800D01*
X335000D02*
X338400D01*
X344600D02*
X347600D01*
X353600D02*
X357200D01*
X363400D02*
X366800D01*
X373000D02*
X384000D01*
X266000Y-117600D02*
X280800D01*
X287000D02*
X289400D01*
X295400D02*
X299800D01*
X306000D02*
X309000D01*
X315000D02*
X319800D01*
X326000D02*
X328800D01*
X334800D02*
X338400D01*
X344400D02*
X347400D01*
X353600D02*
X357200D01*
X363200D02*
X366800D01*
X373000D02*
X384000D01*
X266000Y-117800D02*
X280800D01*
X286800D02*
X289400D01*
X295400D02*
X299800D01*
X306000D02*
X308800D01*
X315000D02*
X319800D01*
X326000D02*
X328600D01*
X334800D02*
X338200D01*
X344400D02*
X347400D01*
X353600D02*
X357000D01*
X363200D02*
X366800D01*
X372800D02*
X384000D01*
X266000Y-118000D02*
X280600D01*
X286800D02*
X289400D01*
X295400D02*
X299800D01*
X305800D02*
X308800D01*
X315000D02*
X319800D01*
X325800D02*
X328600D01*
X334800D02*
X338200D01*
X344400D02*
X347400D01*
X353600D02*
X357000D01*
X363200D02*
X366600D01*
X372800D02*
X384000D01*
X266000Y-118200D02*
X280600D01*
X286600D02*
X289400D01*
X295400D02*
X299800D01*
X305800D02*
X308800D01*
X314800D02*
X319600D01*
X325800D02*
X328600D01*
X334800D02*
X338200D01*
X344400D02*
X347400D01*
X353400D02*
X357000D01*
X363000D02*
X366600D01*
X372800D02*
X384000D01*
X266000Y-118400D02*
X280400D01*
X286600D02*
X289400D01*
X295400D02*
X299600D01*
X305800D02*
X308600D01*
X314800D02*
X319600D01*
X325800D02*
X328600D01*
X334600D02*
X338200D01*
X344200D02*
X347200D01*
X353400D02*
X357000D01*
X363000D02*
X366600D01*
X372800D02*
X384000D01*
X266000Y-118600D02*
X280400D01*
X286400D02*
X289400D01*
X295400D02*
X299600D01*
X305800D02*
X308600D01*
X314800D02*
X319600D01*
X325800D02*
X328400D01*
X334600D02*
X338000D01*
X344200D02*
X347200D01*
X353400D02*
X356800D01*
X363000D02*
X366600D01*
X372600D02*
X384000D01*
X266000Y-118800D02*
X280200D01*
X286400D02*
X289400D01*
X295600D02*
X299600D01*
X305600D02*
X308600D01*
X314800D02*
X319600D01*
X325600D02*
X328400D01*
X334600D02*
X338000D01*
X344200D02*
X347200D01*
X353400D02*
X356800D01*
X363000D02*
X366400D01*
X372600D02*
X384000D01*
X266000Y-119000D02*
X280000D01*
X286200D02*
X289400D01*
X295600D02*
X299600D01*
X305600D02*
X308600D01*
X314600D02*
X319400D01*
X325600D02*
X328400D01*
X334600D02*
X338000D01*
X344200D02*
X347200D01*
X353200D02*
X356800D01*
X362800D02*
X366400D01*
X372600D02*
X384000D01*
X266000Y-119200D02*
X280000D01*
X286200D02*
X289200D01*
X295600D02*
X299400D01*
X305600D02*
X308400D01*
X314600D02*
X319400D01*
X325600D02*
X328400D01*
X334400D02*
X338000D01*
X344000D02*
X347000D01*
X353200D02*
X356800D01*
X362800D02*
X366400D01*
X372600D02*
X384000D01*
X266000Y-119400D02*
X279800D01*
X286200D02*
X289200D01*
X295600D02*
X299400D01*
X305600D02*
X308400D01*
X314600D02*
X319400D01*
X325600D02*
X328200D01*
X334400D02*
X337800D01*
X344000D02*
X347000D01*
X353200D02*
X356600D01*
X362800D02*
X366400D01*
X372400D02*
X384000D01*
X266000Y-119600D02*
X279800D01*
X286000D02*
X289200D01*
X295600D02*
X299400D01*
X305400D02*
X308400D01*
X314600D02*
X319400D01*
X325400D02*
X328200D01*
X334400D02*
X337800D01*
X344000D02*
X347000D01*
X353200D02*
X356600D01*
X362800D02*
X366200D01*
X372400D02*
X384000D01*
X266000Y-119800D02*
X279600D01*
X286000D02*
X289200D01*
X295600D02*
X299400D01*
X305400D02*
X308400D01*
X314400D02*
X319200D01*
X325400D02*
X328200D01*
X334400D02*
X337800D01*
X344000D02*
X347000D01*
X353000D02*
X356600D01*
X362600D02*
X366200D01*
X372400D02*
X384000D01*
X266000Y-120000D02*
X279600D01*
X285800D02*
X289200D01*
X295600D02*
X299200D01*
X305400D02*
X308200D01*
X314400D02*
X319200D01*
X325400D02*
X328200D01*
X334200D02*
X337800D01*
X343800D02*
X346800D01*
X353000D02*
X356600D01*
X362600D02*
X366200D01*
X372400D02*
X384000D01*
X266000Y-120200D02*
X279400D01*
X285800D02*
X289200D01*
X295600D02*
X299200D01*
X305400D02*
X308200D01*
X314400D02*
X319200D01*
X325400D02*
X328000D01*
X334200D02*
X337600D01*
X343800D02*
X346800D01*
X353000D02*
X356400D01*
X362600D02*
X366200D01*
X372200D02*
X384000D01*
X266000Y-120400D02*
X279400D01*
X285600D02*
X289200D01*
X295600D02*
X299200D01*
X305200D02*
X308200D01*
X314400D02*
X319200D01*
X325200D02*
X328000D01*
X334200D02*
X337600D01*
X343800D02*
X346800D01*
X353000D02*
X356400D01*
X362600D02*
X366000D01*
X372200D02*
X384000D01*
X266000Y-120600D02*
X279200D01*
X295600D02*
X299200D01*
X305200D02*
X308200D01*
X314200D02*
X319000D01*
X325200D02*
X328000D01*
X334200D02*
X337600D01*
X343800D02*
X346800D01*
X352800D02*
X356400D01*
X362400D02*
X366000D01*
X372200D02*
X384000D01*
X266000Y-120800D02*
X279200D01*
X295600D02*
X299000D01*
X305200D02*
X308000D01*
X314200D02*
X319000D01*
X325200D02*
X328000D01*
X334000D02*
X337600D01*
X343600D02*
X346600D01*
X352800D02*
X356400D01*
X362400D02*
X366000D01*
X372200D02*
X384000D01*
X266000Y-121000D02*
X279000D01*
X295600D02*
X299000D01*
X305200D02*
X308000D01*
X314200D02*
X319000D01*
X325200D02*
X327800D01*
X334000D02*
X337400D01*
X343600D02*
X346600D01*
X352800D02*
X356200D01*
X362400D02*
X366000D01*
X372000D02*
X384000D01*
X266000Y-121200D02*
X279000D01*
X295600D02*
X299000D01*
X305000D02*
X308000D01*
X314200D02*
X319000D01*
X325000D02*
X327800D01*
X334000D02*
X337400D01*
X343600D02*
X346600D01*
X352800D02*
X356200D01*
X362400D02*
X365800D01*
X372000D02*
X384000D01*
X266000Y-121400D02*
X278800D01*
X295600D02*
X299000D01*
X305000D02*
X308000D01*
X314000D02*
X318800D01*
X325000D02*
X327800D01*
X334000D02*
X337400D01*
X343600D02*
X346600D01*
X352600D02*
X356200D01*
X362200D02*
X365800D01*
X372000D02*
X384000D01*
X266000Y-121600D02*
X278600D01*
X295600D02*
X298800D01*
X305000D02*
X307800D01*
X314000D02*
X318800D01*
X325000D02*
X327800D01*
X333800D02*
X337400D01*
X343400D02*
X346400D01*
X352600D02*
X356200D01*
X362200D02*
X365800D01*
X372000D02*
X384000D01*
X266000Y-121800D02*
X278600D01*
X295600D02*
X298800D01*
X305000D02*
X307800D01*
X314000D02*
X318800D01*
X325000D02*
X327600D01*
X333800D02*
X337200D01*
X343400D02*
X346400D01*
X352600D02*
X356000D01*
X362200D02*
X365800D01*
X371800D02*
X384000D01*
X266000Y-122000D02*
X278400D01*
X295600D02*
X298800D01*
X304800D02*
X307800D01*
X314000D02*
X318800D01*
X324800D02*
X327600D01*
X333800D02*
X337200D01*
X343400D02*
X346400D01*
X352600D02*
X356000D01*
X362200D02*
X365600D01*
X371800D02*
X384000D01*
X266000Y-122200D02*
X278400D01*
X295600D02*
X298800D01*
X304800D02*
X307800D01*
X313800D02*
X318600D01*
X324800D02*
X327600D01*
X333800D02*
X337200D01*
X343400D02*
X346400D01*
X352400D02*
X356000D01*
X362000D02*
X365600D01*
X371800D02*
X384000D01*
X266000Y-122400D02*
X278200D01*
X295600D02*
X298600D01*
X304800D02*
X307600D01*
X313800D02*
X318600D01*
X324800D02*
X327600D01*
X333600D02*
X337200D01*
X343200D02*
X346200D01*
X352400D02*
X356000D01*
X362000D02*
X365600D01*
X371800D02*
X384000D01*
X266000Y-122600D02*
X278200D01*
X295600D02*
X298600D01*
X304800D02*
X307600D01*
X313800D02*
X318600D01*
X324800D02*
X327400D01*
X333600D02*
X337000D01*
X343200D02*
X346200D01*
X352400D02*
X355800D01*
X362000D02*
X365600D01*
X371600D02*
X384000D01*
X266000Y-122800D02*
X278000D01*
X295600D02*
X298600D01*
X304600D02*
X307600D01*
X313800D02*
X318600D01*
X324600D02*
X327400D01*
X333600D02*
X337000D01*
X343200D02*
X346200D01*
X352400D02*
X355800D01*
X362000D02*
X365400D01*
X371600D02*
X384000D01*
X266000Y-123000D02*
X278000D01*
X295600D02*
X298600D01*
X304600D02*
X307600D01*
X313600D02*
X318400D01*
X324600D02*
X327400D01*
X333600D02*
X337000D01*
X343200D02*
X346200D01*
X352200D02*
X355800D01*
X361800D02*
X365400D01*
X371600D02*
X384000D01*
X266000Y-123200D02*
X277800D01*
X295600D02*
X298400D01*
X304600D02*
X307400D01*
X313600D02*
X318400D01*
X324600D02*
X327400D01*
X333400D02*
X337000D01*
X343000D02*
X346000D01*
X352200D02*
X355800D01*
X361800D02*
X365400D01*
X371600D02*
X384000D01*
X266000Y-123400D02*
X277800D01*
X295600D02*
X298400D01*
X304600D02*
X307400D01*
X313600D02*
X318400D01*
X324600D02*
X327200D01*
X333400D02*
X336800D01*
X343000D02*
X346000D01*
X352200D02*
X355600D01*
X361800D02*
X365400D01*
X371400D02*
X384000D01*
X266000Y-123600D02*
X277600D01*
X295600D02*
X298400D01*
X304400D02*
X307400D01*
X313600D02*
X318400D01*
X324400D02*
X327200D01*
X333400D02*
X336800D01*
X343000D02*
X346000D01*
X352200D02*
X355600D01*
X361800D02*
X365200D01*
X371400D02*
X384000D01*
X266000Y-123800D02*
X277600D01*
X295600D02*
X298400D01*
X304400D02*
X307400D01*
X313600D02*
X318200D01*
X324400D02*
X327200D01*
X333400D02*
X336600D01*
X343000D02*
X346000D01*
X352000D02*
X355600D01*
X361600D02*
X365200D01*
X371400D02*
X384000D01*
X266000Y-124000D02*
X277400D01*
X295800D02*
X298200D01*
X304400D02*
X307200D01*
X313400D02*
X318200D01*
X324400D02*
X327200D01*
X333400D02*
X336600D01*
X342800D02*
X345800D01*
X352000D02*
X355600D01*
X361600D02*
X365200D01*
X371400D02*
X384000D01*
X266000Y-124200D02*
X277400D01*
X295800D02*
X298200D01*
X304400D02*
X307200D01*
X313600D02*
X318200D01*
X324400D02*
X327000D01*
X333600D02*
X336400D01*
X342800D02*
X345800D01*
X352000D02*
X355400D01*
X361600D02*
X365200D01*
X371200D02*
X384000D01*
X266000Y-124400D02*
X277200D01*
X295800D02*
X298200D01*
X304200D02*
X307200D01*
X313600D02*
X318200D01*
X324200D02*
X327000D01*
X333600D02*
X336200D01*
X342800D02*
X345800D01*
X352000D02*
X355400D01*
X361600D02*
X365000D01*
X371200D02*
X384000D01*
X266000Y-124600D02*
X277000D01*
X295800D02*
X298200D01*
X304200D02*
X307200D01*
X313800D02*
X318000D01*
X324200D02*
X327000D01*
X333800D02*
X335800D01*
X342800D02*
X345800D01*
X351800D02*
X355400D01*
X361400D02*
X365000D01*
X371200D02*
X384000D01*
X266000Y-124800D02*
X277000D01*
X283800D02*
X289000D01*
X295800D02*
X298000D01*
X304200D02*
X307000D01*
X315800D02*
X318000D01*
X324200D02*
X327000D01*
X342600D02*
X345600D01*
X351800D02*
X355400D01*
X361400D02*
X365000D01*
X371200D02*
X384000D01*
X266000Y-125000D02*
X276800D01*
X283600D02*
X289000D01*
X295800D02*
X298000D01*
X304200D02*
X307000D01*
X315800D02*
X318000D01*
X324200D02*
X326800D01*
X342600D02*
X345600D01*
X351800D02*
X355200D01*
X361400D02*
X365000D01*
X371000D02*
X384000D01*
X266000Y-125200D02*
X276800D01*
X283600D02*
X289000D01*
X295800D02*
X298000D01*
X304000D02*
X307000D01*
X315600D02*
X318000D01*
X324000D02*
X326800D01*
X342600D02*
X345600D01*
X351800D02*
X355200D01*
X361400D02*
X364800D01*
X371000D02*
X384000D01*
X266000Y-125400D02*
X276600D01*
X283400D02*
X289000D01*
X295800D02*
X298000D01*
X304000D02*
X307000D01*
X315600D02*
X317800D01*
X324000D02*
X326800D01*
X342600D02*
X345600D01*
X351600D02*
X355200D01*
X361200D02*
X364800D01*
X371000D02*
X384000D01*
X266000Y-125600D02*
X276600D01*
X283400D02*
X289000D01*
X295800D02*
X297800D01*
X304000D02*
X307000D01*
X315600D02*
X317800D01*
X324000D02*
X326800D01*
X342400D02*
X345400D01*
X351600D02*
X355200D01*
X361200D02*
X364800D01*
X371000D02*
X384000D01*
X266000Y-125800D02*
X276400D01*
X283200D02*
X289000D01*
X295800D02*
X297800D01*
X304000D02*
X307000D01*
X315600D02*
X317800D01*
X324000D02*
X326800D01*
X342400D02*
X345400D01*
X351600D02*
X355000D01*
X361200D02*
X364800D01*
X370800D02*
X384000D01*
X266000Y-126000D02*
X276400D01*
X283200D02*
X289000D01*
X295800D02*
X297800D01*
X303800D02*
X307000D01*
X315400D02*
X317800D01*
X323800D02*
X326800D01*
X342400D02*
X345400D01*
X351600D02*
X355000D01*
X361200D02*
X364600D01*
X370800D02*
X384000D01*
X266000Y-126200D02*
X276200D01*
X283000D02*
X289000D01*
X295800D02*
X297800D01*
X303800D02*
X307000D01*
X315400D02*
X317600D01*
X323800D02*
X326800D01*
X342400D02*
X345400D01*
X351400D02*
X355000D01*
X361000D02*
X364600D01*
X370600D02*
X384000D01*
X266000Y-126400D02*
X276200D01*
X283000D02*
X289000D01*
X295800D02*
X297600D01*
X303800D02*
X307000D01*
X315400D02*
X317600D01*
X323800D02*
X326800D01*
X342200D02*
X345200D01*
X351400D02*
X355000D01*
X361000D02*
X364600D01*
X370600D02*
X384000D01*
X266000Y-126600D02*
X276000D01*
X283000D02*
X288800D01*
X295800D02*
X297600D01*
X303800D02*
X307000D01*
X315400D02*
X317600D01*
X323800D02*
X326800D01*
X342200D02*
X345200D01*
X351400D02*
X354800D01*
X361000D02*
X364600D01*
X370400D02*
X384000D01*
X266000Y-126800D02*
X276000D01*
X282800D02*
X288800D01*
X295800D02*
X297600D01*
X303600D02*
X307000D01*
X315200D02*
X317600D01*
X323600D02*
X327000D01*
X335800D02*
X336000D01*
X342200D02*
X345200D01*
X351400D02*
X354800D01*
X361000D02*
X364400D01*
X370200D02*
X372200D01*
X373600D02*
X373800D01*
X374400D02*
X375400D01*
X375800D02*
X384000D01*
X266000Y-127000D02*
X275800D01*
X282800D02*
X288800D01*
X295800D02*
X297600D01*
X303600D02*
X307000D01*
X315200D02*
X317400D01*
X323600D02*
X327000D01*
X335600D02*
X336000D01*
X342200D02*
X345200D01*
X351200D02*
X354800D01*
X360800D02*
X364400D01*
X370200D02*
X372600D01*
X373000D02*
X373800D01*
X374400D02*
X375200D01*
X375800D02*
X384000D01*
X266000Y-127200D02*
X275600D01*
X282600D02*
X288800D01*
X295800D02*
X297400D01*
X303600D02*
X307000D01*
X315200D02*
X317400D01*
X323600D02*
X327000D01*
X335400D02*
X336000D01*
X342000D02*
X345000D01*
X351200D02*
X354800D01*
X360800D02*
X364400D01*
X370000D02*
X372600D01*
X373000D02*
X373800D01*
X374600D02*
X375200D01*
X375800D02*
X384000D01*
X266000Y-127400D02*
X275600D01*
X282600D02*
X288800D01*
X295800D02*
X297400D01*
X303600D02*
X307200D01*
X315200D02*
X317400D01*
X323600D02*
X327200D01*
X335200D02*
X336000D01*
X342000D02*
X345000D01*
X351200D02*
X354600D01*
X360800D02*
X364400D01*
X369800D02*
X372600D01*
X373000D02*
X373800D01*
X374600D02*
X375200D01*
X375400D02*
X375600D01*
X375800D02*
X384000D01*
X266000Y-127600D02*
X275400D01*
X282400D02*
X288800D01*
X295800D02*
X297400D01*
X303400D02*
X307200D01*
X315000D02*
X317400D01*
X323400D02*
X327200D01*
X335000D02*
X335800D01*
X342000D02*
X345000D01*
X351200D02*
X354600D01*
X360800D02*
X364200D01*
X369400D02*
X372600D01*
X373000D02*
X373800D01*
X374200D02*
X374400D01*
X374600D02*
X375000D01*
X375400D02*
X375600D01*
X375800D02*
X384000D01*
X266000Y-127800D02*
X275400D01*
X282400D02*
X288800D01*
X295800D02*
X297400D01*
X303400D02*
X307400D01*
X315000D02*
X317200D01*
X323400D02*
X327400D01*
X334600D02*
X335800D01*
X342000D02*
X345000D01*
X351000D02*
X354600D01*
X360600D02*
X364200D01*
X369200D02*
X372600D01*
X373000D02*
X373800D01*
X374200D02*
X374400D01*
X374800D02*
X375000D01*
X375200D02*
X375600D01*
X375800D02*
X384000D01*
X266000Y-128000D02*
X275200D01*
X282400D02*
X288800D01*
X295800D02*
X297200D01*
X303400D02*
X307800D01*
X315000D02*
X317200D01*
X323400D02*
X327600D01*
X334400D02*
X335800D01*
X341800D02*
X344800D01*
X351000D02*
X354600D01*
X360600D02*
X364200D01*
X368800D02*
X372600D01*
X373000D02*
X373800D01*
X374200D02*
X374600D01*
X375200D02*
X375600D01*
X375800D02*
X384000D01*
X266000Y-128200D02*
X275200D01*
X282200D02*
X288800D01*
X295800D02*
X297200D01*
X303400D02*
X308200D01*
X315000D02*
X317200D01*
X323400D02*
X328000D01*
X334000D02*
X335800D01*
X341800D02*
X344800D01*
X351000D02*
X354400D01*
X360600D02*
X364200D01*
X368400D02*
X372600D01*
X373000D02*
X373800D01*
X374200D02*
X374600D01*
X375200D02*
X375600D01*
X375800D02*
X384000D01*
X266000Y-128400D02*
X275000D01*
X282200D02*
X288800D01*
X295800D02*
X297200D01*
X303200D02*
X308800D01*
X314800D02*
X317200D01*
X323200D02*
X328400D01*
X333600D02*
X335600D01*
X341800D02*
X344800D01*
X351000D02*
X354400D01*
X360600D02*
X364000D01*
X367600D02*
X372600D01*
X373000D02*
X373800D01*
X374200D02*
X374600D01*
X375000D02*
X375600D01*
X375800D02*
X384000D01*
X266000Y-128600D02*
X310600D01*
X313000D02*
X328800D01*
X333000D02*
X384000D01*
X266000Y-128800D02*
X329800D01*
X332000D02*
X384000D01*
X266000Y-129000D02*
X384000D01*
X266000Y-129200D02*
X384000D01*
X266000Y-129400D02*
X384000D01*
X266000Y-129600D02*
X384000D01*
X266000Y-129800D02*
X384000D01*
X266000Y-130000D02*
X384000D01*
X266000Y-130200D02*
X384000D01*
X266000Y-130400D02*
X384000D01*
X266000Y-130600D02*
X384000D01*
X266000Y-130800D02*
X384000D01*
X266000Y-131000D02*
X384000D01*
X266000Y-131200D02*
X384000D01*
X266000Y-131400D02*
X384000D01*
X266000Y-131600D02*
X384000D01*
X266000Y-131800D02*
X384000D01*
X266000Y-132000D02*
X384000D01*
X266000Y-132200D02*
X384000D01*
X266000Y-132400D02*
X384000D01*
X266000Y-132600D02*
X384000D01*
X266000Y-132800D02*
X384000D01*
X266000Y-133000D02*
X384000D01*
X266000Y-133200D02*
X283800D01*
X284600D02*
X302000D01*
X302800D02*
X372200D01*
X373600D02*
X373800D01*
X374400D02*
X375400D01*
X375800D02*
X384000D01*
X266000Y-133400D02*
X283800D01*
X284600D02*
X287200D01*
X288000D02*
X302000D01*
X302800D02*
X322600D01*
X323400D02*
X342800D01*
X343600D02*
X363800D01*
X364600D02*
X372800D01*
X373000D02*
X373800D01*
X374400D02*
X375200D01*
X375800D02*
X384000D01*
X266000Y-133600D02*
X274800D01*
X276000D02*
X277800D01*
X279200D02*
X283800D01*
X284600D02*
X287200D01*
X288000D02*
X298600D01*
X301000D02*
X302000D01*
X302800D02*
X322600D01*
X323400D02*
X332200D01*
X334200D02*
X342800D01*
X343600D02*
X354000D01*
X356400D02*
X363800D01*
X364600D02*
X372800D01*
X373000D02*
X373800D01*
X374600D02*
X375200D01*
X375800D02*
X384000D01*
X266000Y-133800D02*
X274800D01*
X276200D02*
X277800D01*
X279200D02*
X283800D01*
X284600D02*
X287200D01*
X288000D02*
X298600D01*
X301000D02*
X302000D01*
X302800D02*
X310800D01*
X311200D02*
X322600D01*
X323400D02*
X332200D01*
X334800D02*
X342800D01*
X343600D02*
X354000D01*
X356400D02*
X363800D01*
X364600D02*
X372800D01*
X373000D02*
X373800D01*
X374600D02*
X375000D01*
X375400D02*
X375600D01*
X375800D02*
X384000D01*
X266000Y-134000D02*
X274800D01*
X276200D02*
X277800D01*
X279200D02*
X283800D01*
X284600D02*
X298600D01*
X301000D02*
X302000D01*
X302800D02*
X310400D01*
X311200D02*
X332200D01*
X335000D02*
X354000D01*
X356400D02*
X372800D01*
X373000D02*
X373800D01*
X374200D02*
X374400D01*
X374800D02*
X375000D01*
X375400D02*
X375600D01*
X375800D02*
X384000D01*
X266000Y-134200D02*
X274800D01*
X276200D02*
X277600D01*
X279200D02*
X283800D01*
X284600D02*
X298600D01*
X299400D02*
X302000D01*
X302800D02*
X310400D01*
X311200D02*
X332200D01*
X333000D02*
X333800D01*
X335200D02*
X354000D01*
X355000D02*
X372800D01*
X373000D02*
X373800D01*
X374200D02*
X374400D01*
X375200D02*
X375600D01*
X375800D02*
X384000D01*
X266000Y-134400D02*
X274800D01*
X276400D02*
X277600D01*
X279200D02*
X283800D01*
X284600D02*
X298600D01*
X299400D02*
X302000D01*
X302800D02*
X310400D01*
X311200D02*
X332200D01*
X333000D02*
X334200D01*
X335200D02*
X354000D01*
X355000D02*
X372800D01*
X373000D02*
X373800D01*
X374200D02*
X374600D01*
X375200D02*
X375600D01*
X375800D02*
X384000D01*
X266000Y-134600D02*
X274800D01*
X276400D02*
X277600D01*
X279200D02*
X280600D01*
X282400D02*
X283800D01*
X284600D02*
X285400D01*
X286400D02*
X287200D01*
X288000D02*
X289200D01*
X289800D02*
X290200D01*
X291400D02*
X293400D01*
X294600D02*
X294800D01*
X295600D02*
X298600D01*
X299400D02*
X302000D01*
X302800D02*
X304400D01*
X305800D02*
X308000D01*
X309400D02*
X309800D01*
X311800D02*
X312800D01*
X313400D02*
X313800D01*
X314400D02*
X315800D01*
X317200D02*
X318800D01*
X319600D02*
X320000D01*
X321200D02*
X322600D01*
X323400D02*
X325000D01*
X326600D02*
X327600D01*
X329200D02*
X332200D01*
X333000D02*
X334400D01*
X335400D02*
X337000D01*
X338400D02*
X340200D01*
X341800D02*
X342800D01*
X343600D02*
X345000D01*
X346200D02*
X346600D01*
X347400D02*
X348400D01*
X349200D02*
X349400D01*
X350600D02*
X354000D01*
X355000D02*
X357800D01*
X359400D02*
X361200D01*
X362800D02*
X363800D01*
X364600D02*
X366200D01*
X367600D02*
X369200D01*
X369800D02*
X370200D01*
X370800D02*
X372800D01*
X373000D02*
X373800D01*
X374200D02*
X374600D01*
X375000D02*
X375600D01*
X375800D02*
X384000D01*
X266000Y-134800D02*
X274800D01*
X276400D02*
X277400D01*
X278200D02*
X278400D01*
X279200D02*
X280400D01*
X282600D02*
X283800D01*
X284600D02*
X285200D01*
X286200D02*
X287200D01*
X288000D02*
X289200D01*
X291600D02*
X293200D01*
X295600D02*
X298600D01*
X299400D02*
X302000D01*
X302800D02*
X304200D01*
X306000D02*
X307600D01*
X309400D02*
X309800D01*
X311800D02*
X312800D01*
X313400D02*
X313600D01*
X314400D02*
X315400D01*
X317600D02*
X318800D01*
X321400D02*
X322600D01*
X323400D02*
X324800D01*
X326400D02*
X327400D01*
X329200D02*
X332200D01*
X333000D02*
X334400D01*
X335400D02*
X336600D01*
X338600D02*
X340000D01*
X341800D02*
X342800D01*
X343600D02*
X344800D01*
X347400D02*
X348400D01*
X350800D02*
X354000D01*
X355000D02*
X357600D01*
X359600D02*
X361000D01*
X362800D02*
X363800D01*
X364600D02*
X366000D01*
X367800D02*
X369200D01*
X369800D02*
X370000D01*
X370800D02*
X384000D01*
X266000Y-135000D02*
X274800D01*
X275600D02*
X275800D01*
X276600D02*
X277400D01*
X278200D02*
X278400D01*
X279200D02*
X280400D01*
X282600D02*
X283800D01*
X284600D02*
X285200D01*
X286000D02*
X287200D01*
X288000D02*
X289200D01*
X291800D02*
X293000D01*
X295600D02*
X298600D01*
X299400D02*
X302000D01*
X302800D02*
X304000D01*
X306200D02*
X307400D01*
X309400D02*
X309800D01*
X311800D02*
X312800D01*
X314400D02*
X315200D01*
X317600D02*
X318800D01*
X321400D02*
X322600D01*
X323400D02*
X324600D01*
X326400D02*
X327200D01*
X329200D02*
X332200D01*
X333000D02*
X334600D01*
X335400D02*
X336600D01*
X338800D02*
X339800D01*
X341600D02*
X342800D01*
X343600D02*
X344600D01*
X347400D02*
X348400D01*
X351000D02*
X354000D01*
X355000D02*
X357600D01*
X359800D02*
X360800D01*
X362800D02*
X363800D01*
X364600D02*
X365800D01*
X368000D02*
X369200D01*
X370800D02*
X384000D01*
X266000Y-135200D02*
X274800D01*
X275600D02*
X275800D01*
X276600D02*
X277400D01*
X278200D02*
X278400D01*
X279200D02*
X280400D01*
X280800D02*
X282000D01*
X282800D02*
X283800D01*
X284600D02*
X285000D01*
X285800D02*
X287200D01*
X288000D02*
X289200D01*
X290200D02*
X291000D01*
X291800D02*
X292800D01*
X293800D02*
X294600D01*
X295600D02*
X298600D01*
X300800D02*
X302000D01*
X302800D02*
X303800D01*
X304600D02*
X305600D01*
X306400D02*
X307400D01*
X308400D02*
X310400D01*
X311200D02*
X312800D01*
X314400D02*
X315000D01*
X316000D02*
X316800D01*
X317800D02*
X318800D01*
X320000D02*
X320600D01*
X321600D02*
X322600D01*
X323400D02*
X324400D01*
X325400D02*
X327200D01*
X328000D02*
X332200D01*
X333000D02*
X334600D01*
X335600D02*
X336400D01*
X337200D02*
X338200D01*
X338800D02*
X339800D01*
X340600D02*
X342800D01*
X343600D02*
X344600D01*
X345600D02*
X346200D01*
X347400D02*
X348400D01*
X349400D02*
X350200D01*
X351000D02*
X354000D01*
X356400D02*
X357600D01*
X358000D02*
X359000D01*
X359800D02*
X360800D01*
X361600D02*
X363800D01*
X364600D02*
X365600D01*
X366400D02*
X367400D01*
X368000D02*
X369200D01*
X370800D02*
X384000D01*
X266000Y-135400D02*
X274800D01*
X275600D02*
X276000D01*
X276600D02*
X277400D01*
X278000D02*
X278400D01*
X279200D02*
X282000D01*
X282800D02*
X283800D01*
X284600D02*
X284800D01*
X285800D02*
X287200D01*
X288000D02*
X289200D01*
X290000D02*
X291000D01*
X291800D02*
X292800D01*
X293600D02*
X294800D01*
X295600D02*
X298600D01*
X300800D02*
X302000D01*
X302800D02*
X303800D01*
X304600D02*
X305600D01*
X306400D02*
X307200D01*
X308200D02*
X310400D01*
X311200D02*
X312800D01*
X313600D02*
X315000D01*
X315800D02*
X317000D01*
X318000D02*
X318800D01*
X319800D02*
X320800D01*
X321600D02*
X322600D01*
X323400D02*
X324400D01*
X325400D02*
X327200D01*
X328000D02*
X332200D01*
X333000D02*
X334600D01*
X335600D02*
X336400D01*
X337000D02*
X338200D01*
X339000D02*
X339800D01*
X340600D02*
X342800D01*
X343600D02*
X344400D01*
X345400D02*
X346400D01*
X347400D02*
X348400D01*
X349400D02*
X350200D01*
X351000D02*
X354000D01*
X356400D02*
X359200D01*
X360000D02*
X360800D01*
X361600D02*
X363800D01*
X364600D02*
X365600D01*
X366200D02*
X367400D01*
X368200D02*
X369200D01*
X370200D02*
X384000D01*
X266000Y-135600D02*
X274800D01*
X275600D02*
X276000D01*
X276800D02*
X277200D01*
X278000D02*
X278400D01*
X279200D02*
X282000D01*
X282800D02*
X283800D01*
X285600D02*
X287200D01*
X288000D02*
X289200D01*
X290000D02*
X291000D01*
X291800D02*
X292800D01*
X293600D02*
X294800D01*
X295600D02*
X298600D01*
X300800D02*
X302000D01*
X302800D02*
X303800D01*
X304400D02*
X305800D01*
X306400D02*
X307200D01*
X308000D02*
X310400D01*
X311200D02*
X312800D01*
X313600D02*
X315000D01*
X315800D02*
X317200D01*
X318000D02*
X318800D01*
X319800D02*
X320800D01*
X321600D02*
X322600D01*
X323400D02*
X324400D01*
X325200D02*
X327200D01*
X328200D02*
X332200D01*
X333000D02*
X334600D01*
X335600D02*
X336200D01*
X337000D02*
X338200D01*
X339000D02*
X339800D01*
X340800D02*
X342800D01*
X343600D02*
X344400D01*
X345200D02*
X346400D01*
X347400D02*
X348400D01*
X349200D02*
X350200D01*
X351000D02*
X354000D01*
X356400D02*
X359200D01*
X360000D02*
X360800D01*
X361800D02*
X363800D01*
X364600D02*
X365400D01*
X366200D02*
X367400D01*
X368200D02*
X369200D01*
X370000D02*
X384000D01*
X266000Y-135800D02*
X274800D01*
X275600D02*
X276000D01*
X276800D02*
X277200D01*
X278000D02*
X278400D01*
X279200D02*
X280600D01*
X282800D02*
X283800D01*
X285400D02*
X287200D01*
X288000D02*
X289200D01*
X290000D02*
X291000D01*
X291800D02*
X292800D01*
X293600D02*
X294800D01*
X295600D02*
X298600D01*
X299400D02*
X302000D01*
X302800D02*
X303800D01*
X306400D02*
X307200D01*
X308000D02*
X310400D01*
X311200D02*
X312800D01*
X313600D02*
X315000D01*
X315800D02*
X317200D01*
X318000D02*
X318800D01*
X319600D02*
X320800D01*
X321600D02*
X322600D01*
X323400D02*
X324400D01*
X325200D02*
X327200D01*
X328800D02*
X332200D01*
X333000D02*
X334600D01*
X335600D02*
X336200D01*
X339000D02*
X339800D01*
X341400D02*
X342800D01*
X343600D02*
X344400D01*
X345200D02*
X346600D01*
X347400D02*
X348400D01*
X349200D02*
X350400D01*
X351000D02*
X354000D01*
X355000D02*
X357800D01*
X360000D02*
X360800D01*
X362400D02*
X363800D01*
X364600D02*
X365400D01*
X368200D02*
X369200D01*
X370000D02*
X384000D01*
X266000Y-136000D02*
X274800D01*
X275600D02*
X276000D01*
X276800D02*
X277200D01*
X277800D02*
X278400D01*
X279200D02*
X280400D01*
X282800D02*
X283800D01*
X285400D02*
X287200D01*
X288000D02*
X289200D01*
X290000D02*
X291000D01*
X291800D02*
X292800D01*
X293600D02*
X294800D01*
X295600D02*
X298600D01*
X299400D02*
X302000D01*
X302800D02*
X303800D01*
X306400D02*
X307200D01*
X308000D02*
X310400D01*
X311200D02*
X312800D01*
X313600D02*
X315000D01*
X315800D02*
X317200D01*
X318000D02*
X318800D01*
X319600D02*
X320800D01*
X321600D02*
X322600D01*
X323400D02*
X324400D01*
X325200D02*
X327400D01*
X329200D02*
X332200D01*
X333000D02*
X334600D01*
X335400D02*
X336200D01*
X339000D02*
X340000D01*
X341600D02*
X342800D01*
X343600D02*
X344400D01*
X345200D02*
X346600D01*
X347400D02*
X348400D01*
X349200D02*
X350400D01*
X351000D02*
X354000D01*
X355000D02*
X357600D01*
X360000D02*
X361000D01*
X362800D02*
X363800D01*
X364600D02*
X365400D01*
X368200D02*
X369200D01*
X370000D02*
X384000D01*
X266000Y-136200D02*
X274800D01*
X275600D02*
X276200D01*
X276800D02*
X277000D01*
X277800D02*
X278400D01*
X279200D02*
X280200D01*
X281200D02*
X282000D01*
X282800D02*
X283800D01*
X285600D02*
X287200D01*
X288000D02*
X289200D01*
X290000D02*
X291000D01*
X291800D02*
X292800D01*
X293600D02*
X294800D01*
X295600D02*
X298600D01*
X299400D02*
X302000D01*
X302800D02*
X303800D01*
X306400D02*
X307200D01*
X308000D02*
X310400D01*
X311200D02*
X312800D01*
X313400D02*
X315000D01*
X315800D02*
X317200D01*
X318000D02*
X318800D01*
X319600D02*
X320800D01*
X321600D02*
X322600D01*
X323400D02*
X324400D01*
X325200D02*
X327800D01*
X329200D02*
X332200D01*
X333000D02*
X334400D01*
X335400D02*
X336200D01*
X339000D02*
X340400D01*
X341800D02*
X342800D01*
X343600D02*
X344400D01*
X345200D02*
X346600D01*
X347400D02*
X348400D01*
X349200D02*
X350400D01*
X351000D02*
X354000D01*
X355000D02*
X357400D01*
X358400D02*
X359200D01*
X360000D02*
X361600D01*
X362800D02*
X363800D01*
X364600D02*
X365400D01*
X368200D02*
X369200D01*
X370000D02*
X384000D01*
X266000Y-136400D02*
X274800D01*
X275600D02*
X276200D01*
X277800D02*
X278400D01*
X279200D02*
X280200D01*
X281000D02*
X282000D01*
X282800D02*
X283800D01*
X284600D02*
X284800D01*
X285800D02*
X287200D01*
X288000D02*
X289200D01*
X290000D02*
X291000D01*
X291800D02*
X292800D01*
X293600D02*
X294800D01*
X295600D02*
X298600D01*
X299400D02*
X302000D01*
X302800D02*
X303800D01*
X304400D02*
X307200D01*
X308000D02*
X310400D01*
X311200D02*
X312800D01*
X313400D02*
X315000D01*
X315800D02*
X317200D01*
X318000D02*
X318800D01*
X319600D02*
X320800D01*
X321600D02*
X322600D01*
X323400D02*
X324400D01*
X325200D02*
X328400D01*
X329200D02*
X332200D01*
X333000D02*
X334400D01*
X335400D02*
X336200D01*
X337000D02*
X341000D01*
X341800D02*
X342800D01*
X343600D02*
X344400D01*
X345400D02*
X346400D01*
X347400D02*
X348400D01*
X349200D02*
X350400D01*
X351000D02*
X354000D01*
X355000D02*
X357400D01*
X358200D02*
X359200D01*
X360000D02*
X362000D01*
X362800D02*
X363800D01*
X364600D02*
X365400D01*
X366200D02*
X369200D01*
X370000D02*
X384000D01*
X266000Y-136600D02*
X274800D01*
X275600D02*
X276200D01*
X277600D02*
X278400D01*
X279200D02*
X280200D01*
X281000D02*
X282000D01*
X282800D02*
X283800D01*
X284600D02*
X285000D01*
X286000D02*
X287200D01*
X288000D02*
X289200D01*
X290000D02*
X291000D01*
X291800D02*
X292800D01*
X293800D02*
X294600D01*
X295600D02*
X298600D01*
X299400D02*
X302000D01*
X302800D02*
X303800D01*
X304600D02*
X307200D01*
X308200D02*
X310400D01*
X311200D02*
X312800D01*
X313400D02*
X315000D01*
X315800D02*
X317000D01*
X318000D02*
X318800D01*
X319600D02*
X320800D01*
X321600D02*
X322600D01*
X323400D02*
X324400D01*
X325400D02*
X328400D01*
X329200D02*
X332200D01*
X333000D02*
X334000D01*
X335200D02*
X336400D01*
X337200D02*
X341000D01*
X341800D02*
X342800D01*
X343600D02*
X344400D01*
X345400D02*
X346400D01*
X347400D02*
X348400D01*
X349200D02*
X350400D01*
X351000D02*
X354000D01*
X355000D02*
X357400D01*
X358000D02*
X359200D01*
X360000D02*
X362000D01*
X363000D02*
X363800D01*
X364600D02*
X365600D01*
X366400D02*
X369200D01*
X370000D02*
X384000D01*
X266000Y-136800D02*
X274800D01*
X275600D02*
X276400D01*
X277600D02*
X278400D01*
X279200D02*
X280200D01*
X281000D02*
X281800D01*
X282800D02*
X283800D01*
X284600D02*
X285200D01*
X286000D02*
X287200D01*
X288000D02*
X289200D01*
X290000D02*
X291000D01*
X291800D02*
X292800D01*
X294000D02*
X294400D01*
X295600D02*
X298600D01*
X299400D02*
X302000D01*
X302800D02*
X303800D01*
X304800D02*
X306000D01*
X306200D02*
X307400D01*
X308400D02*
X310400D01*
X311400D02*
X312800D01*
X313400D02*
X315000D01*
X316000D02*
X316800D01*
X317800D02*
X318800D01*
X319600D02*
X320800D01*
X321600D02*
X322600D01*
X323400D02*
X324400D01*
X325600D02*
X328400D01*
X329200D02*
X332200D01*
X333000D02*
X333600D01*
X335200D02*
X336400D01*
X337400D02*
X338600D01*
X338800D02*
X341000D01*
X341800D02*
X342800D01*
X343600D02*
X344600D01*
X345600D02*
X346200D01*
X347400D02*
X348400D01*
X349200D02*
X350400D01*
X351000D02*
X354000D01*
X355000D02*
X357400D01*
X358200D02*
X359000D01*
X360000D02*
X362000D01*
X362800D02*
X363800D01*
X364600D02*
X365600D01*
X366600D02*
X367800D01*
X368000D02*
X369200D01*
X370000D02*
X384000D01*
X266000Y-137000D02*
X274800D01*
X275600D02*
X276400D01*
X277600D02*
X278400D01*
X279200D02*
X280200D01*
X282800D02*
X283800D01*
X284600D02*
X285200D01*
X286200D02*
X287200D01*
X288000D02*
X289200D01*
X290000D02*
X291000D01*
X291800D02*
X293000D01*
X295600D02*
X298600D01*
X301000D02*
X302000D01*
X302800D02*
X304000D01*
X306200D02*
X307400D01*
X309400D02*
X310400D01*
X312000D02*
X312800D01*
X313400D02*
X315200D01*
X317600D02*
X318800D01*
X319600D02*
X320800D01*
X321600D02*
X322600D01*
X323400D02*
X324600D01*
X326600D02*
X327200D01*
X329200D02*
X332200D01*
X335000D02*
X336600D01*
X338800D02*
X339800D01*
X341800D02*
X342800D01*
X343600D02*
X344600D01*
X347400D02*
X348400D01*
X349200D02*
X350400D01*
X351000D02*
X354000D01*
X356400D02*
X357400D01*
X360000D02*
X360800D01*
X362800D02*
X363800D01*
X364600D02*
X365800D01*
X368000D02*
X369200D01*
X370000D02*
X384000D01*
X266000Y-137200D02*
X274800D01*
X275600D02*
X276400D01*
X277400D02*
X278400D01*
X279200D02*
X280400D01*
X282800D02*
X283800D01*
X284600D02*
X285400D01*
X286400D02*
X287200D01*
X288000D02*
X289200D01*
X290000D02*
X291000D01*
X291800D02*
X293200D01*
X295600D02*
X298600D01*
X301000D02*
X302000D01*
X302800D02*
X304200D01*
X306200D02*
X307600D01*
X309400D02*
X310600D01*
X312000D02*
X312800D01*
X313400D02*
X315400D01*
X317600D02*
X318800D01*
X319600D02*
X320800D01*
X321600D02*
X322600D01*
X323400D02*
X324800D01*
X326600D02*
X327200D01*
X329000D02*
X332200D01*
X334600D02*
X336800D01*
X338800D02*
X339800D01*
X341600D02*
X342800D01*
X343600D02*
X344800D01*
X346400D02*
X346600D01*
X347400D02*
X348400D01*
X349200D02*
X350400D01*
X351000D02*
X354000D01*
X356400D02*
X357400D01*
X360000D02*
X360800D01*
X362600D02*
X363800D01*
X364600D02*
X366000D01*
X368000D02*
X369200D01*
X370000D02*
X384000D01*
X266000Y-137400D02*
X274800D01*
X275600D02*
X276600D01*
X277400D02*
X278400D01*
X279200D02*
X280600D01*
X281800D02*
X282200D01*
X282800D02*
X283800D01*
X284600D02*
X285600D01*
X286600D02*
X287200D01*
X288000D02*
X289200D01*
X290000D02*
X291000D01*
X291800D02*
X293400D01*
X294400D02*
X294800D01*
X295600D02*
X298600D01*
X301000D02*
X302000D01*
X302800D02*
X304600D01*
X306200D02*
X308000D01*
X309400D02*
X310800D01*
X312000D02*
X312800D01*
X313400D02*
X315800D01*
X317200D02*
X318800D01*
X319600D02*
X320800D01*
X321600D02*
X322600D01*
X323400D02*
X325200D01*
X326600D02*
X327200D01*
X328800D02*
X332200D01*
X334200D02*
X337000D01*
X338600D02*
X339800D01*
X341400D02*
X342800D01*
X343600D02*
X345200D01*
X346000D02*
X346600D01*
X347400D02*
X348400D01*
X349200D02*
X350400D01*
X351000D02*
X354000D01*
X356400D02*
X357800D01*
X359000D02*
X359200D01*
X360000D02*
X360800D01*
X362400D02*
X363800D01*
X364600D02*
X366200D01*
X367800D02*
X369200D01*
X370000D02*
X384000D01*
X266000Y-137600D02*
X294800D01*
X295600D02*
X346400D01*
X347200D02*
X384000D01*
X266000Y-137800D02*
X294600D01*
X295600D02*
X346400D01*
X347200D02*
X384000D01*
X266000Y-138000D02*
X293000D01*
X293400D02*
X294400D01*
X295400D02*
X344800D01*
X345200D02*
X346200D01*
X347200D02*
X384000D01*
X266000Y-138200D02*
X293000D01*
X295400D02*
X344800D01*
X347000D02*
X384000D01*
X266000Y-138400D02*
X293000D01*
X295200D02*
X344800D01*
X346800D02*
X384000D01*
X266000Y-138600D02*
X293200D01*
X295000D02*
X345000D01*
X346600D02*
X384000D01*
X266000Y-138800D02*
X384000D01*
X266000Y-139000D02*
X384000D01*
X266000Y-139200D02*
X384000D01*
X266000Y-139400D02*
X384000D01*
X266000Y-139600D02*
X384000D01*
X266000Y-139800D02*
X384000D01*
X266000Y-140000D02*
X384000D01*
X266000Y-140200D02*
X384000D01*
X266000Y-140400D02*
X384000D01*
X266000Y-140600D02*
X384000D01*
X266000Y-140800D02*
X384000D01*
X266000Y-141000D02*
X384000D01*
X266000Y-141200D02*
X384000D01*
X266000Y-141400D02*
X384000D01*
X266000Y-141600D02*
X383800D01*
X266000Y-141800D02*
X383800D01*
X266000Y-142000D02*
X383800D01*
X266000Y-142200D02*
X383600D01*
X266000Y-142400D02*
X383600D01*
X266000Y-142600D02*
X383600D01*
X266000Y-142800D02*
X383400D01*
X266000Y-143000D02*
X383400D01*
X266000Y-143200D02*
X383200D01*
X266000Y-143400D02*
X383200D01*
X266000Y-143600D02*
X383000D01*
X266000Y-143800D02*
X382800D01*
X266000Y-144000D02*
X382800D01*
X266000Y-144200D02*
X382600D01*
X266000Y-144400D02*
X382400D01*
X266000Y-144600D02*
X382200D01*
X266000Y-144800D02*
X382000D01*
X266000Y-145000D02*
X381800D01*
X266000Y-145200D02*
X381600D01*
X266000Y-145400D02*
X381400D01*
X266000Y-145600D02*
X381200D01*
X266000Y-145800D02*
X381000D01*
X266000Y-146000D02*
X380800D01*
X266000Y-146200D02*
X380400D01*
X266000Y-146400D02*
X380200D01*
X266000Y-146600D02*
X379800D01*
X266000Y-146800D02*
X379400D01*
X266000Y-147000D02*
X379000D01*
D57*
X409166Y-194001D02*
X408499Y-193335D01*
X407499Y-193001D01*
X406166D01*
X405166Y-193335D01*
X404500Y-194001D01*
Y-194668D01*
X404833Y-195334D01*
X405166Y-195668D01*
X405833Y-196001D01*
X407833Y-196667D01*
X408499Y-197001D01*
X408832Y-197334D01*
X409166Y-198000D01*
Y-199000D01*
X408499Y-199667D01*
X407499Y-200000D01*
X406166D01*
X405166Y-199667D01*
X404500Y-199000D01*
X410732Y-195334D02*
Y-202333D01*
Y-196334D02*
X411399Y-195668D01*
X412065Y-195334D01*
X413065D01*
X413731Y-195668D01*
X414398Y-196334D01*
X414731Y-197334D01*
Y-198000D01*
X414398Y-199000D01*
X413731Y-199667D01*
X413065Y-200000D01*
X412065D01*
X411399Y-199667D01*
X410732Y-199000D01*
X416897Y-193001D02*
X417231Y-193335D01*
X417564Y-193001D01*
X417231Y-192668D01*
X416897Y-193001D01*
X417231Y-195334D02*
Y-200000D01*
X418797Y-193001D02*
Y-200000D01*
X422130Y-195334D02*
X418797Y-198667D01*
X420130Y-197334D02*
X422463Y-200000D01*
X423563Y-197334D02*
X427562D01*
Y-196667D01*
X427228Y-196001D01*
X426895Y-195668D01*
X426229Y-195334D01*
X425229D01*
X424562Y-195668D01*
X423896Y-196334D01*
X423563Y-197334D01*
Y-198000D01*
X423896Y-199000D01*
X424562Y-199667D01*
X425229Y-200000D01*
X426229D01*
X426895Y-199667D01*
X427562Y-199000D01*
X438559Y-195334D02*
Y-200000D01*
Y-196334D02*
X437893Y-195668D01*
X437226Y-195334D01*
X436227D01*
X435560Y-195668D01*
X434894Y-196334D01*
X434560Y-197334D01*
Y-198000D01*
X434894Y-199000D01*
X435560Y-199667D01*
X436227Y-200000D01*
X437226D01*
X437893Y-199667D01*
X438559Y-199000D01*
X440426Y-195334D02*
Y-200000D01*
Y-196667D02*
X441425Y-195668D01*
X442092Y-195334D01*
X443092D01*
X443758Y-195668D01*
X444092Y-196667D01*
Y-200000D01*
X449924Y-193001D02*
Y-200000D01*
Y-196334D02*
X449257Y-195668D01*
X448591Y-195334D01*
X447591D01*
X446924Y-195668D01*
X446258Y-196334D01*
X445925Y-197334D01*
Y-198000D01*
X446258Y-199000D01*
X446924Y-199667D01*
X447591Y-200000D01*
X448591D01*
X449257Y-199667D01*
X449924Y-199000D01*
X457289Y-193001D02*
Y-200000D01*
X461954Y-193001D02*
Y-200000D01*
X457289Y-196334D02*
X461954D01*
X465554Y-195334D02*
X464887Y-195668D01*
X464221Y-196334D01*
X463887Y-197334D01*
Y-198000D01*
X464221Y-199000D01*
X464887Y-199667D01*
X465554Y-200000D01*
X466553D01*
X467220Y-199667D01*
X467886Y-199000D01*
X468220Y-198000D01*
Y-197334D01*
X467886Y-196334D01*
X467220Y-195668D01*
X466553Y-195334D01*
X465554D01*
X469753Y-193001D02*
Y-200000D01*
X475218Y-193001D02*
Y-200000D01*
Y-196334D02*
X474552Y-195668D01*
X473885Y-195334D01*
X472885D01*
X472219Y-195668D01*
X471552Y-196334D01*
X471219Y-197334D01*
Y-198000D01*
X471552Y-199000D01*
X472219Y-199667D01*
X472885Y-200000D01*
X473885D01*
X474552Y-199667D01*
X475218Y-199000D01*
X482583Y-196667D02*
X485583D01*
X486582Y-196334D01*
X486916Y-196001D01*
X487249Y-195334D01*
Y-194334D01*
X486916Y-193668D01*
X486582Y-193335D01*
X485583Y-193001D01*
X482583D01*
Y-200000D01*
X493814Y-194668D02*
X493481Y-194001D01*
X492814Y-193335D01*
X492148Y-193001D01*
X490815D01*
X490148Y-193335D01*
X489482Y-194001D01*
X489149Y-194668D01*
X488815Y-195668D01*
Y-197334D01*
X489149Y-198334D01*
X489482Y-199000D01*
X490148Y-199667D01*
X490815Y-200000D01*
X492148D01*
X492814Y-199667D01*
X493481Y-199000D01*
X493814Y-198334D01*
X495780Y-193001D02*
Y-200000D01*
Y-193001D02*
X498780D01*
X499780Y-193335D01*
X500113Y-193668D01*
X500446Y-194334D01*
Y-195001D01*
X500113Y-195668D01*
X499780Y-196001D01*
X498780Y-196334D01*
X495780D02*
X498780D01*
X499780Y-196667D01*
X500113Y-197001D01*
X500446Y-197667D01*
Y-198667D01*
X500113Y-199334D01*
X499780Y-199667D01*
X498780Y-200000D01*
X495780D01*
X507511Y-193001D02*
X510177Y-200000D01*
X512844Y-193001D02*
X510177Y-200000D01*
X514077Y-194668D02*
Y-194334D01*
X514410Y-193668D01*
X514743Y-193335D01*
X515410Y-193001D01*
X516743D01*
X517409Y-193335D01*
X517742Y-193668D01*
X518076Y-194334D01*
Y-195001D01*
X517742Y-195668D01*
X517076Y-196667D01*
X513743Y-200000D01*
X518409D01*
X520308Y-199334D02*
X519975Y-199667D01*
X520308Y-200000D01*
X520642Y-199667D01*
X520308Y-199334D01*
X522175Y-194334D02*
X522841Y-194001D01*
X523841Y-193001D01*
Y-200000D01*
X527640Y-199334D02*
X527307Y-199667D01*
X527640Y-200000D01*
X527974Y-199667D01*
X527640Y-199334D01*
X529506Y-196667D02*
X532506D01*
X533506Y-196334D01*
X533839Y-196001D01*
X534172Y-195334D01*
Y-194334D01*
X533839Y-193668D01*
X533506Y-193335D01*
X532506Y-193001D01*
X529506D01*
Y-200000D01*
X539738Y-196334D02*
X539071Y-195668D01*
X538405Y-195334D01*
X537405D01*
X536738Y-195668D01*
X536072Y-196334D01*
X535739Y-197334D01*
Y-198000D01*
X536072Y-199000D01*
X536738Y-199667D01*
X537405Y-200000D01*
X538405D01*
X539071Y-199667D01*
X539738Y-199000D01*
X541237Y-193001D02*
Y-200000D01*
Y-196334D02*
X541904Y-195668D01*
X542570Y-195334D01*
X543570D01*
X544237Y-195668D01*
X544903Y-196334D01*
X545236Y-197334D01*
Y-198000D01*
X544903Y-199000D01*
X544237Y-199667D01*
X543570Y-200000D01*
X542570D01*
X541904Y-199667D01*
X541237Y-199000D01*
X546736Y-193001D02*
Y-200000D01*
Y-193001D02*
X549069D01*
X550069Y-193335D01*
X550735Y-194001D01*
X551069Y-194668D01*
X551402Y-195668D01*
Y-197334D01*
X551069Y-198334D01*
X550735Y-199000D01*
X550069Y-199667D01*
X549069Y-200000D01*
X546736D01*
X554635Y-195334D02*
X553968Y-195668D01*
X553301Y-196334D01*
X552968Y-197334D01*
Y-198000D01*
X553301Y-199000D01*
X553968Y-199667D01*
X554635Y-200000D01*
X555634D01*
X556301Y-199667D01*
X556967Y-199000D01*
X557301Y-198000D01*
Y-197334D01*
X556967Y-196334D01*
X556301Y-195668D01*
X555634Y-195334D01*
X554635D01*
X562833Y-196334D02*
X562166Y-195668D01*
X561500Y-195334D01*
X560500D01*
X559833Y-195668D01*
X559167Y-196334D01*
X558834Y-197334D01*
Y-198000D01*
X559167Y-199000D01*
X559833Y-199667D01*
X560500Y-200000D01*
X561500D01*
X562166Y-199667D01*
X562833Y-199000D01*
X408832Y-165334D02*
X408499Y-166334D01*
X407833Y-167001D01*
X406833Y-167334D01*
X406500D01*
X405500Y-167001D01*
X404833Y-166334D01*
X404500Y-165334D01*
Y-165001D01*
X404833Y-164001D01*
X405500Y-163335D01*
X406500Y-163002D01*
X406833D01*
X407833Y-163335D01*
X408499Y-164001D01*
X408832Y-165334D01*
Y-167001D01*
X408499Y-168667D01*
X407833Y-169667D01*
X406833Y-170000D01*
X406166D01*
X405166Y-169667D01*
X404833Y-169000D01*
X410732Y-171000D02*
X415398Y-163002D01*
X416197Y-164668D02*
Y-164334D01*
X416531Y-163668D01*
X416864Y-163335D01*
X417530Y-163002D01*
X418864D01*
X419530Y-163335D01*
X419863Y-163668D01*
X420197Y-164334D01*
Y-165001D01*
X419863Y-165668D01*
X419197Y-166667D01*
X415864Y-170000D01*
X420530D01*
X426095Y-163002D02*
X422763D01*
X422430Y-166001D01*
X422763Y-165668D01*
X423763Y-165334D01*
X424762D01*
X425762Y-165668D01*
X426429Y-166334D01*
X426762Y-167334D01*
Y-168000D01*
X426429Y-169000D01*
X425762Y-169667D01*
X424762Y-170000D01*
X423763D01*
X422763Y-169667D01*
X422430Y-169334D01*
X422096Y-168667D01*
X428328Y-171000D02*
X432994Y-163002D01*
X433794Y-164668D02*
Y-164334D01*
X434127Y-163668D01*
X434460Y-163335D01*
X435127Y-163002D01*
X436460D01*
X437126Y-163335D01*
X437460Y-163668D01*
X437793Y-164334D01*
Y-165001D01*
X437460Y-165668D01*
X436793Y-166667D01*
X433461Y-170000D01*
X438126D01*
X441692Y-163002D02*
X440692Y-163335D01*
X440026Y-164334D01*
X439692Y-166001D01*
Y-167001D01*
X440026Y-168667D01*
X440692Y-169667D01*
X441692Y-170000D01*
X442359D01*
X443358Y-169667D01*
X444025Y-168667D01*
X444358Y-167001D01*
Y-166001D01*
X444025Y-164334D01*
X443358Y-163335D01*
X442359Y-163002D01*
X441692D01*
X445925Y-164334D02*
X446591Y-164001D01*
X447591Y-163002D01*
Y-170000D01*
X455722Y-163002D02*
X452390Y-170000D01*
X451057Y-163002D02*
X455722D01*
X274832Y-168000D02*
X272166Y-161002D01*
X269500Y-168000D01*
X270500Y-165667D02*
X273832D01*
X276465Y-161002D02*
Y-168000D01*
X278931Y-161002D02*
Y-166667D01*
X279265Y-167667D01*
X279931Y-168000D01*
X280598D01*
X277931Y-163334D02*
X280264D01*
X282264Y-161002D02*
X282597Y-161335D01*
X282930Y-161002D01*
X282597Y-160668D01*
X282264Y-161002D01*
X282597Y-163334D02*
Y-168000D01*
X284163Y-163334D02*
Y-166667D01*
X284497Y-167667D01*
X285163Y-168000D01*
X286163D01*
X286830Y-167667D01*
X287829Y-166667D01*
Y-163334D02*
Y-168000D01*
X289662Y-163334D02*
Y-168000D01*
Y-164667D02*
X290662Y-163668D01*
X291329Y-163334D01*
X292328D01*
X292995Y-163668D01*
X293328Y-164667D01*
Y-168000D01*
Y-164667D02*
X294328Y-163668D01*
X294994Y-163334D01*
X295994D01*
X296661Y-163668D01*
X296994Y-164667D01*
Y-168000D01*
X304693Y-161002D02*
Y-168000D01*
X308692D01*
X310125Y-161002D02*
X310458Y-161335D01*
X310791Y-161002D01*
X310458Y-160668D01*
X310125Y-161002D01*
X310458Y-163334D02*
Y-168000D01*
X312024Y-163334D02*
Y-168000D01*
Y-164667D02*
X313024Y-163668D01*
X313690Y-163334D01*
X314690D01*
X315357Y-163668D01*
X315690Y-164667D01*
Y-168000D01*
Y-164667D02*
X316690Y-163668D01*
X317356Y-163334D01*
X318356D01*
X319023Y-163668D01*
X319356Y-164667D01*
Y-168000D01*
X322222Y-161002D02*
X322555Y-161335D01*
X322889Y-161002D01*
X322555Y-160668D01*
X322222Y-161002D01*
X322555Y-163334D02*
Y-168000D01*
X325121Y-161002D02*
Y-166667D01*
X325455Y-167667D01*
X326121Y-168000D01*
X326788D01*
X324122Y-163334D02*
X326454D01*
X327787Y-165334D02*
X331787D01*
Y-164667D01*
X331453Y-164001D01*
X331120Y-163668D01*
X330454Y-163334D01*
X329454D01*
X328787Y-163668D01*
X328121Y-164334D01*
X327787Y-165334D01*
Y-166000D01*
X328121Y-167000D01*
X328787Y-167667D01*
X329454Y-168000D01*
X330454D01*
X331120Y-167667D01*
X331787Y-167000D01*
X337285Y-161002D02*
Y-168000D01*
Y-164334D02*
X336619Y-163668D01*
X335952Y-163334D01*
X334953D01*
X334286Y-163668D01*
X333620Y-164334D01*
X333286Y-165334D01*
Y-166000D01*
X333620Y-167000D01*
X334286Y-167667D01*
X334953Y-168000D01*
X335952D01*
X336619Y-167667D01*
X337285Y-167000D01*
X269500Y-172335D02*
X270166Y-172001D01*
X271166Y-171002D01*
Y-178000D01*
X274966Y-172668D02*
Y-172335D01*
X275299Y-171668D01*
X275632Y-171335D01*
X276298Y-171002D01*
X277632D01*
X278298Y-171335D01*
X278631Y-171668D01*
X278965Y-172335D01*
Y-173001D01*
X278631Y-173668D01*
X277965Y-174667D01*
X274632Y-178000D01*
X279298D01*
X284863Y-173334D02*
Y-178000D01*
Y-174334D02*
X284197Y-173668D01*
X283530Y-173334D01*
X282530D01*
X281864Y-173668D01*
X281198Y-174334D01*
X280864Y-175334D01*
Y-176000D01*
X281198Y-177000D01*
X281864Y-177667D01*
X282530Y-178000D01*
X283530D01*
X284197Y-177667D01*
X284863Y-177000D01*
X292229Y-171002D02*
Y-178000D01*
Y-171002D02*
X295228D01*
X296228Y-171335D01*
X296561Y-171668D01*
X296894Y-172335D01*
Y-173001D01*
X296561Y-173668D01*
X296228Y-174001D01*
X295228Y-174334D01*
X292229D01*
X294561D02*
X296894Y-178000D01*
X300127Y-173334D02*
X299460Y-173668D01*
X298794Y-174334D01*
X298461Y-175334D01*
Y-176000D01*
X298794Y-177000D01*
X299460Y-177667D01*
X300127Y-178000D01*
X301127D01*
X301793Y-177667D01*
X302460Y-177000D01*
X302793Y-176000D01*
Y-175334D01*
X302460Y-174334D01*
X301793Y-173668D01*
X301127Y-173334D01*
X300127D01*
X308325Y-171002D02*
Y-178000D01*
Y-174334D02*
X307659Y-173668D01*
X306992Y-173334D01*
X305992D01*
X305326Y-173668D01*
X304659Y-174334D01*
X304326Y-175334D01*
Y-176000D01*
X304659Y-177000D01*
X305326Y-177667D01*
X305992Y-178000D01*
X306992D01*
X307659Y-177667D01*
X308325Y-177000D01*
X310191Y-171002D02*
Y-178000D01*
Y-174334D02*
X310858Y-173668D01*
X311524Y-173334D01*
X312524D01*
X313191Y-173668D01*
X313857Y-174334D01*
X314190Y-175334D01*
Y-176000D01*
X313857Y-177000D01*
X313191Y-177667D01*
X312524Y-178000D01*
X311524D01*
X310858Y-177667D01*
X310191Y-177000D01*
X317356Y-173334D02*
X316690Y-173668D01*
X316023Y-174334D01*
X315690Y-175334D01*
Y-176000D01*
X316023Y-177000D01*
X316690Y-177667D01*
X317356Y-178000D01*
X318356D01*
X319023Y-177667D01*
X319689Y-177000D01*
X320023Y-176000D01*
Y-175334D01*
X319689Y-174334D01*
X319023Y-173668D01*
X318356Y-173334D01*
X317356D01*
X321555D02*
Y-178000D01*
Y-175334D02*
X321889Y-174334D01*
X322555Y-173668D01*
X323222Y-173334D01*
X324222D01*
X326521D02*
X325855Y-173668D01*
X325188Y-174334D01*
X324855Y-175334D01*
Y-176000D01*
X325188Y-177000D01*
X325855Y-177667D01*
X326521Y-178000D01*
X327521D01*
X328187Y-177667D01*
X328854Y-177000D01*
X329187Y-176000D01*
Y-175334D01*
X328854Y-174334D01*
X328187Y-173668D01*
X327521Y-173334D01*
X326521D01*
X330720D02*
Y-176667D01*
X331053Y-177667D01*
X331720Y-178000D01*
X332720D01*
X333386Y-177667D01*
X334386Y-176667D01*
Y-173334D02*
Y-178000D01*
X340218Y-173334D02*
Y-178666D01*
X339885Y-179666D01*
X339552Y-180000D01*
X338885Y-180333D01*
X337885D01*
X337219Y-180000D01*
X340218Y-174334D02*
X339552Y-173668D01*
X338885Y-173334D01*
X337885D01*
X337219Y-173668D01*
X336552Y-174334D01*
X336219Y-175334D01*
Y-176000D01*
X336552Y-177000D01*
X337219Y-177667D01*
X337885Y-178000D01*
X338885D01*
X339552Y-177667D01*
X340218Y-177000D01*
X342084Y-171002D02*
Y-178000D01*
Y-174667D02*
X343084Y-173668D01*
X343751Y-173334D01*
X344750D01*
X345417Y-173668D01*
X345750Y-174667D01*
Y-178000D01*
X353082Y-171002D02*
Y-178000D01*
Y-171002D02*
X356081D01*
X357081Y-171335D01*
X357415Y-171668D01*
X357748Y-172335D01*
Y-173001D01*
X357415Y-173668D01*
X357081Y-174001D01*
X356081Y-174334D01*
X353082D01*
X355415D02*
X357748Y-178000D01*
X363313Y-171002D02*
Y-178000D01*
Y-174334D02*
X362647Y-173668D01*
X361980Y-173334D01*
X360980D01*
X360314Y-173668D01*
X359647Y-174334D01*
X359314Y-175334D01*
Y-176000D01*
X359647Y-177000D01*
X360314Y-177667D01*
X360980Y-178000D01*
X361980D01*
X362647Y-177667D01*
X363313Y-177000D01*
X269500Y-181001D02*
Y-188000D01*
Y-181001D02*
X273832D01*
X269500Y-184334D02*
X272166D01*
X274632Y-183334D02*
Y-188000D01*
Y-185334D02*
X274966Y-184334D01*
X275632Y-183668D01*
X276298Y-183334D01*
X277298D01*
X277931Y-185334D02*
X281931D01*
Y-184667D01*
X281597Y-184001D01*
X281264Y-183668D01*
X280598Y-183334D01*
X279598D01*
X278931Y-183668D01*
X278265Y-184334D01*
X277931Y-185334D01*
Y-186000D01*
X278265Y-187000D01*
X278931Y-187667D01*
X279598Y-188000D01*
X280598D01*
X281264Y-187667D01*
X281931Y-187000D01*
X283430Y-183334D02*
Y-188000D01*
Y-184667D02*
X284430Y-183668D01*
X285097Y-183334D01*
X286096D01*
X286763Y-183668D01*
X287096Y-184667D01*
Y-188000D01*
X292928Y-184334D02*
X292262Y-183668D01*
X291595Y-183334D01*
X290596D01*
X289929Y-183668D01*
X289262Y-184334D01*
X288929Y-185334D01*
Y-186000D01*
X289262Y-187000D01*
X289929Y-187667D01*
X290596Y-188000D01*
X291595D01*
X292262Y-187667D01*
X292928Y-187000D01*
X294428Y-181001D02*
Y-188000D01*
Y-184667D02*
X295428Y-183668D01*
X296094Y-183334D01*
X297094D01*
X297761Y-183668D01*
X298094Y-184667D01*
Y-188000D01*
X303593Y-184334D02*
X303259Y-183668D01*
X302260Y-183334D01*
X301260D01*
X300260Y-183668D01*
X299927Y-184334D01*
X300260Y-185001D01*
X300927Y-185334D01*
X302593Y-185667D01*
X303259Y-186000D01*
X303593Y-186667D01*
Y-187000D01*
X303259Y-187667D01*
X302260Y-188000D01*
X301260D01*
X300260Y-187667D01*
X299927Y-187000D01*
X310558Y-181001D02*
Y-188000D01*
Y-181001D02*
X314890D01*
X310558Y-184334D02*
X313224D01*
X317356Y-183334D02*
X316690Y-183668D01*
X316023Y-184334D01*
X315690Y-185334D01*
Y-186000D01*
X316023Y-187000D01*
X316690Y-187667D01*
X317356Y-188000D01*
X318356D01*
X319023Y-187667D01*
X319689Y-187000D01*
X320023Y-186000D01*
Y-185334D01*
X319689Y-184334D01*
X319023Y-183668D01*
X318356Y-183334D01*
X317356D01*
X321555D02*
Y-188000D01*
Y-185334D02*
X321889Y-184334D01*
X322555Y-183668D01*
X323222Y-183334D01*
X324222D01*
X324855Y-185334D02*
X328854D01*
Y-184667D01*
X328521Y-184001D01*
X328187Y-183668D01*
X327521Y-183334D01*
X326521D01*
X325855Y-183668D01*
X325188Y-184334D01*
X324855Y-185334D01*
Y-186000D01*
X325188Y-187000D01*
X325855Y-187667D01*
X326521Y-188000D01*
X327521D01*
X328187Y-187667D01*
X328854Y-187000D01*
X334019Y-184334D02*
X333686Y-183668D01*
X332686Y-183334D01*
X331687D01*
X330687Y-183668D01*
X330354Y-184334D01*
X330687Y-185001D01*
X331353Y-185334D01*
X333020Y-185667D01*
X333686Y-186000D01*
X334019Y-186667D01*
Y-187000D01*
X333686Y-187667D01*
X332686Y-188000D01*
X331687D01*
X330687Y-187667D01*
X330354Y-187000D01*
X336486Y-181001D02*
Y-186667D01*
X336819Y-187667D01*
X337485Y-188000D01*
X338152D01*
X335486Y-183334D02*
X337819D01*
X269500Y-191001D02*
Y-198000D01*
Y-191001D02*
X274166Y-198000D01*
Y-191001D02*
Y-198000D01*
X280764Y-192001D02*
X280098Y-191335D01*
X279098Y-191001D01*
X277765D01*
X276765Y-191335D01*
X276099Y-192001D01*
Y-192668D01*
X276432Y-193334D01*
X276765Y-193668D01*
X277432Y-194001D01*
X279431Y-194667D01*
X280098Y-195001D01*
X280431Y-195334D01*
X280764Y-196000D01*
Y-197000D01*
X280098Y-197667D01*
X279098Y-198000D01*
X277765D01*
X276765Y-197667D01*
X276099Y-197000D01*
X282331Y-191001D02*
X283997Y-198000D01*
X285663Y-191001D02*
X283997Y-198000D01*
X285663Y-191001D02*
X287330Y-198000D01*
X288996Y-191001D02*
X287330Y-198000D01*
X296228Y-192668D02*
Y-192334D01*
X296561Y-191668D01*
X296894Y-191335D01*
X297561Y-191001D01*
X298894D01*
X299560Y-191335D01*
X299893Y-191668D01*
X300227Y-192334D01*
Y-193001D01*
X299893Y-193668D01*
X299227Y-194667D01*
X295894Y-198000D01*
X300560D01*
X304126Y-191001D02*
X303126Y-191335D01*
X302460Y-192334D01*
X302126Y-194001D01*
Y-195001D01*
X302460Y-196667D01*
X303126Y-197667D01*
X304126Y-198000D01*
X304792D01*
X305792Y-197667D01*
X306459Y-196667D01*
X306792Y-195001D01*
Y-194001D01*
X306459Y-192334D01*
X305792Y-191335D01*
X304792Y-191001D01*
X304126D01*
X310025D02*
X309025Y-191335D01*
X308692Y-192001D01*
Y-192668D01*
X309025Y-193334D01*
X309691Y-193668D01*
X311024Y-194001D01*
X312024Y-194334D01*
X312691Y-195001D01*
X313024Y-195667D01*
Y-196667D01*
X312691Y-197334D01*
X312357Y-197667D01*
X311358Y-198000D01*
X310025D01*
X309025Y-197667D01*
X308692Y-197334D01*
X308358Y-196667D01*
Y-195667D01*
X308692Y-195001D01*
X309358Y-194334D01*
X310358Y-194001D01*
X311691Y-193668D01*
X312357Y-193334D01*
X312691Y-192668D01*
Y-192001D01*
X312357Y-191335D01*
X311358Y-191001D01*
X310025D01*
X318589Y-192001D02*
X318256Y-191335D01*
X317256Y-191001D01*
X316590D01*
X315590Y-191335D01*
X314924Y-192334D01*
X314590Y-194001D01*
Y-195667D01*
X314924Y-197000D01*
X315590Y-197667D01*
X316590Y-198000D01*
X316923D01*
X317923Y-197667D01*
X318589Y-197000D01*
X318923Y-196000D01*
Y-195667D01*
X318589Y-194667D01*
X317923Y-194001D01*
X316923Y-193668D01*
X316590D01*
X315590Y-194001D01*
X314924Y-194667D01*
X314590Y-195667D01*
X721699Y-221500D02*
Y-214502D01*
X718200Y-218001D01*
X722865D01*
X431200Y-215669D02*
X432366Y-214502D01*
X434699D01*
X435865Y-215669D01*
Y-216835D01*
X434699Y-218001D01*
X433533D01*
X434699D01*
X435865Y-219167D01*
Y-220334D01*
X434699Y-221500D01*
X432366D01*
X431200Y-220334D01*
X147865Y-221500D02*
X143200D01*
X147865Y-216835D01*
Y-215669D01*
X146699Y-214502D01*
X144366D01*
X143200Y-215669D01*
X-96355Y-245000D02*
X-95689Y-244667D01*
X-94689Y-243667D01*
Y-250665D01*
X721533Y525498D02*
X718200Y520833D01*
X723199D01*
X721533Y525498D02*
Y518500D01*
X431867Y525498D02*
X435532D01*
X433533Y522832D01*
X434533D01*
X435199Y522499D01*
X435532Y522166D01*
X435866Y521166D01*
Y520500D01*
X435532Y519500D01*
X434866Y518833D01*
X433866Y518500D01*
X432866D01*
X431867Y518833D01*
X431533Y519167D01*
X431200Y519833D01*
X143533Y523832D02*
Y524165D01*
X143867Y524832D01*
X144200Y525165D01*
X144866Y525498D01*
X146199D01*
X146866Y525165D01*
X147199Y524832D01*
X147532Y524165D01*
Y523499D01*
X147199Y522832D01*
X146533Y521833D01*
X143200Y518500D01*
X147866D01*
X-142800Y524165D02*
X-142133Y524499D01*
X-141134Y525498D01*
Y518500D01*
X-278000Y-134301D02*
Y-141300D01*
Y-134301D02*
X-275667D01*
X-274667Y-134635D01*
X-274001Y-135301D01*
X-273668Y-135968D01*
X-273334Y-136968D01*
Y-138634D01*
X-273668Y-139634D01*
X-274001Y-140300D01*
X-274667Y-140967D01*
X-275667Y-141300D01*
X-278000D01*
X-273001Y53032D02*
X-273334Y53699D01*
X-274001Y54365D01*
X-274667Y54698D01*
X-276000D01*
X-276667Y54365D01*
X-277333Y53699D01*
X-277667Y53032D01*
X-278000Y52032D01*
Y50366D01*
X-277667Y49366D01*
X-277333Y48700D01*
X-276667Y48033D01*
X-276000Y47700D01*
X-274667D01*
X-274001Y48033D01*
X-273334Y48700D01*
X-273001Y49366D01*
X-278000Y245698D02*
Y238700D01*
Y245698D02*
X-275001D01*
X-274001Y245365D01*
X-273668Y245032D01*
X-273334Y244366D01*
Y243699D01*
X-273668Y243032D01*
X-274001Y242699D01*
X-275001Y242366D01*
X-278000D02*
X-275001D01*
X-274001Y242033D01*
X-273668Y241699D01*
X-273334Y241033D01*
Y240033D01*
X-273668Y239367D01*
X-274001Y239033D01*
X-275001Y238700D01*
X-278000D01*
X-272668Y427900D02*
X-275334Y434899D01*
X-278000Y427900D01*
X-277000Y430233D02*
X-273668D01*
X852000Y-134301D02*
Y-141300D01*
Y-134301D02*
X854333D01*
X855333Y-134635D01*
X855999Y-135301D01*
X856332Y-135968D01*
X856666Y-136968D01*
Y-138634D01*
X856332Y-139634D01*
X855999Y-140300D01*
X855333Y-140967D01*
X854333Y-141300D01*
X852000D01*
X256637Y206969D02*
X256304Y207636D01*
X255637Y208302D01*
X254970Y208635D01*
X253637D01*
X252971Y208302D01*
X252304Y207636D01*
X251971Y206969D01*
X251638Y205969D01*
Y204303D01*
X251971Y203303D01*
X252304Y202637D01*
X252971Y201970D01*
X253637Y201637D01*
X254970D01*
X255637Y201970D01*
X256304Y202637D01*
X256637Y203303D01*
X852000Y245698D02*
Y238700D01*
Y245698D02*
X854999D01*
X855999Y245365D01*
X856332Y245032D01*
X856666Y244366D01*
Y243699D01*
X856332Y243032D01*
X855999Y242699D01*
X854999Y242366D01*
X852000D02*
X854999D01*
X855999Y242033D01*
X856332Y241699D01*
X856666Y241033D01*
Y240033D01*
X856332Y239367D01*
X855999Y239033D01*
X854999Y238700D01*
X852000D01*
X857332Y427900D02*
X854666Y434899D01*
X852000Y427900D01*
X853000Y430233D02*
X856332D01*
M02*
