G04 Layer_Color=8421504*
%FSLAX25Y25*%
%MOIN*%
G70*
G01*
G75*
%ADD10R,0.03543X0.03150*%
%ADD11R,0.03150X0.03543*%
%ADD12R,0.06299X0.11811*%
%ADD13R,0.22835X0.24410*%
G04:AMPARAMS|DCode=14|XSize=21.65mil|YSize=49.21mil|CornerRadius=1.95mil|HoleSize=0mil|Usage=FLASHONLY|Rotation=270.000|XOffset=0mil|YOffset=0mil|HoleType=Round|Shape=RoundedRectangle|*
%AMROUNDEDRECTD14*
21,1,0.02165,0.04532,0,0,270.0*
21,1,0.01776,0.04921,0,0,270.0*
1,1,0.00390,-0.02266,-0.00888*
1,1,0.00390,-0.02266,0.00888*
1,1,0.00390,0.02266,0.00888*
1,1,0.00390,0.02266,-0.00888*
%
%ADD14ROUNDEDRECTD14*%
%ADD15R,0.02205X0.02047*%
%ADD16R,0.03543X0.03150*%
%ADD17R,0.06693X0.03740*%
D10*
X133858Y299016D02*
D03*
Y291535D02*
D03*
X141732Y295276D02*
D03*
D11*
X281693Y173228D02*
D03*
X289173D02*
D03*
X285433Y181102D02*
D03*
D12*
X156654Y225197D02*
D03*
X138622D02*
D03*
X284606Y313779D02*
D03*
X266575D02*
D03*
D13*
X147638Y196850D02*
D03*
X275591Y285433D02*
D03*
D14*
X266240Y169665D02*
D03*
Y174665D02*
D03*
Y179665D02*
D03*
Y184665D02*
D03*
X245571Y169665D02*
D03*
Y174665D02*
D03*
Y179665D02*
D03*
Y184665D02*
D03*
D15*
X205197Y118110D02*
D03*
X208189D02*
D03*
D16*
X223610Y165224D02*
D03*
Y170146D02*
D03*
D17*
X196850Y182677D02*
D03*
Y171654D02*
D03*
M02*
