G04 Layer_Color=65535*
%FSLAX25Y25*%
%MOIN*%
G70*
G01*
G75*
%ADD18C,0.01000*%
%ADD29C,0.00984*%
%ADD30C,0.02362*%
%ADD31C,0.00787*%
%ADD32R,0.10698X0.03736*%
%ADD33R,0.11024X0.03150*%
%ADD34R,0.03150X0.11024*%
D18*
X266856Y324181D02*
Y328179D01*
X265857Y329179D01*
X263857D01*
X262858Y328179D01*
Y324181D01*
X263857Y323181D01*
X265857D01*
X264857Y325180D02*
X266856Y323181D01*
X265857D02*
X266856Y324181D01*
X268856Y328179D02*
X269855Y329179D01*
X271855D01*
X272854Y328179D01*
Y327180D01*
X271855Y326180D01*
X270855D01*
X271855D01*
X272854Y325180D01*
Y324181D01*
X271855Y323181D01*
X269855D01*
X268856Y324181D01*
X164415Y125000D02*
Y130998D01*
X167414D01*
X168414Y129998D01*
Y127999D01*
X167414Y126999D01*
X164415D01*
X174412Y125000D02*
X170413D01*
X174412Y128999D01*
Y129998D01*
X173412Y130998D01*
X171413D01*
X170413Y129998D01*
X262783Y248187D02*
Y254185D01*
X265782D01*
X266781Y253186D01*
Y251186D01*
X265782Y250187D01*
X262783D01*
X268781Y248187D02*
X270780D01*
X269780D01*
Y254185D01*
X268781Y253186D01*
X188846Y133956D02*
X187846Y134956D01*
X185847D01*
X184847Y133956D01*
Y129957D01*
X185847Y128957D01*
X187846D01*
X188846Y129957D01*
X190845Y128957D02*
X192845D01*
X191845D01*
Y134956D01*
X190845Y133956D01*
X220686Y198531D02*
X219686Y199530D01*
X217687D01*
X216687Y198531D01*
Y194532D01*
X217687Y193532D01*
X219686D01*
X220686Y194532D01*
X226684Y193532D02*
X222686D01*
X226684Y197531D01*
Y198531D01*
X225684Y199530D01*
X223685D01*
X222686Y198531D01*
X193926Y208053D02*
X192927Y209053D01*
X190927D01*
X189928Y208053D01*
Y204055D01*
X190927Y203055D01*
X192927D01*
X193926Y204055D01*
X195926Y208053D02*
X196925Y209053D01*
X198925D01*
X199924Y208053D01*
Y207054D01*
X198925Y206054D01*
X197925D01*
X198925D01*
X199924Y205054D01*
Y204055D01*
X198925Y203055D01*
X196925D01*
X195926Y204055D01*
X231987Y142898D02*
Y136900D01*
X234986D01*
X235986Y137900D01*
Y141898D01*
X234986Y142898D01*
X231987D01*
X237985Y136900D02*
X239985D01*
X238985D01*
Y142898D01*
X237985Y141898D01*
X211658Y289871D02*
Y283872D01*
X214656D01*
X215656Y284872D01*
Y288871D01*
X214656Y289871D01*
X211658D01*
X221654Y283872D02*
X217655D01*
X221654Y287871D01*
Y288871D01*
X220655Y289871D01*
X218655D01*
X217655Y288871D01*
X179345Y255190D02*
Y249192D01*
X182344D01*
X183344Y250192D01*
Y254190D01*
X182344Y255190D01*
X179345D01*
X185343Y254190D02*
X186343Y255190D01*
X188342D01*
X189342Y254190D01*
Y253191D01*
X188342Y252191D01*
X187342D01*
X188342D01*
X189342Y251191D01*
Y250192D01*
X188342Y249192D01*
X186343D01*
X185343Y250192D01*
X231272Y289856D02*
Y283857D01*
X234272D01*
X235271Y284857D01*
Y288856D01*
X234272Y289856D01*
X231272D01*
X240269Y283857D02*
Y289856D01*
X237270Y286857D01*
X241269D01*
X280671Y190900D02*
Y194898D01*
X279672Y195898D01*
X277672D01*
X276672Y194898D01*
Y190900D01*
X277672Y189900D01*
X279672D01*
X278672Y191899D02*
X280671Y189900D01*
X279672D02*
X280671Y190900D01*
X282670Y189900D02*
X284670D01*
X283670D01*
Y195898D01*
X282670Y194898D01*
X130244Y309025D02*
Y313024D01*
X129244Y314024D01*
X127245D01*
X126245Y313024D01*
Y309025D01*
X127245Y308026D01*
X129244D01*
X128245Y310025D02*
X130244Y308026D01*
X129244D02*
X130244Y309025D01*
X136242Y308026D02*
X132243D01*
X136242Y312024D01*
Y313024D01*
X135242Y314024D01*
X133243D01*
X132243Y313024D01*
X138899Y235638D02*
Y239637D01*
X137899Y240637D01*
X135900D01*
X134900Y239637D01*
Y235638D01*
X135900Y234639D01*
X137899D01*
X136899Y236638D02*
X138899Y234639D01*
X137899D02*
X138899Y235638D01*
X143897Y234639D02*
Y240637D01*
X140898Y237638D01*
X144897D01*
X219060Y114643D02*
Y120641D01*
X222059D01*
X223059Y119641D01*
Y117642D01*
X222059Y116642D01*
X219060D01*
X221059D02*
X223059Y114643D01*
X225058D02*
X227057D01*
X226058D01*
Y120641D01*
X225058Y119641D01*
X238770Y154058D02*
Y160055D01*
X241769D01*
X242769Y159056D01*
Y157056D01*
X241769Y156057D01*
X238770D01*
X240769D02*
X242769Y154058D01*
X248767D02*
X244768D01*
X248767Y158056D01*
Y159056D01*
X247767Y160055D01*
X245768D01*
X244768Y159056D01*
X155043Y178600D02*
Y184598D01*
X158042D01*
X159041Y183598D01*
Y181599D01*
X158042Y180599D01*
X155043D01*
X157042D02*
X159041Y178600D01*
X161041Y183598D02*
X162040Y184598D01*
X164040D01*
X165039Y183598D01*
Y182599D01*
X164040Y181599D01*
X163040D01*
X164040D01*
X165039Y180599D01*
Y179600D01*
X164040Y178600D01*
X162040D01*
X161041Y179600D01*
X155070Y281758D02*
Y287756D01*
X158069D01*
X159069Y286756D01*
Y284757D01*
X158069Y283757D01*
X155070D01*
X157069D02*
X159069Y281758D01*
X164067D02*
Y287756D01*
X161068Y284757D01*
X165067D01*
X238730Y213057D02*
Y219056D01*
X241729D01*
X242729Y218056D01*
Y216056D01*
X241729Y215057D01*
X238730D01*
X240729D02*
X242729Y213057D01*
X248727Y219056D02*
X244728D01*
Y216056D01*
X246727Y217056D01*
X247727D01*
X248727Y216056D01*
Y214057D01*
X247727Y213057D01*
X245728D01*
X244728Y214057D01*
X179702Y331157D02*
Y337156D01*
X182701D01*
X183701Y336156D01*
Y334156D01*
X182701Y333157D01*
X179702D01*
X181702D02*
X183701Y331157D01*
X189699Y337156D02*
X187700Y336156D01*
X185700Y334156D01*
Y332157D01*
X186700Y331157D01*
X188699D01*
X189699Y332157D01*
Y333157D01*
X188699Y334156D01*
X185700D01*
X179715Y311543D02*
Y317541D01*
X182714D01*
X183714Y316541D01*
Y314542D01*
X182714Y313542D01*
X179715D01*
X181714D02*
X183714Y311543D01*
X185713Y317541D02*
X189712D01*
Y316541D01*
X185713Y312542D01*
Y311543D01*
X243587Y196513D02*
Y191515D01*
X244587Y190515D01*
X246586D01*
X247586Y191515D01*
Y196513D01*
X249586Y190515D02*
X251585D01*
X250585D01*
Y196513D01*
X249586Y195513D01*
D29*
X150256Y118110D02*
G03*
X150256Y118110I-492J0D01*
G01*
X266240Y218661D02*
G03*
X266240Y218661I-492J0D01*
G01*
X134351Y302756D02*
G03*
X134351Y302756I-492J0D01*
G01*
X278445Y173228D02*
G03*
X278445Y173228I-492J0D01*
G01*
X162461Y225197D02*
G03*
X162461Y225197I-492J0D01*
G01*
X290413Y313779D02*
G03*
X290413Y313779I-492J0D01*
G01*
X266732Y166417D02*
G03*
X266732Y166417I-492J0D01*
G01*
D30*
X259449Y171260D02*
G03*
X259449Y171260I-1181J0D01*
G01*
D31*
X152323Y106693D02*
Y129528D01*
X192323D01*
Y106693D02*
Y129528D01*
X152323Y106693D02*
X192323D01*
X254331Y221220D02*
X277165D01*
X254331D02*
Y261220D01*
X277165D01*
Y221220D02*
Y261220D01*
X137146Y301024D02*
X140354D01*
Y298425D02*
Y301024D01*
X137146Y289528D02*
X140354D01*
Y292126D01*
X279685Y176516D02*
Y179724D01*
X282283D01*
X291181Y176516D02*
Y179724D01*
X288583D02*
X291181D01*
X160512Y209657D02*
Y214173D01*
X134764D02*
X160512D01*
X134764Y209657D02*
Y214173D01*
X288465Y298240D02*
Y302756D01*
X262717D02*
X288465D01*
X262717Y298240D02*
Y302756D01*
X178886Y214536D02*
X189595D01*
X178886D02*
Y235008D01*
X189595D01*
Y214536D02*
Y235008D01*
X222047Y245472D02*
Y266339D01*
X211024Y245472D02*
Y266339D01*
Y245472D02*
X222047D01*
X157480Y249691D02*
Y250591D01*
Y270591D02*
Y271491D01*
X154480Y250591D02*
X157480D01*
X154480D02*
Y270591D01*
X160480D01*
Y250591D02*
Y270591D01*
X157480Y250591D02*
X160480D01*
X241732Y245472D02*
Y266338D01*
X230709Y245472D02*
Y266338D01*
Y245472D02*
X241732D01*
X157480Y146580D02*
Y147480D01*
Y167480D02*
Y168380D01*
X154480Y147480D02*
X157480D01*
X154480D02*
Y167480D01*
X160480D01*
Y147480D02*
Y167480D01*
X157480Y147480D02*
X160480D01*
X206850Y324803D02*
X207750D01*
X185950D02*
X186850D01*
X206850Y321803D02*
Y324803D01*
X186850Y321803D02*
X206850D01*
X186850D02*
Y327803D01*
X206850D01*
Y324803D02*
Y327803D01*
Y305118D02*
X207750D01*
X185950D02*
X186850D01*
X206850Y302118D02*
Y305118D01*
X186850Y302118D02*
X206850D01*
X186850D02*
Y308118D01*
X206850D01*
Y305118D02*
Y308118D01*
X245472Y122441D02*
X266339D01*
X245472Y133465D02*
X266339D01*
X245472Y122441D02*
Y133465D01*
X246220Y108268D02*
X247120D01*
X225320D02*
X226220D01*
X246220Y105268D02*
Y108268D01*
X226220Y105268D02*
X246220D01*
X226220D02*
Y111268D01*
X246220D01*
Y108268D02*
Y111268D01*
X262205Y167323D02*
Y187008D01*
X249606Y167323D02*
Y187008D01*
Y167323D02*
X262205D01*
X249606Y187008D02*
X262205D01*
X245005Y147638D02*
X245905D01*
X265905D02*
X266805D01*
X245905D02*
Y150638D01*
X265905D01*
Y144638D02*
Y150638D01*
X245905Y144638D02*
X265905D01*
X245905D02*
Y147638D01*
X245005Y206693D02*
X245905D01*
X265905D02*
X266805D01*
X245905D02*
Y209693D01*
X265905D01*
Y203693D02*
Y209693D01*
X245905Y203693D02*
X265905D01*
X245905D02*
Y206693D01*
X199803Y175000D02*
Y179331D01*
X193898Y175000D02*
Y179331D01*
D32*
X184246Y216404D02*
D03*
D33*
X216534Y265157D02*
D03*
X236217Y265157D02*
D03*
D34*
X265157Y127952D02*
D03*
M02*
